M48
; DRILL file {KiCad 8.0.0} date 2024-07-08T15:04:36+0700
; FORMAT={-:-/ absolute / inch / decimal}
; #@! TF.CreationDate,2024-07-08T15:04:36+07:00
; #@! TF.GenerationSoftware,Kicad,Pcbnew,8.0.0
; #@! TF.FileFunction,Plated,1,2,PTH
FMAT,2
INCH
; #@! TA.AperFunction,Plated,PTH,ViaDrill
T1C0.0079
; #@! TA.AperFunction,Plated,PTH,ComponentDrill
T2C0.0079
; #@! TA.AperFunction,Plated,PTH,ViaDrill
T3C0.0118
; #@! TA.AperFunction,Plated,PTH,ViaDrill
T4C0.0157
; #@! TA.AperFunction,Plated,PTH,ComponentDrill
T5C0.0197
; #@! TA.AperFunction,Plated,PTH,ViaDrill
T6C0.0236
; #@! TA.AperFunction,Plated,PTH,ComponentDrill
T7C0.0236
; #@! TA.AperFunction,Plated,PTH,ComponentDrill
T8C0.0276
; #@! TA.AperFunction,Plated,PTH,ComponentDrill
T9C0.0315
; #@! TA.AperFunction,Plated,PTH,ComponentDrill
T10C0.0350
; #@! TA.AperFunction,Plated,PTH,ComponentDrill
T11C0.0354
; #@! TA.AperFunction,Plated,PTH,ComponentDrill
T12C0.0360
; #@! TA.AperFunction,Plated,PTH,ComponentDrill
T13C0.0374
; #@! TA.AperFunction,Plated,PTH,ComponentDrill
T14C0.0394
; #@! TA.AperFunction,Plated,PTH,ComponentDrill
T15C0.0402
; #@! TA.AperFunction,Plated,PTH,ComponentDrill
T16C0.0433
; #@! TA.AperFunction,Plated,PTH,ComponentDrill
T17C0.0472
; #@! TA.AperFunction,Plated,PTH,ComponentDrill
T18C0.0512
; #@! TA.AperFunction,Plated,PTH,ComponentDrill
T19C0.0591
; #@! TA.AperFunction,Plated,PTH,ComponentDrill
T20C0.0610
; #@! TA.AperFunction,Plated,PTH,ComponentDrill
T21C0.0642
; #@! TA.AperFunction,Plated,PTH,ComponentDrill
T22C0.0866
; #@! TA.AperFunction,Plated,PTH,ComponentDrill
T23C0.1260
%
G90
G05
T1
X2.4114Y-3.9311
X3.563Y-3.7402
X3.6024Y-3.7402
X3.6417Y-3.7402
X3.6811Y-3.7402
X3.7205Y-3.7402
X3.7598Y-3.7402
X3.7992Y-3.7402
X3.8386Y-3.7402
X3.878Y-3.7402
X3.9173Y-3.7402
X3.9567Y-3.7402
X3.9961Y-3.7402
X4.0354Y-3.7402
X4.0748Y-3.7402
X4.1142Y-3.7402
X4.1535Y-3.7402
X4.1929Y-3.7402
X4.2323Y-3.7402
X4.2717Y-3.7402
X4.311Y-3.7402
X4.3504Y-3.7402
X4.3898Y-3.7402
X4.4291Y-3.7402
X4.4685Y-3.7402
X4.5079Y-3.7402
X4.5472Y-3.7402
X7.0079Y-5.3957
X7.0079Y-5.435
X7.2343Y-5.4616
X7.6161Y-4.9616
X7.6161Y-5.0108
X7.6161Y-5.06
X7.6161Y-5.1093
X8.6752Y-3.5167
X8.6988Y-3.4902
X9.0846Y-3.9291
T2
X9.0856Y-5.1811
X9.0856Y-5.2087
X9.0856Y-5.2362
X9.0856Y-5.2638
X9.1132Y-5.2087
X9.1132Y-5.2362
X9.1132Y-5.1811
X9.1132Y-5.2638
X9.1407Y-5.1811
X9.1407Y-5.2638
X9.1407Y-5.2087
X9.1407Y-5.2362
X9.1683Y-5.1811
X9.1683Y-5.2087
X9.1683Y-5.2362
X9.1683Y-5.2638
X9.7389Y-4.383
X9.7389Y-4.4223
X9.7389Y-4.4617
X9.7782Y-4.383
X9.7782Y-4.4223
X9.7782Y-4.4617
X9.8176Y-4.383
X9.8176Y-4.4223
X9.8176Y-4.4617
X9.8333Y-3.1679
X9.8333Y-3.223
X9.8608Y-3.1404
X9.8608Y-3.1955
X9.8608Y-3.2506
X9.8884Y-3.1679
X9.8884Y-3.223
X9.9159Y-3.1404
X9.9159Y-3.1955
X9.9159Y-3.2506
X9.9435Y-3.1679
X9.9435Y-3.223
T3
X3.0187Y-2.9665
X3.6634Y-2.9665
X3.7504Y-3.9169
X3.7921Y-3.9197
X4.1602Y-5.4224
X4.2508Y-5.0173
X4.3071Y-2.9665
X4.4311Y-5.5502
X4.4803Y-5.1524
X4.4803Y-5.1917
X4.4803Y-5.2311
X4.4803Y-5.2705
X4.4803Y-5.3098
X4.5197Y-5.1524
X4.5197Y-5.1917
X4.5197Y-5.2311
X4.5197Y-5.2705
X4.5197Y-5.3098
X4.5591Y-5.1524
X4.5591Y-5.1917
X4.5591Y-5.2311
X4.5591Y-5.2705
X4.5591Y-5.3098
X4.5984Y-5.1524
X4.5984Y-5.1917
X4.5984Y-5.2311
X4.5984Y-5.2705
X4.5984Y-5.3098
X4.6378Y-5.1524
X4.6378Y-5.1917
X4.6378Y-5.1917
X4.6378Y-5.2311
X4.6378Y-5.2311
X4.6378Y-5.2705
X4.6378Y-5.2705
X4.6378Y-5.3098
X4.6378Y-5.3098
X4.6772Y-5.1524
X4.6772Y-5.1917
X4.6772Y-5.2311
X4.6772Y-5.2705
X4.6772Y-5.3098
X4.7165Y-5.1524
X4.7165Y-5.1917
X4.7165Y-5.2311
X4.7165Y-5.2705
X4.7165Y-5.3098
X4.7165Y-5.3492
X4.7165Y-5.3886
X4.7165Y-5.428
X4.7165Y-5.4673
X4.7528Y-4.6335
X4.7547Y-4.8579
X4.7547Y-4.8972
X4.7547Y-4.9366
X4.7547Y-4.976
X4.7547Y-5.0154
X4.7559Y-5.3098
X4.7559Y-5.3492
X4.7559Y-5.3886
X4.7559Y-5.428
X4.7559Y-5.4673
X4.8028Y-4.6335
X4.8055Y-5.2614
X4.8075Y-5.2319
X4.8323Y-5.2185
X4.8472Y-5.0354
X4.8472Y-5.0748
X4.8528Y-4.6335
X4.8717Y-5.2185
X4.8866Y-5.0354
X4.8866Y-5.0748
X4.9028Y-4.6335
X4.911Y-5.2185
X4.926Y-5.0354
X4.926Y-5.0748
X4.9358Y-5.3228
X4.9429Y-2.9665
X4.9669Y-5.0417
X4.9673Y-5.1244
X4.9673Y-5.1638
X4.9673Y-5.2031
X4.9673Y-5.2425
X4.9673Y-5.2819
X5.0063Y-5.0417
X5.0067Y-5.1244
X5.0067Y-5.1638
X5.0067Y-5.2031
X5.0067Y-5.2425
X5.0067Y-5.2819
X5.0067Y-5.3213
X5.0457Y-5.0417
X5.0461Y-5.1244
X5.0461Y-5.1638
X5.0461Y-5.2031
X5.0461Y-5.2425
X5.0461Y-5.2819
X5.0461Y-5.3213
X5.085Y-5.0417
X5.1244Y-5.0417
X5.1441Y-5.4087
X5.1441Y-5.448
X5.1441Y-5.4874
X5.1441Y-5.5268
X5.1441Y-5.5661
X5.1638Y-5.0417
X5.1835Y-5.4087
X5.1835Y-5.448
X5.1835Y-5.4874
X5.1835Y-5.5268
X5.1835Y-5.5661
X5.2031Y-5.0417
X5.2228Y-5.4087
X5.2228Y-5.448
X5.2228Y-5.4874
X5.2228Y-5.5268
X5.2228Y-5.5661
X5.2425Y-5.0417
X5.2622Y-5.4087
X5.2622Y-5.448
X5.2622Y-5.4874
X5.2622Y-5.5268
X5.2622Y-5.5661
X5.2819Y-5.0417
X5.3016Y-5.4087
X5.3016Y-5.448
X5.3016Y-5.4874
X5.3016Y-5.5268
X5.3016Y-5.5661
X5.3213Y-5.0417
X5.3589Y-5.1744
X5.3589Y-5.2138
X5.3589Y-5.2531
X5.3589Y-5.2925
X5.3606Y-5.0417
X5.3982Y-5.1744
X5.3982Y-5.2138
X5.3982Y-5.2531
X5.3982Y-5.2925
X5.4376Y-5.1744
X5.4376Y-5.2138
X5.4376Y-5.2531
X5.4376Y-5.2925
X5.4376Y-5.3406
X5.4376Y-5.3799
X5.4376Y-5.4193
X5.4376Y-5.4587
X5.4376Y-5.498
X5.4376Y-5.5374
X5.477Y-5.1744
X5.477Y-5.2138
X5.477Y-5.2531
X5.477Y-5.2925
X5.477Y-5.3406
X5.477Y-5.3799
X5.477Y-5.4193
X5.477Y-5.4587
X5.477Y-5.498
X5.477Y-5.5374
X5.5163Y-5.1744
X5.5163Y-5.2138
X5.5163Y-5.2531
X5.5163Y-5.2925
X5.5163Y-5.3406
X5.5163Y-5.3799
X5.5163Y-5.4193
X5.5163Y-5.4587
X5.5163Y-5.498
X5.5163Y-5.5374
X5.5557Y-5.1744
X5.5557Y-5.2138
X5.5557Y-5.2531
X5.5557Y-5.2925
X5.5557Y-5.3406
X5.5557Y-5.3799
X5.5557Y-5.4193
X5.5557Y-5.4587
X5.5557Y-5.498
X5.5557Y-5.5374
X5.562Y-2.9665
X5.5951Y-5.1744
X5.5951Y-5.2138
X5.5951Y-5.2531
X5.5951Y-5.2925
X5.5951Y-5.3406
X5.5951Y-5.3799
X5.5951Y-5.4193
X5.5951Y-5.4587
X5.5951Y-5.498
X5.5951Y-5.5374
X5.6344Y-5.1744
X5.6344Y-5.2138
X5.6344Y-5.2531
X5.6344Y-5.2925
X5.6344Y-5.3406
X5.6344Y-5.3799
X5.6344Y-5.4193
X5.6344Y-5.4587
X5.6344Y-5.498
X5.6344Y-5.5374
X5.6738Y-5.1744
X5.6738Y-5.2138
X5.6738Y-5.2531
X5.6738Y-5.2925
X5.6738Y-5.3406
X5.6738Y-5.3799
X5.6738Y-5.4193
X5.6738Y-5.4587
X5.6738Y-5.498
X5.6738Y-5.5374
X5.7132Y-5.1744
X5.7132Y-5.2138
X5.7132Y-5.2531
X5.7132Y-5.2925
X5.7132Y-5.3406
X5.7132Y-5.3799
X5.7132Y-5.4193
X5.7132Y-5.4587
X5.7132Y-5.498
X5.7132Y-5.5374
X5.9874Y-3.9358
X6.3543Y-5.1071
X6.3756Y-2.9976
X6.5039Y-5.1081
X6.8945Y-5.2705
X7.0571Y-5.1671
X7.0571Y-5.1947
X7.0571Y-5.2222
X7.0846Y-5.1671
X7.0846Y-5.1947
X7.0846Y-5.2222
X7.0866Y-5.7524
X7.1122Y-5.1671
X7.1122Y-5.1947
X7.1122Y-5.2222
X7.1496Y-5.8484
X7.185Y-5.3622
X7.185Y-5.4528
X7.2197Y-5.7524
X7.2781Y-5.8484
X7.3441Y-5.7469
X7.4065Y-5.8484
X7.4697Y-5.7465
X7.6053Y-4.9114
X7.6781Y-5.5837
X7.7091Y-5.5835
X7.814Y-4.9104
X7.814Y-4.9498
X7.8533Y-4.9104
X7.8533Y-4.9498
X8.1179Y-5.5868
X8.1348Y-3.3445
X8.1348Y-3.377
X8.1522Y-5.6122
X8.1663Y-5.3425
X8.1703Y-3.3435
X8.1722Y-3.377
X8.2042Y-4.9562
X8.2411Y-5.3425
X8.2713Y-5.6122
X8.3Y-3.7841
X8.3Y-3.8116
X8.3Y-3.8392
X8.3Y-3.8667
X8.3Y-3.8943
X8.3Y-3.9219
X8.3Y-3.9494
X8.3Y-3.977
X8.3Y-4.0045
X8.3Y-4.0321
X8.3Y-4.0596
X8.3Y-4.0872
X8.3Y-4.1148
X8.3Y-4.1423
X8.3081Y-3.3278
X8.3276Y-3.7841
X8.3276Y-4.1423
X8.3367Y-3.3278
X8.3551Y-3.7841
X8.3551Y-4.1423
X8.3646Y-5.5748
X8.3653Y-3.3278
X8.3661Y-4.6173
X8.3827Y-3.7841
X8.3827Y-4.1423
X8.394Y-3.3278
X8.4094Y-4.1423
X8.4102Y-3.7841
X8.4118Y-2.872
X8.4226Y-3.3278
X8.437Y-4.1423
X8.4378Y-3.7841
X8.4508Y-4.289
X8.4646Y-4.0596
X8.4646Y-4.0872
X8.4646Y-4.1148
X8.4646Y-4.1423
X8.4654Y-3.7841
X8.4921Y-4.0596
X8.4929Y-3.7841
X8.5197Y-4.0596
X8.5205Y-3.7841
X8.5205Y-3.8116
X8.5205Y-3.8392
X8.5205Y-3.8667
X8.5205Y-3.8943
X8.5472Y-4.0596
X8.548Y-3.8943
X8.5739Y-4.061
X8.5756Y-3.8943
X8.5758Y-4.3553
X8.5799Y-4.2559
X8.6007Y-4.6899
X8.6031Y-3.8943
X8.6053Y-4.6273
X8.6053Y-4.6588
X8.6053Y-4.721
X8.6112Y-4.3553
X8.6307Y-3.8943
X8.6366Y-3.7986
X8.6476Y-4.3543
X8.6703Y-5.0876
X8.6728Y-3.7986
X8.6821Y-4.3543
X8.7764Y-4.1457
X8.7946Y-5.0636
X8.7958Y-4.2943
X8.7963Y-5.0128
X8.8031Y-5.1132
X8.8081Y-4.1683
X8.8248Y-5.5256
X8.8396Y-4.1673
X8.851Y-3.6787
X8.8606Y-3.9528
X8.9016Y-5.1874
X8.9075Y-3.9537
X8.9291Y-3.6594
X8.9376Y-3.6225
X8.9571Y-3.603
X8.9592Y-3.6594
X8.9646Y-4.374
X8.9793Y-4.0157
X8.9823Y-3.2638
X8.9892Y-3.6594
X8.9911Y-5.2018
X9.0039Y-4.9916
X9.0069Y-4.0157
X9.0118Y-4.1594
X9.0192Y-3.6594
X9.0276Y-4.374
X9.0315Y-3.2638
X9.0346Y-4.0157
X9.0472Y-4.1417
X9.0492Y-3.6594
X9.0512Y-5.4673
X9.061Y-4.0157
X9.0807Y-3.2638
X9.0835Y-5.6346
X9.0906Y-4.374
X9.1299Y-3.2638
X9.1335Y-4.9916
X9.1358Y-5.4321
X9.1358Y-5.5331
X9.1535Y-4.374
X9.1594Y-3.6309
X9.1791Y-3.2638
X9.1801Y-3.6083
X9.202Y-5.6346
X9.2146Y-4.2567
X9.2421Y-5.0089
X9.25Y-5.3799
X9.2591Y-3.0283
X9.2791Y-3.8382
X9.3041Y-3.0283
X9.3248Y-4.9508
X9.3268Y-3.0799
X9.3287Y-3.9644
X9.3593Y-5.126
X9.3624Y-3.9644
X9.3801Y-2.998
X9.3961Y-3.9644
X9.4215Y-2.9976
X9.4298Y-3.9644
X9.4531Y-3.0795
X9.4635Y-3.9644
X9.4638Y-4.0127
X9.4921Y-4.456
X9.5049Y-5.126
X9.5197Y-4.4569
X9.537Y-2.9547
X9.5382Y-2.7846
X9.5404Y-4.5094
X9.5435Y-3.5015
X9.5626Y-3.4736
X9.5634Y-3.6736
X9.5728Y-5.0394
X9.5772Y-4.3516
X9.5921Y-3.4736
X9.635Y-2.9823
X9.6406Y-4.974
X9.6425Y-4.0724
X9.6545Y-4.6171
X9.6565Y-4.6535
X9.6748Y-4.9931
X9.6835Y-3.7587
X9.6857Y-2.982
X9.6919Y-4.685
X9.6929Y-4.0728
X9.7126Y-4.9931
X9.7362Y-2.9823
X9.7425Y-4.1104
X9.7654Y-1.9933
X9.7654Y-2.0327
X9.7654Y-2.072
X9.7752Y-4.039
X9.7783Y-4.9709
X9.7923Y-3.8425
X9.7923Y-3.8819
X9.8024Y-4.0307
X9.8047Y-1.9933
X9.8047Y-2.0327
X9.8047Y-2.072
X9.8126Y-4.2047
X9.8317Y-3.8425
X9.8317Y-3.8819
X9.8362Y-3.6815
X9.8441Y-1.9933
X9.8441Y-2.0327
X9.8441Y-2.072
X9.8449Y-4.9931
X9.8626Y-4.1689
X9.8633Y-4.6859
X9.8789Y-4.312
X9.8811Y-4.9931
X9.8835Y-1.9933
X9.8835Y-2.0327
X9.8835Y-2.072
X9.8967Y-4.6526
X9.9154Y-4.1827
X9.9157Y-4.9697
X9.9228Y-1.9933
X9.9228Y-2.0327
X9.9228Y-2.072
X9.9362Y-3.6815
X9.948Y-4.1763
X9.9571Y-2.6496
X9.9622Y-1.9933
X9.9622Y-2.0327
X9.9622Y-2.072
X9.9813Y-5.0384
X10.0138Y-4.5285
X10.038Y-4.0965
X10.0699Y-4.1407
X10.0846Y-4.2047
X10.0862Y-3.6815
X10.0866Y-2.8346
X10.0994Y-5.0719
X10.1004Y-3.9862
X10.1014Y-5.1368
X10.126Y-4.2441
X10.126Y-4.3031
X10.1362Y-3.6815
X10.1453Y-5.1713
X10.1457Y-3.9724
X10.1457Y-5.0325
X10.1909Y-5.251
X10.1919Y-5.0719
X10.1939Y-5.1368
X10.2421Y-2.6781
T4
X2.0138Y-3.7622
X2.8469Y-3.5831
X2.8563Y-3.6276
X3.1909Y-3.5774
X3.8815Y-3.6748
X4.2531Y-5.2615
X4.2531Y-5.3008
X4.2531Y-5.3402
X4.2531Y-5.3796
X4.2531Y-5.419
X4.2531Y-5.4583
X4.2925Y-5.2615
X4.2925Y-5.3008
X4.2925Y-5.3402
X4.2925Y-5.3796
X4.2925Y-5.419
X4.2925Y-5.4583
X4.3319Y-5.2615
X4.3319Y-5.3008
X4.3319Y-5.3402
X4.3319Y-5.3796
X4.3319Y-5.419
X4.3319Y-5.4583
X4.7116Y-3.2766
X4.7136Y-3.373
X4.751Y-4.0876
X4.7512Y-4.0116
X4.873Y-3.1437
X4.874Y-3.2638
X4.9341Y-4.8917
X5.0354Y-5.5201
X5.5843Y-4.8953
X5.7957Y-4.0856
X5.7969Y-3.9923
X5.961Y-4.5423
X6.0894Y-3.4894
X6.1413Y-3.6669
X6.1732Y-3.4565
X6.1886Y-4.147
X6.1953Y-4.4911
X6.2197Y-3.6528
X6.2244Y-3.5335
X6.2433Y-3.802
X6.2476Y-3.0445
X6.2772Y-3.4591
X6.3193Y-3.4594
X6.3815Y-3.4606
X6.387Y-5.5583
X6.4669Y-5.5583
X6.8492Y-5.3785
X7.0104Y-5.3449
X7.2884Y-5.685
X7.3028Y-4.9896
X7.3406Y-4.9522
X7.3795Y-4.99
X7.635Y-5.6825
X7.6736Y-5.6455
X7.8366Y-5.7474
X8.0992Y-4.4789
X8.1075Y-3.799
X8.1157Y-4.1376
X8.135Y-3.4687
X8.1378Y-3.1167
X8.2516Y-2.5827
X8.3051Y-4.185
X8.3451Y-5.0102
X8.3451Y-5.0496
X8.4228Y-3.8116
X8.461Y-3.8502
X8.4689Y-3.9238
X8.6142Y-5.5413
X8.6634Y-5.5433
X8.702Y-5.4514
X8.7173Y-5.4148
X8.7713Y-3.8748
X8.7929Y-5.414
X8.811Y-5.4522
X8.8799Y-3.3197
X8.9331Y-3.9016
X8.9583Y-2.5287
X8.9646Y-3.8661
X8.9732Y-3.4272
X9.0181Y-5.4083
X9.0386Y-5.6248
X9.2276Y-5.6087
X9.2508Y-5.4161
X9.2736Y-2.5522
X9.2756Y-4.3228
X9.2963Y-2.7795
X9.3386Y-3.5811
X9.3425Y-3.7992
X9.4004Y-2.6372
X9.4933Y-2.4077
X9.502Y-5.9449
X9.5563Y-3.8335
X9.5925Y-4.1791
X9.6054Y-3.7403
X9.6512Y-2.6382
X9.662Y-3.7978
X9.8545Y-1.8307
X10.0846Y-1.8307
X10.087Y-1.9933
X10.1362Y-2.9768
X10.1929Y-5.9577
T5
X0.7276Y-0.835
X0.7276Y-6.0181
X0.7552Y-0.7682
X0.7552Y-0.9019
X0.7552Y-5.9513
X0.7552Y-6.0849
X0.822Y-0.7406
X0.822Y-0.9295
X0.822Y-5.9236
X0.822Y-6.1126
X0.8889Y-0.7682
X0.8889Y-0.9019
X0.8889Y-5.9513
X0.8889Y-6.0849
X0.9165Y-0.835
X0.9165Y-6.0181
X10.635Y-0.835
X10.635Y-6.0181
X10.6627Y-0.7682
X10.6627Y-0.9019
X10.6627Y-5.9513
X10.6627Y-6.0849
X10.7295Y-0.7406
X10.7295Y-0.9295
X10.7295Y-5.9236
X10.7295Y-6.1126
X10.7963Y-0.7682
X10.7963Y-0.9019
X10.7963Y-5.9513
X10.7963Y-6.0849
X10.824Y-0.835
X10.824Y-6.0181
T6
X8.2035Y-2.9335
X9.1791Y-3.0433
T8
X1.3539Y-2.9161
X1.3539Y-3.0161
X1.3539Y-3.2581
X1.3539Y-3.3581
X1.7411Y-3.8451
X1.7411Y-3.9451
X1.8514Y-3.8451
X1.8514Y-3.9451
X1.9222Y-2.9201
X1.9222Y-3.0201
X1.9222Y-3.262
X1.9222Y-3.362
X1.9655Y-3.849
X1.9655Y-3.949
X2.0679Y-3.8451
X2.0679Y-3.9451
X2.186Y-3.849
X2.186Y-3.949
X2.5075Y-2.8844
X2.5075Y-2.9844
X2.6098Y-2.8844
X2.6098Y-2.9844
T9
X1.4752Y-2.7925
X1.4752Y-2.8925
X1.4752Y-2.9925
X1.4888Y-3.2726
X1.4888Y-3.3726
X1.4888Y-3.4726
X1.7752Y-2.7925
X1.7752Y-2.8925
X1.7752Y-2.9925
X1.7888Y-3.2726
X1.7888Y-3.3726
X1.7888Y-3.4726
X2.0553Y-2.7965
X2.0553Y-2.8965
X2.0553Y-2.9965
X2.0689Y-3.2766
X2.0689Y-3.3766
X2.0689Y-3.4766
X2.3553Y-2.7965
X2.3553Y-2.8965
X2.3553Y-2.9965
X2.3689Y-3.2766
X2.3689Y-3.3766
X2.3689Y-3.4766
X4.5165Y-4.9494
X4.5165Y-5.099
T10
X9.6758Y-5.3514
X9.7258Y-5.2514
X9.7758Y-5.3514
X9.8258Y-5.2514
X9.8758Y-5.3514
X9.9258Y-5.2514
X9.9758Y-5.3514
X10.0258Y-5.2514
T11
X1.5797Y-3.8472
X1.5797Y-3.9472
T12
X4.9878Y-3.91
X4.9878Y-4.1935
X5.6374Y-3.91
X5.6374Y-4.1935
T13
X3.7035Y-5.7448
X3.802Y-5.7448
X3.9004Y-5.7448
X3.9988Y-5.7448
X4.6705Y-5.7448
X4.7689Y-5.7448
X5.0094Y-5.7448
X5.1079Y-5.7448
X5.2063Y-5.7448
X5.3047Y-5.7448
X8.4217Y-4.4343
X8.4217Y-4.5327
X9.762Y-2.4224
X9.8604Y-2.4224
T14
X5.802Y-4.8961
X5.9169Y-5.3264
X5.9169Y-5.5094
X6.1728Y-5.689
X6.2274Y-5.8008
X6.2819Y-5.689
X6.3002Y-4.75
X6.3364Y-5.8008
X6.3909Y-5.689
X6.4455Y-5.8008
X6.5Y-5.689
X6.5545Y-5.8008
X6.6091Y-5.689
X7.0577Y-3.0677
X7.0577Y-3.1661
X7.0577Y-3.4105
X7.0577Y-3.5089
X7.0577Y-3.7532
X7.0577Y-3.8517
X7.0577Y-4.096
X7.0577Y-4.1944
X7.0577Y-4.4388
X7.0577Y-4.5372
X7.4337Y-3.0677
X7.4337Y-3.1661
X7.4356Y-3.4105
X7.4356Y-3.5089
X7.4433Y-3.7532
X7.4433Y-3.8517
X7.4457Y-4.096
X7.4457Y-4.1944
X7.4463Y-4.4388
X7.4463Y-4.5372
X7.8303Y-1.4567
X8.0271Y-1.4567
X8.224Y-1.4567
X8.4208Y-1.4567
X8.6177Y-1.4567
T15
X9.5902Y-5.7943
X9.6902Y-5.7943
X10.0118Y-5.7943
X10.1118Y-5.7943
T16
X1.5256Y-2.5236
X1.6256Y-2.5236
X1.7256Y-2.5236
X2.1057Y-2.5236
X2.2057Y-2.5236
X2.3057Y-2.5236
T17
X1.3249Y-4.5802
X1.3249Y-4.7802
X1.5217Y-4.5802
X1.5217Y-4.7802
X3.3453Y-3.187
X3.3453Y-3.3248
X3.3453Y-3.4626
X3.9767Y-4.6797
X3.9767Y-4.8797
X3.9787Y-3.187
X3.9787Y-3.3248
X3.9787Y-3.4626
X4.1736Y-4.6797
X4.1736Y-4.8797
X4.6122Y-3.187
X4.6122Y-3.3248
X4.6122Y-3.4626
X5.2457Y-3.187
X5.2457Y-3.3248
X5.2457Y-3.4626
X5.8791Y-3.187
X5.8791Y-3.3248
X5.8791Y-3.4626
T18
X1.1717Y-4.8626
X1.1717Y-5.7484
T19
X1.5335Y-5.9213
X1.7303Y-5.9213
X2.3398Y-5.7406
X2.5366Y-5.7406
X2.8057Y-5.7406
X3.0026Y-5.7406
X3.2717Y-5.7406
X3.4685Y-5.7406
X7.6334Y-1.1379
X7.8303Y-1.1379
X8.0271Y-1.1379
X8.224Y-1.1379
X8.4208Y-1.1379
X8.6177Y-1.1379
T20
X1.6256Y-2.2722
X2.2057Y-2.2722
T21
X9.5461Y-5.4813
X10.1559Y-5.4813
T22
X1.5518Y-1.2809
X1.9258Y-1.2809
X2.2998Y-1.2809
X2.6738Y-1.2809
X3.0655Y-1.2809
X3.4395Y-1.2809
X3.8135Y-1.2809
X4.1875Y-1.2809
X4.5792Y-1.2809
X4.9532Y-1.2809
X5.3272Y-1.2809
X5.7012Y-1.2809
X6.0929Y-1.2809
X6.4669Y-1.2809
X6.8409Y-1.2809
X7.215Y-1.2809
T23
X0.822Y-0.835
X0.822Y-6.0181
X5.8988Y-5.7008
X6.8831Y-5.7008
X10.7295Y-0.835
X10.7295Y-6.0181
T7
G00X8.0323Y-5.6852
M15
G01X8.0323Y-5.7285
M16
G05
G00X8.0323Y-5.8565
M15
G01X8.0323Y-5.888
M16
G05
G00X8.3724Y-5.6852
M15
G01X8.3724Y-5.7285
M16
G05
G00X8.3724Y-5.8565
M15
G01X8.3724Y-5.888
M16
G05
G00X8.963Y-5.6852
M15
G01X8.963Y-5.7285
M16
G05
G00X8.963Y-5.8565
M15
G01X8.963Y-5.888
M16
G05
G00X9.3031Y-5.6852
M15
G01X9.3031Y-5.7285
M16
G05
G00X9.3031Y-5.8565
M15
G01X9.3031Y-5.888
M16
G05
T17
G00X2.8957Y-1.6905
M15
G01X2.7736Y-1.6905
M16
G05
G00X2.8957Y-2.1236
M15
G01X2.7736Y-2.1236
M16
G05
G00X3.0087Y-2.3996
M15
G01X2.9299Y-2.3996
M16
G05
G00X3.3079Y-2.5059
M15
G01X3.2291Y-2.5059
M16
G05
G00X3.6634Y-1.6905
M15
G01X3.5413Y-1.6905
M16
G05
G00X3.6634Y-2.1236
M15
G01X3.5413Y-2.1236
M16
G05
G00X3.6421Y-2.3996
M15
G01X3.5634Y-2.3996
M16
G05
G00X3.9413Y-2.5059
M15
G01X3.8626Y-2.5059
M16
G05
G00X4.2756Y-2.3996
M15
G01X4.1969Y-2.3996
M16
G05
G00X4.4311Y-1.6905
M15
G01X4.3091Y-1.6905
M16
G05
G00X4.4311Y-2.1236
M15
G01X4.3091Y-2.1236
M16
G05
G00X4.5748Y-2.5059
M15
G01X4.4961Y-2.5059
M16
G05
G00X4.9091Y-2.3996
M15
G01X4.8303Y-2.3996
M16
G05
G00X5.1988Y-1.6905
M15
G01X5.0768Y-1.6905
M16
G05
G00X5.1988Y-2.1236
M15
G01X5.0768Y-2.1236
M16
G05
G00X5.2083Y-2.5059
M15
G01X5.1295Y-2.5059
M16
G05
G00X5.5425Y-2.3996
M15
G01X5.4638Y-2.3996
M16
G05
G00X5.8417Y-2.5059
M15
G01X5.763Y-2.5059
M16
G05
G00X5.9665Y-1.6905
M15
G01X5.8445Y-1.6905
M16
G05
G00X5.9665Y-2.1236
M15
G01X5.8445Y-2.1236
M16
G05
M30
