%TF.GenerationSoftware,KiCad,Pcbnew,8.0.0*%
%TF.CreationDate,2024-07-08T15:04:36+07:00*%
%TF.ProjectId,SmartEnergyMag_System,536d6172-7445-46e6-9572-67794d61675f,rev?*%
%TF.SameCoordinates,Original*%
%TF.FileFunction,Soldermask,Bot*%
%TF.FilePolarity,Negative*%
%FSLAX46Y46*%
G04 Gerber Fmt 4.6, Leading zero omitted, Abs format (unit mm)*
G04 Created by KiCad (PCBNEW 8.0.0) date 2024-07-08 15:04:36*
%MOMM*%
%LPD*%
G01*
G04 APERTURE LIST*
G04 Aperture macros list*
%AMRoundRect*
0 Rectangle with rounded corners*
0 $1 Rounding radius*
0 $2 $3 $4 $5 $6 $7 $8 $9 X,Y pos of 4 corners*
0 Add a 4 corners polygon primitive as box body*
4,1,4,$2,$3,$4,$5,$6,$7,$8,$9,$2,$3,0*
0 Add four circle primitives for the rounded corners*
1,1,$1+$1,$2,$3*
1,1,$1+$1,$4,$5*
1,1,$1+$1,$6,$7*
1,1,$1+$1,$8,$9*
0 Add four rect primitives between the rounded corners*
20,1,$1+$1,$2,$3,$4,$5,0*
20,1,$1+$1,$4,$5,$6,$7,0*
20,1,$1+$1,$6,$7,$8,$9,0*
20,1,$1+$1,$8,$9,$2,$3,0*%
%AMFreePoly0*
4,1,45,-3.000000,1.500000,-2.988481,1.685539,-2.937641,1.928004,-2.847586,2.158795,-2.720773,2.371615,-2.560660,2.560660,-2.371615,2.720773,-2.158795,2.847586,-1.928004,2.937641,-1.685539,2.988481,-1.500000,3.000000,1.500000,3.000000,1.685539,2.988481,1.928004,2.937641,2.158795,2.847586,2.371615,2.720773,2.560660,2.560660,2.720773,2.371615,2.847586,2.158795,2.937641,1.928004,
2.988481,1.685539,3.000000,1.500000,3.000000,-1.500000,2.988481,-1.685539,2.937641,-1.928004,2.847586,-2.158795,2.720773,-2.371615,2.560660,-2.560660,2.371615,-2.720773,2.158795,-2.847586,1.928004,-2.937641,1.685539,-2.988481,1.500000,-3.000000,-1.500000,-3.000000,-1.685539,-2.988481,-1.928004,-2.937641,-2.158795,-2.847586,-2.371615,-2.720773,-2.560660,-2.560660,-2.720773,-2.371615,
-2.847586,-2.158795,-2.937641,-1.928004,-2.988481,-1.685539,-3.000000,-1.500000,-3.000000,1.500000,-3.000000,1.500000,$1*%
G04 Aperture macros list end*
%ADD10RoundRect,0.250000X0.750000X-0.600000X0.750000X0.600000X-0.750000X0.600000X-0.750000X-0.600000X0*%
%ADD11O,2.000000X1.700000*%
%ADD12R,3.000000X3.000000*%
%ADD13C,3.000000*%
%ADD14R,1.600000X1.600000*%
%ADD15O,1.600000X1.600000*%
%ADD16C,2.000000*%
%ADD17C,2.700000*%
%ADD18C,1.400000*%
%ADD19O,1.400000X1.400000*%
%ADD20RoundRect,0.250000X-0.725000X0.600000X-0.725000X-0.600000X0.725000X-0.600000X0.725000X0.600000X0*%
%ADD21O,1.950000X1.700000*%
%ADD22RoundRect,0.275000X1.825000X0.825000X-1.825000X0.825000X-1.825000X-0.825000X1.825000X-0.825000X0*%
%ADD23RoundRect,0.250000X0.750000X-0.750000X0.750000X0.750000X-0.750000X0.750000X-0.750000X-0.750000X0*%
%ADD24C,0.800000*%
%ADD25C,6.400000*%
%ADD26RoundRect,0.250000X-0.750000X0.600000X-0.750000X-0.600000X0.750000X-0.600000X0.750000X0.600000X0*%
%ADD27R,1.800000X1.800000*%
%ADD28C,1.800000*%
%ADD29RoundRect,0.250000X-0.600000X-0.725000X0.600000X-0.725000X0.600000X0.725000X-0.600000X0.725000X0*%
%ADD30O,1.700000X1.950000*%
%ADD31C,3.200000*%
%ADD32RoundRect,1.500000X1.500000X1.500000X-1.500000X1.500000X-1.500000X-1.500000X1.500000X-1.500000X0*%
%ADD33FreePoly0,180.000000*%
%ADD34C,0.650000*%
%ADD35O,1.000000X2.100000*%
%ADD36O,1.000000X1.800000*%
%ADD37RoundRect,0.102000X-0.654000X-0.654000X0.654000X-0.654000X0.654000X0.654000X-0.654000X0.654000X0*%
%ADD38C,1.512000*%
%ADD39C,2.529000*%
%ADD40RoundRect,0.200000X-2.300000X0.800000X-2.300000X-0.800000X2.300000X-0.800000X2.300000X0.800000X0*%
%ADD41RoundRect,0.250000X-1.250000X0.750000X-1.250000X-0.750000X1.250000X-0.750000X1.250000X0.750000X0*%
%ADD42RoundRect,0.250000X1.250000X-0.750000X1.250000X0.750000X-1.250000X0.750000X-1.250000X-0.750000X0*%
%ADD43R,1.905000X2.000000*%
%ADD44O,1.905000X2.000000*%
%ADD45C,0.900000*%
%ADD46RoundRect,0.250000X0.600000X0.725000X-0.600000X0.725000X-0.600000X-0.725000X0.600000X-0.725000X0*%
%ADD47C,1.524000*%
%ADD48C,3.250000*%
%ADD49RoundRect,0.102000X0.699000X0.699000X-0.699000X0.699000X-0.699000X-0.699000X0.699000X-0.699000X0*%
%ADD50C,1.602000*%
%ADD51C,1.734000*%
%ADD52C,2.649000*%
%ADD53C,4.000000*%
%ADD54C,1.600000*%
%ADD55C,1.000000*%
%ADD56C,1.300000*%
%ADD57RoundRect,0.200000X-0.200000X-0.275000X0.200000X-0.275000X0.200000X0.275000X-0.200000X0.275000X0*%
%ADD58RoundRect,0.200000X0.200000X0.275000X-0.200000X0.275000X-0.200000X-0.275000X0.200000X-0.275000X0*%
%ADD59RoundRect,0.150000X0.512500X0.150000X-0.512500X0.150000X-0.512500X-0.150000X0.512500X-0.150000X0*%
%ADD60RoundRect,0.150000X-0.587500X-0.150000X0.587500X-0.150000X0.587500X0.150000X-0.587500X0.150000X0*%
%ADD61RoundRect,0.150000X-0.825000X-0.150000X0.825000X-0.150000X0.825000X0.150000X-0.825000X0.150000X0*%
%ADD62RoundRect,0.250000X-0.450000X0.400000X-0.450000X-0.400000X0.450000X-0.400000X0.450000X0.400000X0*%
%ADD63RoundRect,0.200000X0.275000X-0.200000X0.275000X0.200000X-0.275000X0.200000X-0.275000X-0.200000X0*%
%ADD64RoundRect,0.250000X-0.312500X-0.625000X0.312500X-0.625000X0.312500X0.625000X-0.312500X0.625000X0*%
%ADD65RoundRect,0.250000X0.450000X-0.400000X0.450000X0.400000X-0.450000X0.400000X-0.450000X-0.400000X0*%
%ADD66RoundRect,0.250000X0.625000X-0.375000X0.625000X0.375000X-0.625000X0.375000X-0.625000X-0.375000X0*%
%ADD67RoundRect,0.250000X-1.100000X0.325000X-1.100000X-0.325000X1.100000X-0.325000X1.100000X0.325000X0*%
%ADD68RoundRect,0.150000X0.150000X-0.587500X0.150000X0.587500X-0.150000X0.587500X-0.150000X-0.587500X0*%
G04 APERTURE END LIST*
D10*
%TO.C,J26*%
X179265000Y-80420000D03*
D11*
X179265000Y-77920000D03*
%TD*%
D12*
%TO.C,J33*%
X59430000Y-145810000D03*
D13*
X64430000Y-145810000D03*
%TD*%
D14*
%TO.C,U7*%
X59824375Y-76110000D03*
D15*
X59824375Y-73570000D03*
X59824375Y-71030001D03*
X52204375Y-71030000D03*
X52204375Y-73570000D03*
X52204375Y-76110000D03*
%TD*%
D16*
%TO.C,TP19*%
X150290000Y-139940000D03*
%TD*%
D10*
%TO.C,J22*%
X179265000Y-115245000D03*
D11*
X179265000Y-112745000D03*
%TD*%
D17*
%TO.C,F2*%
X29760000Y-134760000D03*
D13*
X29760000Y-146010000D03*
X29760000Y-123509999D03*
%TD*%
D18*
%TO.C,R31*%
X48824376Y-82855001D03*
D19*
X48824376Y-85395001D03*
%TD*%
D18*
%TO.C,R23*%
X66289999Y-75805002D03*
D19*
X66289999Y-73265002D03*
%TD*%
D20*
%TO.C,J14*%
X213910001Y-112629998D03*
D21*
X213910001Y-115129998D03*
%TD*%
D22*
%TO.C,K1*%
X75420000Y-60950000D03*
X83020000Y-63650000D03*
D23*
X84970000Y-87950000D03*
X84969999Y-80950000D03*
X84970000Y-84450000D03*
%TD*%
D18*
%TO.C,R33*%
X55524375Y-97765000D03*
D19*
X55524375Y-100305000D03*
%TD*%
D10*
%TO.C,J25*%
X179265000Y-89126250D03*
D11*
X179265000Y-86626250D03*
%TD*%
D24*
%TO.C,H2*%
X18480000Y-21210000D03*
X19182944Y-19512944D03*
X19182944Y-22907056D03*
X20880000Y-18810000D03*
D25*
X20880000Y-21210000D03*
D24*
X20880000Y-23610000D03*
X22577056Y-19512944D03*
X22577056Y-22907056D03*
X23280000Y-21210000D03*
%TD*%
D26*
%TO.C,J18*%
X189134999Y-112745000D03*
D11*
X189134999Y-115245000D03*
%TD*%
D27*
%TO.C,D9*%
X40124375Y-100260000D03*
D28*
X40124375Y-97720000D03*
%TD*%
D29*
%TO.C,J20*%
X127240000Y-145917500D03*
D30*
X129740000Y-145917500D03*
X132240000Y-145917500D03*
X134740000Y-145917500D03*
%TD*%
D18*
%TO.C,R35*%
X44224375Y-100205000D03*
D19*
X44224375Y-97665000D03*
%TD*%
D29*
%TO.C,J15*%
X94070000Y-145917500D03*
D30*
X96570000Y-145917500D03*
X99070000Y-145917500D03*
X101570000Y-145917500D03*
%TD*%
D16*
%TO.C,TP14*%
X203889358Y-37000000D03*
%TD*%
D31*
%TO.C,DRA1*%
X266695000Y-102415000D03*
X266695000Y-89915000D03*
X266695000Y-77415000D03*
%TD*%
D26*
%TO.C,J17*%
X189120000Y-104038750D03*
D11*
X189120000Y-106538750D03*
%TD*%
D32*
%TO.C,J6*%
X183260001Y-32535000D03*
D33*
X173760002Y-32535000D03*
X164260001Y-32535000D03*
X154760001Y-32535000D03*
%TD*%
D10*
%TO.C,J24*%
X179265000Y-97832500D03*
D11*
X179265000Y-95332500D03*
%TD*%
D26*
%TO.C,J16*%
X189060000Y-95332500D03*
D11*
X189060000Y-97832500D03*
%TD*%
D34*
%TO.C,J3*%
X229090000Y-145475000D03*
X234870000Y-145475000D03*
D35*
X227660000Y-144955000D03*
D36*
X227660000Y-149155000D03*
D35*
X236300000Y-144955000D03*
D36*
X236300000Y-149155000D03*
%TD*%
D22*
%TO.C,K5*%
X123690000Y-60950000D03*
X131290000Y-63650000D03*
D23*
X133240000Y-87950000D03*
X133239999Y-80950000D03*
X133240000Y-84450000D03*
%TD*%
D37*
%TO.C,U8*%
X37815500Y-83125001D03*
D38*
X37815500Y-85665001D03*
X37815500Y-88205001D03*
X45435500Y-88205001D03*
X45435500Y-85665001D03*
X45435500Y-83125001D03*
%TD*%
D16*
%TO.C,TP9*%
X160025001Y-120650000D03*
%TD*%
D39*
%TO.C,HS2*%
X56024375Y-57715001D03*
%TD*%
D22*
%TO.C,K4*%
X107600000Y-60950000D03*
X115200000Y-63650000D03*
D23*
X117150000Y-87950000D03*
X117149999Y-80950000D03*
X117150000Y-84450000D03*
%TD*%
D14*
%TO.C,U9*%
X45090000Y-76010000D03*
D15*
X45090000Y-73470000D03*
X45090000Y-70930001D03*
X37470000Y-70930000D03*
X37470000Y-73470000D03*
X37470000Y-76010000D03*
%TD*%
D16*
%TO.C,TP18*%
X150290000Y-135290000D03*
%TD*%
D32*
%TO.C,J2*%
X67914999Y-32535000D03*
D33*
X58415000Y-32535000D03*
X48914999Y-32535000D03*
X39414999Y-32535000D03*
%TD*%
D16*
%TO.C,TP12*%
X213889358Y-37000000D03*
%TD*%
D40*
%TO.C,J8*%
X150000000Y-42939086D03*
X150000000Y-53939086D03*
%TD*%
D24*
%TO.C,H4*%
X18480000Y-152860000D03*
X19182944Y-151162944D03*
X19182944Y-154557056D03*
X20880000Y-150460000D03*
D25*
X20880000Y-152860000D03*
D24*
X20880000Y-155260000D03*
X22577056Y-151162944D03*
X22577056Y-154557056D03*
X23280000Y-152860000D03*
%TD*%
D41*
%TO.C,PS1*%
X33651500Y-116336000D03*
X38651500Y-116336000D03*
D42*
X33651500Y-121416000D03*
X38651500Y-121416000D03*
X101008500Y-123944000D03*
X106008500Y-123944000D03*
X101008500Y-118864000D03*
X106008500Y-118864000D03*
%TD*%
D16*
%TO.C,TP15*%
X198889358Y-37000000D03*
%TD*%
D40*
%TO.C,J30*%
X111000000Y-42939086D03*
X111000000Y-53939086D03*
%TD*%
D12*
%TO.C,J21*%
X38950000Y-150400000D03*
D13*
X43950000Y-150400000D03*
%TD*%
D32*
%TO.C,J11*%
X106363333Y-32535000D03*
D33*
X96863334Y-32535000D03*
X87363333Y-32535000D03*
X77863333Y-32535000D03*
%TD*%
D43*
%TO.C,Q2*%
X53484375Y-64100000D03*
D44*
X56024375Y-64100000D03*
X58564374Y-64100000D03*
%TD*%
D45*
%TO.C,P1*%
X254205000Y-27929999D03*
X246205000Y-27929999D03*
%TD*%
D13*
%TO.C,J1*%
X193889358Y-28903305D03*
X198889358Y-28903305D03*
X203889359Y-28903305D03*
X208889359Y-28903305D03*
X213889359Y-28903305D03*
D12*
X218889359Y-28903305D03*
%TD*%
D37*
%TO.C,U3*%
X52549875Y-83225001D03*
D38*
X52549875Y-85765001D03*
X52549875Y-88305001D03*
X60169875Y-88305001D03*
X60169875Y-85765001D03*
X60169875Y-83225001D03*
%TD*%
D12*
%TO.C,J35*%
X83100000Y-145810000D03*
D13*
X88100000Y-145810000D03*
%TD*%
D24*
%TO.C,H1*%
X270130000Y-21210000D03*
X270832944Y-19512944D03*
X270832944Y-22907056D03*
X272530000Y-18810000D03*
D25*
X272530000Y-21210000D03*
D24*
X272530000Y-23610000D03*
X274227056Y-19512944D03*
X274227056Y-22907056D03*
X274930000Y-21210000D03*
%TD*%
D10*
%TO.C,J23*%
X179265000Y-106538750D03*
D11*
X179265000Y-104038750D03*
%TD*%
D40*
%TO.C,J9*%
X72000000Y-42939086D03*
X72000000Y-53939086D03*
%TD*%
D26*
%TO.C,J10*%
X188815000Y-77920000D03*
D11*
X188815000Y-80420000D03*
%TD*%
D26*
%TO.C,J12*%
X188865001Y-86626250D03*
D11*
X188865001Y-89126250D03*
%TD*%
D16*
%TO.C,TP13*%
X208889358Y-37000000D03*
%TD*%
D18*
%TO.C,R36*%
X34390000Y-82755001D03*
D19*
X34390000Y-85295001D03*
%TD*%
D46*
%TO.C,J36*%
X250455000Y-61529996D03*
D30*
X247955000Y-61529996D03*
%TD*%
D47*
%TO.C,T1*%
X126690000Y-99315000D03*
X126690000Y-106515000D03*
X143190000Y-99315000D03*
X143190000Y-106515000D03*
%TD*%
D31*
%TO.C,DRA2*%
X27090000Y-102385000D03*
X27090000Y-89885000D03*
X27090000Y-77385000D03*
%TD*%
D12*
%TO.C,J34*%
X71265000Y-145810000D03*
D13*
X76265000Y-145810000D03*
%TD*%
D32*
%TO.C,J5*%
X144811667Y-32535000D03*
D33*
X135311668Y-32535000D03*
X125811667Y-32535000D03*
X116311667Y-32535000D03*
%TD*%
D16*
%TO.C,TP11*%
X218889359Y-37000000D03*
%TD*%
D45*
%TO.C,BOOT1*%
X195310000Y-148980000D03*
X198310000Y-148980000D03*
%TD*%
D18*
%TO.C,R34*%
X48824376Y-74170001D03*
D19*
X48824376Y-76710001D03*
%TD*%
D16*
%TO.C,TP10*%
X147370000Y-124360000D03*
%TD*%
D48*
%TO.C,J4*%
X255930000Y-142275000D03*
X244500000Y-142275000D03*
D49*
X245765000Y-135925000D03*
D50*
X247035000Y-133385000D03*
X248305000Y-135925000D03*
X249575000Y-133385000D03*
X250845000Y-135925000D03*
X252115000Y-133385000D03*
X253385000Y-135924999D03*
X254655000Y-133385000D03*
D51*
X243590000Y-147175000D03*
X246130000Y-147175000D03*
X254300000Y-147175000D03*
X256840000Y-147175000D03*
D52*
X242470000Y-139225000D03*
X257960000Y-139225000D03*
%TD*%
D18*
%TO.C,R37*%
X47024375Y-100205000D03*
D19*
X47024375Y-97665000D03*
%TD*%
D53*
%TO.C,J7*%
X149830000Y-144800000D03*
X174830000Y-144800000D03*
D14*
X156790000Y-144500000D03*
D54*
X159560000Y-144500000D03*
X162330000Y-144500000D03*
X165100000Y-144500000D03*
X167870000Y-144500000D03*
X158175000Y-147340000D03*
X160945000Y-147340000D03*
X163715000Y-147340000D03*
X166485000Y-147340000D03*
%TD*%
D40*
%TO.C,J29*%
X91500000Y-42939086D03*
X91500000Y-53939086D03*
%TD*%
D34*
%TO.C,J19*%
X205450000Y-145475000D03*
X211230000Y-145475000D03*
D35*
X204020000Y-144955000D03*
D36*
X204020000Y-149155000D03*
D35*
X212660000Y-144955000D03*
D36*
X212660000Y-149155000D03*
%TD*%
D40*
%TO.C,J31*%
X130500000Y-42939086D03*
X130500000Y-53939086D03*
%TD*%
D22*
%TO.C,K2*%
X91510000Y-60950000D03*
X99110000Y-63650000D03*
D23*
X101060000Y-87950000D03*
X101059999Y-80950000D03*
X101060000Y-84450000D03*
%TD*%
D43*
%TO.C,Q3*%
X38750000Y-64100000D03*
D44*
X41290000Y-64100000D03*
X43829999Y-64100000D03*
%TD*%
D18*
%TO.C,R39*%
X34390000Y-74070001D03*
D19*
X34390000Y-76610001D03*
%TD*%
D39*
%TO.C,HS1*%
X41290000Y-57715001D03*
%TD*%
D18*
%TO.C,R38*%
X49924375Y-97765000D03*
D19*
X49924375Y-100305000D03*
%TD*%
D22*
%TO.C,K3*%
X139780000Y-60950000D03*
X147380000Y-63650000D03*
D23*
X149330000Y-87950000D03*
X149329999Y-80950000D03*
X149330000Y-84450000D03*
%TD*%
D18*
%TO.C,R32*%
X52524375Y-100205000D03*
D19*
X52524375Y-97665000D03*
%TD*%
D18*
%TO.C,R30*%
X63690000Y-75805002D03*
D19*
X63690000Y-73265002D03*
%TD*%
D29*
%TO.C,J32*%
X118630000Y-145917500D03*
D30*
X121130000Y-145917500D03*
%TD*%
D55*
%TO.C,BT2*%
X216400000Y-80515000D03*
D56*
X216400000Y-73015000D03*
%TD*%
D14*
%TO.C,C63*%
X114720000Y-129514760D03*
D54*
X114720000Y-125714760D03*
%TD*%
D24*
%TO.C,H3*%
X270130000Y-152860000D03*
X270832944Y-151162944D03*
X270832944Y-154557056D03*
X272530000Y-150460000D03*
D25*
X272530000Y-152860000D03*
D24*
X272530000Y-155260000D03*
X274227056Y-151162944D03*
X274227056Y-154557056D03*
X274930000Y-152860000D03*
%TD*%
D57*
%TO.C,R103*%
X72600000Y-86850000D03*
X74250000Y-86850000D03*
%TD*%
D58*
%TO.C,R113*%
X106430000Y-79912501D03*
X104780000Y-79912501D03*
%TD*%
D57*
%TO.C,R98*%
X136960000Y-88812501D03*
X138610000Y-88812501D03*
%TD*%
%TO.C,R99*%
X136960000Y-86912501D03*
X138610000Y-86912501D03*
%TD*%
D59*
%TO.C,U29*%
X80620000Y-75350001D03*
X80620000Y-76300000D03*
X80620000Y-77249999D03*
X78345000Y-77249999D03*
X78345000Y-75350001D03*
%TD*%
D60*
%TO.C,Q12*%
X126902500Y-88812501D03*
X126902500Y-86912501D03*
X128777501Y-87862501D03*
%TD*%
D61*
%TO.C,U6*%
X216820962Y-129885962D03*
X216820962Y-128615962D03*
X216820962Y-127345962D03*
X216820962Y-126075962D03*
X221770962Y-126075962D03*
X221770962Y-127345962D03*
X221770962Y-128615962D03*
X221770962Y-129885962D03*
%TD*%
D62*
%TO.C,D53*%
X130935625Y-85937501D03*
X130935625Y-88837501D03*
%TD*%
D63*
%TO.C,R81*%
X230720000Y-148945000D03*
X230720000Y-147295000D03*
%TD*%
D60*
%TO.C,Q10*%
X110812500Y-88812501D03*
X110812500Y-86912501D03*
X112687501Y-87862501D03*
%TD*%
D64*
%TO.C,R83*%
X68257500Y-92150000D03*
X71182500Y-92150000D03*
%TD*%
D63*
%TO.C,R27*%
X210090000Y-149125000D03*
X210090000Y-147475000D03*
%TD*%
D59*
%TO.C,U31*%
X112975000Y-75350001D03*
X112975000Y-76300000D03*
X112975000Y-77249999D03*
X110700000Y-77249999D03*
X110700000Y-75350001D03*
%TD*%
D63*
%TO.C,R82*%
X233710000Y-148945000D03*
X233710000Y-147295000D03*
%TD*%
D58*
%TO.C,R105*%
X74250000Y-79912501D03*
X72600000Y-79912501D03*
%TD*%
D62*
%TO.C,D49*%
X98806875Y-85937501D03*
X98806875Y-88837501D03*
%TD*%
D57*
%TO.C,R106*%
X88690000Y-88812501D03*
X90340000Y-88812501D03*
%TD*%
D60*
%TO.C,Q11*%
X110812500Y-81812501D03*
X110812500Y-79912501D03*
X112687501Y-80862501D03*
%TD*%
D59*
%TO.C,U32*%
X129065000Y-75350001D03*
X129065000Y-76300000D03*
X129065000Y-77249999D03*
X126790000Y-77249999D03*
X126790000Y-75350001D03*
%TD*%
D60*
%TO.C,Q9*%
X94722500Y-81812501D03*
X94722500Y-79912501D03*
X96597501Y-80862501D03*
%TD*%
D62*
%TO.C,D45*%
X147000000Y-85937501D03*
X147000000Y-88837501D03*
%TD*%
D58*
%TO.C,R116*%
X122520000Y-81812501D03*
X120870000Y-81812501D03*
%TD*%
%TO.C,R100*%
X138610000Y-81812501D03*
X136960000Y-81812501D03*
%TD*%
D60*
%TO.C,Q8*%
X94722500Y-88812501D03*
X94722500Y-86912501D03*
X96597501Y-87862501D03*
%TD*%
D58*
%TO.C,R104*%
X74250000Y-81812501D03*
X72600000Y-81812501D03*
%TD*%
D65*
%TO.C,D48*%
X82742499Y-82962500D03*
X82742499Y-80062500D03*
%TD*%
D58*
%TO.C,R112*%
X106430000Y-81812501D03*
X104780000Y-81812501D03*
%TD*%
D57*
%TO.C,R114*%
X120870000Y-88812501D03*
X122520000Y-88812501D03*
%TD*%
%TO.C,R115*%
X120870000Y-86912501D03*
X122520000Y-86912501D03*
%TD*%
D66*
%TO.C,F1*%
X166485000Y-141459999D03*
X166485000Y-138660001D03*
%TD*%
D60*
%TO.C,Q4*%
X142992500Y-88812501D03*
X142992500Y-86912501D03*
X144867501Y-87862501D03*
%TD*%
%TO.C,Q6*%
X78632500Y-88812501D03*
X78632500Y-86912501D03*
X80507501Y-87862501D03*
%TD*%
D59*
%TO.C,U33*%
X145155000Y-75350001D03*
X145155000Y-76300000D03*
X145155000Y-77249999D03*
X142880000Y-77249999D03*
X142880000Y-75350001D03*
%TD*%
D63*
%TO.C,R26*%
X207090000Y-149125000D03*
X207090000Y-147475000D03*
%TD*%
D58*
%TO.C,R108*%
X90340000Y-81812501D03*
X88690000Y-81812501D03*
%TD*%
D57*
%TO.C,R107*%
X88690000Y-86912501D03*
X90340000Y-86912501D03*
%TD*%
D62*
%TO.C,D47*%
X82742500Y-85937501D03*
X82742500Y-88837501D03*
%TD*%
D60*
%TO.C,Q5*%
X142992500Y-81812501D03*
X142992500Y-79912501D03*
X144867501Y-80862501D03*
%TD*%
D59*
%TO.C,U30*%
X96885000Y-75350001D03*
X96885000Y-76300000D03*
X96885000Y-77249999D03*
X94610000Y-77249999D03*
X94610000Y-75350001D03*
%TD*%
D65*
%TO.C,D52*%
X114871249Y-82962500D03*
X114871249Y-80062500D03*
%TD*%
D67*
%TO.C,C71*%
X108870000Y-119824999D03*
X108870000Y-122775001D03*
%TD*%
D65*
%TO.C,D50*%
X98806874Y-82962500D03*
X98806874Y-80062500D03*
%TD*%
D58*
%TO.C,R109*%
X90340000Y-79912501D03*
X88690000Y-79912501D03*
%TD*%
D66*
%TO.C,F3*%
X158175000Y-141459999D03*
X158175000Y-138660001D03*
%TD*%
D57*
%TO.C,R111*%
X104780000Y-86912501D03*
X106430000Y-86912501D03*
%TD*%
D60*
%TO.C,Q13*%
X126902500Y-81812501D03*
X126902500Y-79912501D03*
X128777501Y-80862501D03*
%TD*%
D58*
%TO.C,R101*%
X138610000Y-79912501D03*
X136960000Y-79912501D03*
%TD*%
D68*
%TO.C,D41*%
X164162501Y-139697500D03*
X162262501Y-139697500D03*
X163212501Y-137822499D03*
%TD*%
D65*
%TO.C,D54*%
X130935624Y-82962500D03*
X130935624Y-80062500D03*
%TD*%
D58*
%TO.C,R117*%
X122520000Y-79912501D03*
X120870000Y-79912501D03*
%TD*%
D62*
%TO.C,D51*%
X114871250Y-85937501D03*
X114871250Y-88837501D03*
%TD*%
D57*
%TO.C,R102*%
X72600000Y-88750000D03*
X74250000Y-88750000D03*
%TD*%
D65*
%TO.C,D46*%
X147000000Y-82962500D03*
X147000000Y-80062500D03*
%TD*%
D60*
%TO.C,Q7*%
X78632500Y-81812501D03*
X78632500Y-79912501D03*
X80507501Y-80862501D03*
%TD*%
D57*
%TO.C,R110*%
X104780000Y-88812501D03*
X106430000Y-88812501D03*
%TD*%
G36*
X60336061Y-29750597D02*
G01*
X60512934Y-29768017D01*
X60536775Y-29772759D01*
X60700998Y-29822575D01*
X60723456Y-29831878D01*
X60874798Y-29912772D01*
X60895010Y-29926277D01*
X61027666Y-30035145D01*
X61044854Y-30052333D01*
X61153722Y-30184989D01*
X61167227Y-30205201D01*
X61248121Y-30356543D01*
X61257424Y-30379001D01*
X61307240Y-30543224D01*
X61311982Y-30567065D01*
X61329403Y-30743938D01*
X61330000Y-30756092D01*
X61330000Y-35789693D01*
X61329403Y-35801847D01*
X61311982Y-35978721D01*
X61307240Y-36002562D01*
X61257424Y-36166785D01*
X61248121Y-36189243D01*
X61167227Y-36340585D01*
X61153722Y-36360797D01*
X61040969Y-36498186D01*
X61032797Y-36507202D01*
X55302897Y-42237101D01*
X55178530Y-42388641D01*
X55178526Y-42388648D01*
X55086123Y-42561522D01*
X55086122Y-42561525D01*
X55029214Y-42749124D01*
X55010000Y-42944217D01*
X55010000Y-55289693D01*
X55009403Y-55301847D01*
X54991982Y-55478721D01*
X54987240Y-55502562D01*
X54937424Y-55666785D01*
X54928121Y-55689243D01*
X54847227Y-55840585D01*
X54833722Y-55860797D01*
X54720969Y-55998186D01*
X54712797Y-56007202D01*
X54282897Y-56437101D01*
X54158530Y-56588641D01*
X54158526Y-56588648D01*
X54066123Y-56761522D01*
X54066122Y-56761525D01*
X54009214Y-56949124D01*
X53990000Y-57144217D01*
X53990000Y-61370079D01*
X53990001Y-61370095D01*
X54013848Y-61551235D01*
X54013849Y-61551237D01*
X54083770Y-61720042D01*
X54195000Y-61865000D01*
X54296290Y-61997005D01*
X54312475Y-62025038D01*
X54369903Y-62163681D01*
X54378281Y-62194948D01*
X54398939Y-62351853D01*
X54400000Y-62368039D01*
X54400000Y-64138907D01*
X54399403Y-64151062D01*
X54383423Y-64313304D01*
X54378681Y-64337144D01*
X54333134Y-64487295D01*
X54323831Y-64509754D01*
X54249865Y-64648132D01*
X54236361Y-64668342D01*
X54136822Y-64789632D01*
X54119632Y-64806822D01*
X53998342Y-64906361D01*
X53978132Y-64919865D01*
X53839754Y-64993831D01*
X53817295Y-65003134D01*
X53667144Y-65048681D01*
X53643304Y-65053423D01*
X53481062Y-65069403D01*
X53468907Y-65070000D01*
X52674000Y-65070000D01*
X52606961Y-65050315D01*
X52561206Y-64997511D01*
X52550000Y-64946000D01*
X52550000Y-39830306D01*
X52550597Y-39818152D01*
X52568017Y-39641278D01*
X52572759Y-39617437D01*
X52622575Y-39453214D01*
X52631878Y-39430756D01*
X52712772Y-39279414D01*
X52726277Y-39259202D01*
X52839030Y-39121813D01*
X52847202Y-39112797D01*
X55207102Y-36752898D01*
X55331469Y-36601358D01*
X55331473Y-36601351D01*
X55423876Y-36428477D01*
X55423877Y-36428474D01*
X55480785Y-36240875D01*
X55500000Y-36045782D01*
X55500000Y-30756092D01*
X55500597Y-30743938D01*
X55518017Y-30567065D01*
X55522759Y-30543224D01*
X55572575Y-30379001D01*
X55581878Y-30356543D01*
X55662772Y-30205201D01*
X55676277Y-30184989D01*
X55785145Y-30052333D01*
X55802333Y-30035145D01*
X55934989Y-29926277D01*
X55955201Y-29912772D01*
X56106543Y-29831878D01*
X56129001Y-29822575D01*
X56293224Y-29772759D01*
X56317065Y-29768017D01*
X56493939Y-29750597D01*
X56506093Y-29750000D01*
X60323907Y-29750000D01*
X60336061Y-29750597D01*
G37*
G36*
X41396061Y-30300597D02*
G01*
X41572934Y-30318017D01*
X41596775Y-30322759D01*
X41760998Y-30372575D01*
X41783456Y-30381878D01*
X41934798Y-30462772D01*
X41955010Y-30476277D01*
X42087666Y-30585145D01*
X42104854Y-30602333D01*
X42213722Y-30734989D01*
X42227227Y-30755201D01*
X42308121Y-30906543D01*
X42317424Y-30929001D01*
X42367240Y-31093224D01*
X42371982Y-31117065D01*
X42389403Y-31293938D01*
X42390000Y-31306092D01*
X42390000Y-50251132D01*
X42389405Y-50263263D01*
X42372052Y-50439793D01*
X42367328Y-50463589D01*
X42317704Y-50627517D01*
X42308437Y-50649938D01*
X42227845Y-50801063D01*
X42214390Y-50821251D01*
X42102040Y-50958526D01*
X42093897Y-50967536D01*
X39601813Y-53467287D01*
X39601806Y-53467295D01*
X39477891Y-53618701D01*
X39385828Y-53791336D01*
X39385825Y-53791343D01*
X39329141Y-53978593D01*
X39329140Y-53978599D01*
X39310000Y-54173310D01*
X39310000Y-64003907D01*
X39309403Y-64016061D01*
X39291982Y-64192934D01*
X39287240Y-64216775D01*
X39237424Y-64380998D01*
X39228121Y-64403456D01*
X39147227Y-64554798D01*
X39133722Y-64575010D01*
X39024854Y-64707666D01*
X39007666Y-64724854D01*
X38875010Y-64833722D01*
X38854798Y-64847227D01*
X38703456Y-64928121D01*
X38680998Y-64937424D01*
X38516775Y-64987240D01*
X38492934Y-64991982D01*
X38316061Y-65009403D01*
X38303907Y-65010000D01*
X37486093Y-65010000D01*
X37473939Y-65009403D01*
X37297065Y-64991982D01*
X37273224Y-64987240D01*
X37109001Y-64937424D01*
X37086543Y-64928121D01*
X36935201Y-64847227D01*
X36914989Y-64833722D01*
X36782333Y-64724854D01*
X36765145Y-64707666D01*
X36656277Y-64575010D01*
X36642772Y-64554798D01*
X36561878Y-64403456D01*
X36552575Y-64380998D01*
X36502759Y-64216775D01*
X36498017Y-64192934D01*
X36480597Y-64016061D01*
X36480000Y-64003907D01*
X36480000Y-30424000D01*
X36499685Y-30356961D01*
X36552489Y-30311206D01*
X36604000Y-30300000D01*
X41383907Y-30300000D01*
X41396061Y-30300597D01*
G37*
G36*
X71503039Y-25384685D02*
G01*
X71548794Y-25437489D01*
X71560000Y-25489000D01*
X71560000Y-37176000D01*
X71540315Y-37243039D01*
X71487511Y-37288794D01*
X71436000Y-37300000D01*
X64956362Y-37300000D01*
X64889323Y-37280315D01*
X64868681Y-37263681D01*
X63206319Y-35601319D01*
X63172834Y-35539996D01*
X63170000Y-35513638D01*
X63170000Y-28505000D01*
X53435000Y-28505000D01*
X53435000Y-35413638D01*
X53415315Y-35480677D01*
X53398681Y-35501319D01*
X51421319Y-37478681D01*
X51359996Y-37512166D01*
X51333638Y-37515000D01*
X46019000Y-37515000D01*
X45951961Y-37495315D01*
X45906206Y-37442511D01*
X45895000Y-37391000D01*
X45895000Y-25489000D01*
X45914685Y-25421961D01*
X45967489Y-25376206D01*
X46019000Y-25365000D01*
X71436000Y-25365000D01*
X71503039Y-25384685D01*
G37*
G36*
X80968039Y-29269685D02*
G01*
X81013794Y-29322489D01*
X81025000Y-29374000D01*
X81025000Y-36673638D01*
X81005315Y-36740677D01*
X80988681Y-36761319D01*
X74725000Y-43024999D01*
X74725000Y-44001000D01*
X74705315Y-44068039D01*
X74652511Y-44113794D01*
X74601000Y-44125000D01*
X69424000Y-44125000D01*
X69356961Y-44105315D01*
X69311206Y-44052511D01*
X69300000Y-44001000D01*
X69300000Y-41999000D01*
X69319685Y-41931961D01*
X69372489Y-41886206D01*
X69424000Y-41875000D01*
X69825000Y-41875000D01*
X69825000Y-41874999D01*
X74550000Y-37149999D01*
X74550000Y-29374000D01*
X74569685Y-29306961D01*
X74622489Y-29261206D01*
X74674000Y-29250000D01*
X80901000Y-29250000D01*
X80968039Y-29269685D01*
G37*
G36*
X75118039Y-52819685D02*
G01*
X75163794Y-52872489D01*
X75175000Y-52924000D01*
X75175000Y-55875000D01*
X77738681Y-58438681D01*
X77772166Y-58500004D01*
X77775000Y-58526362D01*
X77775000Y-62251000D01*
X77755315Y-62318039D01*
X77702511Y-62363794D01*
X77651000Y-62375000D01*
X73224000Y-62375000D01*
X73156961Y-62355315D01*
X73111206Y-62302511D01*
X73100000Y-62251000D01*
X73100000Y-59600000D01*
X69261319Y-55761319D01*
X69227834Y-55699996D01*
X69225000Y-55673638D01*
X69225000Y-52924000D01*
X69244685Y-52856961D01*
X69297489Y-52811206D01*
X69349000Y-52800000D01*
X75051000Y-52800000D01*
X75118039Y-52819685D01*
G37*
G36*
X90518039Y-29294685D02*
G01*
X90563794Y-29347489D01*
X90575000Y-29399000D01*
X90575000Y-35898638D01*
X90555315Y-35965677D01*
X90538681Y-35986319D01*
X85475000Y-41049999D01*
X85475000Y-64826000D01*
X85455315Y-64893039D01*
X85402511Y-64938794D01*
X85351000Y-64950000D01*
X80949000Y-64950000D01*
X80881961Y-64930315D01*
X80836206Y-64877511D01*
X80825000Y-64826000D01*
X80825000Y-38576362D01*
X80844685Y-38509323D01*
X80861319Y-38488681D01*
X83874999Y-35475000D01*
X83875000Y-35474999D01*
X83875000Y-29399000D01*
X83894685Y-29331961D01*
X83947489Y-29286206D01*
X83999000Y-29275000D01*
X90451000Y-29275000D01*
X90518039Y-29294685D01*
G37*
G36*
X100018039Y-29094685D02*
G01*
X100063794Y-29147489D01*
X100075000Y-29199000D01*
X100075000Y-36873638D01*
X100055315Y-36940677D01*
X100038681Y-36961319D01*
X94300000Y-42699999D01*
X94300000Y-44001000D01*
X94280315Y-44068039D01*
X94227511Y-44113794D01*
X94176000Y-44125000D01*
X88899000Y-44125000D01*
X88831961Y-44105315D01*
X88786206Y-44052511D01*
X88775000Y-44001000D01*
X88775000Y-41301362D01*
X88794685Y-41234323D01*
X88811319Y-41213681D01*
X93574999Y-36450000D01*
X93575000Y-36449999D01*
X93575000Y-29199000D01*
X93594685Y-29131961D01*
X93647489Y-29086206D01*
X93699000Y-29075000D01*
X99951000Y-29075000D01*
X100018039Y-29094685D01*
G37*
G36*
X109543039Y-29069685D02*
G01*
X109588794Y-29122489D01*
X109600000Y-29174000D01*
X109600000Y-35248638D01*
X109580315Y-35315677D01*
X109563681Y-35336319D01*
X107300000Y-37599999D01*
X107300000Y-47948638D01*
X107280315Y-48015677D01*
X107263681Y-48036319D01*
X101400000Y-53899999D01*
X101400000Y-64876000D01*
X101380315Y-64943039D01*
X101327511Y-64988794D01*
X101276000Y-65000000D01*
X96949000Y-65000000D01*
X96881961Y-64980315D01*
X96836206Y-64927511D01*
X96825000Y-64876000D01*
X96825000Y-52601362D01*
X96844685Y-52534323D01*
X96861319Y-52513681D01*
X103074999Y-46300000D01*
X103075000Y-46299999D01*
X103075000Y-29174000D01*
X103094685Y-29106961D01*
X103147489Y-29061206D01*
X103199000Y-29050000D01*
X109476000Y-29050000D01*
X109543039Y-29069685D01*
G37*
G36*
X119493039Y-29344685D02*
G01*
X119538794Y-29397489D01*
X119550000Y-29449000D01*
X119550000Y-36423638D01*
X119530315Y-36490677D01*
X119513681Y-36511319D01*
X113825000Y-42199999D01*
X113825000Y-44076000D01*
X113805315Y-44143039D01*
X113752511Y-44188794D01*
X113701000Y-44200000D01*
X108349000Y-44200000D01*
X108281961Y-44180315D01*
X108236206Y-44127511D01*
X108225000Y-44076000D01*
X108225000Y-40801362D01*
X108244685Y-40734323D01*
X108261319Y-40713681D01*
X113024999Y-35950000D01*
X113025000Y-35949999D01*
X113025000Y-29449000D01*
X113044685Y-29381961D01*
X113097489Y-29336206D01*
X113149000Y-29325000D01*
X119426000Y-29325000D01*
X119493039Y-29344685D01*
G37*
G36*
X93943039Y-52644685D02*
G01*
X93988794Y-52697489D01*
X94000000Y-52749000D01*
X94000000Y-62079739D01*
X93980315Y-62146778D01*
X93927511Y-62192533D01*
X93876000Y-62203739D01*
X89024000Y-62203739D01*
X88956961Y-62184054D01*
X88911206Y-62131250D01*
X88900000Y-62079739D01*
X88900000Y-52749000D01*
X88919685Y-52681961D01*
X88972489Y-52636206D01*
X89024000Y-52625000D01*
X93876000Y-52625000D01*
X93943039Y-52644685D01*
G37*
G36*
X113668039Y-52769685D02*
G01*
X113713794Y-52822489D01*
X113725000Y-52874000D01*
X113725000Y-55323638D01*
X113705315Y-55390677D01*
X113688681Y-55411319D01*
X109925000Y-59174999D01*
X109925000Y-62151000D01*
X109905315Y-62218039D01*
X109852511Y-62263794D01*
X109801000Y-62275000D01*
X105424000Y-62275000D01*
X105356961Y-62255315D01*
X105311206Y-62202511D01*
X105300000Y-62151000D01*
X105300000Y-59201362D01*
X105319685Y-59134323D01*
X105336319Y-59113681D01*
X108249999Y-56200000D01*
X108250000Y-56199999D01*
X108250000Y-52874000D01*
X108269685Y-52806961D01*
X108322489Y-52761206D01*
X108374000Y-52750000D01*
X113601000Y-52750000D01*
X113668039Y-52769685D01*
G37*
G36*
X128993039Y-29169685D02*
G01*
X129038794Y-29222489D01*
X129050000Y-29274000D01*
X129050000Y-37398638D01*
X129030315Y-37465677D01*
X129013681Y-37486319D01*
X122075000Y-44424999D01*
X122075000Y-56173638D01*
X122055315Y-56240677D01*
X122038681Y-56261319D01*
X117475000Y-60825000D01*
X117475000Y-60834410D01*
X117497166Y-60875004D01*
X117500000Y-60901362D01*
X117500000Y-64876000D01*
X117480315Y-64943039D01*
X117427511Y-64988794D01*
X117376000Y-65000000D01*
X113024000Y-65000000D01*
X112956961Y-64980315D01*
X112911206Y-64927511D01*
X112900000Y-64876000D01*
X112900000Y-60026362D01*
X112919685Y-59959323D01*
X112936319Y-59938681D01*
X118199999Y-54675000D01*
X118200000Y-54674999D01*
X118200000Y-42001362D01*
X118219685Y-41934323D01*
X118236319Y-41913681D01*
X122674999Y-37475000D01*
X122675000Y-37474999D01*
X122675000Y-29274000D01*
X122694685Y-29206961D01*
X122747489Y-29161206D01*
X122799000Y-29150000D01*
X128926000Y-29150000D01*
X128993039Y-29169685D01*
G37*
G36*
X131943039Y-52744685D02*
G01*
X131988794Y-52797489D01*
X132000000Y-52849000D01*
X132000000Y-56448638D01*
X131980315Y-56515677D01*
X131963681Y-56536319D01*
X126061319Y-62438681D01*
X125999996Y-62472166D01*
X125973638Y-62475000D01*
X121499000Y-62475000D01*
X121431961Y-62455315D01*
X121386206Y-62402511D01*
X121375000Y-62351000D01*
X121375000Y-59124000D01*
X121394685Y-59056961D01*
X121447489Y-59011206D01*
X121499000Y-59000000D01*
X123850000Y-59000000D01*
X123850000Y-58999999D01*
X128000000Y-54849999D01*
X128000000Y-52849000D01*
X128019685Y-52781961D01*
X128072489Y-52736206D01*
X128124000Y-52725000D01*
X131876000Y-52725000D01*
X131943039Y-52744685D01*
G37*
G36*
X147968039Y-29244685D02*
G01*
X148013794Y-29297489D01*
X148025000Y-29349000D01*
X148025000Y-35023638D01*
X148005315Y-35090677D01*
X147988681Y-35111319D01*
X145350000Y-37749999D01*
X145350000Y-45973638D01*
X145330315Y-46040677D01*
X145313681Y-46061319D01*
X135725000Y-55649999D01*
X135725000Y-59318638D01*
X135705315Y-59385677D01*
X135688681Y-59406319D01*
X133700000Y-61394999D01*
X133700000Y-64876000D01*
X133680315Y-64943039D01*
X133627511Y-64988794D01*
X133576000Y-65000000D01*
X129099000Y-65000000D01*
X129031961Y-64980315D01*
X128986206Y-64927511D01*
X128975000Y-64876000D01*
X128975000Y-61499000D01*
X128994685Y-61431961D01*
X129047489Y-61386206D01*
X129099000Y-61375000D01*
X129313230Y-61375000D01*
X129313230Y-61374999D01*
X133775000Y-56913229D01*
X133775000Y-51901362D01*
X133794685Y-51834323D01*
X133811319Y-51813681D01*
X141549999Y-44075000D01*
X141550000Y-44074999D01*
X141550000Y-29349000D01*
X141569685Y-29281961D01*
X141622489Y-29236206D01*
X141674000Y-29225000D01*
X147901000Y-29225000D01*
X147968039Y-29244685D01*
G37*
G36*
X152643039Y-52769685D02*
G01*
X152688794Y-52822489D01*
X152700000Y-52874000D01*
X152700000Y-56623638D01*
X152680315Y-56690677D01*
X152663681Y-56711319D01*
X151086319Y-58288681D01*
X151024996Y-58322166D01*
X150998638Y-58325000D01*
X143774999Y-58325000D01*
X142425000Y-59674999D01*
X142425000Y-62501000D01*
X142405315Y-62568039D01*
X142352511Y-62613794D01*
X142301000Y-62625000D01*
X137424000Y-62625000D01*
X137356961Y-62605315D01*
X137311206Y-62552511D01*
X137300000Y-62501000D01*
X137300000Y-55624000D01*
X137319685Y-55556961D01*
X137372489Y-55511206D01*
X137424000Y-55500000D01*
X147100000Y-55500000D01*
X147100000Y-52874000D01*
X147119685Y-52806961D01*
X147172489Y-52761206D01*
X147224000Y-52750000D01*
X152576000Y-52750000D01*
X152643039Y-52769685D01*
G37*
G36*
X167368039Y-29244685D02*
G01*
X167413794Y-29297489D01*
X167425000Y-29349000D01*
X167425000Y-51223638D01*
X167405315Y-51290677D01*
X167388681Y-51311319D01*
X154186319Y-64513681D01*
X154124996Y-64547166D01*
X154098638Y-64550000D01*
X150174999Y-64550000D01*
X149761319Y-64963681D01*
X149699996Y-64997166D01*
X149673638Y-65000000D01*
X145199000Y-65000000D01*
X145131961Y-64980315D01*
X145086206Y-64927511D01*
X145075000Y-64876000D01*
X145075000Y-60974000D01*
X145094685Y-60906961D01*
X145147489Y-60861206D01*
X145199000Y-60850000D01*
X150531865Y-60850000D01*
X150531865Y-60849999D01*
X160702390Y-50679474D01*
X160702390Y-29349000D01*
X160722075Y-29281961D01*
X160774879Y-29236206D01*
X160826390Y-29225000D01*
X167301000Y-29225000D01*
X167368039Y-29244685D01*
G37*
G36*
X157868039Y-29169685D02*
G01*
X157913794Y-29222489D01*
X157925000Y-29274000D01*
X157925000Y-35873638D01*
X157905315Y-35940677D01*
X157888681Y-35961319D01*
X152825000Y-41024999D01*
X152825000Y-44126000D01*
X152805315Y-44193039D01*
X152752511Y-44238794D01*
X152701000Y-44250000D01*
X147224000Y-44250000D01*
X147156961Y-44230315D01*
X147111206Y-44177511D01*
X147100000Y-44126000D01*
X147100000Y-40246363D01*
X147119685Y-40179324D01*
X147136319Y-40158682D01*
X151374999Y-35920001D01*
X151375000Y-35920000D01*
X151375000Y-29274000D01*
X151394685Y-29206961D01*
X151447489Y-29161206D01*
X151499000Y-29150000D01*
X157801000Y-29150000D01*
X157868039Y-29169685D01*
G37*
G36*
X138468039Y-29244685D02*
G01*
X138513794Y-29297489D01*
X138525000Y-29349000D01*
X138525000Y-41626000D01*
X138505315Y-41693039D01*
X138452511Y-41738794D01*
X138401000Y-41750000D01*
X133325000Y-41750000D01*
X133325000Y-44101000D01*
X133305315Y-44168039D01*
X133252511Y-44213794D01*
X133201000Y-44225000D01*
X127999000Y-44225000D01*
X127931961Y-44205315D01*
X127886206Y-44152511D01*
X127875000Y-44101000D01*
X127875000Y-41751362D01*
X127894685Y-41684323D01*
X127911319Y-41663681D01*
X132049999Y-37525000D01*
X132050000Y-37524999D01*
X132050000Y-29349000D01*
X132069685Y-29281961D01*
X132122489Y-29236206D01*
X132174000Y-29225000D01*
X138401000Y-29225000D01*
X138468039Y-29244685D01*
G37*
G36*
X31810952Y-143621061D02*
G01*
X31916116Y-143634906D01*
X31947383Y-143643284D01*
X32037808Y-143680739D01*
X32065842Y-143696924D01*
X32150003Y-143761503D01*
X32162198Y-143772198D01*
X34363547Y-145973548D01*
X34363554Y-145973554D01*
X34467106Y-146053012D01*
X34467111Y-146053015D01*
X34587693Y-146102961D01*
X34587698Y-146102963D01*
X34717097Y-146119998D01*
X34717114Y-146120000D01*
X40091874Y-146120000D01*
X40108059Y-146121061D01*
X40213223Y-146134906D01*
X40244491Y-146143284D01*
X40334918Y-146180740D01*
X40362951Y-146196925D01*
X40440601Y-146256508D01*
X40463491Y-146279398D01*
X40523074Y-146357048D01*
X40539259Y-146385081D01*
X40576715Y-146475508D01*
X40585093Y-146506775D01*
X40598939Y-146611939D01*
X40600000Y-146628125D01*
X40600000Y-151531874D01*
X40598939Y-151548060D01*
X40585093Y-151653224D01*
X40576715Y-151684491D01*
X40539259Y-151774918D01*
X40523074Y-151802951D01*
X40463491Y-151880601D01*
X40440601Y-151903491D01*
X40362951Y-151963074D01*
X40334918Y-151979259D01*
X40244491Y-152016715D01*
X40213224Y-152025093D01*
X40108060Y-152038939D01*
X40091874Y-152040000D01*
X34915233Y-152040000D01*
X34899047Y-152038939D01*
X34793882Y-152025093D01*
X34762616Y-152016715D01*
X34672191Y-151979260D01*
X34644157Y-151963075D01*
X34559996Y-151898496D01*
X34547801Y-151887801D01*
X31356452Y-148696451D01*
X31356445Y-148696445D01*
X31252893Y-148616987D01*
X31252888Y-148616984D01*
X31132306Y-148567038D01*
X31132301Y-148567036D01*
X31002902Y-148550001D01*
X31002886Y-148550000D01*
X28238126Y-148550000D01*
X28221940Y-148548939D01*
X28116775Y-148535093D01*
X28085508Y-148526715D01*
X27995081Y-148489259D01*
X27967048Y-148473074D01*
X27889398Y-148413491D01*
X27866508Y-148390601D01*
X27806925Y-148312951D01*
X27790740Y-148284918D01*
X27753284Y-148194491D01*
X27744906Y-148163223D01*
X27731061Y-148058059D01*
X27730000Y-148041874D01*
X27730000Y-143744000D01*
X27749685Y-143676961D01*
X27802489Y-143631206D01*
X27854000Y-143620000D01*
X31794767Y-143620000D01*
X31810952Y-143621061D01*
G37*
G36*
X41060952Y-114991061D02*
G01*
X41166116Y-115004906D01*
X41197383Y-115013284D01*
X41287808Y-115050739D01*
X41315842Y-115066924D01*
X41400003Y-115131503D01*
X41412198Y-115142198D01*
X45547801Y-119277801D01*
X45558496Y-119289996D01*
X45623075Y-119374157D01*
X45639260Y-119402191D01*
X45676715Y-119492616D01*
X45685093Y-119523882D01*
X45698939Y-119629046D01*
X45700000Y-119645232D01*
X45700000Y-151711874D01*
X45698939Y-151728060D01*
X45685093Y-151833224D01*
X45676715Y-151864491D01*
X45639259Y-151954918D01*
X45623074Y-151982951D01*
X45563491Y-152060601D01*
X45540601Y-152083491D01*
X45462951Y-152143074D01*
X45434918Y-152159259D01*
X45344491Y-152196715D01*
X45313224Y-152205093D01*
X45208060Y-152218939D01*
X45191874Y-152220000D01*
X42264000Y-152220000D01*
X42196961Y-152200315D01*
X42151206Y-152147511D01*
X42140000Y-152096000D01*
X42140000Y-127265232D01*
X42141061Y-127249047D01*
X42154906Y-127143883D01*
X42163284Y-127112616D01*
X42200739Y-127022191D01*
X42216924Y-126994157D01*
X42281503Y-126909996D01*
X42292198Y-126897801D01*
X43013554Y-126176445D01*
X43093012Y-126072893D01*
X43093015Y-126072888D01*
X43142961Y-125952306D01*
X43142963Y-125952301D01*
X43159998Y-125822902D01*
X43160000Y-125822886D01*
X43160000Y-120787113D01*
X43159998Y-120787097D01*
X43142963Y-120657698D01*
X43142961Y-120657693D01*
X43093015Y-120537111D01*
X43093012Y-120537106D01*
X43013554Y-120433554D01*
X43013548Y-120433547D01*
X40576452Y-117996451D01*
X40576445Y-117996445D01*
X40472893Y-117916987D01*
X40472888Y-117916984D01*
X40352306Y-117867038D01*
X40352301Y-117867036D01*
X40222902Y-117850001D01*
X40222886Y-117850000D01*
X32178126Y-117850000D01*
X32161940Y-117848939D01*
X32056775Y-117835093D01*
X32025508Y-117826715D01*
X31935081Y-117789259D01*
X31907048Y-117773074D01*
X31829398Y-117713491D01*
X31806508Y-117690601D01*
X31746925Y-117612951D01*
X31730740Y-117584918D01*
X31693284Y-117494491D01*
X31684906Y-117463223D01*
X31671061Y-117358059D01*
X31670000Y-117341874D01*
X31670000Y-115241205D01*
X31672382Y-115217016D01*
X31683378Y-115161730D01*
X31701893Y-115117029D01*
X31726295Y-115080508D01*
X31760508Y-115046295D01*
X31797029Y-115021893D01*
X31841730Y-115003378D01*
X31897017Y-114992382D01*
X31921206Y-114990000D01*
X41044767Y-114990000D01*
X41060952Y-114991061D01*
G37*
M02*
