%TF.GenerationSoftware,KiCad,Pcbnew,8.0.0*%
%TF.CreationDate,2024-07-08T15:04:36+07:00*%
%TF.ProjectId,SmartEnergyMag_System,536d6172-7445-46e6-9572-67794d61675f,rev?*%
%TF.SameCoordinates,Original*%
%TF.FileFunction,Profile,NP*%
%FSLAX46Y46*%
G04 Gerber Fmt 4.6, Leading zero omitted, Abs format (unit mm)*
G04 Created by KiCad (PCBNEW 8.0.0) date 2024-07-08 15:04:36*
%MOMM*%
%LPD*%
G01*
G04 APERTURE LIST*
%TA.AperFunction,Profile*%
%ADD10C,0.100000*%
%TD*%
G04 APERTURE END LIST*
D10*
X68709749Y-110427250D02*
X70950251Y-110427250D01*
X70950251Y-130652750D01*
X68709749Y-130652750D01*
X68709749Y-110427250D01*
X37604500Y-103179750D02*
X88950000Y-103179750D01*
X88950000Y-104170250D01*
X37604500Y-104170250D01*
X37604500Y-103179750D01*
X276705000Y-152035000D02*
X276705000Y-127035000D01*
X16705000Y-22035000D02*
X16705000Y-47035000D01*
X271704999Y-17035000D02*
X246705000Y-17035000D01*
X21705000Y-157035000D02*
X46705000Y-157035000D01*
X46705000Y-157035000D02*
X51705000Y-152035000D01*
X246705000Y-17035000D02*
X241705000Y-22035000D01*
X51705000Y-22035000D02*
X46705000Y-17035000D01*
X51705000Y-152035000D02*
X242205000Y-152035000D01*
X242205000Y-149435305D02*
X258205000Y-149435305D01*
X21705000Y-157035000D02*
G75*
G02*
X16705000Y-152035000I0J5000000D01*
G01*
X271705000Y-52035000D02*
X276705000Y-47035000D01*
X258205000Y-157035000D02*
X271705001Y-157035000D01*
X46705000Y-17035000D02*
X21705000Y-17035000D01*
X242205000Y-152035000D02*
X242205000Y-149435305D01*
X241705000Y-22035000D02*
X51705000Y-22035000D01*
X276705000Y-47035000D02*
X276705000Y-22034999D01*
X21705000Y-122035000D02*
X16705000Y-127035000D01*
X276705000Y-152035000D02*
G75*
G02*
X271705001Y-157035000I-5000000J0D01*
G01*
X21705000Y-52035000D02*
X21705000Y-122035000D01*
X16705000Y-22035000D02*
G75*
G02*
X21705000Y-17035000I5000000J0D01*
G01*
X276705000Y-127035000D02*
X271705000Y-122035000D01*
X271704999Y-17035000D02*
G75*
G02*
X276705000Y-22034999I1J-5000000D01*
G01*
X16705000Y-127035000D02*
X16705000Y-152035000D01*
X16705000Y-47035000D02*
X21705000Y-52035000D01*
X271705000Y-122035000D02*
X271705000Y-52035000D01*
X258205000Y-149435305D02*
X258205000Y-157035000D01*
M02*
