%TF.GenerationSoftware,KiCad,Pcbnew,8.0.0*%
%TF.CreationDate,2024-07-08T15:04:36+07:00*%
%TF.ProjectId,SmartEnergyMag_System,536d6172-7445-46e6-9572-67794d61675f,rev?*%
%TF.SameCoordinates,Original*%
%TF.FileFunction,Other,Comment*%
%FSLAX46Y46*%
G04 Gerber Fmt 4.6, Leading zero omitted, Abs format (unit mm)*
G04 Created by KiCad (PCBNEW 8.0.0) date 2024-07-08 15:04:36*
%MOMM*%
%LPD*%
G01*
G04 APERTURE LIST*
%ADD10C,0.150000*%
G04 APERTURE END LIST*
D10*
X292929819Y-91921309D02*
X292929819Y-92492737D01*
X292929819Y-92207023D02*
X291929819Y-92207023D01*
X291929819Y-92207023D02*
X292072676Y-92302261D01*
X292072676Y-92302261D02*
X292167914Y-92397499D01*
X292167914Y-92397499D02*
X292215533Y-92492737D01*
X291929819Y-91587975D02*
X291929819Y-90968928D01*
X291929819Y-90968928D02*
X292310771Y-91302261D01*
X292310771Y-91302261D02*
X292310771Y-91159404D01*
X292310771Y-91159404D02*
X292358390Y-91064166D01*
X292358390Y-91064166D02*
X292406009Y-91016547D01*
X292406009Y-91016547D02*
X292501247Y-90968928D01*
X292501247Y-90968928D02*
X292739342Y-90968928D01*
X292739342Y-90968928D02*
X292834580Y-91016547D01*
X292834580Y-91016547D02*
X292882200Y-91064166D01*
X292882200Y-91064166D02*
X292929819Y-91159404D01*
X292929819Y-91159404D02*
X292929819Y-91445118D01*
X292929819Y-91445118D02*
X292882200Y-91540356D01*
X292882200Y-91540356D02*
X292834580Y-91587975D01*
X292929819Y-90492737D02*
X292929819Y-90302261D01*
X292929819Y-90302261D02*
X292882200Y-90207023D01*
X292882200Y-90207023D02*
X292834580Y-90159404D01*
X292834580Y-90159404D02*
X292691723Y-90064166D01*
X292691723Y-90064166D02*
X292501247Y-90016547D01*
X292501247Y-90016547D02*
X292120295Y-90016547D01*
X292120295Y-90016547D02*
X292025057Y-90064166D01*
X292025057Y-90064166D02*
X291977438Y-90111785D01*
X291977438Y-90111785D02*
X291929819Y-90207023D01*
X291929819Y-90207023D02*
X291929819Y-90397499D01*
X291929819Y-90397499D02*
X291977438Y-90492737D01*
X291977438Y-90492737D02*
X292025057Y-90540356D01*
X292025057Y-90540356D02*
X292120295Y-90587975D01*
X292120295Y-90587975D02*
X292358390Y-90587975D01*
X292358390Y-90587975D02*
X292453628Y-90540356D01*
X292453628Y-90540356D02*
X292501247Y-90492737D01*
X292501247Y-90492737D02*
X292548866Y-90397499D01*
X292548866Y-90397499D02*
X292548866Y-90207023D01*
X292548866Y-90207023D02*
X292501247Y-90111785D01*
X292501247Y-90111785D02*
X292453628Y-90064166D01*
X292453628Y-90064166D02*
X292358390Y-90016547D01*
X292834580Y-89587975D02*
X292882200Y-89540356D01*
X292882200Y-89540356D02*
X292929819Y-89587975D01*
X292929819Y-89587975D02*
X292882200Y-89635594D01*
X292882200Y-89635594D02*
X292834580Y-89587975D01*
X292834580Y-89587975D02*
X292929819Y-89587975D01*
X292025057Y-89159404D02*
X291977438Y-89111785D01*
X291977438Y-89111785D02*
X291929819Y-89016547D01*
X291929819Y-89016547D02*
X291929819Y-88778452D01*
X291929819Y-88778452D02*
X291977438Y-88683214D01*
X291977438Y-88683214D02*
X292025057Y-88635595D01*
X292025057Y-88635595D02*
X292120295Y-88587976D01*
X292120295Y-88587976D02*
X292215533Y-88587976D01*
X292215533Y-88587976D02*
X292358390Y-88635595D01*
X292358390Y-88635595D02*
X292929819Y-89207023D01*
X292929819Y-89207023D02*
X292929819Y-88587976D01*
X291929819Y-88254642D02*
X291929819Y-87587976D01*
X291929819Y-87587976D02*
X292929819Y-88016547D01*
X291929819Y-86730833D02*
X291929819Y-87207023D01*
X291929819Y-87207023D02*
X292406009Y-87254642D01*
X292406009Y-87254642D02*
X292358390Y-87207023D01*
X292358390Y-87207023D02*
X292310771Y-87111785D01*
X292310771Y-87111785D02*
X292310771Y-86873690D01*
X292310771Y-86873690D02*
X292358390Y-86778452D01*
X292358390Y-86778452D02*
X292406009Y-86730833D01*
X292406009Y-86730833D02*
X292501247Y-86683214D01*
X292501247Y-86683214D02*
X292739342Y-86683214D01*
X292739342Y-86683214D02*
X292834580Y-86730833D01*
X292834580Y-86730833D02*
X292882200Y-86778452D01*
X292882200Y-86778452D02*
X292929819Y-86873690D01*
X292929819Y-86873690D02*
X292929819Y-87111785D01*
X292929819Y-87111785D02*
X292882200Y-87207023D01*
X292882200Y-87207023D02*
X292834580Y-87254642D01*
X291929819Y-86064166D02*
X291929819Y-85968928D01*
X291929819Y-85968928D02*
X291977438Y-85873690D01*
X291977438Y-85873690D02*
X292025057Y-85826071D01*
X292025057Y-85826071D02*
X292120295Y-85778452D01*
X292120295Y-85778452D02*
X292310771Y-85730833D01*
X292310771Y-85730833D02*
X292548866Y-85730833D01*
X292548866Y-85730833D02*
X292739342Y-85778452D01*
X292739342Y-85778452D02*
X292834580Y-85826071D01*
X292834580Y-85826071D02*
X292882200Y-85873690D01*
X292882200Y-85873690D02*
X292929819Y-85968928D01*
X292929819Y-85968928D02*
X292929819Y-86064166D01*
X292929819Y-86064166D02*
X292882200Y-86159404D01*
X292882200Y-86159404D02*
X292834580Y-86207023D01*
X292834580Y-86207023D02*
X292739342Y-86254642D01*
X292739342Y-86254642D02*
X292548866Y-86302261D01*
X292548866Y-86302261D02*
X292310771Y-86302261D01*
X292310771Y-86302261D02*
X292120295Y-86254642D01*
X292120295Y-86254642D02*
X292025057Y-86207023D01*
X292025057Y-86207023D02*
X291977438Y-86159404D01*
X291977438Y-86159404D02*
X291929819Y-86064166D01*
X292929819Y-84540356D02*
X292263152Y-84540356D01*
X292358390Y-84540356D02*
X292310771Y-84492737D01*
X292310771Y-84492737D02*
X292263152Y-84397499D01*
X292263152Y-84397499D02*
X292263152Y-84254642D01*
X292263152Y-84254642D02*
X292310771Y-84159404D01*
X292310771Y-84159404D02*
X292406009Y-84111785D01*
X292406009Y-84111785D02*
X292929819Y-84111785D01*
X292406009Y-84111785D02*
X292310771Y-84064166D01*
X292310771Y-84064166D02*
X292263152Y-83968928D01*
X292263152Y-83968928D02*
X292263152Y-83826071D01*
X292263152Y-83826071D02*
X292310771Y-83730832D01*
X292310771Y-83730832D02*
X292406009Y-83683213D01*
X292406009Y-83683213D02*
X292929819Y-83683213D01*
X292929819Y-83207023D02*
X292263152Y-83207023D01*
X292358390Y-83207023D02*
X292310771Y-83159404D01*
X292310771Y-83159404D02*
X292263152Y-83064166D01*
X292263152Y-83064166D02*
X292263152Y-82921309D01*
X292263152Y-82921309D02*
X292310771Y-82826071D01*
X292310771Y-82826071D02*
X292406009Y-82778452D01*
X292406009Y-82778452D02*
X292929819Y-82778452D01*
X292406009Y-82778452D02*
X292310771Y-82730833D01*
X292310771Y-82730833D02*
X292263152Y-82635595D01*
X292263152Y-82635595D02*
X292263152Y-82492738D01*
X292263152Y-82492738D02*
X292310771Y-82397499D01*
X292310771Y-82397499D02*
X292406009Y-82349880D01*
X292406009Y-82349880D02*
X292929819Y-82349880D01*
X273030000Y-17760000D02*
X294211420Y-17760000D01*
X273030000Y-157035000D02*
X294211420Y-157035000D01*
X293625000Y-17760000D02*
X293625000Y-157035000D01*
X293625000Y-17760000D02*
X293625000Y-157035000D01*
X293625000Y-17760000D02*
X294211421Y-18886504D01*
X293625000Y-17760000D02*
X293038579Y-18886504D01*
X293625000Y-157035000D02*
X293038579Y-155908496D01*
X293625000Y-157035000D02*
X294211421Y-155908496D01*
X141972262Y-166125057D02*
X142019881Y-166077438D01*
X142019881Y-166077438D02*
X142115119Y-166029819D01*
X142115119Y-166029819D02*
X142353214Y-166029819D01*
X142353214Y-166029819D02*
X142448452Y-166077438D01*
X142448452Y-166077438D02*
X142496071Y-166125057D01*
X142496071Y-166125057D02*
X142543690Y-166220295D01*
X142543690Y-166220295D02*
X142543690Y-166315533D01*
X142543690Y-166315533D02*
X142496071Y-166458390D01*
X142496071Y-166458390D02*
X141924643Y-167029819D01*
X141924643Y-167029819D02*
X142543690Y-167029819D01*
X143448452Y-166029819D02*
X142972262Y-166029819D01*
X142972262Y-166029819D02*
X142924643Y-166506009D01*
X142924643Y-166506009D02*
X142972262Y-166458390D01*
X142972262Y-166458390D02*
X143067500Y-166410771D01*
X143067500Y-166410771D02*
X143305595Y-166410771D01*
X143305595Y-166410771D02*
X143400833Y-166458390D01*
X143400833Y-166458390D02*
X143448452Y-166506009D01*
X143448452Y-166506009D02*
X143496071Y-166601247D01*
X143496071Y-166601247D02*
X143496071Y-166839342D01*
X143496071Y-166839342D02*
X143448452Y-166934580D01*
X143448452Y-166934580D02*
X143400833Y-166982200D01*
X143400833Y-166982200D02*
X143305595Y-167029819D01*
X143305595Y-167029819D02*
X143067500Y-167029819D01*
X143067500Y-167029819D02*
X142972262Y-166982200D01*
X142972262Y-166982200D02*
X142924643Y-166934580D01*
X143972262Y-167029819D02*
X144162738Y-167029819D01*
X144162738Y-167029819D02*
X144257976Y-166982200D01*
X144257976Y-166982200D02*
X144305595Y-166934580D01*
X144305595Y-166934580D02*
X144400833Y-166791723D01*
X144400833Y-166791723D02*
X144448452Y-166601247D01*
X144448452Y-166601247D02*
X144448452Y-166220295D01*
X144448452Y-166220295D02*
X144400833Y-166125057D01*
X144400833Y-166125057D02*
X144353214Y-166077438D01*
X144353214Y-166077438D02*
X144257976Y-166029819D01*
X144257976Y-166029819D02*
X144067500Y-166029819D01*
X144067500Y-166029819D02*
X143972262Y-166077438D01*
X143972262Y-166077438D02*
X143924643Y-166125057D01*
X143924643Y-166125057D02*
X143877024Y-166220295D01*
X143877024Y-166220295D02*
X143877024Y-166458390D01*
X143877024Y-166458390D02*
X143924643Y-166553628D01*
X143924643Y-166553628D02*
X143972262Y-166601247D01*
X143972262Y-166601247D02*
X144067500Y-166648866D01*
X144067500Y-166648866D02*
X144257976Y-166648866D01*
X144257976Y-166648866D02*
X144353214Y-166601247D01*
X144353214Y-166601247D02*
X144400833Y-166553628D01*
X144400833Y-166553628D02*
X144448452Y-166458390D01*
X144877024Y-166934580D02*
X144924643Y-166982200D01*
X144924643Y-166982200D02*
X144877024Y-167029819D01*
X144877024Y-167029819D02*
X144829405Y-166982200D01*
X144829405Y-166982200D02*
X144877024Y-166934580D01*
X144877024Y-166934580D02*
X144877024Y-167029819D01*
X145305595Y-166125057D02*
X145353214Y-166077438D01*
X145353214Y-166077438D02*
X145448452Y-166029819D01*
X145448452Y-166029819D02*
X145686547Y-166029819D01*
X145686547Y-166029819D02*
X145781785Y-166077438D01*
X145781785Y-166077438D02*
X145829404Y-166125057D01*
X145829404Y-166125057D02*
X145877023Y-166220295D01*
X145877023Y-166220295D02*
X145877023Y-166315533D01*
X145877023Y-166315533D02*
X145829404Y-166458390D01*
X145829404Y-166458390D02*
X145257976Y-167029819D01*
X145257976Y-167029819D02*
X145877023Y-167029819D01*
X146210357Y-166029819D02*
X146877023Y-166029819D01*
X146877023Y-166029819D02*
X146448452Y-167029819D01*
X147734166Y-166029819D02*
X147257976Y-166029819D01*
X147257976Y-166029819D02*
X147210357Y-166506009D01*
X147210357Y-166506009D02*
X147257976Y-166458390D01*
X147257976Y-166458390D02*
X147353214Y-166410771D01*
X147353214Y-166410771D02*
X147591309Y-166410771D01*
X147591309Y-166410771D02*
X147686547Y-166458390D01*
X147686547Y-166458390D02*
X147734166Y-166506009D01*
X147734166Y-166506009D02*
X147781785Y-166601247D01*
X147781785Y-166601247D02*
X147781785Y-166839342D01*
X147781785Y-166839342D02*
X147734166Y-166934580D01*
X147734166Y-166934580D02*
X147686547Y-166982200D01*
X147686547Y-166982200D02*
X147591309Y-167029819D01*
X147591309Y-167029819D02*
X147353214Y-167029819D01*
X147353214Y-167029819D02*
X147257976Y-166982200D01*
X147257976Y-166982200D02*
X147210357Y-166934580D01*
X148400833Y-166029819D02*
X148496071Y-166029819D01*
X148496071Y-166029819D02*
X148591309Y-166077438D01*
X148591309Y-166077438D02*
X148638928Y-166125057D01*
X148638928Y-166125057D02*
X148686547Y-166220295D01*
X148686547Y-166220295D02*
X148734166Y-166410771D01*
X148734166Y-166410771D02*
X148734166Y-166648866D01*
X148734166Y-166648866D02*
X148686547Y-166839342D01*
X148686547Y-166839342D02*
X148638928Y-166934580D01*
X148638928Y-166934580D02*
X148591309Y-166982200D01*
X148591309Y-166982200D02*
X148496071Y-167029819D01*
X148496071Y-167029819D02*
X148400833Y-167029819D01*
X148400833Y-167029819D02*
X148305595Y-166982200D01*
X148305595Y-166982200D02*
X148257976Y-166934580D01*
X148257976Y-166934580D02*
X148210357Y-166839342D01*
X148210357Y-166839342D02*
X148162738Y-166648866D01*
X148162738Y-166648866D02*
X148162738Y-166410771D01*
X148162738Y-166410771D02*
X148210357Y-166220295D01*
X148210357Y-166220295D02*
X148257976Y-166125057D01*
X148257976Y-166125057D02*
X148305595Y-166077438D01*
X148305595Y-166077438D02*
X148400833Y-166029819D01*
X149924643Y-167029819D02*
X149924643Y-166363152D01*
X149924643Y-166458390D02*
X149972262Y-166410771D01*
X149972262Y-166410771D02*
X150067500Y-166363152D01*
X150067500Y-166363152D02*
X150210357Y-166363152D01*
X150210357Y-166363152D02*
X150305595Y-166410771D01*
X150305595Y-166410771D02*
X150353214Y-166506009D01*
X150353214Y-166506009D02*
X150353214Y-167029819D01*
X150353214Y-166506009D02*
X150400833Y-166410771D01*
X150400833Y-166410771D02*
X150496071Y-166363152D01*
X150496071Y-166363152D02*
X150638928Y-166363152D01*
X150638928Y-166363152D02*
X150734167Y-166410771D01*
X150734167Y-166410771D02*
X150781786Y-166506009D01*
X150781786Y-166506009D02*
X150781786Y-167029819D01*
X151257976Y-167029819D02*
X151257976Y-166363152D01*
X151257976Y-166458390D02*
X151305595Y-166410771D01*
X151305595Y-166410771D02*
X151400833Y-166363152D01*
X151400833Y-166363152D02*
X151543690Y-166363152D01*
X151543690Y-166363152D02*
X151638928Y-166410771D01*
X151638928Y-166410771D02*
X151686547Y-166506009D01*
X151686547Y-166506009D02*
X151686547Y-167029819D01*
X151686547Y-166506009D02*
X151734166Y-166410771D01*
X151734166Y-166410771D02*
X151829404Y-166363152D01*
X151829404Y-166363152D02*
X151972261Y-166363152D01*
X151972261Y-166363152D02*
X152067500Y-166410771D01*
X152067500Y-166410771D02*
X152115119Y-166506009D01*
X152115119Y-166506009D02*
X152115119Y-167029819D01*
X276705000Y-152535000D02*
X276705000Y-168311420D01*
X17430000Y-152535000D02*
X17430000Y-168311420D01*
X276705000Y-167725000D02*
X17430000Y-167725000D01*
X276705000Y-167725000D02*
X17430000Y-167725000D01*
X276705000Y-167725000D02*
X275578496Y-168311421D01*
X276705000Y-167725000D02*
X275578496Y-167138579D01*
X17430000Y-167725000D02*
X18556504Y-167138579D01*
X17430000Y-167725000D02*
X18556504Y-168311421D01*
%TO.C,H2*%
X24080000Y-21210000D02*
G75*
G02*
X17680000Y-21210000I-3200000J0D01*
G01*
X17680000Y-21210000D02*
G75*
G02*
X24080000Y-21210000I3200000J0D01*
G01*
%TO.C,H4*%
X24080000Y-152860000D02*
G75*
G02*
X17680000Y-152860000I-3200000J0D01*
G01*
X17680000Y-152860000D02*
G75*
G02*
X24080000Y-152860000I3200000J0D01*
G01*
%TO.C,H1*%
X275730000Y-21210000D02*
G75*
G02*
X269330000Y-21210000I-3200000J0D01*
G01*
X269330000Y-21210000D02*
G75*
G02*
X275730000Y-21210000I3200000J0D01*
G01*
%TO.C,H3*%
X275730000Y-152860000D02*
G75*
G02*
X269330000Y-152860000I-3200000J0D01*
G01*
X269330000Y-152860000D02*
G75*
G02*
X275730000Y-152860000I3200000J0D01*
G01*
%TD*%
M02*
