%TF.GenerationSoftware,KiCad,Pcbnew,8.0.0*%
%TF.CreationDate,2024-07-08T15:04:36+07:00*%
%TF.ProjectId,SmartEnergyMag_System,536d6172-7445-46e6-9572-67794d61675f,rev?*%
%TF.SameCoordinates,Original*%
%TF.FileFunction,Soldermask,Top*%
%TF.FilePolarity,Negative*%
%FSLAX46Y46*%
G04 Gerber Fmt 4.6, Leading zero omitted, Abs format (unit mm)*
G04 Created by KiCad (PCBNEW 8.0.0) date 2024-07-08 15:04:36*
%MOMM*%
%LPD*%
G01*
G04 APERTURE LIST*
G04 Aperture macros list*
%AMRoundRect*
0 Rectangle with rounded corners*
0 $1 Rounding radius*
0 $2 $3 $4 $5 $6 $7 $8 $9 X,Y pos of 4 corners*
0 Add a 4 corners polygon primitive as box body*
4,1,4,$2,$3,$4,$5,$6,$7,$8,$9,$2,$3,0*
0 Add four circle primitives for the rounded corners*
1,1,$1+$1,$2,$3*
1,1,$1+$1,$4,$5*
1,1,$1+$1,$6,$7*
1,1,$1+$1,$8,$9*
0 Add four rect primitives between the rounded corners*
20,1,$1+$1,$2,$3,$4,$5,0*
20,1,$1+$1,$4,$5,$6,$7,0*
20,1,$1+$1,$6,$7,$8,$9,0*
20,1,$1+$1,$8,$9,$2,$3,0*%
%AMFreePoly0*
4,1,45,-3.000000,1.500000,-2.988481,1.685539,-2.937641,1.928004,-2.847586,2.158795,-2.720773,2.371615,-2.560660,2.560660,-2.371615,2.720773,-2.158795,2.847586,-1.928004,2.937641,-1.685539,2.988481,-1.500000,3.000000,1.500000,3.000000,1.685539,2.988481,1.928004,2.937641,2.158795,2.847586,2.371615,2.720773,2.560660,2.560660,2.720773,2.371615,2.847586,2.158795,2.937641,1.928004,
2.988481,1.685539,3.000000,1.500000,3.000000,-1.500000,2.988481,-1.685539,2.937641,-1.928004,2.847586,-2.158795,2.720773,-2.371615,2.560660,-2.560660,2.371615,-2.720773,2.158795,-2.847586,1.928004,-2.937641,1.685539,-2.988481,1.500000,-3.000000,-1.500000,-3.000000,-1.685539,-2.988481,-1.928004,-2.937641,-2.158795,-2.847586,-2.371615,-2.720773,-2.560660,-2.560660,-2.720773,-2.371615,
-2.847586,-2.158795,-2.937641,-1.928004,-2.988481,-1.685539,-3.000000,-1.500000,-3.000000,1.500000,-3.000000,1.500000,$1*%
%AMFreePoly1*
4,1,17,2.675000,1.605000,1.875000,1.605000,1.875000,0.935000,2.675000,0.935000,2.675000,0.335000,1.875000,0.335000,1.875000,-0.335000,2.675000,-0.335000,2.675000,-0.935000,1.875000,-0.935000,1.875000,-1.605000,2.675000,-1.605000,2.675000,-2.205000,-1.875000,-2.205000,-1.875000,2.205000,2.675000,2.205000,2.675000,1.605000,2.675000,1.605000,$1*%
%AMFreePoly2*
4,1,9,3.862500,-0.866500,0.737500,-0.866500,0.737500,-0.450000,-0.737500,-0.450000,-0.737500,0.450000,0.737500,0.450000,0.737500,0.866500,3.862500,0.866500,3.862500,-0.866500,3.862500,-0.866500,$1*%
G04 Aperture macros list end*
%ADD10RoundRect,0.200000X-0.275000X0.200000X-0.275000X-0.200000X0.275000X-0.200000X0.275000X0.200000X0*%
%ADD11C,1.000000*%
%ADD12RoundRect,0.250000X0.750000X-0.600000X0.750000X0.600000X-0.750000X0.600000X-0.750000X-0.600000X0*%
%ADD13O,2.000000X1.700000*%
%ADD14R,3.000000X3.000000*%
%ADD15C,3.000000*%
%ADD16RoundRect,0.225000X0.225000X0.250000X-0.225000X0.250000X-0.225000X-0.250000X0.225000X-0.250000X0*%
%ADD17RoundRect,0.135000X0.185000X-0.135000X0.185000X0.135000X-0.185000X0.135000X-0.185000X-0.135000X0*%
%ADD18RoundRect,0.225000X-0.225000X-0.250000X0.225000X-0.250000X0.225000X0.250000X-0.225000X0.250000X0*%
%ADD19R,1.600000X1.600000*%
%ADD20O,1.600000X1.600000*%
%ADD21C,2.000000*%
%ADD22RoundRect,0.218750X0.256250X-0.218750X0.256250X0.218750X-0.256250X0.218750X-0.256250X-0.218750X0*%
%ADD23RoundRect,0.112500X-0.112500X0.187500X-0.112500X-0.187500X0.112500X-0.187500X0.112500X0.187500X0*%
%ADD24C,2.700000*%
%ADD25RoundRect,0.250000X-0.325000X-0.650000X0.325000X-0.650000X0.325000X0.650000X-0.325000X0.650000X0*%
%ADD26RoundRect,0.140000X0.170000X-0.140000X0.170000X0.140000X-0.170000X0.140000X-0.170000X-0.140000X0*%
%ADD27C,1.400000*%
%ADD28O,1.400000X1.400000*%
%ADD29RoundRect,0.200000X0.200000X0.275000X-0.200000X0.275000X-0.200000X-0.275000X0.200000X-0.275000X0*%
%ADD30RoundRect,0.200000X0.275000X-0.200000X0.275000X0.200000X-0.275000X0.200000X-0.275000X-0.200000X0*%
%ADD31RoundRect,0.062500X0.062500X-0.117500X0.062500X0.117500X-0.062500X0.117500X-0.062500X-0.117500X0*%
%ADD32RoundRect,0.250000X-0.400000X-0.450000X0.400000X-0.450000X0.400000X0.450000X-0.400000X0.450000X0*%
%ADD33R,1.800000X1.000000*%
%ADD34RoundRect,0.062500X0.375000X0.062500X-0.375000X0.062500X-0.375000X-0.062500X0.375000X-0.062500X0*%
%ADD35RoundRect,0.062500X0.062500X0.375000X-0.062500X0.375000X-0.062500X-0.375000X0.062500X-0.375000X0*%
%ADD36R,2.500000X2.500000*%
%ADD37RoundRect,0.140000X0.140000X0.170000X-0.140000X0.170000X-0.140000X-0.170000X0.140000X-0.170000X0*%
%ADD38RoundRect,0.076200X-0.400000X-0.650000X0.400000X-0.650000X0.400000X0.650000X-0.400000X0.650000X0*%
%ADD39RoundRect,0.076200X-1.050000X-1.500000X1.050000X-1.500000X1.050000X1.500000X-1.050000X1.500000X0*%
%ADD40RoundRect,0.062500X0.062500X-0.412500X0.062500X0.412500X-0.062500X0.412500X-0.062500X-0.412500X0*%
%ADD41RoundRect,0.062500X0.412500X-0.062500X0.412500X0.062500X-0.412500X0.062500X-0.412500X-0.062500X0*%
%ADD42R,3.100000X3.100000*%
%ADD43RoundRect,0.150000X-0.150000X0.825000X-0.150000X-0.825000X0.150000X-0.825000X0.150000X0.825000X0*%
%ADD44RoundRect,0.112500X-0.187500X-0.112500X0.187500X-0.112500X0.187500X0.112500X-0.187500X0.112500X0*%
%ADD45RoundRect,0.250000X-1.000000X-0.650000X1.000000X-0.650000X1.000000X0.650000X-1.000000X0.650000X0*%
%ADD46RoundRect,0.250000X0.550000X-1.500000X0.550000X1.500000X-0.550000X1.500000X-0.550000X-1.500000X0*%
%ADD47RoundRect,0.200000X-0.200000X-0.275000X0.200000X-0.275000X0.200000X0.275000X-0.200000X0.275000X0*%
%ADD48RoundRect,0.225000X0.250000X-0.225000X0.250000X0.225000X-0.250000X0.225000X-0.250000X-0.225000X0*%
%ADD49RoundRect,0.218750X-0.218750X-0.381250X0.218750X-0.381250X0.218750X0.381250X-0.218750X0.381250X0*%
%ADD50RoundRect,0.250000X-0.725000X0.600000X-0.725000X-0.600000X0.725000X-0.600000X0.725000X0.600000X0*%
%ADD51O,1.950000X1.700000*%
%ADD52RoundRect,0.275000X1.825000X0.825000X-1.825000X0.825000X-1.825000X-0.825000X1.825000X-0.825000X0*%
%ADD53RoundRect,0.250000X0.750000X-0.750000X0.750000X0.750000X-0.750000X0.750000X-0.750000X-0.750000X0*%
%ADD54RoundRect,0.135000X-0.135000X-0.185000X0.135000X-0.185000X0.135000X0.185000X-0.135000X0.185000X0*%
%ADD55RoundRect,0.250000X0.650000X-0.325000X0.650000X0.325000X-0.650000X0.325000X-0.650000X-0.325000X0*%
%ADD56RoundRect,0.250000X0.250000X0.475000X-0.250000X0.475000X-0.250000X-0.475000X0.250000X-0.475000X0*%
%ADD57RoundRect,0.150000X-0.825000X-0.150000X0.825000X-0.150000X0.825000X0.150000X-0.825000X0.150000X0*%
%ADD58RoundRect,0.100000X-0.100000X0.225000X-0.100000X-0.225000X0.100000X-0.225000X0.100000X0.225000X0*%
%ADD59C,0.800000*%
%ADD60C,6.400000*%
%ADD61RoundRect,0.135000X-0.185000X0.135000X-0.185000X-0.135000X0.185000X-0.135000X0.185000X0.135000X0*%
%ADD62RoundRect,0.250000X-0.750000X0.600000X-0.750000X-0.600000X0.750000X-0.600000X0.750000X0.600000X0*%
%ADD63R,1.800000X1.800000*%
%ADD64C,1.800000*%
%ADD65R,2.850000X6.600000*%
%ADD66RoundRect,0.250000X-0.600000X-0.725000X0.600000X-0.725000X0.600000X0.725000X-0.600000X0.725000X0*%
%ADD67O,1.700000X1.950000*%
%ADD68RoundRect,0.250000X-0.625000X0.312500X-0.625000X-0.312500X0.625000X-0.312500X0.625000X0.312500X0*%
%ADD69RoundRect,0.150000X-0.150000X0.662500X-0.150000X-0.662500X0.150000X-0.662500X0.150000X0.662500X0*%
%ADD70RoundRect,0.112500X0.112500X-0.187500X0.112500X0.187500X-0.112500X0.187500X-0.112500X-0.187500X0*%
%ADD71RoundRect,0.250000X1.000000X0.650000X-1.000000X0.650000X-1.000000X-0.650000X1.000000X-0.650000X0*%
%ADD72RoundRect,0.250000X0.475000X-0.250000X0.475000X0.250000X-0.475000X0.250000X-0.475000X-0.250000X0*%
%ADD73C,3.200000*%
%ADD74RoundRect,1.500000X1.500000X1.500000X-1.500000X1.500000X-1.500000X-1.500000X1.500000X-1.500000X0*%
%ADD75FreePoly0,180.000000*%
%ADD76RoundRect,0.150000X0.587500X0.150000X-0.587500X0.150000X-0.587500X-0.150000X0.587500X-0.150000X0*%
%ADD77RoundRect,0.225000X0.017678X-0.335876X0.335876X-0.017678X-0.017678X0.335876X-0.335876X0.017678X0*%
%ADD78RoundRect,0.102000X-0.525000X-0.325000X0.525000X-0.325000X0.525000X0.325000X-0.525000X0.325000X0*%
%ADD79C,0.650000*%
%ADD80R,0.600000X1.240000*%
%ADD81R,0.300000X1.240000*%
%ADD82O,1.000000X2.100000*%
%ADD83O,1.000000X1.800000*%
%ADD84RoundRect,0.102000X-0.654000X-0.654000X0.654000X-0.654000X0.654000X0.654000X-0.654000X0.654000X0*%
%ADD85C,1.512000*%
%ADD86C,2.529000*%
%ADD87R,0.900000X1.500000*%
%ADD88R,1.500000X0.900000*%
%ADD89C,0.600000*%
%ADD90R,3.800000X3.800000*%
%ADD91RoundRect,0.250000X-0.550000X1.500000X-0.550000X-1.500000X0.550000X-1.500000X0.550000X1.500000X0*%
%ADD92RoundRect,0.225000X-0.017678X0.335876X-0.335876X0.017678X0.017678X-0.335876X0.335876X-0.017678X0*%
%ADD93RoundRect,0.218750X-0.256250X0.218750X-0.256250X-0.218750X0.256250X-0.218750X0.256250X0.218750X0*%
%ADD94RoundRect,0.200000X-2.300000X0.800000X-2.300000X-0.800000X2.300000X-0.800000X2.300000X0.800000X0*%
%ADD95RoundRect,0.140000X-0.140000X-0.170000X0.140000X-0.170000X0.140000X0.170000X-0.140000X0.170000X0*%
%ADD96RoundRect,0.250000X-1.250000X0.750000X-1.250000X-0.750000X1.250000X-0.750000X1.250000X0.750000X0*%
%ADD97RoundRect,0.250000X1.250000X-0.750000X1.250000X0.750000X-1.250000X0.750000X-1.250000X-0.750000X0*%
%ADD98RoundRect,0.075000X-0.075000X0.662500X-0.075000X-0.662500X0.075000X-0.662500X0.075000X0.662500X0*%
%ADD99RoundRect,0.075000X-0.662500X0.075000X-0.662500X-0.075000X0.662500X-0.075000X0.662500X0.075000X0*%
%ADD100R,1.905000X2.000000*%
%ADD101O,1.905000X2.000000*%
%ADD102C,0.900000*%
%ADD103RoundRect,0.102000X0.350000X-0.800000X0.350000X0.800000X-0.350000X0.800000X-0.350000X-0.800000X0*%
%ADD104RoundRect,0.102000X0.700000X-0.800000X0.700000X0.800000X-0.700000X0.800000X-0.700000X-0.800000X0*%
%ADD105RoundRect,0.102000X0.700000X-1.100000X0.700000X1.100000X-0.700000X1.100000X-0.700000X-1.100000X0*%
%ADD106RoundRect,0.102000X0.900000X-0.700000X0.900000X0.700000X-0.900000X0.700000X-0.900000X-0.700000X0*%
%ADD107RoundRect,0.225000X0.335876X0.017678X0.017678X0.335876X-0.335876X-0.017678X-0.017678X-0.335876X0*%
%ADD108RoundRect,0.218750X0.218750X0.256250X-0.218750X0.256250X-0.218750X-0.256250X0.218750X-0.256250X0*%
%ADD109RoundRect,0.102000X-0.400000X-1.450000X0.400000X-1.450000X0.400000X1.450000X-0.400000X1.450000X0*%
%ADD110RoundRect,0.102000X-0.900000X-1.900000X0.900000X-1.900000X0.900000X1.900000X-0.900000X1.900000X0*%
%ADD111RoundRect,0.225000X-0.250000X0.225000X-0.250000X-0.225000X0.250000X-0.225000X0.250000X0.225000X0*%
%ADD112RoundRect,0.150000X0.150000X-0.825000X0.150000X0.825000X-0.150000X0.825000X-0.150000X-0.825000X0*%
%ADD113RoundRect,0.150000X-0.150000X0.512500X-0.150000X-0.512500X0.150000X-0.512500X0.150000X0.512500X0*%
%ADD114RoundRect,0.250000X0.600000X0.725000X-0.600000X0.725000X-0.600000X-0.725000X0.600000X-0.725000X0*%
%ADD115C,1.524000*%
%ADD116FreePoly1,180.000000*%
%ADD117RoundRect,0.125000X0.300000X0.125000X-0.300000X0.125000X-0.300000X-0.125000X0.300000X-0.125000X0*%
%ADD118R,1.000000X0.800000*%
%ADD119R,0.700000X1.500000*%
%ADD120RoundRect,0.102000X0.450000X-0.900000X0.450000X0.900000X-0.450000X0.900000X-0.450000X-0.900000X0*%
%ADD121RoundRect,0.075000X-0.700000X-0.075000X0.700000X-0.075000X0.700000X0.075000X-0.700000X0.075000X0*%
%ADD122RoundRect,0.075000X-0.075000X-0.700000X0.075000X-0.700000X0.075000X0.700000X-0.075000X0.700000X0*%
%ADD123RoundRect,0.076200X0.650000X-0.400000X0.650000X0.400000X-0.650000X0.400000X-0.650000X-0.400000X0*%
%ADD124RoundRect,0.076200X1.500000X-1.050000X1.500000X1.050000X-1.500000X1.050000X-1.500000X-1.050000X0*%
%ADD125C,3.250000*%
%ADD126RoundRect,0.102000X0.699000X0.699000X-0.699000X0.699000X-0.699000X-0.699000X0.699000X-0.699000X0*%
%ADD127C,1.602000*%
%ADD128C,1.734000*%
%ADD129C,2.649000*%
%ADD130RoundRect,0.150000X-0.150000X0.587500X-0.150000X-0.587500X0.150000X-0.587500X0.150000X0.587500X0*%
%ADD131RoundRect,0.250000X-0.250000X-0.475000X0.250000X-0.475000X0.250000X0.475000X-0.250000X0.475000X0*%
%ADD132C,4.000000*%
%ADD133C,1.600000*%
%ADD134R,1.200000X1.400000*%
%ADD135RoundRect,0.112500X0.187500X0.112500X-0.187500X0.112500X-0.187500X-0.112500X0.187500X-0.112500X0*%
%ADD136RoundRect,0.225000X-0.225000X0.425000X-0.225000X-0.425000X0.225000X-0.425000X0.225000X0.425000X0*%
%ADD137FreePoly2,270.000000*%
%ADD138RoundRect,0.135000X0.135000X0.185000X-0.135000X0.185000X-0.135000X-0.185000X0.135000X-0.185000X0*%
%ADD139RoundRect,0.218750X-0.218750X-0.256250X0.218750X-0.256250X0.218750X0.256250X-0.218750X0.256250X0*%
%ADD140RoundRect,0.150000X0.662500X0.150000X-0.662500X0.150000X-0.662500X-0.150000X0.662500X-0.150000X0*%
%ADD141C,1.300000*%
%ADD142RoundRect,0.102000X1.300000X-1.830000X1.300000X1.830000X-1.300000X1.830000X-1.300000X-1.830000X0*%
%ADD143RoundRect,0.102000X-1.300000X1.770000X-1.300000X-1.770000X1.300000X-1.770000X1.300000X1.770000X0*%
G04 APERTURE END LIST*
D10*
%TO.C,R59*%
X174980000Y-87051250D03*
X174980000Y-88701250D03*
%TD*%
%TO.C,R20*%
X251849572Y-123935000D03*
X251849572Y-125585000D03*
%TD*%
D11*
%TO.C,TP6*%
X214050000Y-122150000D03*
%TD*%
D12*
%TO.C,J26*%
X179265000Y-80420000D03*
D13*
X179265000Y-77920000D03*
%TD*%
D14*
%TO.C,J33*%
X59430000Y-145810000D03*
D15*
X64430000Y-145810000D03*
%TD*%
D16*
%TO.C,C60*%
X224675000Y-129900000D03*
X223125000Y-129900000D03*
%TD*%
D10*
%TO.C,R133*%
X188120000Y-149410000D03*
X188120000Y-151060000D03*
%TD*%
D11*
%TO.C,TP1*%
X242220000Y-94900000D03*
%TD*%
D17*
%TO.C,R92*%
X115270000Y-141996243D03*
X115270000Y-140976245D03*
%TD*%
D18*
%TO.C,C57*%
X239625000Y-66985000D03*
X241175000Y-66985000D03*
%TD*%
D19*
%TO.C,U7*%
X59824375Y-76110000D03*
D20*
X59824375Y-73570000D03*
X59824375Y-71030001D03*
X52204375Y-71030000D03*
X52204375Y-73570000D03*
X52204375Y-76110000D03*
%TD*%
D11*
%TO.C,TP17*%
X107350000Y-147900000D03*
%TD*%
D21*
%TO.C,TP19*%
X150290000Y-139940000D03*
%TD*%
D22*
%TO.C,D36*%
X204519358Y-47800806D03*
X204519358Y-46225804D03*
%TD*%
D12*
%TO.C,J22*%
X179265000Y-115245000D03*
D13*
X179265000Y-112745000D03*
%TD*%
D23*
%TO.C,D17*%
X166060000Y-112967500D03*
X166060000Y-115067500D03*
%TD*%
D24*
%TO.C,F2*%
X29760000Y-134760000D03*
D15*
X29760000Y-146010000D03*
X29760000Y-123509999D03*
%TD*%
D10*
%TO.C,R89*%
X227760000Y-67830000D03*
X227760000Y-69480000D03*
%TD*%
D25*
%TO.C,C65*%
X121084999Y-138232109D03*
X124035001Y-138232109D03*
%TD*%
D26*
%TO.C,C12*%
X246197478Y-118182531D03*
X246197478Y-117222531D03*
%TD*%
D27*
%TO.C,R31*%
X48824376Y-82855001D03*
D28*
X48824376Y-85395001D03*
%TD*%
D29*
%TO.C,R120*%
X151285000Y-131020000D03*
X149635000Y-131020000D03*
%TD*%
D30*
%TO.C,R53*%
X193007500Y-97407500D03*
X193007500Y-95757500D03*
%TD*%
D31*
%TO.C,D3*%
X251840000Y-127160000D03*
X251840000Y-128000000D03*
%TD*%
D10*
%TO.C,R29*%
X216450000Y-122275000D03*
X216450000Y-123925000D03*
%TD*%
D18*
%TO.C,C26*%
X175160000Y-136615000D03*
X176710000Y-136615000D03*
%TD*%
D32*
%TO.C,D38*%
X220922500Y-65345000D03*
X223822500Y-65345000D03*
%TD*%
D33*
%TO.C,Y3*%
X229770000Y-69864999D03*
X229770000Y-67365001D03*
%TD*%
D34*
%TO.C,U2*%
X250304978Y-113577509D03*
X250304977Y-113077509D03*
X250304978Y-112577509D03*
X250304978Y-112077509D03*
X250304977Y-111577509D03*
X250304978Y-111077509D03*
D35*
X249617478Y-110390009D03*
X249117478Y-110390010D03*
X248617478Y-110390009D03*
X248117478Y-110390009D03*
X247617478Y-110390010D03*
X247117478Y-110390009D03*
D34*
X246429978Y-111077509D03*
X246429979Y-111577509D03*
X246429978Y-112077509D03*
X246429978Y-112577509D03*
X246429979Y-113077509D03*
X246429978Y-113577509D03*
D35*
X247117478Y-114265009D03*
X247617478Y-114265008D03*
X248117478Y-114265009D03*
X248617478Y-114265009D03*
X249117478Y-114265008D03*
X249617478Y-114265009D03*
D36*
X248367478Y-112327509D03*
%TD*%
D37*
%TO.C,C11*%
X256530000Y-100675000D03*
X255570000Y-100675000D03*
%TD*%
D38*
%TO.C,J27*%
X228150000Y-84350000D03*
X229400000Y-84350000D03*
X230650000Y-84350000D03*
X231900000Y-84350000D03*
X233150000Y-84350000D03*
X234400000Y-84350000D03*
D39*
X225600000Y-87100000D03*
X236950000Y-87100000D03*
%TD*%
D30*
%TO.C,R52*%
X193007500Y-88701250D03*
X193007500Y-87051250D03*
%TD*%
D10*
%TO.C,R78*%
X174980000Y-78345000D03*
X174980000Y-79995000D03*
%TD*%
D40*
%TO.C,U28*%
X230325000Y-135025000D03*
X230825000Y-135025000D03*
X231325000Y-135025000D03*
X231825000Y-135025001D03*
X232325000Y-135025000D03*
X232825000Y-135025000D03*
X233325000Y-135025000D03*
D41*
X234200000Y-134150000D03*
X234200000Y-133650000D03*
X234200000Y-133150000D03*
X234200001Y-132650000D03*
X234200000Y-132150000D03*
X234200000Y-131650000D03*
X234200000Y-131150000D03*
D40*
X233325000Y-130275000D03*
X232825000Y-130275000D03*
X232325000Y-130275000D03*
X231825000Y-130274999D03*
X231325000Y-130275000D03*
X230825000Y-130275000D03*
X230325000Y-130275000D03*
D41*
X229450000Y-131150000D03*
X229450000Y-131650000D03*
X229450000Y-132150000D03*
X229449999Y-132650000D03*
X229450000Y-133150000D03*
X229450000Y-133650000D03*
X229450000Y-134150000D03*
D42*
X231825000Y-132650000D03*
%TD*%
D29*
%TO.C,R119*%
X82675000Y-91950000D03*
X81025000Y-91950000D03*
%TD*%
D43*
%TO.C,U13*%
X165205000Y-131425000D03*
X163935000Y-131425000D03*
X162665000Y-131425000D03*
X161395000Y-131425000D03*
X161395000Y-136375000D03*
X162665000Y-136375000D03*
X163935000Y-136375000D03*
X165205000Y-136375000D03*
%TD*%
D29*
%TO.C,R91*%
X227495000Y-65345000D03*
X225845000Y-65345000D03*
%TD*%
D44*
%TO.C,D11*%
X147642500Y-111825000D03*
X149742500Y-111825000D03*
%TD*%
D45*
%TO.C,D40*%
X127922499Y-138592109D03*
X131922501Y-138592109D03*
%TD*%
D16*
%TO.C,C32*%
X200250000Y-97430611D03*
X198700000Y-97430611D03*
%TD*%
D46*
%TO.C,C69*%
X141815519Y-121728879D03*
X141815519Y-116328879D03*
%TD*%
D47*
%TO.C,R69*%
X198650000Y-116597500D03*
X200300000Y-116597500D03*
%TD*%
D27*
%TO.C,R23*%
X66289999Y-75805002D03*
D28*
X66289999Y-73265002D03*
%TD*%
D30*
%TO.C,R137*%
X233634999Y-126865000D03*
X233634999Y-125215000D03*
%TD*%
D48*
%TO.C,C54*%
X227225000Y-137450000D03*
X227225000Y-135900000D03*
%TD*%
D49*
%TO.C,FB1*%
X255557500Y-102170000D03*
X257682500Y-102170000D03*
%TD*%
D50*
%TO.C,J14*%
X213910001Y-112629998D03*
D51*
X213910001Y-115129998D03*
%TD*%
D52*
%TO.C,K1*%
X75420000Y-60950000D03*
X83020000Y-63650000D03*
D53*
X84970000Y-87950000D03*
X84969999Y-80950000D03*
X84970000Y-84450000D03*
%TD*%
D47*
%TO.C,R63*%
X198650000Y-90439437D03*
X200300000Y-90439437D03*
%TD*%
D27*
%TO.C,R33*%
X55524375Y-97765000D03*
D28*
X55524375Y-100305000D03*
%TD*%
D30*
%TO.C,R121*%
X169940000Y-136890000D03*
X169940000Y-135240000D03*
%TD*%
D29*
%TO.C,R50*%
X176760000Y-135035000D03*
X175110000Y-135035000D03*
%TD*%
D54*
%TO.C,R94*%
X105710001Y-145910000D03*
X106729999Y-145910000D03*
%TD*%
D17*
%TO.C,R9*%
X244914478Y-105124999D03*
X244914478Y-104105001D03*
%TD*%
D55*
%TO.C,C64*%
X136840000Y-132557110D03*
X136840000Y-129607108D03*
%TD*%
D56*
%TO.C,C25*%
X193349999Y-139765000D03*
X191450001Y-139765000D03*
%TD*%
D30*
%TO.C,R55*%
X193007500Y-114820000D03*
X193007500Y-113170000D03*
%TD*%
D12*
%TO.C,J25*%
X179265000Y-89126250D03*
D13*
X179265000Y-86626250D03*
%TD*%
D57*
%TO.C,U21*%
X232475000Y-61880000D03*
X232475000Y-63150000D03*
X232475000Y-64420000D03*
X232475000Y-65690000D03*
X237425000Y-65690000D03*
X237425000Y-64420000D03*
X237425000Y-63150000D03*
X237425000Y-61880000D03*
%TD*%
D10*
%TO.C,R132*%
X184860000Y-149410000D03*
X184860000Y-151060000D03*
%TD*%
D58*
%TO.C,Q1*%
X232750000Y-116175000D03*
X232100000Y-116175001D03*
X231450000Y-116175000D03*
X231450000Y-118075000D03*
X232100000Y-118074999D03*
X232750000Y-118075000D03*
%TD*%
D10*
%TO.C,R58*%
X174980000Y-95757500D03*
X174980000Y-97407500D03*
%TD*%
D16*
%TO.C,C36*%
X200250000Y-114862500D03*
X198700000Y-114862500D03*
%TD*%
D23*
%TO.C,D32*%
X229050000Y-136775000D03*
X229050000Y-138875000D03*
%TD*%
D16*
%TO.C,C34*%
X200250000Y-106147096D03*
X198700000Y-106147096D03*
%TD*%
D47*
%TO.C,R61*%
X198650000Y-81772500D03*
X200300000Y-81772500D03*
%TD*%
D10*
%TO.C,R56*%
X174980000Y-113170000D03*
X174980000Y-114820000D03*
%TD*%
D59*
%TO.C,H2*%
X18480000Y-21210000D03*
X19182944Y-19512944D03*
X19182944Y-22907056D03*
X20880000Y-18810000D03*
D60*
X20880000Y-21210000D03*
D59*
X20880000Y-23610000D03*
X22577056Y-19512944D03*
X22577056Y-22907056D03*
X23280000Y-21210000D03*
%TD*%
D61*
%TO.C,R139*%
X226175000Y-91090001D03*
X226175000Y-92109999D03*
%TD*%
D62*
%TO.C,J18*%
X189134999Y-112745000D03*
D13*
X189134999Y-115245000D03*
%TD*%
D29*
%TO.C,R79*%
X169475000Y-81772500D03*
X167825000Y-81772500D03*
%TD*%
D47*
%TO.C,R67*%
X198650000Y-107882096D03*
X200300000Y-107882096D03*
%TD*%
D23*
%TO.C,D18*%
X166060000Y-104261250D03*
X166060000Y-106361250D03*
%TD*%
D63*
%TO.C,D9*%
X40124375Y-100260000D03*
D64*
X40124375Y-97720000D03*
%TD*%
D55*
%TO.C,C70*%
X136840000Y-121737110D03*
X136840000Y-118787108D03*
%TD*%
D65*
%TO.C,L2*%
X127815000Y-121755782D03*
X133465000Y-121755782D03*
%TD*%
D66*
%TO.C,J20*%
X127240000Y-145917500D03*
D67*
X129740000Y-145917500D03*
X132240000Y-145917500D03*
X134740000Y-145917500D03*
%TD*%
D30*
%TO.C,R128*%
X166040000Y-140015000D03*
X166040000Y-138365000D03*
%TD*%
D68*
%TO.C,R88*%
X198889358Y-40500805D03*
X198889358Y-43425805D03*
%TD*%
D18*
%TO.C,C50*%
X167875000Y-86988813D03*
X169425000Y-86988813D03*
%TD*%
D23*
%TO.C,D21*%
X204090000Y-78142500D03*
X204090000Y-80242500D03*
%TD*%
D47*
%TO.C,R64*%
X198650000Y-93960611D03*
X200300000Y-93960611D03*
%TD*%
D30*
%TO.C,R25*%
X239225000Y-133700000D03*
X239225000Y-132050000D03*
%TD*%
D47*
%TO.C,R62*%
X198650000Y-85263501D03*
X200300000Y-85263501D03*
%TD*%
D29*
%TO.C,R76*%
X169475000Y-90439437D03*
X167825000Y-90439437D03*
%TD*%
%TO.C,R73*%
X169475000Y-102677096D03*
X167825000Y-102677096D03*
%TD*%
D10*
%TO.C,R123*%
X159815000Y-135295000D03*
X159815000Y-136945000D03*
%TD*%
D65*
%TO.C,L4*%
X127815000Y-132740000D03*
X133465000Y-132740000D03*
%TD*%
D16*
%TO.C,C58*%
X241135000Y-61895000D03*
X239585000Y-61895000D03*
%TD*%
D69*
%TO.C,U19*%
X199519358Y-50885805D03*
X198249358Y-50885805D03*
X198249358Y-57260805D03*
X199519358Y-57260805D03*
%TD*%
D47*
%TO.C,R60*%
X198650000Y-76567500D03*
X200300000Y-76567500D03*
%TD*%
D27*
%TO.C,R35*%
X44224375Y-100205000D03*
D28*
X44224375Y-97665000D03*
%TD*%
D70*
%TO.C,D13*%
X202130000Y-88903750D03*
X202130000Y-86803750D03*
%TD*%
D71*
%TO.C,D39*%
X114707501Y-134182109D03*
X110707499Y-134182109D03*
%TD*%
D10*
%TO.C,R17*%
X247559058Y-123935000D03*
X247559058Y-125585000D03*
%TD*%
D30*
%TO.C,R131*%
X147480000Y-140265000D03*
X147480000Y-138615000D03*
%TD*%
D72*
%TO.C,C1*%
X256190000Y-67999998D03*
X256190000Y-66100000D03*
%TD*%
D66*
%TO.C,J15*%
X94070000Y-145917500D03*
D67*
X96570000Y-145917500D03*
X99070000Y-145917500D03*
X101570000Y-145917500D03*
%TD*%
D16*
%TO.C,C14*%
X255900000Y-109325000D03*
X254350000Y-109325000D03*
%TD*%
D21*
%TO.C,TP14*%
X203889358Y-37000000D03*
%TD*%
D30*
%TO.C,R3*%
X251575000Y-49275000D03*
X251575000Y-47625000D03*
%TD*%
D73*
%TO.C,DRA1*%
X266695000Y-102415000D03*
X266695000Y-89915000D03*
X266695000Y-77415000D03*
%TD*%
D47*
%TO.C,R19*%
X156695000Y-129760000D03*
X158345000Y-129760000D03*
%TD*%
D62*
%TO.C,J17*%
X189120000Y-104038750D03*
D13*
X189120000Y-106538750D03*
%TD*%
D74*
%TO.C,J6*%
X183260001Y-32535000D03*
D75*
X173760002Y-32535000D03*
X164260001Y-32535000D03*
X154760001Y-32535000D03*
%TD*%
D76*
%TO.C,Q17*%
X154980000Y-131990000D03*
X154980000Y-130090000D03*
X153104999Y-131040000D03*
%TD*%
D18*
%TO.C,C15*%
X254375000Y-114075000D03*
X255925000Y-114075000D03*
%TD*%
D12*
%TO.C,J24*%
X179265000Y-97832500D03*
D13*
X179265000Y-95332500D03*
%TD*%
D22*
%TO.C,LED2*%
X183230000Y-150982501D03*
X183230000Y-149407499D03*
%TD*%
%TO.C,D7*%
X172830000Y-133475001D03*
X172830000Y-131899999D03*
%TD*%
D77*
%TO.C,C53*%
X223041992Y-134918008D03*
X224138008Y-133821992D03*
%TD*%
D68*
%TO.C,R84*%
X218889359Y-40500805D03*
X218889359Y-43425805D03*
%TD*%
D10*
%TO.C,R46*%
X145670000Y-102090000D03*
X145670000Y-103740000D03*
%TD*%
D48*
%TO.C,C7*%
X168330000Y-136895000D03*
X168330000Y-135345000D03*
%TD*%
D16*
%TO.C,C28*%
X200250000Y-80037500D03*
X198700000Y-80037500D03*
%TD*%
D78*
%TO.C,SW2*%
X254800000Y-56685000D03*
X258950000Y-56685000D03*
X254800000Y-58835000D03*
X258950000Y-58835000D03*
%TD*%
D62*
%TO.C,J16*%
X189060000Y-95332500D03*
D13*
X189060000Y-97832500D03*
%TD*%
D22*
%TO.C,D55*%
X228700000Y-126787501D03*
X228700000Y-125212499D03*
%TD*%
D79*
%TO.C,J3*%
X229090000Y-145475000D03*
X234870000Y-145475000D03*
D80*
X228780000Y-144355000D03*
X229580000Y-144355000D03*
D81*
X230730000Y-144355000D03*
X231730000Y-144355000D03*
X232230000Y-144355000D03*
X233230000Y-144355000D03*
D80*
X234380000Y-144355000D03*
X235180000Y-144355000D03*
X235180000Y-144355000D03*
X234380000Y-144355000D03*
D81*
X233730000Y-144355000D03*
X232730000Y-144355000D03*
X231230000Y-144355000D03*
X230230000Y-144355000D03*
D80*
X229580000Y-144355000D03*
X228780000Y-144355000D03*
D82*
X227660000Y-144955000D03*
D83*
X227660000Y-149155000D03*
D82*
X236300000Y-144955000D03*
D83*
X236300000Y-149155000D03*
%TD*%
D30*
%TO.C,R4*%
X253100000Y-49275000D03*
X253100000Y-47625000D03*
%TD*%
D52*
%TO.C,K5*%
X123690000Y-60950000D03*
X131290000Y-63650000D03*
D53*
X133240000Y-87950000D03*
X133239999Y-80950000D03*
X133240000Y-84450000D03*
%TD*%
D84*
%TO.C,U8*%
X37815500Y-83125001D03*
D85*
X37815500Y-85665001D03*
X37815500Y-88205001D03*
X45435500Y-88205001D03*
X45435500Y-85665001D03*
X45435500Y-83125001D03*
%TD*%
D21*
%TO.C,TP9*%
X160025001Y-120650000D03*
%TD*%
D86*
%TO.C,HS2*%
X56024375Y-57715001D03*
%TD*%
D52*
%TO.C,K4*%
X107600000Y-60950000D03*
X115200000Y-63650000D03*
D53*
X117150000Y-87950000D03*
X117149999Y-80950000D03*
X117150000Y-84450000D03*
%TD*%
D19*
%TO.C,U9*%
X45090000Y-76010000D03*
D20*
X45090000Y-73470000D03*
X45090000Y-70930001D03*
X37470000Y-70930000D03*
X37470000Y-73470000D03*
X37470000Y-76010000D03*
%TD*%
D16*
%TO.C,C33*%
X200250000Y-104412096D03*
X198700000Y-104412096D03*
%TD*%
D21*
%TO.C,TP18*%
X150290000Y-135290000D03*
%TD*%
D87*
%TO.C,U1*%
X258730000Y-73915000D03*
X257460000Y-73915000D03*
X256190000Y-73915000D03*
X254920000Y-73915000D03*
X253650000Y-73915000D03*
X252380000Y-73915000D03*
X251110000Y-73915000D03*
X249840000Y-73915000D03*
X248570000Y-73915000D03*
X247300000Y-73915000D03*
X246030000Y-73915000D03*
X244760000Y-73915000D03*
X243490000Y-73915000D03*
X242220000Y-73915000D03*
D88*
X241125000Y-76950000D03*
X241125000Y-78220000D03*
X241125001Y-79490000D03*
X241125000Y-80760000D03*
X241125000Y-82030000D03*
X241125000Y-83300000D03*
X241125000Y-84570000D03*
X241125001Y-85840000D03*
X241125000Y-87110000D03*
X241125000Y-88380000D03*
D87*
X242220000Y-91415000D03*
X243490000Y-91415000D03*
X244760000Y-91415000D03*
X246030000Y-91415000D03*
X247300000Y-91415000D03*
X248570000Y-91415000D03*
X249840000Y-91415000D03*
X251110000Y-91415000D03*
X252380000Y-91415000D03*
X253650000Y-91415000D03*
X254920000Y-91415000D03*
X256190000Y-91415000D03*
X257460000Y-91415000D03*
X258730000Y-91415000D03*
D89*
X251865000Y-79765000D03*
X250465000Y-79765000D03*
X252565000Y-80465000D03*
X251165000Y-80465000D03*
X249765000Y-80465000D03*
X251865000Y-81165000D03*
D90*
X251165000Y-81165000D03*
D89*
X250465000Y-81165000D03*
X252565000Y-81865000D03*
X251165000Y-81865000D03*
X249765000Y-81865000D03*
X251865000Y-82565000D03*
X250465000Y-82565000D03*
%TD*%
D91*
%TO.C,C59*%
X141815519Y-132573049D03*
X141815519Y-137973049D03*
%TD*%
D30*
%TO.C,R43*%
X122240000Y-106510000D03*
X122240000Y-104860000D03*
%TD*%
D70*
%TO.C,D14*%
X204090000Y-97610000D03*
X204090000Y-95510000D03*
%TD*%
D92*
%TO.C,C61*%
X252648008Y-107801992D03*
X251551992Y-108898008D03*
%TD*%
D74*
%TO.C,J2*%
X67914999Y-32535000D03*
D75*
X58415000Y-32535000D03*
X48914999Y-32535000D03*
X39414999Y-32535000D03*
%TD*%
D10*
%TO.C,R134*%
X191380000Y-149410000D03*
X191380000Y-151060000D03*
%TD*%
D16*
%TO.C,C13*%
X255925000Y-107825000D03*
X254375000Y-107825000D03*
%TD*%
D29*
%TO.C,R126*%
X164125000Y-138375000D03*
X162475000Y-138375000D03*
%TD*%
D16*
%TO.C,C29*%
X200250000Y-86988813D03*
X198700000Y-86988813D03*
%TD*%
D93*
%TO.C,FB2*%
X211350000Y-140012499D03*
X211350000Y-141587501D03*
%TD*%
D21*
%TO.C,TP12*%
X213889358Y-37000000D03*
%TD*%
D29*
%TO.C,R96*%
X97715000Y-93340000D03*
X96065000Y-93340000D03*
%TD*%
D10*
%TO.C,R28*%
X217950000Y-122275000D03*
X217950000Y-123925000D03*
%TD*%
D11*
%TO.C,TP16*%
X111480000Y-147900000D03*
%TD*%
D10*
%TO.C,R45*%
X123830000Y-104860000D03*
X123830000Y-106510000D03*
%TD*%
D30*
%TO.C,R2*%
X248525000Y-49275000D03*
X248525000Y-47625000D03*
%TD*%
D18*
%TO.C,C39*%
X167875000Y-106147096D03*
X169425000Y-106147096D03*
%TD*%
D94*
%TO.C,J8*%
X150000000Y-42939086D03*
X150000000Y-53939086D03*
%TD*%
D45*
%TO.C,D42*%
X127792499Y-115332109D03*
X131792501Y-115332109D03*
%TD*%
D29*
%TO.C,R70*%
X169475000Y-116597500D03*
X167825000Y-116597500D03*
%TD*%
D69*
%TO.C,U18*%
X204519358Y-50885805D03*
X203249358Y-50885805D03*
X203249358Y-57260805D03*
X204519358Y-57260805D03*
%TD*%
D23*
%TO.C,D6*%
X211330000Y-136502500D03*
X211330000Y-138602500D03*
%TD*%
D95*
%TO.C,C6*%
X254100000Y-111570000D03*
X255060000Y-111570000D03*
%TD*%
D59*
%TO.C,H4*%
X18480000Y-152860000D03*
X19182944Y-151162944D03*
X19182944Y-154557056D03*
X20880000Y-150460000D03*
D60*
X20880000Y-152860000D03*
D59*
X20880000Y-155260000D03*
X22577056Y-151162944D03*
X22577056Y-154557056D03*
X23280000Y-152860000D03*
%TD*%
D22*
%TO.C,D35*%
X209519358Y-47800806D03*
X209519358Y-46225804D03*
%TD*%
D96*
%TO.C,PS1*%
X33651500Y-116336000D03*
X38651500Y-116336000D03*
D97*
X33651500Y-121416000D03*
X38651500Y-121416000D03*
X101008500Y-123944000D03*
X106008500Y-123944000D03*
X101008500Y-118864000D03*
X106008500Y-118864000D03*
%TD*%
D30*
%TO.C,R6*%
X254625000Y-49275000D03*
X254625000Y-47625000D03*
%TD*%
D22*
%TO.C,D56*%
X231989998Y-126787501D03*
X231989998Y-125212499D03*
%TD*%
D98*
%TO.C,U10*%
X186949999Y-132622500D03*
X186449999Y-132622500D03*
X185949999Y-132622500D03*
X185449998Y-132622500D03*
X184949999Y-132622500D03*
X184449999Y-132622500D03*
X183949999Y-132622500D03*
X183449999Y-132622500D03*
X182950000Y-132622500D03*
X182449999Y-132622500D03*
X181949999Y-132622500D03*
X181449999Y-132622500D03*
D99*
X180037499Y-134035000D03*
X180037499Y-134535000D03*
X180037499Y-135035000D03*
X180037499Y-135535001D03*
X180037499Y-136035000D03*
X180037499Y-136535000D03*
X180037499Y-137035000D03*
X180037499Y-137535000D03*
X180037499Y-138034999D03*
X180037499Y-138535000D03*
X180037499Y-139035000D03*
X180037499Y-139535000D03*
D98*
X181449999Y-140947500D03*
X181949999Y-140947500D03*
X182449999Y-140947500D03*
X182950000Y-140947500D03*
X183449999Y-140947500D03*
X183949999Y-140947500D03*
X184449999Y-140947500D03*
X184949999Y-140947500D03*
X185449998Y-140947500D03*
X185949999Y-140947500D03*
X186449999Y-140947500D03*
X186949999Y-140947500D03*
D99*
X188362499Y-139535000D03*
X188362499Y-139035000D03*
X188362499Y-138535000D03*
X188362499Y-138034999D03*
X188362499Y-137535000D03*
X188362499Y-137035000D03*
X188362499Y-136535000D03*
X188362499Y-136035000D03*
X188362499Y-135535001D03*
X188362499Y-135035000D03*
X188362499Y-134535000D03*
X188362499Y-134035000D03*
%TD*%
D21*
%TO.C,TP15*%
X198889358Y-37000000D03*
%TD*%
D31*
%TO.C,D1*%
X249270000Y-127160000D03*
X249270000Y-128000000D03*
%TD*%
D57*
%TO.C,U22*%
X232495000Y-68050000D03*
X232495000Y-69320000D03*
X232495000Y-70590000D03*
X232495000Y-71860000D03*
X237445000Y-71860000D03*
X237445000Y-70590000D03*
X237445000Y-69320000D03*
X237445000Y-68050000D03*
%TD*%
D70*
%TO.C,D29*%
X164110000Y-88903750D03*
X164110000Y-86803750D03*
%TD*%
D94*
%TO.C,J30*%
X111000000Y-42939086D03*
X111000000Y-53939086D03*
%TD*%
D70*
%TO.C,D26*%
X164110000Y-115022500D03*
X164110000Y-112922500D03*
%TD*%
D68*
%TO.C,R86*%
X208889358Y-40500805D03*
X208889358Y-43425805D03*
%TD*%
D91*
%TO.C,C62*%
X108182290Y-137985338D03*
X108182290Y-143385338D03*
%TD*%
D61*
%TO.C,R8*%
X247452878Y-104105001D03*
X247452878Y-105124999D03*
%TD*%
D16*
%TO.C,C20*%
X149825000Y-101415000D03*
X148275000Y-101415000D03*
%TD*%
D30*
%TO.C,R130*%
X160530000Y-140025000D03*
X160530000Y-138375000D03*
%TD*%
%TO.C,R54*%
X193007500Y-106113750D03*
X193007500Y-104463750D03*
%TD*%
D14*
%TO.C,J21*%
X38950000Y-150400000D03*
D15*
X43950000Y-150400000D03*
%TD*%
D74*
%TO.C,J11*%
X106363333Y-32535000D03*
D75*
X96863334Y-32535000D03*
X87363333Y-32535000D03*
X77863333Y-32535000D03*
%TD*%
D18*
%TO.C,C40*%
X167875000Y-104412096D03*
X169425000Y-104412096D03*
%TD*%
D100*
%TO.C,Q2*%
X53484375Y-64100000D03*
D101*
X56024375Y-64100000D03*
X58564374Y-64100000D03*
%TD*%
D47*
%TO.C,R97*%
X156705000Y-132440000D03*
X158355000Y-132440000D03*
%TD*%
D102*
%TO.C,P1*%
X254205000Y-27929999D03*
X246205000Y-27929999D03*
D103*
X247005000Y-38429999D03*
X248105000Y-38430000D03*
X249205000Y-38429999D03*
X250305000Y-38430000D03*
X251405000Y-38429999D03*
X252505000Y-38430000D03*
X253605000Y-38429999D03*
X254705000Y-38429999D03*
X255805000Y-38429999D03*
D104*
X257105001Y-37829999D03*
D105*
X257105000Y-28329999D03*
X241405000Y-28329999D03*
D106*
X242305000Y-37929999D03*
%TD*%
D47*
%TO.C,R47*%
X148225000Y-106515000D03*
X149875000Y-106515000D03*
%TD*%
D107*
%TO.C,C44*%
X233427967Y-95983047D03*
X232331951Y-94887031D03*
%TD*%
D108*
%TO.C,FB3*%
X217612501Y-107175000D03*
X216037499Y-107175000D03*
%TD*%
D15*
%TO.C,J1*%
X193889358Y-28903305D03*
X198889358Y-28903305D03*
X203889359Y-28903305D03*
X208889359Y-28903305D03*
X213889359Y-28903305D03*
D14*
X218889359Y-28903305D03*
%TD*%
D10*
%TO.C,R18*%
X244885384Y-123935000D03*
X244885384Y-125585000D03*
%TD*%
D84*
%TO.C,U3*%
X52549875Y-83225001D03*
D85*
X52549875Y-85765001D03*
X52549875Y-88305001D03*
X60169875Y-88305001D03*
X60169875Y-85765001D03*
X60169875Y-83225001D03*
%TD*%
D109*
%TO.C,J28*%
X217910000Y-143960000D03*
X219410000Y-143960000D03*
X220910000Y-143960000D03*
X222410000Y-143960000D03*
D110*
X215310000Y-148660000D03*
X225010000Y-148660000D03*
%TD*%
D29*
%TO.C,R80*%
X169475000Y-76567500D03*
X167825000Y-76567500D03*
%TD*%
D111*
%TO.C,C16*%
X230150000Y-109525000D03*
X230150000Y-111075000D03*
%TD*%
D23*
%TO.C,D19*%
X166060000Y-95555000D03*
X166060000Y-97655000D03*
%TD*%
D78*
%TO.C,SW1*%
X254800000Y-61603020D03*
X258950000Y-61603020D03*
X254800000Y-63753020D03*
X258950000Y-63753020D03*
%TD*%
D14*
%TO.C,J35*%
X83100000Y-145810000D03*
D15*
X88100000Y-145810000D03*
%TD*%
D59*
%TO.C,H1*%
X270130000Y-21210000D03*
X270832944Y-19512944D03*
X270832944Y-22907056D03*
X272530000Y-18810000D03*
D60*
X272530000Y-21210000D03*
D59*
X272530000Y-23610000D03*
X274227056Y-19512944D03*
X274227056Y-22907056D03*
X274930000Y-21210000D03*
%TD*%
D12*
%TO.C,J23*%
X179265000Y-106538750D03*
D13*
X179265000Y-104038750D03*
%TD*%
D23*
%TO.C,D20*%
X166060000Y-86848750D03*
X166060000Y-88948750D03*
%TD*%
D29*
%TO.C,R75*%
X169475000Y-93960611D03*
X167825000Y-93960611D03*
%TD*%
D23*
%TO.C,D23*%
X202130000Y-95555000D03*
X202130000Y-97655000D03*
%TD*%
D94*
%TO.C,J9*%
X72000000Y-42939086D03*
X72000000Y-53939086D03*
%TD*%
D62*
%TO.C,J10*%
X188815000Y-77920000D03*
D13*
X188815000Y-80420000D03*
%TD*%
D112*
%TO.C,U20*%
X120720000Y-135215000D03*
X121990000Y-135215000D03*
X123260000Y-135215000D03*
X124530000Y-135215000D03*
X124530000Y-130265000D03*
X123260000Y-130265000D03*
X121990000Y-130265000D03*
X120720000Y-130265000D03*
%TD*%
D10*
%TO.C,R57*%
X174980000Y-104463750D03*
X174980000Y-106113750D03*
%TD*%
D11*
%TO.C,TP7*%
X235240000Y-90580000D03*
%TD*%
D113*
%TO.C,U4*%
X209324371Y-137205628D03*
X208374372Y-137205628D03*
X207424373Y-137205628D03*
X207424373Y-139480628D03*
X208374372Y-139480628D03*
X209324371Y-139480628D03*
%TD*%
D62*
%TO.C,J12*%
X188865001Y-86626250D03*
D13*
X188865001Y-89126250D03*
%TD*%
D17*
%TO.C,R16*%
X250527478Y-118192530D03*
X250527478Y-117172532D03*
%TD*%
D21*
%TO.C,TP13*%
X208889358Y-37000000D03*
%TD*%
D48*
%TO.C,C10*%
X248982078Y-104840000D03*
X248982078Y-103290000D03*
%TD*%
D70*
%TO.C,D12*%
X202130000Y-80197500D03*
X202130000Y-78097500D03*
%TD*%
D27*
%TO.C,R36*%
X34390000Y-82755001D03*
D28*
X34390000Y-85295001D03*
%TD*%
D114*
%TO.C,J36*%
X250455000Y-61529996D03*
D67*
X247955000Y-61529996D03*
%TD*%
D115*
%TO.C,T1*%
X126690000Y-99315000D03*
X126690000Y-106515000D03*
X143190000Y-99315000D03*
X143190000Y-106515000D03*
%TD*%
D22*
%TO.C,D2*%
X169980000Y-133450001D03*
X169980000Y-131874999D03*
%TD*%
D30*
%TO.C,R7*%
X245475000Y-49275000D03*
X245475000Y-47625000D03*
%TD*%
D73*
%TO.C,DRA2*%
X27090000Y-102385000D03*
X27090000Y-89885000D03*
X27090000Y-77385000D03*
%TD*%
D18*
%TO.C,C43*%
X167875000Y-88714125D03*
X169425000Y-88714125D03*
%TD*%
D11*
%TO.C,TP8*%
X222500000Y-90550000D03*
%TD*%
D68*
%TO.C,R87*%
X203889358Y-40500805D03*
X203889358Y-43425805D03*
%TD*%
D70*
%TO.C,D28*%
X164110000Y-97610000D03*
X164110000Y-95510000D03*
%TD*%
D29*
%TO.C,R90*%
X241255000Y-69325000D03*
X239605000Y-69325000D03*
%TD*%
D14*
%TO.C,J34*%
X71265000Y-145810000D03*
D15*
X76265000Y-145810000D03*
%TD*%
D111*
%TO.C,C23*%
X186450000Y-126740000D03*
X186450000Y-128290000D03*
%TD*%
D29*
%TO.C,R127*%
X217665000Y-101865000D03*
X216015000Y-101865000D03*
%TD*%
D18*
%TO.C,C52*%
X167875000Y-78302500D03*
X169425000Y-78302500D03*
%TD*%
D17*
%TO.C,R93*%
X113370000Y-141996243D03*
X113370000Y-140976245D03*
%TD*%
D30*
%TO.C,R24*%
X237700000Y-133700000D03*
X237700000Y-132050000D03*
%TD*%
D112*
%TO.C,U23*%
X120720000Y-124230782D03*
X121990000Y-124230782D03*
X123260000Y-124230782D03*
X124530000Y-124230782D03*
X124530000Y-119280782D03*
X123260000Y-119280782D03*
X121990000Y-119280782D03*
X120720000Y-119280782D03*
%TD*%
D116*
%TO.C,Q14*%
X74800001Y-95315000D03*
D117*
X78350000Y-97220000D03*
X78350000Y-95950000D03*
X78350000Y-94680000D03*
X78350000Y-93410000D03*
%TD*%
D47*
%TO.C,R11*%
X238425000Y-94900000D03*
X240075000Y-94900000D03*
%TD*%
%TO.C,R66*%
X198650000Y-102677096D03*
X200300000Y-102677096D03*
%TD*%
D30*
%TO.C,R124*%
X166800000Y-136945000D03*
X166800000Y-135295000D03*
%TD*%
D74*
%TO.C,J5*%
X144811667Y-32535000D03*
D75*
X135311668Y-32535000D03*
X125811667Y-32535000D03*
X116311667Y-32535000D03*
%TD*%
D11*
%TO.C,TP4*%
X226675000Y-125775000D03*
%TD*%
D22*
%TO.C,D37*%
X199519358Y-47800806D03*
X199519358Y-46225804D03*
%TD*%
D70*
%TO.C,D15*%
X202130000Y-106316250D03*
X202130000Y-104216250D03*
%TD*%
D18*
%TO.C,C41*%
X167875000Y-97430611D03*
X169425000Y-97430611D03*
%TD*%
D21*
%TO.C,TP11*%
X218889359Y-37000000D03*
%TD*%
D118*
%TO.C,BOOT1*%
X193160000Y-147870000D03*
X193160000Y-150080000D03*
D102*
X195310000Y-148980000D03*
X198310000Y-148980000D03*
D118*
X200460000Y-147870000D03*
X200460000Y-150080000D03*
D119*
X194560000Y-147220000D03*
X197560000Y-147220000D03*
X199060000Y-147220000D03*
%TD*%
D120*
%TO.C,D8*%
X63740000Y-88635000D03*
X66240000Y-88635000D03*
X63740000Y-82335000D03*
X66240000Y-82335000D03*
%TD*%
D10*
%TO.C,R1*%
X254330000Y-66439999D03*
X254330000Y-68089999D03*
%TD*%
D29*
%TO.C,R118*%
X82675000Y-93450000D03*
X81025000Y-93450000D03*
%TD*%
D111*
%TO.C,C22*%
X193929500Y-141840000D03*
X193929500Y-143390000D03*
%TD*%
D121*
%TO.C,U5*%
X220965000Y-97925001D03*
X220965000Y-98425000D03*
X220965000Y-98925000D03*
X220965000Y-99425000D03*
X220965000Y-99925000D03*
X220965000Y-100425001D03*
X220965000Y-100925000D03*
X220965000Y-101425000D03*
X220965000Y-101925000D03*
X220965000Y-102425000D03*
X220965000Y-102924999D03*
X220965000Y-103425000D03*
X220965000Y-103925000D03*
X220965000Y-104425000D03*
X220965000Y-104925000D03*
X220965000Y-105424999D03*
D122*
X222890001Y-107350000D03*
X223390000Y-107350000D03*
X223890000Y-107350000D03*
X224390000Y-107350000D03*
X224890000Y-107350000D03*
X225390001Y-107350000D03*
X225890000Y-107350000D03*
X226390000Y-107350000D03*
X226890000Y-107350000D03*
X227390000Y-107350000D03*
X227889999Y-107350000D03*
X228390000Y-107350000D03*
X228890000Y-107350000D03*
X229390000Y-107350000D03*
X229890000Y-107350000D03*
X230389999Y-107350000D03*
D121*
X232315000Y-105424999D03*
X232315000Y-104925000D03*
X232315000Y-104425000D03*
X232315000Y-103925000D03*
X232315000Y-103425000D03*
X232315000Y-102924999D03*
X232315000Y-102425000D03*
X232315000Y-101925000D03*
X232315000Y-101425000D03*
X232315000Y-100925000D03*
X232315000Y-100425001D03*
X232315000Y-99925000D03*
X232315000Y-99425000D03*
X232315000Y-98925000D03*
X232315000Y-98425000D03*
X232315000Y-97925001D03*
D122*
X230389999Y-96000000D03*
X229890000Y-96000000D03*
X229390000Y-96000000D03*
X228890000Y-96000000D03*
X228390000Y-96000000D03*
X227889999Y-96000000D03*
X227390000Y-96000000D03*
X226890000Y-96000000D03*
X226390000Y-96000000D03*
X225890000Y-96000000D03*
X225390001Y-96000000D03*
X224890000Y-96000000D03*
X224390000Y-96000000D03*
X223890000Y-96000000D03*
X223390000Y-96000000D03*
X222890001Y-96000000D03*
%TD*%
D22*
%TO.C,D34*%
X214519358Y-47800806D03*
X214519358Y-46225804D03*
%TD*%
D25*
%TO.C,C68*%
X121085000Y-127247891D03*
X124035000Y-127247891D03*
%TD*%
D29*
%TO.C,R74*%
X169475000Y-99165611D03*
X167825000Y-99165611D03*
%TD*%
D22*
%TO.C,LED3*%
X186490000Y-150982501D03*
X186490000Y-149407499D03*
%TD*%
D30*
%TO.C,R122*%
X172830000Y-136895000D03*
X172830000Y-135245000D03*
%TD*%
D22*
%TO.C,LED1*%
X179970000Y-150982501D03*
X179970000Y-149407499D03*
%TD*%
D72*
%TO.C,C5*%
X222410000Y-140354999D03*
X222410000Y-138455001D03*
%TD*%
D31*
%TO.C,D5*%
X247540000Y-127160000D03*
X247540000Y-128000000D03*
%TD*%
D123*
%TO.C,J13*%
X194912499Y-129775000D03*
X194912499Y-128525000D03*
X194912499Y-127275000D03*
X194912499Y-126025000D03*
X194912499Y-124775000D03*
X194912499Y-123525000D03*
D124*
X197662499Y-132325000D03*
X197662499Y-120975000D03*
%TD*%
D72*
%TO.C,C4*%
X258730000Y-68029998D03*
X258730000Y-66130000D03*
%TD*%
D27*
%TO.C,R34*%
X48824376Y-74170001D03*
D28*
X48824376Y-76710001D03*
%TD*%
D111*
%TO.C,C55*%
X231700000Y-109525000D03*
X231700000Y-111075000D03*
%TD*%
D11*
%TO.C,TP5*%
X220525000Y-122150000D03*
%TD*%
D48*
%TO.C,C24*%
X186460000Y-144400000D03*
X186460000Y-142850000D03*
%TD*%
D61*
%TO.C,R140*%
X225100000Y-91090001D03*
X225100000Y-92109999D03*
%TD*%
D16*
%TO.C,C30*%
X200250000Y-88714125D03*
X198700000Y-88714125D03*
%TD*%
D30*
%TO.C,R5*%
X247000000Y-49275000D03*
X247000000Y-47625000D03*
%TD*%
D29*
%TO.C,R72*%
X169475000Y-107882096D03*
X167825000Y-107882096D03*
%TD*%
D70*
%TO.C,D27*%
X164110000Y-106316250D03*
X164110000Y-104216250D03*
%TD*%
D11*
%TO.C,TP2*%
X256190000Y-71000000D03*
%TD*%
D30*
%TO.C,R95*%
X226190000Y-69480000D03*
X226190000Y-67830000D03*
%TD*%
D11*
%TO.C,TP3*%
X237850000Y-125775000D03*
%TD*%
D111*
%TO.C,C83*%
X228600000Y-109525000D03*
X228600000Y-111075000D03*
%TD*%
D21*
%TO.C,TP10*%
X147370000Y-124360000D03*
%TD*%
D18*
%TO.C,C37*%
X167875000Y-114862500D03*
X169425000Y-114862500D03*
%TD*%
D125*
%TO.C,J4*%
X255930000Y-142275000D03*
X244500000Y-142275000D03*
D126*
X245765000Y-135925000D03*
D127*
X247035000Y-133385000D03*
X248305000Y-135925000D03*
X249575000Y-133385000D03*
X250845000Y-135925000D03*
X252115000Y-133385000D03*
X253385000Y-135924999D03*
X254655000Y-133385000D03*
D128*
X243590000Y-147175000D03*
X246130000Y-147175000D03*
X254300000Y-147175000D03*
X256840000Y-147175000D03*
D129*
X242470000Y-139225000D03*
X257960000Y-139225000D03*
%TD*%
D47*
%TO.C,R68*%
X198650000Y-111392500D03*
X200300000Y-111392500D03*
%TD*%
D27*
%TO.C,R37*%
X47024375Y-100205000D03*
D28*
X47024375Y-97665000D03*
%TD*%
D130*
%TO.C,Q16*%
X115270000Y-144062500D03*
X113370000Y-144062500D03*
X114320000Y-145937501D03*
%TD*%
D18*
%TO.C,C46*%
X212395000Y-97795000D03*
X213945000Y-97795000D03*
%TD*%
D131*
%TO.C,C9*%
X255770001Y-104070000D03*
X257669999Y-104070000D03*
%TD*%
D23*
%TO.C,D25*%
X204090000Y-112967500D03*
X204090000Y-115067500D03*
%TD*%
D10*
%TO.C,R42*%
X122240000Y-99310000D03*
X122240000Y-100960000D03*
%TD*%
D29*
%TO.C,R49*%
X192195000Y-143475000D03*
X190545000Y-143475000D03*
%TD*%
D132*
%TO.C,J7*%
X149830000Y-144800000D03*
X174830000Y-144800000D03*
D19*
X156790000Y-144500000D03*
D133*
X159560000Y-144500000D03*
X162330000Y-144500000D03*
X165100000Y-144500000D03*
X167870000Y-144500000D03*
X158175000Y-147340000D03*
X160945000Y-147340000D03*
X163715000Y-147340000D03*
X166485000Y-147340000D03*
%TD*%
D94*
%TO.C,J29*%
X91500000Y-42939086D03*
X91500000Y-53939086D03*
%TD*%
D16*
%TO.C,C49*%
X217600000Y-105650000D03*
X216050000Y-105650000D03*
%TD*%
D134*
%TO.C,HSE1*%
X212320000Y-99665000D03*
X212320000Y-101865000D03*
X214020000Y-101865000D03*
X214020000Y-99665000D03*
%TD*%
D16*
%TO.C,C47*%
X213945000Y-103645000D03*
X212395000Y-103645000D03*
%TD*%
D79*
%TO.C,J19*%
X205450000Y-145475000D03*
X211230000Y-145475000D03*
D80*
X205140000Y-144355000D03*
X205940000Y-144355000D03*
D81*
X207090000Y-144355000D03*
X208090000Y-144355000D03*
X208590000Y-144355000D03*
X209590000Y-144355000D03*
D80*
X210740000Y-144355000D03*
X211540000Y-144355000D03*
X211540000Y-144355000D03*
X210740000Y-144355000D03*
D81*
X210090000Y-144355000D03*
X209090000Y-144355000D03*
X207590000Y-144355000D03*
X206590000Y-144355000D03*
D80*
X205940000Y-144355000D03*
X205140000Y-144355000D03*
D82*
X204020000Y-144955000D03*
D83*
X204020000Y-149155000D03*
D82*
X212660000Y-144955000D03*
D83*
X212660000Y-149155000D03*
%TD*%
D29*
%TO.C,R71*%
X169475000Y-111392500D03*
X167825000Y-111392500D03*
%TD*%
D94*
%TO.C,J31*%
X130500000Y-42939086D03*
X130500000Y-53939086D03*
%TD*%
D10*
%TO.C,R21*%
X249175895Y-123935000D03*
X249175895Y-125585000D03*
%TD*%
D48*
%TO.C,C56*%
X210380000Y-134525000D03*
X210380000Y-132975000D03*
%TD*%
D52*
%TO.C,K2*%
X91510000Y-60950000D03*
X99110000Y-63650000D03*
D53*
X101060000Y-87950000D03*
X101059999Y-80950000D03*
X101060000Y-84450000D03*
%TD*%
D10*
%TO.C,R41*%
X120680000Y-104860000D03*
X120680000Y-106510000D03*
%TD*%
D135*
%TO.C,D10*%
X149750000Y-113795680D03*
X147650000Y-113795680D03*
%TD*%
D30*
%TO.C,R44*%
X123830000Y-100960000D03*
X123830000Y-99310000D03*
%TD*%
%TO.C,R51*%
X193007500Y-79995000D03*
X193007500Y-78345000D03*
%TD*%
D70*
%TO.C,D16*%
X202130000Y-115022500D03*
X202130000Y-112922500D03*
%TD*%
D93*
%TO.C,FB4*%
X227225000Y-138887499D03*
X227225000Y-140462501D03*
%TD*%
D100*
%TO.C,Q3*%
X38750000Y-64100000D03*
D101*
X41290000Y-64100000D03*
X43829999Y-64100000D03*
%TD*%
D27*
%TO.C,R39*%
X34390000Y-74070001D03*
D28*
X34390000Y-76610001D03*
%TD*%
D16*
%TO.C,C35*%
X200250000Y-113127500D03*
X198700000Y-113127500D03*
%TD*%
D86*
%TO.C,HS1*%
X41290000Y-57715001D03*
%TD*%
D61*
%TO.C,R125*%
X197560000Y-143040001D03*
X197560000Y-144059999D03*
%TD*%
D136*
%TO.C,U11*%
X216379016Y-134883483D03*
D137*
X214879016Y-134970984D03*
D136*
X213379016Y-134883483D03*
%TD*%
D138*
%TO.C,R15*%
X243522468Y-112077509D03*
X242502470Y-112077509D03*
%TD*%
D111*
%TO.C,C2*%
X250050000Y-47675000D03*
X250050000Y-49225000D03*
%TD*%
D18*
%TO.C,C38*%
X167875000Y-113127500D03*
X169425000Y-113127500D03*
%TD*%
D92*
%TO.C,C17*%
X219844922Y-93783905D03*
X218748906Y-94879921D03*
%TD*%
D54*
%TO.C,R12*%
X254060000Y-110590000D03*
X255079998Y-110590000D03*
%TD*%
D18*
%TO.C,C42*%
X167875000Y-95695611D03*
X169425000Y-95695611D03*
%TD*%
D23*
%TO.C,D30*%
X164110000Y-78142500D03*
X164110000Y-80242500D03*
%TD*%
D22*
%TO.C,D33*%
X219519359Y-47800806D03*
X219519359Y-46225804D03*
%TD*%
%TO.C,LED4*%
X189750000Y-150982501D03*
X189750000Y-149407499D03*
%TD*%
D68*
%TO.C,R85*%
X213889358Y-40500805D03*
X213889358Y-43425805D03*
%TD*%
D29*
%TO.C,R77*%
X169475000Y-85263501D03*
X167825000Y-85263501D03*
%TD*%
D111*
%TO.C,C3*%
X256150000Y-47675000D03*
X256150000Y-49225000D03*
%TD*%
D92*
%TO.C,C45*%
X220948007Y-94886990D03*
X219851991Y-95983006D03*
%TD*%
D31*
%TO.C,D4*%
X244930000Y-127160000D03*
X244930000Y-128000000D03*
%TD*%
D30*
%TO.C,R40*%
X120680000Y-100960000D03*
X120680000Y-99310000D03*
%TD*%
D18*
%TO.C,C51*%
X167875000Y-80037500D03*
X169425000Y-80037500D03*
%TD*%
D69*
%TO.C,U16*%
X214519358Y-50885805D03*
X213249358Y-50885805D03*
X213249358Y-57260805D03*
X214519358Y-57260805D03*
%TD*%
D70*
%TO.C,D31*%
X166060000Y-80197500D03*
X166060000Y-78097500D03*
%TD*%
D27*
%TO.C,R38*%
X49924375Y-97765000D03*
D28*
X49924375Y-100305000D03*
%TD*%
D16*
%TO.C,C31*%
X200250000Y-95695611D03*
X198700000Y-95695611D03*
%TD*%
D17*
%TO.C,R14*%
X250511278Y-105124999D03*
X250511278Y-104105001D03*
%TD*%
D16*
%TO.C,C27*%
X200250000Y-78302500D03*
X198700000Y-78302500D03*
%TD*%
D52*
%TO.C,K3*%
X139780000Y-60950000D03*
X147380000Y-63650000D03*
D53*
X149330000Y-87950000D03*
X149329999Y-80950000D03*
X149330000Y-84450000D03*
%TD*%
D69*
%TO.C,U15*%
X219519359Y-50885805D03*
X218249359Y-50885805D03*
X218249359Y-57260805D03*
X219519359Y-57260805D03*
%TD*%
D23*
%TO.C,D24*%
X204090000Y-104261250D03*
X204090000Y-106361250D03*
%TD*%
D139*
%TO.C,L1*%
X190627250Y-141865000D03*
X192202250Y-141865000D03*
%TD*%
D10*
%TO.C,R129*%
X181600000Y-149410000D03*
X181600000Y-151060000D03*
%TD*%
D30*
%TO.C,R22*%
X257700000Y-130475000D03*
X257700000Y-128825000D03*
%TD*%
D140*
%TO.C,U27*%
X93037500Y-93335000D03*
X93037500Y-92065000D03*
X86662500Y-92065000D03*
X86662500Y-93335000D03*
%TD*%
D47*
%TO.C,R65*%
X198650000Y-99165611D03*
X200300000Y-99165611D03*
%TD*%
D27*
%TO.C,R32*%
X52524375Y-100205000D03*
D28*
X52524375Y-97665000D03*
%TD*%
D27*
%TO.C,R30*%
X63690000Y-75805002D03*
D28*
X63690000Y-73265002D03*
%TD*%
D17*
%TO.C,R13*%
X251780478Y-105124999D03*
X251780478Y-104105001D03*
%TD*%
D16*
%TO.C,C18*%
X214475000Y-107175000D03*
X212925000Y-107175000D03*
%TD*%
D69*
%TO.C,U17*%
X209519358Y-50885805D03*
X208249358Y-50885805D03*
X208249358Y-57260805D03*
X209519358Y-57260805D03*
%TD*%
D66*
%TO.C,J32*%
X118630000Y-145917500D03*
D67*
X121130000Y-145917500D03*
%TD*%
D16*
%TO.C,C48*%
X217600000Y-104125000D03*
X216050000Y-104125000D03*
%TD*%
D48*
%TO.C,C21*%
X188900000Y-143390000D03*
X188900000Y-141840000D03*
%TD*%
D11*
%TO.C,BT2*%
X216400000Y-80515000D03*
D141*
X216400000Y-73015000D03*
D142*
X216400000Y-84585000D03*
D143*
X216400000Y-68785000D03*
%TD*%
D113*
%TO.C,U12*%
X232999999Y-137212500D03*
X232050000Y-137212500D03*
X231100001Y-137212500D03*
X231100001Y-139487500D03*
X232050000Y-139487500D03*
X232999999Y-139487500D03*
%TD*%
D19*
%TO.C,C63*%
X114720000Y-129514760D03*
D133*
X114720000Y-125714760D03*
%TD*%
D47*
%TO.C,R48*%
X148225000Y-99315000D03*
X149875000Y-99315000D03*
%TD*%
D18*
%TO.C,C82*%
X238475000Y-97750000D03*
X240025000Y-97750000D03*
%TD*%
D59*
%TO.C,H3*%
X270130000Y-152860000D03*
X270832944Y-151162944D03*
X270832944Y-154557056D03*
X272530000Y-150460000D03*
D60*
X272530000Y-152860000D03*
D59*
X272530000Y-155260000D03*
X274227056Y-151162944D03*
X274227056Y-154557056D03*
X274930000Y-152860000D03*
%TD*%
D16*
%TO.C,C19*%
X149825000Y-103795000D03*
X148275000Y-103795000D03*
%TD*%
D23*
%TO.C,D22*%
X204090000Y-86826250D03*
X204090000Y-88926250D03*
%TD*%
D17*
%TO.C,R10*%
X246183678Y-105124999D03*
X246183678Y-104105001D03*
%TD*%
D30*
%TO.C,R138*%
X230344999Y-126865000D03*
X230344999Y-125215000D03*
%TD*%
M02*
