%TF.GenerationSoftware,KiCad,Pcbnew,8.0.1*%
%TF.CreationDate,2024-07-17T10:14:41+07:00*%
%TF.ProjectId,SmartEnergyMag_System,536d6172-7445-46e6-9572-67794d61675f,rev?*%
%TF.SameCoordinates,Original*%
%TF.FileFunction,Paste,Top*%
%TF.FilePolarity,Positive*%
%FSLAX46Y46*%
G04 Gerber Fmt 4.6, Leading zero omitted, Abs format (unit mm)*
G04 Created by KiCad (PCBNEW 8.0.1) date 2024-07-17 10:14:41*
%MOMM*%
%LPD*%
G01*
G04 APERTURE LIST*
G04 Aperture macros list*
%AMRoundRect*
0 Rectangle with rounded corners*
0 $1 Rounding radius*
0 $2 $3 $4 $5 $6 $7 $8 $9 X,Y pos of 4 corners*
0 Add a 4 corners polygon primitive as box body*
4,1,4,$2,$3,$4,$5,$6,$7,$8,$9,$2,$3,0*
0 Add four circle primitives for the rounded corners*
1,1,$1+$1,$2,$3*
1,1,$1+$1,$4,$5*
1,1,$1+$1,$6,$7*
1,1,$1+$1,$8,$9*
0 Add four rect primitives between the rounded corners*
20,1,$1+$1,$2,$3,$4,$5,0*
20,1,$1+$1,$4,$5,$6,$7,0*
20,1,$1+$1,$6,$7,$8,$9,0*
20,1,$1+$1,$8,$9,$2,$3,0*%
%AMFreePoly0*
4,1,25,0.266375,0.443630,0.297109,0.420047,0.420047,0.297109,0.458455,0.230584,0.463512,0.192176,0.463512,-0.192176,0.443630,-0.266375,0.420047,-0.297109,0.297109,-0.420047,0.230584,-0.458455,0.192176,-0.463512,-0.192176,-0.463512,-0.266375,-0.443630,-0.297109,-0.420047,-0.420047,-0.297109,-0.458455,-0.230584,-0.463512,-0.192176,-0.463512,0.192176,-0.443630,0.266375,-0.420047,0.297109,
-0.297109,0.420047,-0.230584,0.458455,-0.192176,0.463512,0.192176,0.463512,0.266375,0.443630,0.266375,0.443630,$1*%
%AMFreePoly1*
4,1,19,0.160014,0.182309,0.196624,0.131920,0.201556,0.100778,0.201556,0.026143,0.182309,-0.033093,0.172039,-0.045118,0.045118,-0.172039,-0.010378,-0.200315,-0.026143,-0.201556,-0.100778,-0.201556,-0.160014,-0.182309,-0.196624,-0.131920,-0.201556,-0.100778,-0.201556,0.100778,-0.182309,0.160014,-0.131920,0.196624,-0.100778,0.201556,0.100778,0.201556,0.160014,0.182309,0.160014,0.182309,
$1*%
%AMFreePoly2*
4,1,21,0.052471,0.262932,0.064496,0.252661,0.172039,0.145117,0.200315,0.089622,0.201556,0.073857,0.201556,-0.073857,0.182309,-0.133093,0.172039,-0.145117,0.064496,-0.252661,0.009001,-0.280938,-0.006765,-0.282179,-0.100778,-0.282179,-0.160014,-0.262932,-0.196624,-0.212543,-0.201556,-0.181401,-0.201556,0.181401,-0.182309,0.240637,-0.131920,0.277247,-0.100778,0.282179,-0.006765,0.282179,
0.052471,0.262932,0.052471,0.262932,$1*%
%AMFreePoly3*
4,1,19,0.033093,0.182309,0.045118,0.172039,0.172039,0.045118,0.200315,-0.010378,0.201556,-0.026143,0.201556,-0.100778,0.182309,-0.160014,0.131920,-0.196624,0.100778,-0.201556,-0.100778,-0.201556,-0.160014,-0.182309,-0.196624,-0.131920,-0.201556,-0.100778,-0.201556,0.100778,-0.182309,0.160014,-0.131920,0.196624,-0.100778,0.201556,-0.026143,0.201556,0.033093,0.182309,0.033093,0.182309,
$1*%
%AMFreePoly4*
4,1,21,0.240637,0.182309,0.277247,0.131920,0.282179,0.100778,0.282179,0.006765,0.262932,-0.052471,0.252661,-0.064496,0.145117,-0.172039,0.089622,-0.200315,0.073857,-0.201556,-0.073857,-0.201556,-0.133093,-0.182309,-0.145117,-0.172039,-0.252661,-0.064496,-0.280938,-0.009001,-0.282179,0.006765,-0.282179,0.100778,-0.262932,0.160014,-0.212543,0.196624,-0.181401,0.201556,0.181401,0.201556,
0.240637,0.182309,0.240637,0.182309,$1*%
%AMFreePoly5*
4,1,25,0.153044,0.262299,0.165464,0.251692,0.251692,0.165464,0.280897,0.108147,0.282178,0.091864,0.282178,-0.091864,0.262299,-0.153044,0.251692,-0.165464,0.165464,-0.251692,0.108147,-0.280897,0.091864,-0.282178,-0.091864,-0.282178,-0.153044,-0.262299,-0.165464,-0.251692,-0.251692,-0.165464,-0.280897,-0.108147,-0.282178,-0.091864,-0.282178,0.091864,-0.262299,0.153044,-0.251692,0.165464,
-0.165464,0.251692,-0.108147,0.280897,-0.091864,0.282178,0.091864,0.282178,0.153044,0.262299,0.153044,0.262299,$1*%
%AMFreePoly6*
4,1,21,0.133093,0.182309,0.145117,0.172039,0.252661,0.064496,0.280938,0.009001,0.282179,-0.006765,0.282179,-0.100778,0.262932,-0.160014,0.212543,-0.196624,0.181401,-0.201556,-0.181401,-0.201556,-0.240637,-0.182309,-0.277247,-0.131920,-0.282179,-0.100778,-0.282179,-0.006765,-0.262932,0.052471,-0.252661,0.064496,-0.145117,0.172039,-0.089622,0.200315,-0.073857,0.201556,0.073857,0.201556,
0.133093,0.182309,0.133093,0.182309,$1*%
%AMFreePoly7*
4,1,19,0.160014,0.182309,0.196624,0.131920,0.201556,0.100778,0.201556,-0.100778,0.182309,-0.160014,0.131920,-0.196624,0.100778,-0.201556,0.026143,-0.201556,-0.033093,-0.182309,-0.045118,-0.172039,-0.172039,-0.045118,-0.200315,0.010378,-0.201556,0.026143,-0.201556,0.100778,-0.182309,0.160014,-0.131920,0.196624,-0.100778,0.201556,0.100778,0.201556,0.160014,0.182309,0.160014,0.182309,
$1*%
%AMFreePoly8*
4,1,21,0.160014,0.262932,0.196624,0.212543,0.201556,0.181401,0.201556,-0.181401,0.182309,-0.240637,0.131920,-0.277247,0.100778,-0.282179,0.006765,-0.282179,-0.052471,-0.262932,-0.064496,-0.252661,-0.172039,-0.145117,-0.200315,-0.089622,-0.201556,-0.073857,-0.201556,0.073857,-0.182309,0.133093,-0.172039,0.145117,-0.064496,0.252661,-0.009001,0.280938,0.006765,0.282179,0.100778,0.282179,
0.160014,0.262932,0.160014,0.262932,$1*%
%AMFreePoly9*
4,1,19,0.160014,0.182309,0.196624,0.131920,0.201556,0.100778,0.201556,-0.100778,0.182309,-0.160014,0.131920,-0.196624,0.100778,-0.201556,-0.100778,-0.201556,-0.160014,-0.182309,-0.196624,-0.131920,-0.201556,-0.100778,-0.201556,-0.026143,-0.182309,0.033093,-0.172039,0.045118,-0.045118,0.172039,0.010378,0.200315,0.026143,0.201556,0.100778,0.201556,0.160014,0.182309,0.160014,0.182309,
$1*%
%AMFreePoly10*
4,1,9,3.862500,-0.866500,0.737500,-0.866500,0.737500,-0.450000,-0.737500,-0.450000,-0.737500,0.450000,0.737500,0.450000,0.737500,0.866500,3.862500,0.866500,3.862500,-0.866500,3.862500,-0.866500,$1*%
G04 Aperture macros list end*
%ADD10RoundRect,0.200000X-0.275000X0.200000X-0.275000X-0.200000X0.275000X-0.200000X0.275000X0.200000X0*%
%ADD11RoundRect,0.225000X0.225000X0.250000X-0.225000X0.250000X-0.225000X-0.250000X0.225000X-0.250000X0*%
%ADD12RoundRect,0.135000X0.185000X-0.135000X0.185000X0.135000X-0.185000X0.135000X-0.185000X-0.135000X0*%
%ADD13RoundRect,0.225000X-0.225000X-0.250000X0.225000X-0.250000X0.225000X0.250000X-0.225000X0.250000X0*%
%ADD14RoundRect,0.218750X0.256250X-0.218750X0.256250X0.218750X-0.256250X0.218750X-0.256250X-0.218750X0*%
%ADD15RoundRect,0.112500X-0.112500X0.187500X-0.112500X-0.187500X0.112500X-0.187500X0.112500X0.187500X0*%
%ADD16RoundRect,0.250000X-0.325000X-0.650000X0.325000X-0.650000X0.325000X0.650000X-0.325000X0.650000X0*%
%ADD17RoundRect,0.140000X0.170000X-0.140000X0.170000X0.140000X-0.170000X0.140000X-0.170000X-0.140000X0*%
%ADD18RoundRect,0.200000X0.200000X0.275000X-0.200000X0.275000X-0.200000X-0.275000X0.200000X-0.275000X0*%
%ADD19RoundRect,0.200000X0.275000X-0.200000X0.275000X0.200000X-0.275000X0.200000X-0.275000X-0.200000X0*%
%ADD20RoundRect,0.062500X0.062500X-0.117500X0.062500X0.117500X-0.062500X0.117500X-0.062500X-0.117500X0*%
%ADD21RoundRect,0.250000X-0.400000X-0.450000X0.400000X-0.450000X0.400000X0.450000X-0.400000X0.450000X0*%
%ADD22R,1.800000X1.000000*%
%ADD23FreePoly0,180.000000*%
%ADD24RoundRect,0.062500X0.375000X0.062500X-0.375000X0.062500X-0.375000X-0.062500X0.375000X-0.062500X0*%
%ADD25RoundRect,0.062500X0.062500X0.375000X-0.062500X0.375000X-0.062500X-0.375000X0.062500X-0.375000X0*%
%ADD26RoundRect,0.140000X0.140000X0.170000X-0.140000X0.170000X-0.140000X-0.170000X0.140000X-0.170000X0*%
%ADD27R,0.800000X1.300000*%
%ADD28R,2.100000X3.000000*%
%ADD29FreePoly1,90.000000*%
%ADD30FreePoly2,90.000000*%
%ADD31FreePoly3,90.000000*%
%ADD32FreePoly4,90.000000*%
%ADD33FreePoly5,90.000000*%
%ADD34FreePoly6,90.000000*%
%ADD35FreePoly7,90.000000*%
%ADD36FreePoly8,90.000000*%
%ADD37FreePoly9,90.000000*%
%ADD38RoundRect,0.062500X0.062500X-0.412500X0.062500X0.412500X-0.062500X0.412500X-0.062500X-0.412500X0*%
%ADD39RoundRect,0.062500X0.412500X-0.062500X0.412500X0.062500X-0.412500X0.062500X-0.412500X-0.062500X0*%
%ADD40RoundRect,0.150000X-0.150000X0.825000X-0.150000X-0.825000X0.150000X-0.825000X0.150000X0.825000X0*%
%ADD41RoundRect,0.112500X-0.187500X-0.112500X0.187500X-0.112500X0.187500X0.112500X-0.187500X0.112500X0*%
%ADD42RoundRect,0.250000X-1.000000X-0.650000X1.000000X-0.650000X1.000000X0.650000X-1.000000X0.650000X0*%
%ADD43RoundRect,0.250000X0.550000X-1.500000X0.550000X1.500000X-0.550000X1.500000X-0.550000X-1.500000X0*%
%ADD44RoundRect,0.200000X-0.200000X-0.275000X0.200000X-0.275000X0.200000X0.275000X-0.200000X0.275000X0*%
%ADD45RoundRect,0.225000X0.250000X-0.225000X0.250000X0.225000X-0.250000X0.225000X-0.250000X-0.225000X0*%
%ADD46RoundRect,0.218750X-0.218750X-0.381250X0.218750X-0.381250X0.218750X0.381250X-0.218750X0.381250X0*%
%ADD47RoundRect,0.135000X-0.135000X-0.185000X0.135000X-0.185000X0.135000X0.185000X-0.135000X0.185000X0*%
%ADD48RoundRect,0.250000X0.650000X-0.325000X0.650000X0.325000X-0.650000X0.325000X-0.650000X-0.325000X0*%
%ADD49RoundRect,0.250000X0.250000X0.475000X-0.250000X0.475000X-0.250000X-0.475000X0.250000X-0.475000X0*%
%ADD50RoundRect,0.150000X-0.825000X-0.150000X0.825000X-0.150000X0.825000X0.150000X-0.825000X0.150000X0*%
%ADD51RoundRect,0.100000X-0.100000X0.225000X-0.100000X-0.225000X0.100000X-0.225000X0.100000X0.225000X0*%
%ADD52RoundRect,0.135000X-0.185000X0.135000X-0.185000X-0.135000X0.185000X-0.135000X0.185000X0.135000X0*%
%ADD53R,2.850000X6.600000*%
%ADD54RoundRect,0.250000X-0.625000X0.312500X-0.625000X-0.312500X0.625000X-0.312500X0.625000X0.312500X0*%
%ADD55RoundRect,0.150000X-0.150000X0.662500X-0.150000X-0.662500X0.150000X-0.662500X0.150000X0.662500X0*%
%ADD56RoundRect,0.112500X0.112500X-0.187500X0.112500X0.187500X-0.112500X0.187500X-0.112500X-0.187500X0*%
%ADD57RoundRect,0.250000X1.000000X0.650000X-1.000000X0.650000X-1.000000X-0.650000X1.000000X-0.650000X0*%
%ADD58RoundRect,0.250000X0.475000X-0.250000X0.475000X0.250000X-0.475000X0.250000X-0.475000X-0.250000X0*%
%ADD59RoundRect,0.150000X0.587500X0.150000X-0.587500X0.150000X-0.587500X-0.150000X0.587500X-0.150000X0*%
%ADD60RoundRect,0.225000X0.017678X-0.335876X0.335876X-0.017678X-0.017678X0.335876X-0.335876X0.017678X0*%
%ADD61R,1.050000X0.650000*%
%ADD62R,0.600000X1.240000*%
%ADD63R,0.300000X1.240000*%
%ADD64R,0.900000X1.500000*%
%ADD65R,1.500000X0.900000*%
%ADD66R,0.900000X0.900000*%
%ADD67RoundRect,0.250000X-0.550000X1.500000X-0.550000X-1.500000X0.550000X-1.500000X0.550000X1.500000X0*%
%ADD68RoundRect,0.225000X-0.017678X0.335876X-0.335876X0.017678X0.017678X-0.335876X0.335876X-0.017678X0*%
%ADD69RoundRect,0.218750X-0.256250X0.218750X-0.256250X-0.218750X0.256250X-0.218750X0.256250X0.218750X0*%
%ADD70RoundRect,0.140000X-0.140000X-0.170000X0.140000X-0.170000X0.140000X0.170000X-0.140000X0.170000X0*%
%ADD71RoundRect,0.075000X-0.075000X0.662500X-0.075000X-0.662500X0.075000X-0.662500X0.075000X0.662500X0*%
%ADD72RoundRect,0.075000X-0.662500X0.075000X-0.662500X-0.075000X0.662500X-0.075000X0.662500X0.075000X0*%
%ADD73R,0.700000X1.600000*%
%ADD74R,1.400000X1.600000*%
%ADD75R,1.400000X2.200000*%
%ADD76R,1.800000X1.400000*%
%ADD77RoundRect,0.225000X0.335876X0.017678X0.017678X0.335876X-0.335876X-0.017678X-0.017678X-0.335876X0*%
%ADD78RoundRect,0.218750X0.218750X0.256250X-0.218750X0.256250X-0.218750X-0.256250X0.218750X-0.256250X0*%
%ADD79R,0.800000X2.900000*%
%ADD80R,1.800000X3.800000*%
%ADD81RoundRect,0.225000X-0.250000X0.225000X-0.250000X-0.225000X0.250000X-0.225000X0.250000X0.225000X0*%
%ADD82RoundRect,0.150000X0.150000X-0.825000X0.150000X0.825000X-0.150000X0.825000X-0.150000X-0.825000X0*%
%ADD83RoundRect,0.150000X-0.150000X0.512500X-0.150000X-0.512500X0.150000X-0.512500X0.150000X0.512500X0*%
%ADD84RoundRect,0.375000X0.375000X0.375000X-0.375000X0.375000X-0.375000X-0.375000X0.375000X-0.375000X0*%
%ADD85RoundRect,0.125000X0.250000X0.125000X-0.250000X0.125000X-0.250000X-0.125000X0.250000X-0.125000X0*%
%ADD86RoundRect,0.100000X0.275000X0.100000X-0.275000X0.100000X-0.275000X-0.100000X0.275000X-0.100000X0*%
%ADD87R,1.000000X0.800000*%
%ADD88R,0.700000X1.500000*%
%ADD89R,0.900000X1.800000*%
%ADD90RoundRect,0.075000X-0.700000X-0.075000X0.700000X-0.075000X0.700000X0.075000X-0.700000X0.075000X0*%
%ADD91RoundRect,0.075000X-0.075000X-0.700000X0.075000X-0.700000X0.075000X0.700000X-0.075000X0.700000X0*%
%ADD92R,1.300000X0.800000*%
%ADD93R,3.000000X2.100000*%
%ADD94RoundRect,0.150000X-0.150000X0.587500X-0.150000X-0.587500X0.150000X-0.587500X0.150000X0.587500X0*%
%ADD95RoundRect,0.250000X-0.250000X-0.475000X0.250000X-0.475000X0.250000X0.475000X-0.250000X0.475000X0*%
%ADD96R,1.200000X1.400000*%
%ADD97RoundRect,0.112500X0.187500X0.112500X-0.187500X0.112500X-0.187500X-0.112500X0.187500X-0.112500X0*%
%ADD98RoundRect,0.225000X-0.225000X0.425000X-0.225000X-0.425000X0.225000X-0.425000X0.225000X0.425000X0*%
%ADD99FreePoly10,270.000000*%
%ADD100RoundRect,0.135000X0.135000X0.185000X-0.135000X0.185000X-0.135000X-0.185000X0.135000X-0.185000X0*%
%ADD101RoundRect,0.218750X-0.218750X-0.256250X0.218750X-0.256250X0.218750X0.256250X-0.218750X0.256250X0*%
%ADD102RoundRect,0.150000X0.662500X0.150000X-0.662500X0.150000X-0.662500X-0.150000X0.662500X-0.150000X0*%
%ADD103R,2.600000X3.660000*%
%ADD104R,2.600000X3.540000*%
G04 APERTURE END LIST*
D10*
%TO.C,R59*%
X174980000Y-87051250D03*
X174980000Y-88701250D03*
%TD*%
%TO.C,R20*%
X251849572Y-123935000D03*
X251849572Y-125585000D03*
%TD*%
D11*
%TO.C,C60*%
X224675000Y-129900000D03*
X223125000Y-129900000D03*
%TD*%
D10*
%TO.C,R133*%
X188120000Y-149410000D03*
X188120000Y-151060000D03*
%TD*%
D12*
%TO.C,R92*%
X115270000Y-141996243D03*
X115270000Y-140976245D03*
%TD*%
D13*
%TO.C,C57*%
X239625000Y-66985000D03*
X241175000Y-66985000D03*
%TD*%
D14*
%TO.C,D36*%
X204519358Y-47800806D03*
X204519358Y-46225804D03*
%TD*%
D15*
%TO.C,D17*%
X166060000Y-112967500D03*
X166060000Y-115067500D03*
%TD*%
D10*
%TO.C,R89*%
X227760000Y-67830000D03*
X227760000Y-69480000D03*
%TD*%
D16*
%TO.C,C65*%
X121084999Y-138232109D03*
X124035001Y-138232109D03*
%TD*%
D17*
%TO.C,C12*%
X246197478Y-118182531D03*
X246197478Y-117222531D03*
%TD*%
D18*
%TO.C,R120*%
X151285000Y-131020000D03*
X149635000Y-131020000D03*
%TD*%
D19*
%TO.C,R53*%
X193007500Y-97407500D03*
X193007500Y-95757500D03*
%TD*%
D20*
%TO.C,D3*%
X251840000Y-127160000D03*
X251840000Y-128000000D03*
%TD*%
D10*
%TO.C,R29*%
X216450000Y-122275000D03*
X216450000Y-123925000D03*
%TD*%
D13*
%TO.C,C26*%
X175160000Y-136615000D03*
X176710000Y-136615000D03*
%TD*%
D21*
%TO.C,D38*%
X220922500Y-65345000D03*
X223822500Y-65345000D03*
%TD*%
D22*
%TO.C,Y3*%
X229770000Y-69864999D03*
X229770000Y-67365001D03*
%TD*%
D23*
%TO.C,U2*%
X248937478Y-112897509D03*
X248937478Y-111757509D03*
X247797478Y-112897509D03*
X247797478Y-111757509D03*
D24*
X250304978Y-113577509D03*
X250304977Y-113077509D03*
X250304978Y-112577509D03*
X250304978Y-112077509D03*
X250304977Y-111577509D03*
X250304978Y-111077509D03*
D25*
X249617478Y-110390009D03*
X249117478Y-110390010D03*
X248617478Y-110390009D03*
X248117478Y-110390009D03*
X247617478Y-110390010D03*
X247117478Y-110390009D03*
D24*
X246429978Y-111077509D03*
X246429979Y-111577509D03*
X246429978Y-112077509D03*
X246429978Y-112577509D03*
X246429979Y-113077509D03*
X246429978Y-113577509D03*
D25*
X247117478Y-114265009D03*
X247617478Y-114265008D03*
X248117478Y-114265009D03*
X248617478Y-114265009D03*
X249117478Y-114265008D03*
X249617478Y-114265009D03*
%TD*%
D26*
%TO.C,C11*%
X256530000Y-100675000D03*
X255570000Y-100675000D03*
%TD*%
D27*
%TO.C,J27*%
X228150000Y-84350000D03*
X229400000Y-84350000D03*
X230650000Y-84350000D03*
X231900000Y-84350000D03*
X233150000Y-84350000D03*
X234400000Y-84350000D03*
D28*
X225600000Y-87100000D03*
X236950000Y-87100000D03*
%TD*%
D19*
%TO.C,R52*%
X193007500Y-88701250D03*
X193007500Y-87051250D03*
%TD*%
D10*
%TO.C,R78*%
X174980000Y-78345000D03*
X174980000Y-79995000D03*
%TD*%
D29*
%TO.C,U28*%
X230525000Y-133950000D03*
D30*
X231125000Y-133950000D03*
X231825000Y-133950000D03*
X232525000Y-133950000D03*
D31*
X233125000Y-133950000D03*
D32*
X230525000Y-133350000D03*
D33*
X231125000Y-133350000D03*
X231825000Y-133350000D03*
X232525000Y-133350000D03*
D34*
X233125000Y-133350000D03*
D32*
X230525000Y-132650000D03*
D33*
X231125000Y-132650000D03*
X231825000Y-132650000D03*
X232525000Y-132650000D03*
D34*
X233125000Y-132650000D03*
D32*
X230525000Y-131950000D03*
D33*
X231125000Y-131950000D03*
X231825000Y-131950000D03*
X232525000Y-131950000D03*
D34*
X233125000Y-131950000D03*
D35*
X230525000Y-131350000D03*
D36*
X231125000Y-131350000D03*
X231825000Y-131350000D03*
X232525000Y-131350000D03*
D37*
X233125000Y-131350000D03*
D38*
X230325000Y-135025000D03*
X230825000Y-135025000D03*
X231325000Y-135025000D03*
X231825000Y-135025001D03*
X232325000Y-135025000D03*
X232825000Y-135025000D03*
X233325000Y-135025000D03*
D39*
X234200000Y-134150000D03*
X234200000Y-133650000D03*
X234200000Y-133150000D03*
X234200001Y-132650000D03*
X234200000Y-132150000D03*
X234200000Y-131650000D03*
X234200000Y-131150000D03*
D38*
X233325000Y-130275000D03*
X232825000Y-130275000D03*
X232325000Y-130275000D03*
X231825000Y-130274999D03*
X231325000Y-130275000D03*
X230825000Y-130275000D03*
X230325000Y-130275000D03*
D39*
X229450000Y-131150000D03*
X229450000Y-131650000D03*
X229450000Y-132150000D03*
X229449999Y-132650000D03*
X229450000Y-133150000D03*
X229450000Y-133650000D03*
X229450000Y-134150000D03*
%TD*%
D18*
%TO.C,R119*%
X82675000Y-91950000D03*
X81025000Y-91950000D03*
%TD*%
D40*
%TO.C,U13*%
X165205000Y-131425000D03*
X163935000Y-131425000D03*
X162665000Y-131425000D03*
X161395000Y-131425000D03*
X161395000Y-136375000D03*
X162665000Y-136375000D03*
X163935000Y-136375000D03*
X165205000Y-136375000D03*
%TD*%
D18*
%TO.C,R91*%
X227495000Y-65345000D03*
X225845000Y-65345000D03*
%TD*%
D41*
%TO.C,D11*%
X147642500Y-111825000D03*
X149742500Y-111825000D03*
%TD*%
D42*
%TO.C,D40*%
X127922499Y-138592109D03*
X131922501Y-138592109D03*
%TD*%
D11*
%TO.C,C32*%
X200250000Y-97430611D03*
X198700000Y-97430611D03*
%TD*%
D43*
%TO.C,C69*%
X141815519Y-121728879D03*
X141815519Y-116328879D03*
%TD*%
D44*
%TO.C,R69*%
X198650000Y-116597500D03*
X200300000Y-116597500D03*
%TD*%
D19*
%TO.C,R137*%
X233634999Y-126865000D03*
X233634999Y-125215000D03*
%TD*%
D45*
%TO.C,C54*%
X227225000Y-137450000D03*
X227225000Y-135900000D03*
%TD*%
D46*
%TO.C,FB1*%
X255557500Y-102170000D03*
X257682500Y-102170000D03*
%TD*%
D44*
%TO.C,R63*%
X198650000Y-90439437D03*
X200300000Y-90439437D03*
%TD*%
D19*
%TO.C,R121*%
X169940000Y-136890000D03*
X169940000Y-135240000D03*
%TD*%
D18*
%TO.C,R50*%
X176760000Y-135035000D03*
X175110000Y-135035000D03*
%TD*%
D47*
%TO.C,R94*%
X105710001Y-145910000D03*
X106729999Y-145910000D03*
%TD*%
D12*
%TO.C,R9*%
X244914478Y-105124999D03*
X244914478Y-104105001D03*
%TD*%
D48*
%TO.C,C64*%
X136840000Y-132557110D03*
X136840000Y-129607108D03*
%TD*%
D49*
%TO.C,C25*%
X193349999Y-139765000D03*
X191450001Y-139765000D03*
%TD*%
D19*
%TO.C,R55*%
X193007500Y-114820000D03*
X193007500Y-113170000D03*
%TD*%
D50*
%TO.C,U21*%
X232475000Y-61880000D03*
X232475000Y-63150000D03*
X232475000Y-64420000D03*
X232475000Y-65690000D03*
X237425000Y-65690000D03*
X237425000Y-64420000D03*
X237425000Y-63150000D03*
X237425000Y-61880000D03*
%TD*%
D10*
%TO.C,R132*%
X184860000Y-149410000D03*
X184860000Y-151060000D03*
%TD*%
D51*
%TO.C,Q1*%
X232750000Y-116175000D03*
X232100000Y-116175001D03*
X231450000Y-116175000D03*
X231450000Y-118075000D03*
X232100000Y-118074999D03*
X232750000Y-118075000D03*
%TD*%
D10*
%TO.C,R58*%
X174980000Y-95757500D03*
X174980000Y-97407500D03*
%TD*%
D11*
%TO.C,C36*%
X200250000Y-114862500D03*
X198700000Y-114862500D03*
%TD*%
D15*
%TO.C,D32*%
X229050000Y-136775000D03*
X229050000Y-138875000D03*
%TD*%
D11*
%TO.C,C34*%
X200250000Y-106147096D03*
X198700000Y-106147096D03*
%TD*%
D44*
%TO.C,R61*%
X198650000Y-81772500D03*
X200300000Y-81772500D03*
%TD*%
D10*
%TO.C,R56*%
X174980000Y-113170000D03*
X174980000Y-114820000D03*
%TD*%
D52*
%TO.C,R139*%
X226175000Y-91090001D03*
X226175000Y-92109999D03*
%TD*%
D18*
%TO.C,R79*%
X169475000Y-81772500D03*
X167825000Y-81772500D03*
%TD*%
D44*
%TO.C,R67*%
X198650000Y-107882096D03*
X200300000Y-107882096D03*
%TD*%
D15*
%TO.C,D18*%
X166060000Y-104261250D03*
X166060000Y-106361250D03*
%TD*%
D48*
%TO.C,C70*%
X136840000Y-121737110D03*
X136840000Y-118787108D03*
%TD*%
D53*
%TO.C,L2*%
X127815000Y-121755782D03*
X133465000Y-121755782D03*
%TD*%
D19*
%TO.C,R128*%
X166040000Y-140015000D03*
X166040000Y-138365000D03*
%TD*%
D54*
%TO.C,R88*%
X198889358Y-40500805D03*
X198889358Y-43425805D03*
%TD*%
D13*
%TO.C,C50*%
X167875000Y-86988813D03*
X169425000Y-86988813D03*
%TD*%
D15*
%TO.C,D21*%
X204090000Y-78142500D03*
X204090000Y-80242500D03*
%TD*%
D44*
%TO.C,R64*%
X198650000Y-93960611D03*
X200300000Y-93960611D03*
%TD*%
D19*
%TO.C,R25*%
X239225000Y-133700000D03*
X239225000Y-132050000D03*
%TD*%
D44*
%TO.C,R62*%
X198650000Y-85263501D03*
X200300000Y-85263501D03*
%TD*%
D18*
%TO.C,R76*%
X169475000Y-90439437D03*
X167825000Y-90439437D03*
%TD*%
%TO.C,R73*%
X169475000Y-102677096D03*
X167825000Y-102677096D03*
%TD*%
D10*
%TO.C,R123*%
X159815000Y-135295000D03*
X159815000Y-136945000D03*
%TD*%
D53*
%TO.C,L4*%
X127815000Y-132740000D03*
X133465000Y-132740000D03*
%TD*%
D11*
%TO.C,C58*%
X241135000Y-61895000D03*
X239585000Y-61895000D03*
%TD*%
D55*
%TO.C,U19*%
X199519358Y-50885805D03*
X198249358Y-50885805D03*
X198249358Y-57260805D03*
X199519358Y-57260805D03*
%TD*%
D44*
%TO.C,R60*%
X198650000Y-76567500D03*
X200300000Y-76567500D03*
%TD*%
D56*
%TO.C,D13*%
X202130000Y-88903750D03*
X202130000Y-86803750D03*
%TD*%
D57*
%TO.C,D39*%
X114707501Y-134182109D03*
X110707499Y-134182109D03*
%TD*%
D10*
%TO.C,R17*%
X247559058Y-123935000D03*
X247559058Y-125585000D03*
%TD*%
D19*
%TO.C,R131*%
X147480000Y-140265000D03*
X147480000Y-138615000D03*
%TD*%
D58*
%TO.C,C1*%
X256190000Y-67999998D03*
X256190000Y-66100000D03*
%TD*%
D11*
%TO.C,C14*%
X255900000Y-109325000D03*
X254350000Y-109325000D03*
%TD*%
D19*
%TO.C,R3*%
X251575000Y-49275000D03*
X251575000Y-47625000D03*
%TD*%
D44*
%TO.C,R19*%
X156695000Y-129760000D03*
X158345000Y-129760000D03*
%TD*%
D59*
%TO.C,Q17*%
X154980000Y-131990000D03*
X154980000Y-130090000D03*
X153104999Y-131040000D03*
%TD*%
D13*
%TO.C,C15*%
X254375000Y-114075000D03*
X255925000Y-114075000D03*
%TD*%
D14*
%TO.C,LED2*%
X183230000Y-150982501D03*
X183230000Y-149407499D03*
%TD*%
%TO.C,D7*%
X172830000Y-133475001D03*
X172830000Y-131899999D03*
%TD*%
D60*
%TO.C,C53*%
X223041992Y-134918008D03*
X224138008Y-133821992D03*
%TD*%
D54*
%TO.C,R84*%
X218889359Y-40500805D03*
X218889359Y-43425805D03*
%TD*%
D10*
%TO.C,R46*%
X145670000Y-102090000D03*
X145670000Y-103740000D03*
%TD*%
D45*
%TO.C,C7*%
X168330000Y-136895000D03*
X168330000Y-135345000D03*
%TD*%
D11*
%TO.C,C28*%
X200250000Y-80037500D03*
X198700000Y-80037500D03*
%TD*%
D61*
%TO.C,SW2*%
X254800000Y-56685000D03*
X258950000Y-56685000D03*
X254800000Y-58835000D03*
X258950000Y-58835000D03*
%TD*%
D14*
%TO.C,D55*%
X228700000Y-126787501D03*
X228700000Y-125212499D03*
%TD*%
D62*
%TO.C,J3*%
X228780000Y-144355000D03*
X229580000Y-144355000D03*
D63*
X230730000Y-144355000D03*
X231730000Y-144355000D03*
X232230000Y-144355000D03*
X233230000Y-144355000D03*
D62*
X234380000Y-144355000D03*
X235180000Y-144355000D03*
X235180000Y-144355000D03*
X234380000Y-144355000D03*
D63*
X233730000Y-144355000D03*
X232730000Y-144355000D03*
X231230000Y-144355000D03*
X230230000Y-144355000D03*
D62*
X229580000Y-144355000D03*
X228780000Y-144355000D03*
%TD*%
D19*
%TO.C,R4*%
X253100000Y-49275000D03*
X253100000Y-47625000D03*
%TD*%
D11*
%TO.C,C33*%
X200250000Y-104412096D03*
X198700000Y-104412096D03*
%TD*%
D64*
%TO.C,U1*%
X258730000Y-73915000D03*
X257460000Y-73915000D03*
X256190000Y-73915000D03*
X254920000Y-73915000D03*
X253650000Y-73915000D03*
X252380000Y-73915000D03*
X251110000Y-73915000D03*
X249840000Y-73915000D03*
X248570000Y-73915000D03*
X247300000Y-73915000D03*
X246030000Y-73915000D03*
X244760000Y-73915000D03*
X243490000Y-73915000D03*
X242220000Y-73915000D03*
D65*
X241125000Y-76950000D03*
X241125000Y-78220000D03*
X241125001Y-79490000D03*
X241125000Y-80760000D03*
X241125000Y-82030000D03*
X241125000Y-83300000D03*
X241125000Y-84570000D03*
X241125001Y-85840000D03*
X241125000Y-87110000D03*
X241125000Y-88380000D03*
D64*
X242220000Y-91415000D03*
X243490000Y-91415000D03*
X244760000Y-91415000D03*
X246030000Y-91415000D03*
X247300000Y-91415000D03*
X248570000Y-91415000D03*
X249840000Y-91415000D03*
X251110000Y-91415000D03*
X252380000Y-91415000D03*
X253650000Y-91415000D03*
X254920000Y-91415000D03*
X256190000Y-91415000D03*
X257460000Y-91415000D03*
X258730000Y-91415000D03*
D66*
X252565000Y-79765000D03*
X251165000Y-79765000D03*
X249765000Y-79765000D03*
X252565000Y-81165000D03*
X251165000Y-81165000D03*
X249765000Y-81165000D03*
X252565000Y-82565000D03*
X251165000Y-82565000D03*
X249765000Y-82565000D03*
%TD*%
D67*
%TO.C,C59*%
X141815519Y-132573049D03*
X141815519Y-137973049D03*
%TD*%
D19*
%TO.C,R43*%
X122240000Y-106510000D03*
X122240000Y-104860000D03*
%TD*%
D56*
%TO.C,D14*%
X204090000Y-97610000D03*
X204090000Y-95510000D03*
%TD*%
D68*
%TO.C,C61*%
X252648008Y-107801992D03*
X251551992Y-108898008D03*
%TD*%
D10*
%TO.C,R134*%
X191380000Y-149410000D03*
X191380000Y-151060000D03*
%TD*%
D11*
%TO.C,C13*%
X255925000Y-107825000D03*
X254375000Y-107825000D03*
%TD*%
D18*
%TO.C,R126*%
X164125000Y-138375000D03*
X162475000Y-138375000D03*
%TD*%
D11*
%TO.C,C29*%
X200250000Y-86988813D03*
X198700000Y-86988813D03*
%TD*%
D69*
%TO.C,FB2*%
X211350000Y-140012499D03*
X211350000Y-141587501D03*
%TD*%
D18*
%TO.C,R96*%
X97715000Y-93340000D03*
X96065000Y-93340000D03*
%TD*%
D10*
%TO.C,R28*%
X217950000Y-122275000D03*
X217950000Y-123925000D03*
%TD*%
%TO.C,R45*%
X123830000Y-104860000D03*
X123830000Y-106510000D03*
%TD*%
D19*
%TO.C,R2*%
X248525000Y-49275000D03*
X248525000Y-47625000D03*
%TD*%
D13*
%TO.C,C39*%
X167875000Y-106147096D03*
X169425000Y-106147096D03*
%TD*%
D42*
%TO.C,D42*%
X127792499Y-115332109D03*
X131792501Y-115332109D03*
%TD*%
D18*
%TO.C,R70*%
X169475000Y-116597500D03*
X167825000Y-116597500D03*
%TD*%
D55*
%TO.C,U18*%
X204519358Y-50885805D03*
X203249358Y-50885805D03*
X203249358Y-57260805D03*
X204519358Y-57260805D03*
%TD*%
D15*
%TO.C,D6*%
X211330000Y-136502500D03*
X211330000Y-138602500D03*
%TD*%
D70*
%TO.C,C6*%
X254100000Y-111570000D03*
X255060000Y-111570000D03*
%TD*%
D14*
%TO.C,D35*%
X209519358Y-47800806D03*
X209519358Y-46225804D03*
%TD*%
D19*
%TO.C,R6*%
X254625000Y-49275000D03*
X254625000Y-47625000D03*
%TD*%
D14*
%TO.C,D56*%
X231989998Y-126787501D03*
X231989998Y-125212499D03*
%TD*%
D71*
%TO.C,U10*%
X186949999Y-132622500D03*
X186449999Y-132622500D03*
X185949999Y-132622500D03*
X185449998Y-132622500D03*
X184949999Y-132622500D03*
X184449999Y-132622500D03*
X183949999Y-132622500D03*
X183449999Y-132622500D03*
X182950000Y-132622500D03*
X182449999Y-132622500D03*
X181949999Y-132622500D03*
X181449999Y-132622500D03*
D72*
X180037499Y-134035000D03*
X180037499Y-134535000D03*
X180037499Y-135035000D03*
X180037499Y-135535001D03*
X180037499Y-136035000D03*
X180037499Y-136535000D03*
X180037499Y-137035000D03*
X180037499Y-137535000D03*
X180037499Y-138034999D03*
X180037499Y-138535000D03*
X180037499Y-139035000D03*
X180037499Y-139535000D03*
D71*
X181449999Y-140947500D03*
X181949999Y-140947500D03*
X182449999Y-140947500D03*
X182950000Y-140947500D03*
X183449999Y-140947500D03*
X183949999Y-140947500D03*
X184449999Y-140947500D03*
X184949999Y-140947500D03*
X185449998Y-140947500D03*
X185949999Y-140947500D03*
X186449999Y-140947500D03*
X186949999Y-140947500D03*
D72*
X188362499Y-139535000D03*
X188362499Y-139035000D03*
X188362499Y-138535000D03*
X188362499Y-138034999D03*
X188362499Y-137535000D03*
X188362499Y-137035000D03*
X188362499Y-136535000D03*
X188362499Y-136035000D03*
X188362499Y-135535001D03*
X188362499Y-135035000D03*
X188362499Y-134535000D03*
X188362499Y-134035000D03*
%TD*%
D20*
%TO.C,D1*%
X249270000Y-127160000D03*
X249270000Y-128000000D03*
%TD*%
D50*
%TO.C,U22*%
X232495000Y-68050000D03*
X232495000Y-69320000D03*
X232495000Y-70590000D03*
X232495000Y-71860000D03*
X237445000Y-71860000D03*
X237445000Y-70590000D03*
X237445000Y-69320000D03*
X237445000Y-68050000D03*
%TD*%
D56*
%TO.C,D29*%
X164110000Y-88903750D03*
X164110000Y-86803750D03*
%TD*%
%TO.C,D26*%
X164110000Y-115022500D03*
X164110000Y-112922500D03*
%TD*%
D54*
%TO.C,R86*%
X208889358Y-40500805D03*
X208889358Y-43425805D03*
%TD*%
D67*
%TO.C,C62*%
X108182290Y-137985338D03*
X108182290Y-143385338D03*
%TD*%
D52*
%TO.C,R8*%
X247452878Y-104105001D03*
X247452878Y-105124999D03*
%TD*%
D11*
%TO.C,C20*%
X149825000Y-101415000D03*
X148275000Y-101415000D03*
%TD*%
D19*
%TO.C,R130*%
X160530000Y-140025000D03*
X160530000Y-138375000D03*
%TD*%
%TO.C,R54*%
X193007500Y-106113750D03*
X193007500Y-104463750D03*
%TD*%
D13*
%TO.C,C40*%
X167875000Y-104412096D03*
X169425000Y-104412096D03*
%TD*%
D44*
%TO.C,R97*%
X156705000Y-132440000D03*
X158355000Y-132440000D03*
%TD*%
D73*
%TO.C,P1*%
X247005000Y-38429999D03*
X248105000Y-38430000D03*
X249205000Y-38429999D03*
X250305000Y-38430000D03*
X251405000Y-38429999D03*
X252505000Y-38430000D03*
X253605000Y-38429999D03*
X254705000Y-38429999D03*
X255805000Y-38429999D03*
D74*
X257105001Y-37829999D03*
D75*
X257105000Y-28329999D03*
X241405000Y-28329999D03*
D76*
X242305000Y-37929999D03*
%TD*%
D44*
%TO.C,R47*%
X148225000Y-106515000D03*
X149875000Y-106515000D03*
%TD*%
D77*
%TO.C,C44*%
X233427967Y-95983047D03*
X232331951Y-94887031D03*
%TD*%
D78*
%TO.C,FB3*%
X217612501Y-107175000D03*
X216037499Y-107175000D03*
%TD*%
D10*
%TO.C,R18*%
X244885384Y-123935000D03*
X244885384Y-125585000D03*
%TD*%
D79*
%TO.C,J28*%
X217910000Y-143960000D03*
X219410000Y-143960000D03*
X220910000Y-143960000D03*
X222410000Y-143960000D03*
D80*
X215310000Y-148660000D03*
X225010000Y-148660000D03*
%TD*%
D18*
%TO.C,R80*%
X169475000Y-76567500D03*
X167825000Y-76567500D03*
%TD*%
D81*
%TO.C,C16*%
X230150000Y-109525000D03*
X230150000Y-111075000D03*
%TD*%
D15*
%TO.C,D19*%
X166060000Y-95555000D03*
X166060000Y-97655000D03*
%TD*%
D61*
%TO.C,SW1*%
X254800000Y-61603020D03*
X258950000Y-61603020D03*
X254800000Y-63753020D03*
X258950000Y-63753020D03*
%TD*%
D15*
%TO.C,D20*%
X166060000Y-86848750D03*
X166060000Y-88948750D03*
%TD*%
D18*
%TO.C,R75*%
X169475000Y-93960611D03*
X167825000Y-93960611D03*
%TD*%
D15*
%TO.C,D23*%
X202130000Y-95555000D03*
X202130000Y-97655000D03*
%TD*%
D82*
%TO.C,U20*%
X120720000Y-135215000D03*
X121990000Y-135215000D03*
X123260000Y-135215000D03*
X124530000Y-135215000D03*
X124530000Y-130265000D03*
X123260000Y-130265000D03*
X121990000Y-130265000D03*
X120720000Y-130265000D03*
%TD*%
D10*
%TO.C,R57*%
X174980000Y-104463750D03*
X174980000Y-106113750D03*
%TD*%
D83*
%TO.C,U4*%
X209324371Y-137205628D03*
X208374372Y-137205628D03*
X207424373Y-137205628D03*
X207424373Y-139480628D03*
X208374372Y-139480628D03*
X209324371Y-139480628D03*
%TD*%
D12*
%TO.C,R16*%
X250527478Y-118192530D03*
X250527478Y-117172532D03*
%TD*%
D45*
%TO.C,C10*%
X248982078Y-104840000D03*
X248982078Y-103290000D03*
%TD*%
D56*
%TO.C,D12*%
X202130000Y-80197500D03*
X202130000Y-78097500D03*
%TD*%
D14*
%TO.C,D2*%
X169980000Y-133450001D03*
X169980000Y-131874999D03*
%TD*%
D19*
%TO.C,R7*%
X245475000Y-49275000D03*
X245475000Y-47625000D03*
%TD*%
D13*
%TO.C,C43*%
X167875000Y-88714125D03*
X169425000Y-88714125D03*
%TD*%
D54*
%TO.C,R87*%
X203889358Y-40500805D03*
X203889358Y-43425805D03*
%TD*%
D56*
%TO.C,D28*%
X164110000Y-97610000D03*
X164110000Y-95510000D03*
%TD*%
D18*
%TO.C,R90*%
X241255000Y-69325000D03*
X239605000Y-69325000D03*
%TD*%
D81*
%TO.C,C23*%
X186450000Y-126740000D03*
X186450000Y-128290000D03*
%TD*%
D18*
%TO.C,R127*%
X217665000Y-101865000D03*
X216015000Y-101865000D03*
%TD*%
D13*
%TO.C,C52*%
X167875000Y-78302500D03*
X169425000Y-78302500D03*
%TD*%
D12*
%TO.C,R93*%
X113370000Y-141996243D03*
X113370000Y-140976245D03*
%TD*%
D19*
%TO.C,R24*%
X237700000Y-133700000D03*
X237700000Y-132050000D03*
%TD*%
D82*
%TO.C,U23*%
X120720000Y-124230782D03*
X121990000Y-124230782D03*
X123260000Y-124230782D03*
X124530000Y-124230782D03*
X124530000Y-119280782D03*
X123260000Y-119280782D03*
X121990000Y-119280782D03*
X120720000Y-119280782D03*
%TD*%
D84*
%TO.C,Q14*%
X75650000Y-96165000D03*
X75650000Y-94465000D03*
X73950000Y-96165000D03*
X73950000Y-94465000D03*
D85*
X72545000Y-97220000D03*
X72545000Y-95950000D03*
X72545000Y-94680000D03*
X72545000Y-93410000D03*
D86*
X78350000Y-97220000D03*
X78350000Y-95950000D03*
X78350000Y-94680000D03*
X78350000Y-93410000D03*
%TD*%
D44*
%TO.C,R11*%
X238425000Y-94900000D03*
X240075000Y-94900000D03*
%TD*%
%TO.C,R66*%
X198650000Y-102677096D03*
X200300000Y-102677096D03*
%TD*%
D19*
%TO.C,R124*%
X166800000Y-136945000D03*
X166800000Y-135295000D03*
%TD*%
D14*
%TO.C,D37*%
X199519358Y-47800806D03*
X199519358Y-46225804D03*
%TD*%
D56*
%TO.C,D15*%
X202130000Y-106316250D03*
X202130000Y-104216250D03*
%TD*%
D13*
%TO.C,C41*%
X167875000Y-97430611D03*
X169425000Y-97430611D03*
%TD*%
D87*
%TO.C,BOOT1*%
X193160000Y-147870000D03*
X193160000Y-150080000D03*
X200460000Y-147870000D03*
X200460000Y-150080000D03*
D88*
X194560000Y-147220000D03*
X197560000Y-147220000D03*
X199060000Y-147220000D03*
%TD*%
D89*
%TO.C,D8*%
X63740000Y-88635000D03*
X66240000Y-88635000D03*
X63740000Y-82335000D03*
X66240000Y-82335000D03*
%TD*%
D10*
%TO.C,R1*%
X254330000Y-66439999D03*
X254330000Y-68089999D03*
%TD*%
D18*
%TO.C,R118*%
X82675000Y-93450000D03*
X81025000Y-93450000D03*
%TD*%
D81*
%TO.C,C22*%
X193929500Y-141840000D03*
X193929500Y-143390000D03*
%TD*%
D90*
%TO.C,U5*%
X220965000Y-97925001D03*
X220965000Y-98425000D03*
X220965000Y-98925000D03*
X220965000Y-99425000D03*
X220965000Y-99925000D03*
X220965000Y-100425001D03*
X220965000Y-100925000D03*
X220965000Y-101425000D03*
X220965000Y-101925000D03*
X220965000Y-102425000D03*
X220965000Y-102924999D03*
X220965000Y-103425000D03*
X220965000Y-103925000D03*
X220965000Y-104425000D03*
X220965000Y-104925000D03*
X220965000Y-105424999D03*
D91*
X222890001Y-107350000D03*
X223390000Y-107350000D03*
X223890000Y-107350000D03*
X224390000Y-107350000D03*
X224890000Y-107350000D03*
X225390001Y-107350000D03*
X225890000Y-107350000D03*
X226390000Y-107350000D03*
X226890000Y-107350000D03*
X227390000Y-107350000D03*
X227889999Y-107350000D03*
X228390000Y-107350000D03*
X228890000Y-107350000D03*
X229390000Y-107350000D03*
X229890000Y-107350000D03*
X230389999Y-107350000D03*
D90*
X232315000Y-105424999D03*
X232315000Y-104925000D03*
X232315000Y-104425000D03*
X232315000Y-103925000D03*
X232315000Y-103425000D03*
X232315000Y-102924999D03*
X232315000Y-102425000D03*
X232315000Y-101925000D03*
X232315000Y-101425000D03*
X232315000Y-100925000D03*
X232315000Y-100425001D03*
X232315000Y-99925000D03*
X232315000Y-99425000D03*
X232315000Y-98925000D03*
X232315000Y-98425000D03*
X232315000Y-97925001D03*
D91*
X230389999Y-96000000D03*
X229890000Y-96000000D03*
X229390000Y-96000000D03*
X228890000Y-96000000D03*
X228390000Y-96000000D03*
X227889999Y-96000000D03*
X227390000Y-96000000D03*
X226890000Y-96000000D03*
X226390000Y-96000000D03*
X225890000Y-96000000D03*
X225390001Y-96000000D03*
X224890000Y-96000000D03*
X224390000Y-96000000D03*
X223890000Y-96000000D03*
X223390000Y-96000000D03*
X222890001Y-96000000D03*
%TD*%
D14*
%TO.C,D34*%
X214519358Y-47800806D03*
X214519358Y-46225804D03*
%TD*%
D16*
%TO.C,C68*%
X121085000Y-127247891D03*
X124035000Y-127247891D03*
%TD*%
D18*
%TO.C,R74*%
X169475000Y-99165611D03*
X167825000Y-99165611D03*
%TD*%
D14*
%TO.C,LED3*%
X186490000Y-150982501D03*
X186490000Y-149407499D03*
%TD*%
D19*
%TO.C,R122*%
X172830000Y-136895000D03*
X172830000Y-135245000D03*
%TD*%
D14*
%TO.C,LED1*%
X179970000Y-150982501D03*
X179970000Y-149407499D03*
%TD*%
D58*
%TO.C,C5*%
X222410000Y-140354999D03*
X222410000Y-138455001D03*
%TD*%
D20*
%TO.C,D5*%
X247540000Y-127160000D03*
X247540000Y-128000000D03*
%TD*%
D92*
%TO.C,J13*%
X194912499Y-129775000D03*
X194912499Y-128525000D03*
X194912499Y-127275000D03*
X194912499Y-126025000D03*
X194912499Y-124775000D03*
X194912499Y-123525000D03*
D93*
X197662499Y-132325000D03*
X197662499Y-120975000D03*
%TD*%
D58*
%TO.C,C4*%
X258730000Y-68029998D03*
X258730000Y-66130000D03*
%TD*%
D81*
%TO.C,C55*%
X231700000Y-109525000D03*
X231700000Y-111075000D03*
%TD*%
D45*
%TO.C,C24*%
X186460000Y-144400000D03*
X186460000Y-142850000D03*
%TD*%
D52*
%TO.C,R140*%
X225100000Y-91090001D03*
X225100000Y-92109999D03*
%TD*%
D11*
%TO.C,C30*%
X200250000Y-88714125D03*
X198700000Y-88714125D03*
%TD*%
D19*
%TO.C,R5*%
X247000000Y-49275000D03*
X247000000Y-47625000D03*
%TD*%
D18*
%TO.C,R72*%
X169475000Y-107882096D03*
X167825000Y-107882096D03*
%TD*%
D56*
%TO.C,D27*%
X164110000Y-106316250D03*
X164110000Y-104216250D03*
%TD*%
D19*
%TO.C,R95*%
X226190000Y-69480000D03*
X226190000Y-67830000D03*
%TD*%
D81*
%TO.C,C83*%
X228600000Y-109525000D03*
X228600000Y-111075000D03*
%TD*%
D13*
%TO.C,C37*%
X167875000Y-114862500D03*
X169425000Y-114862500D03*
%TD*%
D44*
%TO.C,R68*%
X198650000Y-111392500D03*
X200300000Y-111392500D03*
%TD*%
D94*
%TO.C,Q16*%
X115270000Y-144062500D03*
X113370000Y-144062500D03*
X114320000Y-145937501D03*
%TD*%
D13*
%TO.C,C46*%
X212395000Y-97795000D03*
X213945000Y-97795000D03*
%TD*%
D95*
%TO.C,C9*%
X255770001Y-104070000D03*
X257669999Y-104070000D03*
%TD*%
D15*
%TO.C,D25*%
X204090000Y-112967500D03*
X204090000Y-115067500D03*
%TD*%
D10*
%TO.C,R42*%
X122240000Y-99310000D03*
X122240000Y-100960000D03*
%TD*%
D18*
%TO.C,R49*%
X192195000Y-143475000D03*
X190545000Y-143475000D03*
%TD*%
D11*
%TO.C,C49*%
X217600000Y-105650000D03*
X216050000Y-105650000D03*
%TD*%
D96*
%TO.C,HSE1*%
X212320000Y-99665000D03*
X212320000Y-101865000D03*
X214020000Y-101865000D03*
X214020000Y-99665000D03*
%TD*%
D11*
%TO.C,C47*%
X213945000Y-103645000D03*
X212395000Y-103645000D03*
%TD*%
D62*
%TO.C,J19*%
X205140000Y-144355000D03*
X205940000Y-144355000D03*
D63*
X207090000Y-144355000D03*
X208090000Y-144355000D03*
X208590000Y-144355000D03*
X209590000Y-144355000D03*
D62*
X210740000Y-144355000D03*
X211540000Y-144355000D03*
X211540000Y-144355000D03*
X210740000Y-144355000D03*
D63*
X210090000Y-144355000D03*
X209090000Y-144355000D03*
X207590000Y-144355000D03*
X206590000Y-144355000D03*
D62*
X205940000Y-144355000D03*
X205140000Y-144355000D03*
%TD*%
D18*
%TO.C,R71*%
X169475000Y-111392500D03*
X167825000Y-111392500D03*
%TD*%
D10*
%TO.C,R21*%
X249175895Y-123935000D03*
X249175895Y-125585000D03*
%TD*%
D45*
%TO.C,C56*%
X210380000Y-134525000D03*
X210380000Y-132975000D03*
%TD*%
D10*
%TO.C,R41*%
X120680000Y-104860000D03*
X120680000Y-106510000D03*
%TD*%
D97*
%TO.C,D10*%
X149750000Y-113795680D03*
X147650000Y-113795680D03*
%TD*%
D19*
%TO.C,R44*%
X123830000Y-100960000D03*
X123830000Y-99310000D03*
%TD*%
%TO.C,R51*%
X193007500Y-79995000D03*
X193007500Y-78345000D03*
%TD*%
D56*
%TO.C,D16*%
X202130000Y-115022500D03*
X202130000Y-112922500D03*
%TD*%
D69*
%TO.C,FB4*%
X227225000Y-138887499D03*
X227225000Y-140462501D03*
%TD*%
D11*
%TO.C,C35*%
X200250000Y-113127500D03*
X198700000Y-113127500D03*
%TD*%
D52*
%TO.C,R125*%
X197560000Y-143040001D03*
X197560000Y-144059999D03*
%TD*%
D98*
%TO.C,U11*%
X216379016Y-134883483D03*
D99*
X214879016Y-134970984D03*
D98*
X213379016Y-134883483D03*
%TD*%
D100*
%TO.C,R15*%
X243522468Y-112077509D03*
X242502470Y-112077509D03*
%TD*%
D81*
%TO.C,C2*%
X250050000Y-47675000D03*
X250050000Y-49225000D03*
%TD*%
D13*
%TO.C,C38*%
X167875000Y-113127500D03*
X169425000Y-113127500D03*
%TD*%
D68*
%TO.C,C17*%
X219844922Y-93783905D03*
X218748906Y-94879921D03*
%TD*%
D47*
%TO.C,R12*%
X254060000Y-110590000D03*
X255079998Y-110590000D03*
%TD*%
D13*
%TO.C,C42*%
X167875000Y-95695611D03*
X169425000Y-95695611D03*
%TD*%
D15*
%TO.C,D30*%
X164110000Y-78142500D03*
X164110000Y-80242500D03*
%TD*%
D14*
%TO.C,D33*%
X219519359Y-47800806D03*
X219519359Y-46225804D03*
%TD*%
%TO.C,LED4*%
X189750000Y-150982501D03*
X189750000Y-149407499D03*
%TD*%
D54*
%TO.C,R85*%
X213889358Y-40500805D03*
X213889358Y-43425805D03*
%TD*%
D18*
%TO.C,R77*%
X169475000Y-85263501D03*
X167825000Y-85263501D03*
%TD*%
D81*
%TO.C,C3*%
X256150000Y-47675000D03*
X256150000Y-49225000D03*
%TD*%
D68*
%TO.C,C45*%
X220948007Y-94886990D03*
X219851991Y-95983006D03*
%TD*%
D20*
%TO.C,D4*%
X244930000Y-127160000D03*
X244930000Y-128000000D03*
%TD*%
D19*
%TO.C,R40*%
X120680000Y-100960000D03*
X120680000Y-99310000D03*
%TD*%
D13*
%TO.C,C51*%
X167875000Y-80037500D03*
X169425000Y-80037500D03*
%TD*%
D55*
%TO.C,U16*%
X214519358Y-50885805D03*
X213249358Y-50885805D03*
X213249358Y-57260805D03*
X214519358Y-57260805D03*
%TD*%
D56*
%TO.C,D31*%
X166060000Y-80197500D03*
X166060000Y-78097500D03*
%TD*%
D11*
%TO.C,C31*%
X200250000Y-95695611D03*
X198700000Y-95695611D03*
%TD*%
D12*
%TO.C,R14*%
X250511278Y-105124999D03*
X250511278Y-104105001D03*
%TD*%
D11*
%TO.C,C27*%
X200250000Y-78302500D03*
X198700000Y-78302500D03*
%TD*%
D55*
%TO.C,U15*%
X219519359Y-50885805D03*
X218249359Y-50885805D03*
X218249359Y-57260805D03*
X219519359Y-57260805D03*
%TD*%
D15*
%TO.C,D24*%
X204090000Y-104261250D03*
X204090000Y-106361250D03*
%TD*%
D101*
%TO.C,L1*%
X190627250Y-141865000D03*
X192202250Y-141865000D03*
%TD*%
D10*
%TO.C,R129*%
X181600000Y-149410000D03*
X181600000Y-151060000D03*
%TD*%
D19*
%TO.C,R22*%
X257700000Y-130475000D03*
X257700000Y-128825000D03*
%TD*%
D102*
%TO.C,U27*%
X93037500Y-93335000D03*
X93037500Y-92065000D03*
X86662500Y-92065000D03*
X86662500Y-93335000D03*
%TD*%
D44*
%TO.C,R65*%
X198650000Y-99165611D03*
X200300000Y-99165611D03*
%TD*%
D12*
%TO.C,R13*%
X251780478Y-105124999D03*
X251780478Y-104105001D03*
%TD*%
D11*
%TO.C,C18*%
X214475000Y-107175000D03*
X212925000Y-107175000D03*
%TD*%
D55*
%TO.C,U17*%
X209519358Y-50885805D03*
X208249358Y-50885805D03*
X208249358Y-57260805D03*
X209519358Y-57260805D03*
%TD*%
D11*
%TO.C,C48*%
X217600000Y-104125000D03*
X216050000Y-104125000D03*
%TD*%
D45*
%TO.C,C21*%
X188900000Y-143390000D03*
X188900000Y-141840000D03*
%TD*%
D103*
%TO.C,BT2*%
X216400000Y-84585000D03*
D104*
X216400000Y-68785000D03*
%TD*%
D83*
%TO.C,U12*%
X232999999Y-137212500D03*
X232050000Y-137212500D03*
X231100001Y-137212500D03*
X231100001Y-139487500D03*
X232050000Y-139487500D03*
X232999999Y-139487500D03*
%TD*%
D44*
%TO.C,R48*%
X148225000Y-99315000D03*
X149875000Y-99315000D03*
%TD*%
D13*
%TO.C,C82*%
X238475000Y-97750000D03*
X240025000Y-97750000D03*
%TD*%
D11*
%TO.C,C19*%
X149825000Y-103795000D03*
X148275000Y-103795000D03*
%TD*%
D15*
%TO.C,D22*%
X204090000Y-86826250D03*
X204090000Y-88926250D03*
%TD*%
D12*
%TO.C,R10*%
X246183678Y-105124999D03*
X246183678Y-104105001D03*
%TD*%
D19*
%TO.C,R138*%
X230344999Y-126865000D03*
X230344999Y-125215000D03*
%TD*%
M02*
