%TF.GenerationSoftware,KiCad,Pcbnew,8.0.1*%
%TF.CreationDate,2024-07-17T10:14:41+07:00*%
%TF.ProjectId,SmartEnergyMag_System,536d6172-7445-46e6-9572-67794d61675f,rev?*%
%TF.SameCoordinates,Original*%
%TF.FileFunction,Legend,Bot*%
%TF.FilePolarity,Positive*%
%FSLAX46Y46*%
G04 Gerber Fmt 4.6, Leading zero omitted, Abs format (unit mm)*
G04 Created by KiCad (PCBNEW 8.0.1) date 2024-07-17 10:14:41*
%MOMM*%
%LPD*%
G01*
G04 APERTURE LIST*
%ADD10C,0.150000*%
%ADD11C,0.120000*%
G04 APERTURE END LIST*
D10*
X267229819Y-94333333D02*
X266229819Y-94333333D01*
X266229819Y-94333333D02*
X266229819Y-94571428D01*
X266229819Y-94571428D02*
X266277438Y-94714285D01*
X266277438Y-94714285D02*
X266372676Y-94809523D01*
X266372676Y-94809523D02*
X266467914Y-94857142D01*
X266467914Y-94857142D02*
X266658390Y-94904761D01*
X266658390Y-94904761D02*
X266801247Y-94904761D01*
X266801247Y-94904761D02*
X266991723Y-94857142D01*
X266991723Y-94857142D02*
X267086961Y-94809523D01*
X267086961Y-94809523D02*
X267182200Y-94714285D01*
X267182200Y-94714285D02*
X267229819Y-94571428D01*
X267229819Y-94571428D02*
X267229819Y-94333333D01*
X267229819Y-95904761D02*
X266753628Y-95571428D01*
X267229819Y-95333333D02*
X266229819Y-95333333D01*
X266229819Y-95333333D02*
X266229819Y-95714285D01*
X266229819Y-95714285D02*
X266277438Y-95809523D01*
X266277438Y-95809523D02*
X266325057Y-95857142D01*
X266325057Y-95857142D02*
X266420295Y-95904761D01*
X266420295Y-95904761D02*
X266563152Y-95904761D01*
X266563152Y-95904761D02*
X266658390Y-95857142D01*
X266658390Y-95857142D02*
X266706009Y-95809523D01*
X266706009Y-95809523D02*
X266753628Y-95714285D01*
X266753628Y-95714285D02*
X266753628Y-95333333D01*
X266944104Y-96285714D02*
X266944104Y-96761904D01*
X267229819Y-96190476D02*
X266229819Y-96523809D01*
X266229819Y-96523809D02*
X267229819Y-96857142D01*
X267229819Y-97714285D02*
X267229819Y-97142857D01*
X267229819Y-97428571D02*
X266229819Y-97428571D01*
X266229819Y-97428571D02*
X266372676Y-97333333D01*
X266372676Y-97333333D02*
X266467914Y-97238095D01*
X266467914Y-97238095D02*
X266515533Y-97142857D01*
X33544819Y-88218333D02*
X32544819Y-88218333D01*
X32544819Y-88218333D02*
X32544819Y-88456428D01*
X32544819Y-88456428D02*
X32592438Y-88599285D01*
X32592438Y-88599285D02*
X32687676Y-88694523D01*
X32687676Y-88694523D02*
X32782914Y-88742142D01*
X32782914Y-88742142D02*
X32973390Y-88789761D01*
X32973390Y-88789761D02*
X33116247Y-88789761D01*
X33116247Y-88789761D02*
X33306723Y-88742142D01*
X33306723Y-88742142D02*
X33401961Y-88694523D01*
X33401961Y-88694523D02*
X33497200Y-88599285D01*
X33497200Y-88599285D02*
X33544819Y-88456428D01*
X33544819Y-88456428D02*
X33544819Y-88218333D01*
X33544819Y-89789761D02*
X33068628Y-89456428D01*
X33544819Y-89218333D02*
X32544819Y-89218333D01*
X32544819Y-89218333D02*
X32544819Y-89599285D01*
X32544819Y-89599285D02*
X32592438Y-89694523D01*
X32592438Y-89694523D02*
X32640057Y-89742142D01*
X32640057Y-89742142D02*
X32735295Y-89789761D01*
X32735295Y-89789761D02*
X32878152Y-89789761D01*
X32878152Y-89789761D02*
X32973390Y-89742142D01*
X32973390Y-89742142D02*
X33021009Y-89694523D01*
X33021009Y-89694523D02*
X33068628Y-89599285D01*
X33068628Y-89599285D02*
X33068628Y-89218333D01*
X33259104Y-90170714D02*
X33259104Y-90646904D01*
X33544819Y-90075476D02*
X32544819Y-90408809D01*
X32544819Y-90408809D02*
X33544819Y-90742142D01*
X32640057Y-91027857D02*
X32592438Y-91075476D01*
X32592438Y-91075476D02*
X32544819Y-91170714D01*
X32544819Y-91170714D02*
X32544819Y-91408809D01*
X32544819Y-91408809D02*
X32592438Y-91504047D01*
X32592438Y-91504047D02*
X32640057Y-91551666D01*
X32640057Y-91551666D02*
X32735295Y-91599285D01*
X32735295Y-91599285D02*
X32830533Y-91599285D01*
X32830533Y-91599285D02*
X32973390Y-91551666D01*
X32973390Y-91551666D02*
X33544819Y-90980238D01*
X33544819Y-90980238D02*
X33544819Y-91599285D01*
X74544047Y-85892318D02*
X74877380Y-85416127D01*
X75115475Y-85892318D02*
X75115475Y-84892318D01*
X75115475Y-84892318D02*
X74734523Y-84892318D01*
X74734523Y-84892318D02*
X74639285Y-84939937D01*
X74639285Y-84939937D02*
X74591666Y-84987556D01*
X74591666Y-84987556D02*
X74544047Y-85082794D01*
X74544047Y-85082794D02*
X74544047Y-85225651D01*
X74544047Y-85225651D02*
X74591666Y-85320889D01*
X74591666Y-85320889D02*
X74639285Y-85368508D01*
X74639285Y-85368508D02*
X74734523Y-85416127D01*
X74734523Y-85416127D02*
X75115475Y-85416127D01*
X73591666Y-85892318D02*
X74163094Y-85892318D01*
X73877380Y-85892318D02*
X73877380Y-84892318D01*
X73877380Y-84892318D02*
X73972618Y-85035175D01*
X73972618Y-85035175D02*
X74067856Y-85130413D01*
X74067856Y-85130413D02*
X74163094Y-85178032D01*
X72972618Y-84892318D02*
X72877380Y-84892318D01*
X72877380Y-84892318D02*
X72782142Y-84939937D01*
X72782142Y-84939937D02*
X72734523Y-84987556D01*
X72734523Y-84987556D02*
X72686904Y-85082794D01*
X72686904Y-85082794D02*
X72639285Y-85273270D01*
X72639285Y-85273270D02*
X72639285Y-85511365D01*
X72639285Y-85511365D02*
X72686904Y-85701841D01*
X72686904Y-85701841D02*
X72734523Y-85797079D01*
X72734523Y-85797079D02*
X72782142Y-85844699D01*
X72782142Y-85844699D02*
X72877380Y-85892318D01*
X72877380Y-85892318D02*
X72972618Y-85892318D01*
X72972618Y-85892318D02*
X73067856Y-85844699D01*
X73067856Y-85844699D02*
X73115475Y-85797079D01*
X73115475Y-85797079D02*
X73163094Y-85701841D01*
X73163094Y-85701841D02*
X73210713Y-85511365D01*
X73210713Y-85511365D02*
X73210713Y-85273270D01*
X73210713Y-85273270D02*
X73163094Y-85082794D01*
X73163094Y-85082794D02*
X73115475Y-84987556D01*
X73115475Y-84987556D02*
X73067856Y-84939937D01*
X73067856Y-84939937D02*
X72972618Y-84892318D01*
X72305951Y-84892318D02*
X71686904Y-84892318D01*
X71686904Y-84892318D02*
X72020237Y-85273270D01*
X72020237Y-85273270D02*
X71877380Y-85273270D01*
X71877380Y-85273270D02*
X71782142Y-85320889D01*
X71782142Y-85320889D02*
X71734523Y-85368508D01*
X71734523Y-85368508D02*
X71686904Y-85463746D01*
X71686904Y-85463746D02*
X71686904Y-85701841D01*
X71686904Y-85701841D02*
X71734523Y-85797079D01*
X71734523Y-85797079D02*
X71782142Y-85844699D01*
X71782142Y-85844699D02*
X71877380Y-85892318D01*
X71877380Y-85892318D02*
X72163094Y-85892318D01*
X72163094Y-85892318D02*
X72258332Y-85844699D01*
X72258332Y-85844699D02*
X72305951Y-85797079D01*
X106724047Y-78937320D02*
X107057380Y-78461129D01*
X107295475Y-78937320D02*
X107295475Y-77937320D01*
X107295475Y-77937320D02*
X106914523Y-77937320D01*
X106914523Y-77937320D02*
X106819285Y-77984939D01*
X106819285Y-77984939D02*
X106771666Y-78032558D01*
X106771666Y-78032558D02*
X106724047Y-78127796D01*
X106724047Y-78127796D02*
X106724047Y-78270653D01*
X106724047Y-78270653D02*
X106771666Y-78365891D01*
X106771666Y-78365891D02*
X106819285Y-78413510D01*
X106819285Y-78413510D02*
X106914523Y-78461129D01*
X106914523Y-78461129D02*
X107295475Y-78461129D01*
X105771666Y-78937320D02*
X106343094Y-78937320D01*
X106057380Y-78937320D02*
X106057380Y-77937320D01*
X106057380Y-77937320D02*
X106152618Y-78080177D01*
X106152618Y-78080177D02*
X106247856Y-78175415D01*
X106247856Y-78175415D02*
X106343094Y-78223034D01*
X104819285Y-78937320D02*
X105390713Y-78937320D01*
X105104999Y-78937320D02*
X105104999Y-77937320D01*
X105104999Y-77937320D02*
X105200237Y-78080177D01*
X105200237Y-78080177D02*
X105295475Y-78175415D01*
X105295475Y-78175415D02*
X105390713Y-78223034D01*
X104485951Y-77937320D02*
X103866904Y-77937320D01*
X103866904Y-77937320D02*
X104200237Y-78318272D01*
X104200237Y-78318272D02*
X104057380Y-78318272D01*
X104057380Y-78318272D02*
X103962142Y-78365891D01*
X103962142Y-78365891D02*
X103914523Y-78413510D01*
X103914523Y-78413510D02*
X103866904Y-78508748D01*
X103866904Y-78508748D02*
X103866904Y-78746843D01*
X103866904Y-78746843D02*
X103914523Y-78842081D01*
X103914523Y-78842081D02*
X103962142Y-78889701D01*
X103962142Y-78889701D02*
X104057380Y-78937320D01*
X104057380Y-78937320D02*
X104343094Y-78937320D01*
X104343094Y-78937320D02*
X104438332Y-78889701D01*
X104438332Y-78889701D02*
X104485951Y-78842081D01*
X138427857Y-90697320D02*
X138761190Y-90221129D01*
X138999285Y-90697320D02*
X138999285Y-89697320D01*
X138999285Y-89697320D02*
X138618333Y-89697320D01*
X138618333Y-89697320D02*
X138523095Y-89744939D01*
X138523095Y-89744939D02*
X138475476Y-89792558D01*
X138475476Y-89792558D02*
X138427857Y-89887796D01*
X138427857Y-89887796D02*
X138427857Y-90030653D01*
X138427857Y-90030653D02*
X138475476Y-90125891D01*
X138475476Y-90125891D02*
X138523095Y-90173510D01*
X138523095Y-90173510D02*
X138618333Y-90221129D01*
X138618333Y-90221129D02*
X138999285Y-90221129D01*
X137951666Y-90697320D02*
X137761190Y-90697320D01*
X137761190Y-90697320D02*
X137665952Y-90649701D01*
X137665952Y-90649701D02*
X137618333Y-90602081D01*
X137618333Y-90602081D02*
X137523095Y-90459224D01*
X137523095Y-90459224D02*
X137475476Y-90268748D01*
X137475476Y-90268748D02*
X137475476Y-89887796D01*
X137475476Y-89887796D02*
X137523095Y-89792558D01*
X137523095Y-89792558D02*
X137570714Y-89744939D01*
X137570714Y-89744939D02*
X137665952Y-89697320D01*
X137665952Y-89697320D02*
X137856428Y-89697320D01*
X137856428Y-89697320D02*
X137951666Y-89744939D01*
X137951666Y-89744939D02*
X137999285Y-89792558D01*
X137999285Y-89792558D02*
X138046904Y-89887796D01*
X138046904Y-89887796D02*
X138046904Y-90125891D01*
X138046904Y-90125891D02*
X137999285Y-90221129D01*
X137999285Y-90221129D02*
X137951666Y-90268748D01*
X137951666Y-90268748D02*
X137856428Y-90316367D01*
X137856428Y-90316367D02*
X137665952Y-90316367D01*
X137665952Y-90316367D02*
X137570714Y-90268748D01*
X137570714Y-90268748D02*
X137523095Y-90221129D01*
X137523095Y-90221129D02*
X137475476Y-90125891D01*
X136904047Y-90125891D02*
X136999285Y-90078272D01*
X136999285Y-90078272D02*
X137046904Y-90030653D01*
X137046904Y-90030653D02*
X137094523Y-89935415D01*
X137094523Y-89935415D02*
X137094523Y-89887796D01*
X137094523Y-89887796D02*
X137046904Y-89792558D01*
X137046904Y-89792558D02*
X136999285Y-89744939D01*
X136999285Y-89744939D02*
X136904047Y-89697320D01*
X136904047Y-89697320D02*
X136713571Y-89697320D01*
X136713571Y-89697320D02*
X136618333Y-89744939D01*
X136618333Y-89744939D02*
X136570714Y-89792558D01*
X136570714Y-89792558D02*
X136523095Y-89887796D01*
X136523095Y-89887796D02*
X136523095Y-89935415D01*
X136523095Y-89935415D02*
X136570714Y-90030653D01*
X136570714Y-90030653D02*
X136618333Y-90078272D01*
X136618333Y-90078272D02*
X136713571Y-90125891D01*
X136713571Y-90125891D02*
X136904047Y-90125891D01*
X136904047Y-90125891D02*
X136999285Y-90173510D01*
X136999285Y-90173510D02*
X137046904Y-90221129D01*
X137046904Y-90221129D02*
X137094523Y-90316367D01*
X137094523Y-90316367D02*
X137094523Y-90506843D01*
X137094523Y-90506843D02*
X137046904Y-90602081D01*
X137046904Y-90602081D02*
X136999285Y-90649701D01*
X136999285Y-90649701D02*
X136904047Y-90697320D01*
X136904047Y-90697320D02*
X136713571Y-90697320D01*
X136713571Y-90697320D02*
X136618333Y-90649701D01*
X136618333Y-90649701D02*
X136570714Y-90602081D01*
X136570714Y-90602081D02*
X136523095Y-90506843D01*
X136523095Y-90506843D02*
X136523095Y-90316367D01*
X136523095Y-90316367D02*
X136570714Y-90221129D01*
X136570714Y-90221129D02*
X136618333Y-90173510D01*
X136618333Y-90173510D02*
X136713571Y-90125891D01*
X138427857Y-88797320D02*
X138761190Y-88321129D01*
X138999285Y-88797320D02*
X138999285Y-87797320D01*
X138999285Y-87797320D02*
X138618333Y-87797320D01*
X138618333Y-87797320D02*
X138523095Y-87844939D01*
X138523095Y-87844939D02*
X138475476Y-87892558D01*
X138475476Y-87892558D02*
X138427857Y-87987796D01*
X138427857Y-87987796D02*
X138427857Y-88130653D01*
X138427857Y-88130653D02*
X138475476Y-88225891D01*
X138475476Y-88225891D02*
X138523095Y-88273510D01*
X138523095Y-88273510D02*
X138618333Y-88321129D01*
X138618333Y-88321129D02*
X138999285Y-88321129D01*
X137951666Y-88797320D02*
X137761190Y-88797320D01*
X137761190Y-88797320D02*
X137665952Y-88749701D01*
X137665952Y-88749701D02*
X137618333Y-88702081D01*
X137618333Y-88702081D02*
X137523095Y-88559224D01*
X137523095Y-88559224D02*
X137475476Y-88368748D01*
X137475476Y-88368748D02*
X137475476Y-87987796D01*
X137475476Y-87987796D02*
X137523095Y-87892558D01*
X137523095Y-87892558D02*
X137570714Y-87844939D01*
X137570714Y-87844939D02*
X137665952Y-87797320D01*
X137665952Y-87797320D02*
X137856428Y-87797320D01*
X137856428Y-87797320D02*
X137951666Y-87844939D01*
X137951666Y-87844939D02*
X137999285Y-87892558D01*
X137999285Y-87892558D02*
X138046904Y-87987796D01*
X138046904Y-87987796D02*
X138046904Y-88225891D01*
X138046904Y-88225891D02*
X137999285Y-88321129D01*
X137999285Y-88321129D02*
X137951666Y-88368748D01*
X137951666Y-88368748D02*
X137856428Y-88416367D01*
X137856428Y-88416367D02*
X137665952Y-88416367D01*
X137665952Y-88416367D02*
X137570714Y-88368748D01*
X137570714Y-88368748D02*
X137523095Y-88321129D01*
X137523095Y-88321129D02*
X137475476Y-88225891D01*
X136999285Y-88797320D02*
X136808809Y-88797320D01*
X136808809Y-88797320D02*
X136713571Y-88749701D01*
X136713571Y-88749701D02*
X136665952Y-88702081D01*
X136665952Y-88702081D02*
X136570714Y-88559224D01*
X136570714Y-88559224D02*
X136523095Y-88368748D01*
X136523095Y-88368748D02*
X136523095Y-87987796D01*
X136523095Y-87987796D02*
X136570714Y-87892558D01*
X136570714Y-87892558D02*
X136618333Y-87844939D01*
X136618333Y-87844939D02*
X136713571Y-87797320D01*
X136713571Y-87797320D02*
X136904047Y-87797320D01*
X136904047Y-87797320D02*
X136999285Y-87844939D01*
X136999285Y-87844939D02*
X137046904Y-87892558D01*
X137046904Y-87892558D02*
X137094523Y-87987796D01*
X137094523Y-87987796D02*
X137094523Y-88225891D01*
X137094523Y-88225891D02*
X137046904Y-88321129D01*
X137046904Y-88321129D02*
X136999285Y-88368748D01*
X136999285Y-88368748D02*
X136904047Y-88416367D01*
X136904047Y-88416367D02*
X136713571Y-88416367D01*
X136713571Y-88416367D02*
X136618333Y-88368748D01*
X136618333Y-88368748D02*
X136570714Y-88321129D01*
X136570714Y-88321129D02*
X136523095Y-88225891D01*
X80720594Y-73354819D02*
X80720594Y-74164342D01*
X80720594Y-74164342D02*
X80672975Y-74259580D01*
X80672975Y-74259580D02*
X80625356Y-74307200D01*
X80625356Y-74307200D02*
X80530118Y-74354819D01*
X80530118Y-74354819D02*
X80339642Y-74354819D01*
X80339642Y-74354819D02*
X80244404Y-74307200D01*
X80244404Y-74307200D02*
X80196785Y-74259580D01*
X80196785Y-74259580D02*
X80149166Y-74164342D01*
X80149166Y-74164342D02*
X80149166Y-73354819D01*
X79720594Y-73450057D02*
X79672975Y-73402438D01*
X79672975Y-73402438D02*
X79577737Y-73354819D01*
X79577737Y-73354819D02*
X79339642Y-73354819D01*
X79339642Y-73354819D02*
X79244404Y-73402438D01*
X79244404Y-73402438D02*
X79196785Y-73450057D01*
X79196785Y-73450057D02*
X79149166Y-73545295D01*
X79149166Y-73545295D02*
X79149166Y-73640533D01*
X79149166Y-73640533D02*
X79196785Y-73783390D01*
X79196785Y-73783390D02*
X79768213Y-74354819D01*
X79768213Y-74354819D02*
X79149166Y-74354819D01*
X78672975Y-74354819D02*
X78482499Y-74354819D01*
X78482499Y-74354819D02*
X78387261Y-74307200D01*
X78387261Y-74307200D02*
X78339642Y-74259580D01*
X78339642Y-74259580D02*
X78244404Y-74116723D01*
X78244404Y-74116723D02*
X78196785Y-73926247D01*
X78196785Y-73926247D02*
X78196785Y-73545295D01*
X78196785Y-73545295D02*
X78244404Y-73450057D01*
X78244404Y-73450057D02*
X78292023Y-73402438D01*
X78292023Y-73402438D02*
X78387261Y-73354819D01*
X78387261Y-73354819D02*
X78577737Y-73354819D01*
X78577737Y-73354819D02*
X78672975Y-73402438D01*
X78672975Y-73402438D02*
X78720594Y-73450057D01*
X78720594Y-73450057D02*
X78768213Y-73545295D01*
X78768213Y-73545295D02*
X78768213Y-73783390D01*
X78768213Y-73783390D02*
X78720594Y-73878628D01*
X78720594Y-73878628D02*
X78672975Y-73926247D01*
X78672975Y-73926247D02*
X78577737Y-73973866D01*
X78577737Y-73973866D02*
X78387261Y-73973866D01*
X78387261Y-73973866D02*
X78292023Y-73926247D01*
X78292023Y-73926247D02*
X78244404Y-73878628D01*
X78244404Y-73878628D02*
X78196785Y-73783390D01*
X130331428Y-86712557D02*
X130426666Y-86664938D01*
X130426666Y-86664938D02*
X130521904Y-86569700D01*
X130521904Y-86569700D02*
X130664761Y-86426842D01*
X130664761Y-86426842D02*
X130759999Y-86379223D01*
X130759999Y-86379223D02*
X130855237Y-86379223D01*
X130807618Y-86617319D02*
X130902856Y-86569700D01*
X130902856Y-86569700D02*
X130998094Y-86474461D01*
X130998094Y-86474461D02*
X131045713Y-86283985D01*
X131045713Y-86283985D02*
X131045713Y-85950652D01*
X131045713Y-85950652D02*
X130998094Y-85760176D01*
X130998094Y-85760176D02*
X130902856Y-85664938D01*
X130902856Y-85664938D02*
X130807618Y-85617319D01*
X130807618Y-85617319D02*
X130617142Y-85617319D01*
X130617142Y-85617319D02*
X130521904Y-85664938D01*
X130521904Y-85664938D02*
X130426666Y-85760176D01*
X130426666Y-85760176D02*
X130379047Y-85950652D01*
X130379047Y-85950652D02*
X130379047Y-86283985D01*
X130379047Y-86283985D02*
X130426666Y-86474461D01*
X130426666Y-86474461D02*
X130521904Y-86569700D01*
X130521904Y-86569700D02*
X130617142Y-86617319D01*
X130617142Y-86617319D02*
X130807618Y-86617319D01*
X129426666Y-86617319D02*
X129998094Y-86617319D01*
X129712380Y-86617319D02*
X129712380Y-85617319D01*
X129712380Y-85617319D02*
X129807618Y-85760176D01*
X129807618Y-85760176D02*
X129902856Y-85855414D01*
X129902856Y-85855414D02*
X129998094Y-85903033D01*
X129045713Y-85712557D02*
X128998094Y-85664938D01*
X128998094Y-85664938D02*
X128902856Y-85617319D01*
X128902856Y-85617319D02*
X128664761Y-85617319D01*
X128664761Y-85617319D02*
X128569523Y-85664938D01*
X128569523Y-85664938D02*
X128521904Y-85712557D01*
X128521904Y-85712557D02*
X128474285Y-85807795D01*
X128474285Y-85807795D02*
X128474285Y-85903033D01*
X128474285Y-85903033D02*
X128521904Y-86045890D01*
X128521904Y-86045890D02*
X129093332Y-86617319D01*
X129093332Y-86617319D02*
X128474285Y-86617319D01*
X220057866Y-130835781D02*
X220057866Y-131645304D01*
X220057866Y-131645304D02*
X220010247Y-131740542D01*
X220010247Y-131740542D02*
X219962628Y-131788162D01*
X219962628Y-131788162D02*
X219867390Y-131835781D01*
X219867390Y-131835781D02*
X219676914Y-131835781D01*
X219676914Y-131835781D02*
X219581676Y-131788162D01*
X219581676Y-131788162D02*
X219534057Y-131740542D01*
X219534057Y-131740542D02*
X219486438Y-131645304D01*
X219486438Y-131645304D02*
X219486438Y-130835781D01*
X218581676Y-130835781D02*
X218772152Y-130835781D01*
X218772152Y-130835781D02*
X218867390Y-130883400D01*
X218867390Y-130883400D02*
X218915009Y-130931019D01*
X218915009Y-130931019D02*
X219010247Y-131073876D01*
X219010247Y-131073876D02*
X219057866Y-131264352D01*
X219057866Y-131264352D02*
X219057866Y-131645304D01*
X219057866Y-131645304D02*
X219010247Y-131740542D01*
X219010247Y-131740542D02*
X218962628Y-131788162D01*
X218962628Y-131788162D02*
X218867390Y-131835781D01*
X218867390Y-131835781D02*
X218676914Y-131835781D01*
X218676914Y-131835781D02*
X218581676Y-131788162D01*
X218581676Y-131788162D02*
X218534057Y-131740542D01*
X218534057Y-131740542D02*
X218486438Y-131645304D01*
X218486438Y-131645304D02*
X218486438Y-131407209D01*
X218486438Y-131407209D02*
X218534057Y-131311971D01*
X218534057Y-131311971D02*
X218581676Y-131264352D01*
X218581676Y-131264352D02*
X218676914Y-131216733D01*
X218676914Y-131216733D02*
X218867390Y-131216733D01*
X218867390Y-131216733D02*
X218962628Y-131264352D01*
X218962628Y-131264352D02*
X219010247Y-131311971D01*
X219010247Y-131311971D02*
X219057866Y-131407209D01*
X131390444Y-89923215D02*
X130390444Y-89923215D01*
X130390444Y-89923215D02*
X130390444Y-90161310D01*
X130390444Y-90161310D02*
X130438063Y-90304167D01*
X130438063Y-90304167D02*
X130533301Y-90399405D01*
X130533301Y-90399405D02*
X130628539Y-90447024D01*
X130628539Y-90447024D02*
X130819015Y-90494643D01*
X130819015Y-90494643D02*
X130961872Y-90494643D01*
X130961872Y-90494643D02*
X131152348Y-90447024D01*
X131152348Y-90447024D02*
X131247586Y-90399405D01*
X131247586Y-90399405D02*
X131342825Y-90304167D01*
X131342825Y-90304167D02*
X131390444Y-90161310D01*
X131390444Y-90161310D02*
X131390444Y-89923215D01*
X130390444Y-91399405D02*
X130390444Y-90923215D01*
X130390444Y-90923215D02*
X130866634Y-90875596D01*
X130866634Y-90875596D02*
X130819015Y-90923215D01*
X130819015Y-90923215D02*
X130771396Y-91018453D01*
X130771396Y-91018453D02*
X130771396Y-91256548D01*
X130771396Y-91256548D02*
X130819015Y-91351786D01*
X130819015Y-91351786D02*
X130866634Y-91399405D01*
X130866634Y-91399405D02*
X130961872Y-91447024D01*
X130961872Y-91447024D02*
X131199967Y-91447024D01*
X131199967Y-91447024D02*
X131295205Y-91399405D01*
X131295205Y-91399405D02*
X131342825Y-91351786D01*
X131342825Y-91351786D02*
X131390444Y-91256548D01*
X131390444Y-91256548D02*
X131390444Y-91018453D01*
X131390444Y-91018453D02*
X131342825Y-90923215D01*
X131342825Y-90923215D02*
X131295205Y-90875596D01*
X130390444Y-91780358D02*
X130390444Y-92399405D01*
X130390444Y-92399405D02*
X130771396Y-92066072D01*
X130771396Y-92066072D02*
X130771396Y-92208929D01*
X130771396Y-92208929D02*
X130819015Y-92304167D01*
X130819015Y-92304167D02*
X130866634Y-92351786D01*
X130866634Y-92351786D02*
X130961872Y-92399405D01*
X130961872Y-92399405D02*
X131199967Y-92399405D01*
X131199967Y-92399405D02*
X131295205Y-92351786D01*
X131295205Y-92351786D02*
X131342825Y-92304167D01*
X131342825Y-92304167D02*
X131390444Y-92208929D01*
X131390444Y-92208929D02*
X131390444Y-91923215D01*
X131390444Y-91923215D02*
X131342825Y-91827977D01*
X131342825Y-91827977D02*
X131295205Y-91780358D01*
X232604819Y-147477142D02*
X232128628Y-147143809D01*
X232604819Y-146905714D02*
X231604819Y-146905714D01*
X231604819Y-146905714D02*
X231604819Y-147286666D01*
X231604819Y-147286666D02*
X231652438Y-147381904D01*
X231652438Y-147381904D02*
X231700057Y-147429523D01*
X231700057Y-147429523D02*
X231795295Y-147477142D01*
X231795295Y-147477142D02*
X231938152Y-147477142D01*
X231938152Y-147477142D02*
X232033390Y-147429523D01*
X232033390Y-147429523D02*
X232081009Y-147381904D01*
X232081009Y-147381904D02*
X232128628Y-147286666D01*
X232128628Y-147286666D02*
X232128628Y-146905714D01*
X232033390Y-148048571D02*
X231985771Y-147953333D01*
X231985771Y-147953333D02*
X231938152Y-147905714D01*
X231938152Y-147905714D02*
X231842914Y-147858095D01*
X231842914Y-147858095D02*
X231795295Y-147858095D01*
X231795295Y-147858095D02*
X231700057Y-147905714D01*
X231700057Y-147905714D02*
X231652438Y-147953333D01*
X231652438Y-147953333D02*
X231604819Y-148048571D01*
X231604819Y-148048571D02*
X231604819Y-148239047D01*
X231604819Y-148239047D02*
X231652438Y-148334285D01*
X231652438Y-148334285D02*
X231700057Y-148381904D01*
X231700057Y-148381904D02*
X231795295Y-148429523D01*
X231795295Y-148429523D02*
X231842914Y-148429523D01*
X231842914Y-148429523D02*
X231938152Y-148381904D01*
X231938152Y-148381904D02*
X231985771Y-148334285D01*
X231985771Y-148334285D02*
X232033390Y-148239047D01*
X232033390Y-148239047D02*
X232033390Y-148048571D01*
X232033390Y-148048571D02*
X232081009Y-147953333D01*
X232081009Y-147953333D02*
X232128628Y-147905714D01*
X232128628Y-147905714D02*
X232223866Y-147858095D01*
X232223866Y-147858095D02*
X232414342Y-147858095D01*
X232414342Y-147858095D02*
X232509580Y-147905714D01*
X232509580Y-147905714D02*
X232557200Y-147953333D01*
X232557200Y-147953333D02*
X232604819Y-148048571D01*
X232604819Y-148048571D02*
X232604819Y-148239047D01*
X232604819Y-148239047D02*
X232557200Y-148334285D01*
X232557200Y-148334285D02*
X232509580Y-148381904D01*
X232509580Y-148381904D02*
X232414342Y-148429523D01*
X232414342Y-148429523D02*
X232223866Y-148429523D01*
X232223866Y-148429523D02*
X232128628Y-148381904D01*
X232128628Y-148381904D02*
X232081009Y-148334285D01*
X232081009Y-148334285D02*
X232033390Y-148239047D01*
X232604819Y-149381904D02*
X232604819Y-148810476D01*
X232604819Y-149096190D02*
X231604819Y-149096190D01*
X231604819Y-149096190D02*
X231747676Y-149000952D01*
X231747676Y-149000952D02*
X231842914Y-148905714D01*
X231842914Y-148905714D02*
X231890533Y-148810476D01*
X114241428Y-86712557D02*
X114336666Y-86664938D01*
X114336666Y-86664938D02*
X114431904Y-86569700D01*
X114431904Y-86569700D02*
X114574761Y-86426842D01*
X114574761Y-86426842D02*
X114669999Y-86379223D01*
X114669999Y-86379223D02*
X114765237Y-86379223D01*
X114717618Y-86617319D02*
X114812856Y-86569700D01*
X114812856Y-86569700D02*
X114908094Y-86474461D01*
X114908094Y-86474461D02*
X114955713Y-86283985D01*
X114955713Y-86283985D02*
X114955713Y-85950652D01*
X114955713Y-85950652D02*
X114908094Y-85760176D01*
X114908094Y-85760176D02*
X114812856Y-85664938D01*
X114812856Y-85664938D02*
X114717618Y-85617319D01*
X114717618Y-85617319D02*
X114527142Y-85617319D01*
X114527142Y-85617319D02*
X114431904Y-85664938D01*
X114431904Y-85664938D02*
X114336666Y-85760176D01*
X114336666Y-85760176D02*
X114289047Y-85950652D01*
X114289047Y-85950652D02*
X114289047Y-86283985D01*
X114289047Y-86283985D02*
X114336666Y-86474461D01*
X114336666Y-86474461D02*
X114431904Y-86569700D01*
X114431904Y-86569700D02*
X114527142Y-86617319D01*
X114527142Y-86617319D02*
X114717618Y-86617319D01*
X113336666Y-86617319D02*
X113908094Y-86617319D01*
X113622380Y-86617319D02*
X113622380Y-85617319D01*
X113622380Y-85617319D02*
X113717618Y-85760176D01*
X113717618Y-85760176D02*
X113812856Y-85855414D01*
X113812856Y-85855414D02*
X113908094Y-85903033D01*
X112717618Y-85617319D02*
X112622380Y-85617319D01*
X112622380Y-85617319D02*
X112527142Y-85664938D01*
X112527142Y-85664938D02*
X112479523Y-85712557D01*
X112479523Y-85712557D02*
X112431904Y-85807795D01*
X112431904Y-85807795D02*
X112384285Y-85998271D01*
X112384285Y-85998271D02*
X112384285Y-86236366D01*
X112384285Y-86236366D02*
X112431904Y-86426842D01*
X112431904Y-86426842D02*
X112479523Y-86522080D01*
X112479523Y-86522080D02*
X112527142Y-86569700D01*
X112527142Y-86569700D02*
X112622380Y-86617319D01*
X112622380Y-86617319D02*
X112717618Y-86617319D01*
X112717618Y-86617319D02*
X112812856Y-86569700D01*
X112812856Y-86569700D02*
X112860475Y-86522080D01*
X112860475Y-86522080D02*
X112908094Y-86426842D01*
X112908094Y-86426842D02*
X112955713Y-86236366D01*
X112955713Y-86236366D02*
X112955713Y-85998271D01*
X112955713Y-85998271D02*
X112908094Y-85807795D01*
X112908094Y-85807795D02*
X112860475Y-85712557D01*
X112860475Y-85712557D02*
X112812856Y-85664938D01*
X112812856Y-85664938D02*
X112717618Y-85617319D01*
X70362857Y-94424819D02*
X70696190Y-93948628D01*
X70934285Y-94424819D02*
X70934285Y-93424819D01*
X70934285Y-93424819D02*
X70553333Y-93424819D01*
X70553333Y-93424819D02*
X70458095Y-93472438D01*
X70458095Y-93472438D02*
X70410476Y-93520057D01*
X70410476Y-93520057D02*
X70362857Y-93615295D01*
X70362857Y-93615295D02*
X70362857Y-93758152D01*
X70362857Y-93758152D02*
X70410476Y-93853390D01*
X70410476Y-93853390D02*
X70458095Y-93901009D01*
X70458095Y-93901009D02*
X70553333Y-93948628D01*
X70553333Y-93948628D02*
X70934285Y-93948628D01*
X69791428Y-93853390D02*
X69886666Y-93805771D01*
X69886666Y-93805771D02*
X69934285Y-93758152D01*
X69934285Y-93758152D02*
X69981904Y-93662914D01*
X69981904Y-93662914D02*
X69981904Y-93615295D01*
X69981904Y-93615295D02*
X69934285Y-93520057D01*
X69934285Y-93520057D02*
X69886666Y-93472438D01*
X69886666Y-93472438D02*
X69791428Y-93424819D01*
X69791428Y-93424819D02*
X69600952Y-93424819D01*
X69600952Y-93424819D02*
X69505714Y-93472438D01*
X69505714Y-93472438D02*
X69458095Y-93520057D01*
X69458095Y-93520057D02*
X69410476Y-93615295D01*
X69410476Y-93615295D02*
X69410476Y-93662914D01*
X69410476Y-93662914D02*
X69458095Y-93758152D01*
X69458095Y-93758152D02*
X69505714Y-93805771D01*
X69505714Y-93805771D02*
X69600952Y-93853390D01*
X69600952Y-93853390D02*
X69791428Y-93853390D01*
X69791428Y-93853390D02*
X69886666Y-93901009D01*
X69886666Y-93901009D02*
X69934285Y-93948628D01*
X69934285Y-93948628D02*
X69981904Y-94043866D01*
X69981904Y-94043866D02*
X69981904Y-94234342D01*
X69981904Y-94234342D02*
X69934285Y-94329580D01*
X69934285Y-94329580D02*
X69886666Y-94377200D01*
X69886666Y-94377200D02*
X69791428Y-94424819D01*
X69791428Y-94424819D02*
X69600952Y-94424819D01*
X69600952Y-94424819D02*
X69505714Y-94377200D01*
X69505714Y-94377200D02*
X69458095Y-94329580D01*
X69458095Y-94329580D02*
X69410476Y-94234342D01*
X69410476Y-94234342D02*
X69410476Y-94043866D01*
X69410476Y-94043866D02*
X69458095Y-93948628D01*
X69458095Y-93948628D02*
X69505714Y-93901009D01*
X69505714Y-93901009D02*
X69600952Y-93853390D01*
X69077142Y-93424819D02*
X68458095Y-93424819D01*
X68458095Y-93424819D02*
X68791428Y-93805771D01*
X68791428Y-93805771D02*
X68648571Y-93805771D01*
X68648571Y-93805771D02*
X68553333Y-93853390D01*
X68553333Y-93853390D02*
X68505714Y-93901009D01*
X68505714Y-93901009D02*
X68458095Y-93996247D01*
X68458095Y-93996247D02*
X68458095Y-94234342D01*
X68458095Y-94234342D02*
X68505714Y-94329580D01*
X68505714Y-94329580D02*
X68553333Y-94377200D01*
X68553333Y-94377200D02*
X68648571Y-94424819D01*
X68648571Y-94424819D02*
X68934285Y-94424819D01*
X68934285Y-94424819D02*
X69029523Y-94377200D01*
X69029523Y-94377200D02*
X69077142Y-94329580D01*
X211974819Y-147657142D02*
X211498628Y-147323809D01*
X211974819Y-147085714D02*
X210974819Y-147085714D01*
X210974819Y-147085714D02*
X210974819Y-147466666D01*
X210974819Y-147466666D02*
X211022438Y-147561904D01*
X211022438Y-147561904D02*
X211070057Y-147609523D01*
X211070057Y-147609523D02*
X211165295Y-147657142D01*
X211165295Y-147657142D02*
X211308152Y-147657142D01*
X211308152Y-147657142D02*
X211403390Y-147609523D01*
X211403390Y-147609523D02*
X211451009Y-147561904D01*
X211451009Y-147561904D02*
X211498628Y-147466666D01*
X211498628Y-147466666D02*
X211498628Y-147085714D01*
X211070057Y-148038095D02*
X211022438Y-148085714D01*
X211022438Y-148085714D02*
X210974819Y-148180952D01*
X210974819Y-148180952D02*
X210974819Y-148419047D01*
X210974819Y-148419047D02*
X211022438Y-148514285D01*
X211022438Y-148514285D02*
X211070057Y-148561904D01*
X211070057Y-148561904D02*
X211165295Y-148609523D01*
X211165295Y-148609523D02*
X211260533Y-148609523D01*
X211260533Y-148609523D02*
X211403390Y-148561904D01*
X211403390Y-148561904D02*
X211974819Y-147990476D01*
X211974819Y-147990476D02*
X211974819Y-148609523D01*
X210974819Y-148942857D02*
X210974819Y-149609523D01*
X210974819Y-149609523D02*
X211974819Y-149180952D01*
X113075594Y-73354819D02*
X113075594Y-74164342D01*
X113075594Y-74164342D02*
X113027975Y-74259580D01*
X113027975Y-74259580D02*
X112980356Y-74307200D01*
X112980356Y-74307200D02*
X112885118Y-74354819D01*
X112885118Y-74354819D02*
X112694642Y-74354819D01*
X112694642Y-74354819D02*
X112599404Y-74307200D01*
X112599404Y-74307200D02*
X112551785Y-74259580D01*
X112551785Y-74259580D02*
X112504166Y-74164342D01*
X112504166Y-74164342D02*
X112504166Y-73354819D01*
X112123213Y-73354819D02*
X111504166Y-73354819D01*
X111504166Y-73354819D02*
X111837499Y-73735771D01*
X111837499Y-73735771D02*
X111694642Y-73735771D01*
X111694642Y-73735771D02*
X111599404Y-73783390D01*
X111599404Y-73783390D02*
X111551785Y-73831009D01*
X111551785Y-73831009D02*
X111504166Y-73926247D01*
X111504166Y-73926247D02*
X111504166Y-74164342D01*
X111504166Y-74164342D02*
X111551785Y-74259580D01*
X111551785Y-74259580D02*
X111599404Y-74307200D01*
X111599404Y-74307200D02*
X111694642Y-74354819D01*
X111694642Y-74354819D02*
X111980356Y-74354819D01*
X111980356Y-74354819D02*
X112075594Y-74307200D01*
X112075594Y-74307200D02*
X112123213Y-74259580D01*
X110551785Y-74354819D02*
X111123213Y-74354819D01*
X110837499Y-74354819D02*
X110837499Y-73354819D01*
X110837499Y-73354819D02*
X110932737Y-73497676D01*
X110932737Y-73497676D02*
X111027975Y-73592914D01*
X111027975Y-73592914D02*
X111123213Y-73640533D01*
X235594819Y-147477142D02*
X235118628Y-147143809D01*
X235594819Y-146905714D02*
X234594819Y-146905714D01*
X234594819Y-146905714D02*
X234594819Y-147286666D01*
X234594819Y-147286666D02*
X234642438Y-147381904D01*
X234642438Y-147381904D02*
X234690057Y-147429523D01*
X234690057Y-147429523D02*
X234785295Y-147477142D01*
X234785295Y-147477142D02*
X234928152Y-147477142D01*
X234928152Y-147477142D02*
X235023390Y-147429523D01*
X235023390Y-147429523D02*
X235071009Y-147381904D01*
X235071009Y-147381904D02*
X235118628Y-147286666D01*
X235118628Y-147286666D02*
X235118628Y-146905714D01*
X235023390Y-148048571D02*
X234975771Y-147953333D01*
X234975771Y-147953333D02*
X234928152Y-147905714D01*
X234928152Y-147905714D02*
X234832914Y-147858095D01*
X234832914Y-147858095D02*
X234785295Y-147858095D01*
X234785295Y-147858095D02*
X234690057Y-147905714D01*
X234690057Y-147905714D02*
X234642438Y-147953333D01*
X234642438Y-147953333D02*
X234594819Y-148048571D01*
X234594819Y-148048571D02*
X234594819Y-148239047D01*
X234594819Y-148239047D02*
X234642438Y-148334285D01*
X234642438Y-148334285D02*
X234690057Y-148381904D01*
X234690057Y-148381904D02*
X234785295Y-148429523D01*
X234785295Y-148429523D02*
X234832914Y-148429523D01*
X234832914Y-148429523D02*
X234928152Y-148381904D01*
X234928152Y-148381904D02*
X234975771Y-148334285D01*
X234975771Y-148334285D02*
X235023390Y-148239047D01*
X235023390Y-148239047D02*
X235023390Y-148048571D01*
X235023390Y-148048571D02*
X235071009Y-147953333D01*
X235071009Y-147953333D02*
X235118628Y-147905714D01*
X235118628Y-147905714D02*
X235213866Y-147858095D01*
X235213866Y-147858095D02*
X235404342Y-147858095D01*
X235404342Y-147858095D02*
X235499580Y-147905714D01*
X235499580Y-147905714D02*
X235547200Y-147953333D01*
X235547200Y-147953333D02*
X235594819Y-148048571D01*
X235594819Y-148048571D02*
X235594819Y-148239047D01*
X235594819Y-148239047D02*
X235547200Y-148334285D01*
X235547200Y-148334285D02*
X235499580Y-148381904D01*
X235499580Y-148381904D02*
X235404342Y-148429523D01*
X235404342Y-148429523D02*
X235213866Y-148429523D01*
X235213866Y-148429523D02*
X235118628Y-148381904D01*
X235118628Y-148381904D02*
X235071009Y-148334285D01*
X235071009Y-148334285D02*
X235023390Y-148239047D01*
X234690057Y-148810476D02*
X234642438Y-148858095D01*
X234642438Y-148858095D02*
X234594819Y-148953333D01*
X234594819Y-148953333D02*
X234594819Y-149191428D01*
X234594819Y-149191428D02*
X234642438Y-149286666D01*
X234642438Y-149286666D02*
X234690057Y-149334285D01*
X234690057Y-149334285D02*
X234785295Y-149381904D01*
X234785295Y-149381904D02*
X234880533Y-149381904D01*
X234880533Y-149381904D02*
X235023390Y-149334285D01*
X235023390Y-149334285D02*
X235594819Y-148762857D01*
X235594819Y-148762857D02*
X235594819Y-149381904D01*
X74544047Y-78937320D02*
X74877380Y-78461129D01*
X75115475Y-78937320D02*
X75115475Y-77937320D01*
X75115475Y-77937320D02*
X74734523Y-77937320D01*
X74734523Y-77937320D02*
X74639285Y-77984939D01*
X74639285Y-77984939D02*
X74591666Y-78032558D01*
X74591666Y-78032558D02*
X74544047Y-78127796D01*
X74544047Y-78127796D02*
X74544047Y-78270653D01*
X74544047Y-78270653D02*
X74591666Y-78365891D01*
X74591666Y-78365891D02*
X74639285Y-78413510D01*
X74639285Y-78413510D02*
X74734523Y-78461129D01*
X74734523Y-78461129D02*
X75115475Y-78461129D01*
X73591666Y-78937320D02*
X74163094Y-78937320D01*
X73877380Y-78937320D02*
X73877380Y-77937320D01*
X73877380Y-77937320D02*
X73972618Y-78080177D01*
X73972618Y-78080177D02*
X74067856Y-78175415D01*
X74067856Y-78175415D02*
X74163094Y-78223034D01*
X72972618Y-77937320D02*
X72877380Y-77937320D01*
X72877380Y-77937320D02*
X72782142Y-77984939D01*
X72782142Y-77984939D02*
X72734523Y-78032558D01*
X72734523Y-78032558D02*
X72686904Y-78127796D01*
X72686904Y-78127796D02*
X72639285Y-78318272D01*
X72639285Y-78318272D02*
X72639285Y-78556367D01*
X72639285Y-78556367D02*
X72686904Y-78746843D01*
X72686904Y-78746843D02*
X72734523Y-78842081D01*
X72734523Y-78842081D02*
X72782142Y-78889701D01*
X72782142Y-78889701D02*
X72877380Y-78937320D01*
X72877380Y-78937320D02*
X72972618Y-78937320D01*
X72972618Y-78937320D02*
X73067856Y-78889701D01*
X73067856Y-78889701D02*
X73115475Y-78842081D01*
X73115475Y-78842081D02*
X73163094Y-78746843D01*
X73163094Y-78746843D02*
X73210713Y-78556367D01*
X73210713Y-78556367D02*
X73210713Y-78318272D01*
X73210713Y-78318272D02*
X73163094Y-78127796D01*
X73163094Y-78127796D02*
X73115475Y-78032558D01*
X73115475Y-78032558D02*
X73067856Y-77984939D01*
X73067856Y-77984939D02*
X72972618Y-77937320D01*
X71734523Y-77937320D02*
X72210713Y-77937320D01*
X72210713Y-77937320D02*
X72258332Y-78413510D01*
X72258332Y-78413510D02*
X72210713Y-78365891D01*
X72210713Y-78365891D02*
X72115475Y-78318272D01*
X72115475Y-78318272D02*
X71877380Y-78318272D01*
X71877380Y-78318272D02*
X71782142Y-78365891D01*
X71782142Y-78365891D02*
X71734523Y-78413510D01*
X71734523Y-78413510D02*
X71686904Y-78508748D01*
X71686904Y-78508748D02*
X71686904Y-78746843D01*
X71686904Y-78746843D02*
X71734523Y-78842081D01*
X71734523Y-78842081D02*
X71782142Y-78889701D01*
X71782142Y-78889701D02*
X71877380Y-78937320D01*
X71877380Y-78937320D02*
X72115475Y-78937320D01*
X72115475Y-78937320D02*
X72210713Y-78889701D01*
X72210713Y-78889701D02*
X72258332Y-78842081D01*
X97261693Y-86173215D02*
X96261693Y-86173215D01*
X96261693Y-86173215D02*
X96261693Y-86411310D01*
X96261693Y-86411310D02*
X96309312Y-86554167D01*
X96309312Y-86554167D02*
X96404550Y-86649405D01*
X96404550Y-86649405D02*
X96499788Y-86697024D01*
X96499788Y-86697024D02*
X96690264Y-86744643D01*
X96690264Y-86744643D02*
X96833121Y-86744643D01*
X96833121Y-86744643D02*
X97023597Y-86697024D01*
X97023597Y-86697024D02*
X97118835Y-86649405D01*
X97118835Y-86649405D02*
X97214074Y-86554167D01*
X97214074Y-86554167D02*
X97261693Y-86411310D01*
X97261693Y-86411310D02*
X97261693Y-86173215D01*
X96595026Y-87601786D02*
X97261693Y-87601786D01*
X96214074Y-87363691D02*
X96928359Y-87125596D01*
X96928359Y-87125596D02*
X96928359Y-87744643D01*
X97261693Y-88173215D02*
X97261693Y-88363691D01*
X97261693Y-88363691D02*
X97214074Y-88458929D01*
X97214074Y-88458929D02*
X97166454Y-88506548D01*
X97166454Y-88506548D02*
X97023597Y-88601786D01*
X97023597Y-88601786D02*
X96833121Y-88649405D01*
X96833121Y-88649405D02*
X96452169Y-88649405D01*
X96452169Y-88649405D02*
X96356931Y-88601786D01*
X96356931Y-88601786D02*
X96309312Y-88554167D01*
X96309312Y-88554167D02*
X96261693Y-88458929D01*
X96261693Y-88458929D02*
X96261693Y-88268453D01*
X96261693Y-88268453D02*
X96309312Y-88173215D01*
X96309312Y-88173215D02*
X96356931Y-88125596D01*
X96356931Y-88125596D02*
X96452169Y-88077977D01*
X96452169Y-88077977D02*
X96690264Y-88077977D01*
X96690264Y-88077977D02*
X96785502Y-88125596D01*
X96785502Y-88125596D02*
X96833121Y-88173215D01*
X96833121Y-88173215D02*
X96880740Y-88268453D01*
X96880740Y-88268453D02*
X96880740Y-88458929D01*
X96880740Y-88458929D02*
X96833121Y-88554167D01*
X96833121Y-88554167D02*
X96785502Y-88601786D01*
X96785502Y-88601786D02*
X96690264Y-88649405D01*
X90634047Y-90697320D02*
X90967380Y-90221129D01*
X91205475Y-90697320D02*
X91205475Y-89697320D01*
X91205475Y-89697320D02*
X90824523Y-89697320D01*
X90824523Y-89697320D02*
X90729285Y-89744939D01*
X90729285Y-89744939D02*
X90681666Y-89792558D01*
X90681666Y-89792558D02*
X90634047Y-89887796D01*
X90634047Y-89887796D02*
X90634047Y-90030653D01*
X90634047Y-90030653D02*
X90681666Y-90125891D01*
X90681666Y-90125891D02*
X90729285Y-90173510D01*
X90729285Y-90173510D02*
X90824523Y-90221129D01*
X90824523Y-90221129D02*
X91205475Y-90221129D01*
X89681666Y-90697320D02*
X90253094Y-90697320D01*
X89967380Y-90697320D02*
X89967380Y-89697320D01*
X89967380Y-89697320D02*
X90062618Y-89840177D01*
X90062618Y-89840177D02*
X90157856Y-89935415D01*
X90157856Y-89935415D02*
X90253094Y-89983034D01*
X89062618Y-89697320D02*
X88967380Y-89697320D01*
X88967380Y-89697320D02*
X88872142Y-89744939D01*
X88872142Y-89744939D02*
X88824523Y-89792558D01*
X88824523Y-89792558D02*
X88776904Y-89887796D01*
X88776904Y-89887796D02*
X88729285Y-90078272D01*
X88729285Y-90078272D02*
X88729285Y-90316367D01*
X88729285Y-90316367D02*
X88776904Y-90506843D01*
X88776904Y-90506843D02*
X88824523Y-90602081D01*
X88824523Y-90602081D02*
X88872142Y-90649701D01*
X88872142Y-90649701D02*
X88967380Y-90697320D01*
X88967380Y-90697320D02*
X89062618Y-90697320D01*
X89062618Y-90697320D02*
X89157856Y-90649701D01*
X89157856Y-90649701D02*
X89205475Y-90602081D01*
X89205475Y-90602081D02*
X89253094Y-90506843D01*
X89253094Y-90506843D02*
X89300713Y-90316367D01*
X89300713Y-90316367D02*
X89300713Y-90078272D01*
X89300713Y-90078272D02*
X89253094Y-89887796D01*
X89253094Y-89887796D02*
X89205475Y-89792558D01*
X89205475Y-89792558D02*
X89157856Y-89744939D01*
X89157856Y-89744939D02*
X89062618Y-89697320D01*
X87872142Y-89697320D02*
X88062618Y-89697320D01*
X88062618Y-89697320D02*
X88157856Y-89744939D01*
X88157856Y-89744939D02*
X88205475Y-89792558D01*
X88205475Y-89792558D02*
X88300713Y-89935415D01*
X88300713Y-89935415D02*
X88348332Y-90125891D01*
X88348332Y-90125891D02*
X88348332Y-90506843D01*
X88348332Y-90506843D02*
X88300713Y-90602081D01*
X88300713Y-90602081D02*
X88253094Y-90649701D01*
X88253094Y-90649701D02*
X88157856Y-90697320D01*
X88157856Y-90697320D02*
X87967380Y-90697320D01*
X87967380Y-90697320D02*
X87872142Y-90649701D01*
X87872142Y-90649701D02*
X87824523Y-90602081D01*
X87824523Y-90602081D02*
X87776904Y-90506843D01*
X87776904Y-90506843D02*
X87776904Y-90268748D01*
X87776904Y-90268748D02*
X87824523Y-90173510D01*
X87824523Y-90173510D02*
X87872142Y-90125891D01*
X87872142Y-90125891D02*
X87967380Y-90078272D01*
X87967380Y-90078272D02*
X88157856Y-90078272D01*
X88157856Y-90078272D02*
X88253094Y-90125891D01*
X88253094Y-90125891D02*
X88300713Y-90173510D01*
X88300713Y-90173510D02*
X88348332Y-90268748D01*
X114241428Y-79712557D02*
X114336666Y-79664938D01*
X114336666Y-79664938D02*
X114431904Y-79569700D01*
X114431904Y-79569700D02*
X114574761Y-79426842D01*
X114574761Y-79426842D02*
X114669999Y-79379223D01*
X114669999Y-79379223D02*
X114765237Y-79379223D01*
X114717618Y-79617319D02*
X114812856Y-79569700D01*
X114812856Y-79569700D02*
X114908094Y-79474461D01*
X114908094Y-79474461D02*
X114955713Y-79283985D01*
X114955713Y-79283985D02*
X114955713Y-78950652D01*
X114955713Y-78950652D02*
X114908094Y-78760176D01*
X114908094Y-78760176D02*
X114812856Y-78664938D01*
X114812856Y-78664938D02*
X114717618Y-78617319D01*
X114717618Y-78617319D02*
X114527142Y-78617319D01*
X114527142Y-78617319D02*
X114431904Y-78664938D01*
X114431904Y-78664938D02*
X114336666Y-78760176D01*
X114336666Y-78760176D02*
X114289047Y-78950652D01*
X114289047Y-78950652D02*
X114289047Y-79283985D01*
X114289047Y-79283985D02*
X114336666Y-79474461D01*
X114336666Y-79474461D02*
X114431904Y-79569700D01*
X114431904Y-79569700D02*
X114527142Y-79617319D01*
X114527142Y-79617319D02*
X114717618Y-79617319D01*
X113336666Y-79617319D02*
X113908094Y-79617319D01*
X113622380Y-79617319D02*
X113622380Y-78617319D01*
X113622380Y-78617319D02*
X113717618Y-78760176D01*
X113717618Y-78760176D02*
X113812856Y-78855414D01*
X113812856Y-78855414D02*
X113908094Y-78903033D01*
X112384285Y-79617319D02*
X112955713Y-79617319D01*
X112669999Y-79617319D02*
X112669999Y-78617319D01*
X112669999Y-78617319D02*
X112765237Y-78760176D01*
X112765237Y-78760176D02*
X112860475Y-78855414D01*
X112860475Y-78855414D02*
X112955713Y-78903033D01*
X129165594Y-73354819D02*
X129165594Y-74164342D01*
X129165594Y-74164342D02*
X129117975Y-74259580D01*
X129117975Y-74259580D02*
X129070356Y-74307200D01*
X129070356Y-74307200D02*
X128975118Y-74354819D01*
X128975118Y-74354819D02*
X128784642Y-74354819D01*
X128784642Y-74354819D02*
X128689404Y-74307200D01*
X128689404Y-74307200D02*
X128641785Y-74259580D01*
X128641785Y-74259580D02*
X128594166Y-74164342D01*
X128594166Y-74164342D02*
X128594166Y-73354819D01*
X128213213Y-73354819D02*
X127594166Y-73354819D01*
X127594166Y-73354819D02*
X127927499Y-73735771D01*
X127927499Y-73735771D02*
X127784642Y-73735771D01*
X127784642Y-73735771D02*
X127689404Y-73783390D01*
X127689404Y-73783390D02*
X127641785Y-73831009D01*
X127641785Y-73831009D02*
X127594166Y-73926247D01*
X127594166Y-73926247D02*
X127594166Y-74164342D01*
X127594166Y-74164342D02*
X127641785Y-74259580D01*
X127641785Y-74259580D02*
X127689404Y-74307200D01*
X127689404Y-74307200D02*
X127784642Y-74354819D01*
X127784642Y-74354819D02*
X128070356Y-74354819D01*
X128070356Y-74354819D02*
X128165594Y-74307200D01*
X128165594Y-74307200D02*
X128213213Y-74259580D01*
X127213213Y-73450057D02*
X127165594Y-73402438D01*
X127165594Y-73402438D02*
X127070356Y-73354819D01*
X127070356Y-73354819D02*
X126832261Y-73354819D01*
X126832261Y-73354819D02*
X126737023Y-73402438D01*
X126737023Y-73402438D02*
X126689404Y-73450057D01*
X126689404Y-73450057D02*
X126641785Y-73545295D01*
X126641785Y-73545295D02*
X126641785Y-73640533D01*
X126641785Y-73640533D02*
X126689404Y-73783390D01*
X126689404Y-73783390D02*
X127260832Y-74354819D01*
X127260832Y-74354819D02*
X126641785Y-74354819D01*
X97675238Y-79712557D02*
X97770476Y-79664938D01*
X97770476Y-79664938D02*
X97865714Y-79569700D01*
X97865714Y-79569700D02*
X98008571Y-79426842D01*
X98008571Y-79426842D02*
X98103809Y-79379223D01*
X98103809Y-79379223D02*
X98199047Y-79379223D01*
X98151428Y-79617319D02*
X98246666Y-79569700D01*
X98246666Y-79569700D02*
X98341904Y-79474461D01*
X98341904Y-79474461D02*
X98389523Y-79283985D01*
X98389523Y-79283985D02*
X98389523Y-78950652D01*
X98389523Y-78950652D02*
X98341904Y-78760176D01*
X98341904Y-78760176D02*
X98246666Y-78664938D01*
X98246666Y-78664938D02*
X98151428Y-78617319D01*
X98151428Y-78617319D02*
X97960952Y-78617319D01*
X97960952Y-78617319D02*
X97865714Y-78664938D01*
X97865714Y-78664938D02*
X97770476Y-78760176D01*
X97770476Y-78760176D02*
X97722857Y-78950652D01*
X97722857Y-78950652D02*
X97722857Y-79283985D01*
X97722857Y-79283985D02*
X97770476Y-79474461D01*
X97770476Y-79474461D02*
X97865714Y-79569700D01*
X97865714Y-79569700D02*
X97960952Y-79617319D01*
X97960952Y-79617319D02*
X98151428Y-79617319D01*
X97246666Y-79617319D02*
X97056190Y-79617319D01*
X97056190Y-79617319D02*
X96960952Y-79569700D01*
X96960952Y-79569700D02*
X96913333Y-79522080D01*
X96913333Y-79522080D02*
X96818095Y-79379223D01*
X96818095Y-79379223D02*
X96770476Y-79188747D01*
X96770476Y-79188747D02*
X96770476Y-78807795D01*
X96770476Y-78807795D02*
X96818095Y-78712557D01*
X96818095Y-78712557D02*
X96865714Y-78664938D01*
X96865714Y-78664938D02*
X96960952Y-78617319D01*
X96960952Y-78617319D02*
X97151428Y-78617319D01*
X97151428Y-78617319D02*
X97246666Y-78664938D01*
X97246666Y-78664938D02*
X97294285Y-78712557D01*
X97294285Y-78712557D02*
X97341904Y-78807795D01*
X97341904Y-78807795D02*
X97341904Y-79045890D01*
X97341904Y-79045890D02*
X97294285Y-79141128D01*
X97294285Y-79141128D02*
X97246666Y-79188747D01*
X97246666Y-79188747D02*
X97151428Y-79236366D01*
X97151428Y-79236366D02*
X96960952Y-79236366D01*
X96960952Y-79236366D02*
X96865714Y-79188747D01*
X96865714Y-79188747D02*
X96818095Y-79141128D01*
X96818095Y-79141128D02*
X96770476Y-79045890D01*
X147448229Y-89907305D02*
X146448229Y-89907305D01*
X146448229Y-89907305D02*
X146448229Y-90145400D01*
X146448229Y-90145400D02*
X146495848Y-90288257D01*
X146495848Y-90288257D02*
X146591086Y-90383495D01*
X146591086Y-90383495D02*
X146686324Y-90431114D01*
X146686324Y-90431114D02*
X146876800Y-90478733D01*
X146876800Y-90478733D02*
X147019657Y-90478733D01*
X147019657Y-90478733D02*
X147210133Y-90431114D01*
X147210133Y-90431114D02*
X147305371Y-90383495D01*
X147305371Y-90383495D02*
X147400610Y-90288257D01*
X147400610Y-90288257D02*
X147448229Y-90145400D01*
X147448229Y-90145400D02*
X147448229Y-89907305D01*
X146781562Y-91335876D02*
X147448229Y-91335876D01*
X146400610Y-91097781D02*
X147114895Y-90859686D01*
X147114895Y-90859686D02*
X147114895Y-91478733D01*
X146448229Y-92335876D02*
X146448229Y-91859686D01*
X146448229Y-91859686D02*
X146924419Y-91812067D01*
X146924419Y-91812067D02*
X146876800Y-91859686D01*
X146876800Y-91859686D02*
X146829181Y-91954924D01*
X146829181Y-91954924D02*
X146829181Y-92193019D01*
X146829181Y-92193019D02*
X146876800Y-92288257D01*
X146876800Y-92288257D02*
X146924419Y-92335876D01*
X146924419Y-92335876D02*
X147019657Y-92383495D01*
X147019657Y-92383495D02*
X147257752Y-92383495D01*
X147257752Y-92383495D02*
X147352990Y-92335876D01*
X147352990Y-92335876D02*
X147400610Y-92288257D01*
X147400610Y-92288257D02*
X147448229Y-92193019D01*
X147448229Y-92193019D02*
X147448229Y-91954924D01*
X147448229Y-91954924D02*
X147400610Y-91859686D01*
X147400610Y-91859686D02*
X147352990Y-91812067D01*
X122814047Y-80837320D02*
X123147380Y-80361129D01*
X123385475Y-80837320D02*
X123385475Y-79837320D01*
X123385475Y-79837320D02*
X123004523Y-79837320D01*
X123004523Y-79837320D02*
X122909285Y-79884939D01*
X122909285Y-79884939D02*
X122861666Y-79932558D01*
X122861666Y-79932558D02*
X122814047Y-80027796D01*
X122814047Y-80027796D02*
X122814047Y-80170653D01*
X122814047Y-80170653D02*
X122861666Y-80265891D01*
X122861666Y-80265891D02*
X122909285Y-80313510D01*
X122909285Y-80313510D02*
X123004523Y-80361129D01*
X123004523Y-80361129D02*
X123385475Y-80361129D01*
X121861666Y-80837320D02*
X122433094Y-80837320D01*
X122147380Y-80837320D02*
X122147380Y-79837320D01*
X122147380Y-79837320D02*
X122242618Y-79980177D01*
X122242618Y-79980177D02*
X122337856Y-80075415D01*
X122337856Y-80075415D02*
X122433094Y-80123034D01*
X120909285Y-80837320D02*
X121480713Y-80837320D01*
X121194999Y-80837320D02*
X121194999Y-79837320D01*
X121194999Y-79837320D02*
X121290237Y-79980177D01*
X121290237Y-79980177D02*
X121385475Y-80075415D01*
X121385475Y-80075415D02*
X121480713Y-80123034D01*
X120052142Y-79837320D02*
X120242618Y-79837320D01*
X120242618Y-79837320D02*
X120337856Y-79884939D01*
X120337856Y-79884939D02*
X120385475Y-79932558D01*
X120385475Y-79932558D02*
X120480713Y-80075415D01*
X120480713Y-80075415D02*
X120528332Y-80265891D01*
X120528332Y-80265891D02*
X120528332Y-80646843D01*
X120528332Y-80646843D02*
X120480713Y-80742081D01*
X120480713Y-80742081D02*
X120433094Y-80789701D01*
X120433094Y-80789701D02*
X120337856Y-80837320D01*
X120337856Y-80837320D02*
X120147380Y-80837320D01*
X120147380Y-80837320D02*
X120052142Y-80789701D01*
X120052142Y-80789701D02*
X120004523Y-80742081D01*
X120004523Y-80742081D02*
X119956904Y-80646843D01*
X119956904Y-80646843D02*
X119956904Y-80408748D01*
X119956904Y-80408748D02*
X120004523Y-80313510D01*
X120004523Y-80313510D02*
X120052142Y-80265891D01*
X120052142Y-80265891D02*
X120147380Y-80218272D01*
X120147380Y-80218272D02*
X120337856Y-80218272D01*
X120337856Y-80218272D02*
X120433094Y-80265891D01*
X120433094Y-80265891D02*
X120480713Y-80313510D01*
X120480713Y-80313510D02*
X120528332Y-80408748D01*
X138904047Y-80837320D02*
X139237380Y-80361129D01*
X139475475Y-80837320D02*
X139475475Y-79837320D01*
X139475475Y-79837320D02*
X139094523Y-79837320D01*
X139094523Y-79837320D02*
X138999285Y-79884939D01*
X138999285Y-79884939D02*
X138951666Y-79932558D01*
X138951666Y-79932558D02*
X138904047Y-80027796D01*
X138904047Y-80027796D02*
X138904047Y-80170653D01*
X138904047Y-80170653D02*
X138951666Y-80265891D01*
X138951666Y-80265891D02*
X138999285Y-80313510D01*
X138999285Y-80313510D02*
X139094523Y-80361129D01*
X139094523Y-80361129D02*
X139475475Y-80361129D01*
X137951666Y-80837320D02*
X138523094Y-80837320D01*
X138237380Y-80837320D02*
X138237380Y-79837320D01*
X138237380Y-79837320D02*
X138332618Y-79980177D01*
X138332618Y-79980177D02*
X138427856Y-80075415D01*
X138427856Y-80075415D02*
X138523094Y-80123034D01*
X137332618Y-79837320D02*
X137237380Y-79837320D01*
X137237380Y-79837320D02*
X137142142Y-79884939D01*
X137142142Y-79884939D02*
X137094523Y-79932558D01*
X137094523Y-79932558D02*
X137046904Y-80027796D01*
X137046904Y-80027796D02*
X136999285Y-80218272D01*
X136999285Y-80218272D02*
X136999285Y-80456367D01*
X136999285Y-80456367D02*
X137046904Y-80646843D01*
X137046904Y-80646843D02*
X137094523Y-80742081D01*
X137094523Y-80742081D02*
X137142142Y-80789701D01*
X137142142Y-80789701D02*
X137237380Y-80837320D01*
X137237380Y-80837320D02*
X137332618Y-80837320D01*
X137332618Y-80837320D02*
X137427856Y-80789701D01*
X137427856Y-80789701D02*
X137475475Y-80742081D01*
X137475475Y-80742081D02*
X137523094Y-80646843D01*
X137523094Y-80646843D02*
X137570713Y-80456367D01*
X137570713Y-80456367D02*
X137570713Y-80218272D01*
X137570713Y-80218272D02*
X137523094Y-80027796D01*
X137523094Y-80027796D02*
X137475475Y-79932558D01*
X137475475Y-79932558D02*
X137427856Y-79884939D01*
X137427856Y-79884939D02*
X137332618Y-79837320D01*
X136380237Y-79837320D02*
X136284999Y-79837320D01*
X136284999Y-79837320D02*
X136189761Y-79884939D01*
X136189761Y-79884939D02*
X136142142Y-79932558D01*
X136142142Y-79932558D02*
X136094523Y-80027796D01*
X136094523Y-80027796D02*
X136046904Y-80218272D01*
X136046904Y-80218272D02*
X136046904Y-80456367D01*
X136046904Y-80456367D02*
X136094523Y-80646843D01*
X136094523Y-80646843D02*
X136142142Y-80742081D01*
X136142142Y-80742081D02*
X136189761Y-80789701D01*
X136189761Y-80789701D02*
X136284999Y-80837320D01*
X136284999Y-80837320D02*
X136380237Y-80837320D01*
X136380237Y-80837320D02*
X136475475Y-80789701D01*
X136475475Y-80789701D02*
X136523094Y-80742081D01*
X136523094Y-80742081D02*
X136570713Y-80646843D01*
X136570713Y-80646843D02*
X136618332Y-80456367D01*
X136618332Y-80456367D02*
X136618332Y-80218272D01*
X136618332Y-80218272D02*
X136570713Y-80027796D01*
X136570713Y-80027796D02*
X136523094Y-79932558D01*
X136523094Y-79932558D02*
X136475475Y-79884939D01*
X136475475Y-79884939D02*
X136380237Y-79837320D01*
X97675238Y-86712557D02*
X97770476Y-86664938D01*
X97770476Y-86664938D02*
X97865714Y-86569700D01*
X97865714Y-86569700D02*
X98008571Y-86426842D01*
X98008571Y-86426842D02*
X98103809Y-86379223D01*
X98103809Y-86379223D02*
X98199047Y-86379223D01*
X98151428Y-86617319D02*
X98246666Y-86569700D01*
X98246666Y-86569700D02*
X98341904Y-86474461D01*
X98341904Y-86474461D02*
X98389523Y-86283985D01*
X98389523Y-86283985D02*
X98389523Y-85950652D01*
X98389523Y-85950652D02*
X98341904Y-85760176D01*
X98341904Y-85760176D02*
X98246666Y-85664938D01*
X98246666Y-85664938D02*
X98151428Y-85617319D01*
X98151428Y-85617319D02*
X97960952Y-85617319D01*
X97960952Y-85617319D02*
X97865714Y-85664938D01*
X97865714Y-85664938D02*
X97770476Y-85760176D01*
X97770476Y-85760176D02*
X97722857Y-85950652D01*
X97722857Y-85950652D02*
X97722857Y-86283985D01*
X97722857Y-86283985D02*
X97770476Y-86474461D01*
X97770476Y-86474461D02*
X97865714Y-86569700D01*
X97865714Y-86569700D02*
X97960952Y-86617319D01*
X97960952Y-86617319D02*
X98151428Y-86617319D01*
X97151428Y-86045890D02*
X97246666Y-85998271D01*
X97246666Y-85998271D02*
X97294285Y-85950652D01*
X97294285Y-85950652D02*
X97341904Y-85855414D01*
X97341904Y-85855414D02*
X97341904Y-85807795D01*
X97341904Y-85807795D02*
X97294285Y-85712557D01*
X97294285Y-85712557D02*
X97246666Y-85664938D01*
X97246666Y-85664938D02*
X97151428Y-85617319D01*
X97151428Y-85617319D02*
X96960952Y-85617319D01*
X96960952Y-85617319D02*
X96865714Y-85664938D01*
X96865714Y-85664938D02*
X96818095Y-85712557D01*
X96818095Y-85712557D02*
X96770476Y-85807795D01*
X96770476Y-85807795D02*
X96770476Y-85855414D01*
X96770476Y-85855414D02*
X96818095Y-85950652D01*
X96818095Y-85950652D02*
X96865714Y-85998271D01*
X96865714Y-85998271D02*
X96960952Y-86045890D01*
X96960952Y-86045890D02*
X97151428Y-86045890D01*
X97151428Y-86045890D02*
X97246666Y-86093509D01*
X97246666Y-86093509D02*
X97294285Y-86141128D01*
X97294285Y-86141128D02*
X97341904Y-86236366D01*
X97341904Y-86236366D02*
X97341904Y-86426842D01*
X97341904Y-86426842D02*
X97294285Y-86522080D01*
X97294285Y-86522080D02*
X97246666Y-86569700D01*
X97246666Y-86569700D02*
X97151428Y-86617319D01*
X97151428Y-86617319D02*
X96960952Y-86617319D01*
X96960952Y-86617319D02*
X96865714Y-86569700D01*
X96865714Y-86569700D02*
X96818095Y-86522080D01*
X96818095Y-86522080D02*
X96770476Y-86426842D01*
X96770476Y-86426842D02*
X96770476Y-86236366D01*
X96770476Y-86236366D02*
X96818095Y-86141128D01*
X96818095Y-86141128D02*
X96865714Y-86093509D01*
X96865714Y-86093509D02*
X96960952Y-86045890D01*
X74544047Y-77994819D02*
X74877380Y-77518628D01*
X75115475Y-77994819D02*
X75115475Y-76994819D01*
X75115475Y-76994819D02*
X74734523Y-76994819D01*
X74734523Y-76994819D02*
X74639285Y-77042438D01*
X74639285Y-77042438D02*
X74591666Y-77090057D01*
X74591666Y-77090057D02*
X74544047Y-77185295D01*
X74544047Y-77185295D02*
X74544047Y-77328152D01*
X74544047Y-77328152D02*
X74591666Y-77423390D01*
X74591666Y-77423390D02*
X74639285Y-77471009D01*
X74639285Y-77471009D02*
X74734523Y-77518628D01*
X74734523Y-77518628D02*
X75115475Y-77518628D01*
X73591666Y-77994819D02*
X74163094Y-77994819D01*
X73877380Y-77994819D02*
X73877380Y-76994819D01*
X73877380Y-76994819D02*
X73972618Y-77137676D01*
X73972618Y-77137676D02*
X74067856Y-77232914D01*
X74067856Y-77232914D02*
X74163094Y-77280533D01*
X72972618Y-76994819D02*
X72877380Y-76994819D01*
X72877380Y-76994819D02*
X72782142Y-77042438D01*
X72782142Y-77042438D02*
X72734523Y-77090057D01*
X72734523Y-77090057D02*
X72686904Y-77185295D01*
X72686904Y-77185295D02*
X72639285Y-77375771D01*
X72639285Y-77375771D02*
X72639285Y-77613866D01*
X72639285Y-77613866D02*
X72686904Y-77804342D01*
X72686904Y-77804342D02*
X72734523Y-77899580D01*
X72734523Y-77899580D02*
X72782142Y-77947200D01*
X72782142Y-77947200D02*
X72877380Y-77994819D01*
X72877380Y-77994819D02*
X72972618Y-77994819D01*
X72972618Y-77994819D02*
X73067856Y-77947200D01*
X73067856Y-77947200D02*
X73115475Y-77899580D01*
X73115475Y-77899580D02*
X73163094Y-77804342D01*
X73163094Y-77804342D02*
X73210713Y-77613866D01*
X73210713Y-77613866D02*
X73210713Y-77375771D01*
X73210713Y-77375771D02*
X73163094Y-77185295D01*
X73163094Y-77185295D02*
X73115475Y-77090057D01*
X73115475Y-77090057D02*
X73067856Y-77042438D01*
X73067856Y-77042438D02*
X72972618Y-76994819D01*
X71782142Y-77328152D02*
X71782142Y-77994819D01*
X72020237Y-76947200D02*
X72258332Y-77661485D01*
X72258332Y-77661485D02*
X71639285Y-77661485D01*
X83203908Y-76564124D02*
X82203908Y-76564124D01*
X82203908Y-76564124D02*
X82203908Y-76802219D01*
X82203908Y-76802219D02*
X82251527Y-76945076D01*
X82251527Y-76945076D02*
X82346765Y-77040314D01*
X82346765Y-77040314D02*
X82442003Y-77087933D01*
X82442003Y-77087933D02*
X82632479Y-77135552D01*
X82632479Y-77135552D02*
X82775336Y-77135552D01*
X82775336Y-77135552D02*
X82965812Y-77087933D01*
X82965812Y-77087933D02*
X83061050Y-77040314D01*
X83061050Y-77040314D02*
X83156289Y-76945076D01*
X83156289Y-76945076D02*
X83203908Y-76802219D01*
X83203908Y-76802219D02*
X83203908Y-76564124D01*
X82537241Y-77992695D02*
X83203908Y-77992695D01*
X82156289Y-77754600D02*
X82870574Y-77516505D01*
X82870574Y-77516505D02*
X82870574Y-78135552D01*
X82632479Y-78659362D02*
X82584860Y-78564124D01*
X82584860Y-78564124D02*
X82537241Y-78516505D01*
X82537241Y-78516505D02*
X82442003Y-78468886D01*
X82442003Y-78468886D02*
X82394384Y-78468886D01*
X82394384Y-78468886D02*
X82299146Y-78516505D01*
X82299146Y-78516505D02*
X82251527Y-78564124D01*
X82251527Y-78564124D02*
X82203908Y-78659362D01*
X82203908Y-78659362D02*
X82203908Y-78849838D01*
X82203908Y-78849838D02*
X82251527Y-78945076D01*
X82251527Y-78945076D02*
X82299146Y-78992695D01*
X82299146Y-78992695D02*
X82394384Y-79040314D01*
X82394384Y-79040314D02*
X82442003Y-79040314D01*
X82442003Y-79040314D02*
X82537241Y-78992695D01*
X82537241Y-78992695D02*
X82584860Y-78945076D01*
X82584860Y-78945076D02*
X82632479Y-78849838D01*
X82632479Y-78849838D02*
X82632479Y-78659362D01*
X82632479Y-78659362D02*
X82680098Y-78564124D01*
X82680098Y-78564124D02*
X82727717Y-78516505D01*
X82727717Y-78516505D02*
X82822955Y-78468886D01*
X82822955Y-78468886D02*
X83013431Y-78468886D01*
X83013431Y-78468886D02*
X83108669Y-78516505D01*
X83108669Y-78516505D02*
X83156289Y-78564124D01*
X83156289Y-78564124D02*
X83203908Y-78659362D01*
X83203908Y-78659362D02*
X83203908Y-78849838D01*
X83203908Y-78849838D02*
X83156289Y-78945076D01*
X83156289Y-78945076D02*
X83108669Y-78992695D01*
X83108669Y-78992695D02*
X83013431Y-79040314D01*
X83013431Y-79040314D02*
X82822955Y-79040314D01*
X82822955Y-79040314D02*
X82727717Y-78992695D01*
X82727717Y-78992695D02*
X82680098Y-78945076D01*
X82680098Y-78945076D02*
X82632479Y-78849838D01*
X106724047Y-80837320D02*
X107057380Y-80361129D01*
X107295475Y-80837320D02*
X107295475Y-79837320D01*
X107295475Y-79837320D02*
X106914523Y-79837320D01*
X106914523Y-79837320D02*
X106819285Y-79884939D01*
X106819285Y-79884939D02*
X106771666Y-79932558D01*
X106771666Y-79932558D02*
X106724047Y-80027796D01*
X106724047Y-80027796D02*
X106724047Y-80170653D01*
X106724047Y-80170653D02*
X106771666Y-80265891D01*
X106771666Y-80265891D02*
X106819285Y-80313510D01*
X106819285Y-80313510D02*
X106914523Y-80361129D01*
X106914523Y-80361129D02*
X107295475Y-80361129D01*
X105771666Y-80837320D02*
X106343094Y-80837320D01*
X106057380Y-80837320D02*
X106057380Y-79837320D01*
X106057380Y-79837320D02*
X106152618Y-79980177D01*
X106152618Y-79980177D02*
X106247856Y-80075415D01*
X106247856Y-80075415D02*
X106343094Y-80123034D01*
X104819285Y-80837320D02*
X105390713Y-80837320D01*
X105104999Y-80837320D02*
X105104999Y-79837320D01*
X105104999Y-79837320D02*
X105200237Y-79980177D01*
X105200237Y-79980177D02*
X105295475Y-80075415D01*
X105295475Y-80075415D02*
X105390713Y-80123034D01*
X104438332Y-79932558D02*
X104390713Y-79884939D01*
X104390713Y-79884939D02*
X104295475Y-79837320D01*
X104295475Y-79837320D02*
X104057380Y-79837320D01*
X104057380Y-79837320D02*
X103962142Y-79884939D01*
X103962142Y-79884939D02*
X103914523Y-79932558D01*
X103914523Y-79932558D02*
X103866904Y-80027796D01*
X103866904Y-80027796D02*
X103866904Y-80123034D01*
X103866904Y-80123034D02*
X103914523Y-80265891D01*
X103914523Y-80265891D02*
X104485951Y-80837320D01*
X104485951Y-80837320D02*
X103866904Y-80837320D01*
X122814047Y-90697320D02*
X123147380Y-90221129D01*
X123385475Y-90697320D02*
X123385475Y-89697320D01*
X123385475Y-89697320D02*
X123004523Y-89697320D01*
X123004523Y-89697320D02*
X122909285Y-89744939D01*
X122909285Y-89744939D02*
X122861666Y-89792558D01*
X122861666Y-89792558D02*
X122814047Y-89887796D01*
X122814047Y-89887796D02*
X122814047Y-90030653D01*
X122814047Y-90030653D02*
X122861666Y-90125891D01*
X122861666Y-90125891D02*
X122909285Y-90173510D01*
X122909285Y-90173510D02*
X123004523Y-90221129D01*
X123004523Y-90221129D02*
X123385475Y-90221129D01*
X121861666Y-90697320D02*
X122433094Y-90697320D01*
X122147380Y-90697320D02*
X122147380Y-89697320D01*
X122147380Y-89697320D02*
X122242618Y-89840177D01*
X122242618Y-89840177D02*
X122337856Y-89935415D01*
X122337856Y-89935415D02*
X122433094Y-89983034D01*
X120909285Y-90697320D02*
X121480713Y-90697320D01*
X121194999Y-90697320D02*
X121194999Y-89697320D01*
X121194999Y-89697320D02*
X121290237Y-89840177D01*
X121290237Y-89840177D02*
X121385475Y-89935415D01*
X121385475Y-89935415D02*
X121480713Y-89983034D01*
X120052142Y-90030653D02*
X120052142Y-90697320D01*
X120290237Y-89649701D02*
X120528332Y-90363986D01*
X120528332Y-90363986D02*
X119909285Y-90363986D01*
X122814047Y-88797320D02*
X123147380Y-88321129D01*
X123385475Y-88797320D02*
X123385475Y-87797320D01*
X123385475Y-87797320D02*
X123004523Y-87797320D01*
X123004523Y-87797320D02*
X122909285Y-87844939D01*
X122909285Y-87844939D02*
X122861666Y-87892558D01*
X122861666Y-87892558D02*
X122814047Y-87987796D01*
X122814047Y-87987796D02*
X122814047Y-88130653D01*
X122814047Y-88130653D02*
X122861666Y-88225891D01*
X122861666Y-88225891D02*
X122909285Y-88273510D01*
X122909285Y-88273510D02*
X123004523Y-88321129D01*
X123004523Y-88321129D02*
X123385475Y-88321129D01*
X121861666Y-88797320D02*
X122433094Y-88797320D01*
X122147380Y-88797320D02*
X122147380Y-87797320D01*
X122147380Y-87797320D02*
X122242618Y-87940177D01*
X122242618Y-87940177D02*
X122337856Y-88035415D01*
X122337856Y-88035415D02*
X122433094Y-88083034D01*
X120909285Y-88797320D02*
X121480713Y-88797320D01*
X121194999Y-88797320D02*
X121194999Y-87797320D01*
X121194999Y-87797320D02*
X121290237Y-87940177D01*
X121290237Y-87940177D02*
X121385475Y-88035415D01*
X121385475Y-88035415D02*
X121480713Y-88083034D01*
X120004523Y-87797320D02*
X120480713Y-87797320D01*
X120480713Y-87797320D02*
X120528332Y-88273510D01*
X120528332Y-88273510D02*
X120480713Y-88225891D01*
X120480713Y-88225891D02*
X120385475Y-88178272D01*
X120385475Y-88178272D02*
X120147380Y-88178272D01*
X120147380Y-88178272D02*
X120052142Y-88225891D01*
X120052142Y-88225891D02*
X120004523Y-88273510D01*
X120004523Y-88273510D02*
X119956904Y-88368748D01*
X119956904Y-88368748D02*
X119956904Y-88606843D01*
X119956904Y-88606843D02*
X120004523Y-88702081D01*
X120004523Y-88702081D02*
X120052142Y-88749701D01*
X120052142Y-88749701D02*
X120147380Y-88797320D01*
X120147380Y-88797320D02*
X120385475Y-88797320D01*
X120385475Y-88797320D02*
X120480713Y-88749701D01*
X120480713Y-88749701D02*
X120528332Y-88702081D01*
X168236009Y-139726666D02*
X168236009Y-139393333D01*
X168759819Y-139393333D02*
X167759819Y-139393333D01*
X167759819Y-139393333D02*
X167759819Y-139869523D01*
X168759819Y-140774285D02*
X168759819Y-140202857D01*
X168759819Y-140488571D02*
X167759819Y-140488571D01*
X167759819Y-140488571D02*
X167902676Y-140393333D01*
X167902676Y-140393333D02*
X167997914Y-140298095D01*
X167997914Y-140298095D02*
X168045533Y-140202857D01*
X144845238Y-86800057D02*
X144940476Y-86752438D01*
X144940476Y-86752438D02*
X145035714Y-86657200D01*
X145035714Y-86657200D02*
X145178571Y-86514342D01*
X145178571Y-86514342D02*
X145273809Y-86466723D01*
X145273809Y-86466723D02*
X145369047Y-86466723D01*
X145321428Y-86704819D02*
X145416666Y-86657200D01*
X145416666Y-86657200D02*
X145511904Y-86561961D01*
X145511904Y-86561961D02*
X145559523Y-86371485D01*
X145559523Y-86371485D02*
X145559523Y-86038152D01*
X145559523Y-86038152D02*
X145511904Y-85847676D01*
X145511904Y-85847676D02*
X145416666Y-85752438D01*
X145416666Y-85752438D02*
X145321428Y-85704819D01*
X145321428Y-85704819D02*
X145130952Y-85704819D01*
X145130952Y-85704819D02*
X145035714Y-85752438D01*
X145035714Y-85752438D02*
X144940476Y-85847676D01*
X144940476Y-85847676D02*
X144892857Y-86038152D01*
X144892857Y-86038152D02*
X144892857Y-86371485D01*
X144892857Y-86371485D02*
X144940476Y-86561961D01*
X144940476Y-86561961D02*
X145035714Y-86657200D01*
X145035714Y-86657200D02*
X145130952Y-86704819D01*
X145130952Y-86704819D02*
X145321428Y-86704819D01*
X144035714Y-86038152D02*
X144035714Y-86704819D01*
X144273809Y-85657200D02*
X144511904Y-86371485D01*
X144511904Y-86371485D02*
X143892857Y-86371485D01*
X81585238Y-86712557D02*
X81680476Y-86664938D01*
X81680476Y-86664938D02*
X81775714Y-86569700D01*
X81775714Y-86569700D02*
X81918571Y-86426842D01*
X81918571Y-86426842D02*
X82013809Y-86379223D01*
X82013809Y-86379223D02*
X82109047Y-86379223D01*
X82061428Y-86617319D02*
X82156666Y-86569700D01*
X82156666Y-86569700D02*
X82251904Y-86474461D01*
X82251904Y-86474461D02*
X82299523Y-86283985D01*
X82299523Y-86283985D02*
X82299523Y-85950652D01*
X82299523Y-85950652D02*
X82251904Y-85760176D01*
X82251904Y-85760176D02*
X82156666Y-85664938D01*
X82156666Y-85664938D02*
X82061428Y-85617319D01*
X82061428Y-85617319D02*
X81870952Y-85617319D01*
X81870952Y-85617319D02*
X81775714Y-85664938D01*
X81775714Y-85664938D02*
X81680476Y-85760176D01*
X81680476Y-85760176D02*
X81632857Y-85950652D01*
X81632857Y-85950652D02*
X81632857Y-86283985D01*
X81632857Y-86283985D02*
X81680476Y-86474461D01*
X81680476Y-86474461D02*
X81775714Y-86569700D01*
X81775714Y-86569700D02*
X81870952Y-86617319D01*
X81870952Y-86617319D02*
X82061428Y-86617319D01*
X80775714Y-85617319D02*
X80966190Y-85617319D01*
X80966190Y-85617319D02*
X81061428Y-85664938D01*
X81061428Y-85664938D02*
X81109047Y-85712557D01*
X81109047Y-85712557D02*
X81204285Y-85855414D01*
X81204285Y-85855414D02*
X81251904Y-86045890D01*
X81251904Y-86045890D02*
X81251904Y-86426842D01*
X81251904Y-86426842D02*
X81204285Y-86522080D01*
X81204285Y-86522080D02*
X81156666Y-86569700D01*
X81156666Y-86569700D02*
X81061428Y-86617319D01*
X81061428Y-86617319D02*
X80870952Y-86617319D01*
X80870952Y-86617319D02*
X80775714Y-86569700D01*
X80775714Y-86569700D02*
X80728095Y-86522080D01*
X80728095Y-86522080D02*
X80680476Y-86426842D01*
X80680476Y-86426842D02*
X80680476Y-86188747D01*
X80680476Y-86188747D02*
X80728095Y-86093509D01*
X80728095Y-86093509D02*
X80775714Y-86045890D01*
X80775714Y-86045890D02*
X80870952Y-85998271D01*
X80870952Y-85998271D02*
X81061428Y-85998271D01*
X81061428Y-85998271D02*
X81156666Y-86045890D01*
X81156666Y-86045890D02*
X81204285Y-86093509D01*
X81204285Y-86093509D02*
X81251904Y-86188747D01*
X145255594Y-73354819D02*
X145255594Y-74164342D01*
X145255594Y-74164342D02*
X145207975Y-74259580D01*
X145207975Y-74259580D02*
X145160356Y-74307200D01*
X145160356Y-74307200D02*
X145065118Y-74354819D01*
X145065118Y-74354819D02*
X144874642Y-74354819D01*
X144874642Y-74354819D02*
X144779404Y-74307200D01*
X144779404Y-74307200D02*
X144731785Y-74259580D01*
X144731785Y-74259580D02*
X144684166Y-74164342D01*
X144684166Y-74164342D02*
X144684166Y-73354819D01*
X144303213Y-73354819D02*
X143684166Y-73354819D01*
X143684166Y-73354819D02*
X144017499Y-73735771D01*
X144017499Y-73735771D02*
X143874642Y-73735771D01*
X143874642Y-73735771D02*
X143779404Y-73783390D01*
X143779404Y-73783390D02*
X143731785Y-73831009D01*
X143731785Y-73831009D02*
X143684166Y-73926247D01*
X143684166Y-73926247D02*
X143684166Y-74164342D01*
X143684166Y-74164342D02*
X143731785Y-74259580D01*
X143731785Y-74259580D02*
X143779404Y-74307200D01*
X143779404Y-74307200D02*
X143874642Y-74354819D01*
X143874642Y-74354819D02*
X144160356Y-74354819D01*
X144160356Y-74354819D02*
X144255594Y-74307200D01*
X144255594Y-74307200D02*
X144303213Y-74259580D01*
X143350832Y-73354819D02*
X142731785Y-73354819D01*
X142731785Y-73354819D02*
X143065118Y-73735771D01*
X143065118Y-73735771D02*
X142922261Y-73735771D01*
X142922261Y-73735771D02*
X142827023Y-73783390D01*
X142827023Y-73783390D02*
X142779404Y-73831009D01*
X142779404Y-73831009D02*
X142731785Y-73926247D01*
X142731785Y-73926247D02*
X142731785Y-74164342D01*
X142731785Y-74164342D02*
X142779404Y-74259580D01*
X142779404Y-74259580D02*
X142827023Y-74307200D01*
X142827023Y-74307200D02*
X142922261Y-74354819D01*
X142922261Y-74354819D02*
X143207975Y-74354819D01*
X143207975Y-74354819D02*
X143303213Y-74307200D01*
X143303213Y-74307200D02*
X143350832Y-74259580D01*
X208974819Y-147657142D02*
X208498628Y-147323809D01*
X208974819Y-147085714D02*
X207974819Y-147085714D01*
X207974819Y-147085714D02*
X207974819Y-147466666D01*
X207974819Y-147466666D02*
X208022438Y-147561904D01*
X208022438Y-147561904D02*
X208070057Y-147609523D01*
X208070057Y-147609523D02*
X208165295Y-147657142D01*
X208165295Y-147657142D02*
X208308152Y-147657142D01*
X208308152Y-147657142D02*
X208403390Y-147609523D01*
X208403390Y-147609523D02*
X208451009Y-147561904D01*
X208451009Y-147561904D02*
X208498628Y-147466666D01*
X208498628Y-147466666D02*
X208498628Y-147085714D01*
X208070057Y-148038095D02*
X208022438Y-148085714D01*
X208022438Y-148085714D02*
X207974819Y-148180952D01*
X207974819Y-148180952D02*
X207974819Y-148419047D01*
X207974819Y-148419047D02*
X208022438Y-148514285D01*
X208022438Y-148514285D02*
X208070057Y-148561904D01*
X208070057Y-148561904D02*
X208165295Y-148609523D01*
X208165295Y-148609523D02*
X208260533Y-148609523D01*
X208260533Y-148609523D02*
X208403390Y-148561904D01*
X208403390Y-148561904D02*
X208974819Y-147990476D01*
X208974819Y-147990476D02*
X208974819Y-148609523D01*
X207974819Y-149466666D02*
X207974819Y-149276190D01*
X207974819Y-149276190D02*
X208022438Y-149180952D01*
X208022438Y-149180952D02*
X208070057Y-149133333D01*
X208070057Y-149133333D02*
X208212914Y-149038095D01*
X208212914Y-149038095D02*
X208403390Y-148990476D01*
X208403390Y-148990476D02*
X208784342Y-148990476D01*
X208784342Y-148990476D02*
X208879580Y-149038095D01*
X208879580Y-149038095D02*
X208927200Y-149085714D01*
X208927200Y-149085714D02*
X208974819Y-149180952D01*
X208974819Y-149180952D02*
X208974819Y-149371428D01*
X208974819Y-149371428D02*
X208927200Y-149466666D01*
X208927200Y-149466666D02*
X208879580Y-149514285D01*
X208879580Y-149514285D02*
X208784342Y-149561904D01*
X208784342Y-149561904D02*
X208546247Y-149561904D01*
X208546247Y-149561904D02*
X208451009Y-149514285D01*
X208451009Y-149514285D02*
X208403390Y-149466666D01*
X208403390Y-149466666D02*
X208355771Y-149371428D01*
X208355771Y-149371428D02*
X208355771Y-149180952D01*
X208355771Y-149180952D02*
X208403390Y-149085714D01*
X208403390Y-149085714D02*
X208451009Y-149038095D01*
X208451009Y-149038095D02*
X208546247Y-148990476D01*
X90634047Y-80837320D02*
X90967380Y-80361129D01*
X91205475Y-80837320D02*
X91205475Y-79837320D01*
X91205475Y-79837320D02*
X90824523Y-79837320D01*
X90824523Y-79837320D02*
X90729285Y-79884939D01*
X90729285Y-79884939D02*
X90681666Y-79932558D01*
X90681666Y-79932558D02*
X90634047Y-80027796D01*
X90634047Y-80027796D02*
X90634047Y-80170653D01*
X90634047Y-80170653D02*
X90681666Y-80265891D01*
X90681666Y-80265891D02*
X90729285Y-80313510D01*
X90729285Y-80313510D02*
X90824523Y-80361129D01*
X90824523Y-80361129D02*
X91205475Y-80361129D01*
X89681666Y-80837320D02*
X90253094Y-80837320D01*
X89967380Y-80837320D02*
X89967380Y-79837320D01*
X89967380Y-79837320D02*
X90062618Y-79980177D01*
X90062618Y-79980177D02*
X90157856Y-80075415D01*
X90157856Y-80075415D02*
X90253094Y-80123034D01*
X89062618Y-79837320D02*
X88967380Y-79837320D01*
X88967380Y-79837320D02*
X88872142Y-79884939D01*
X88872142Y-79884939D02*
X88824523Y-79932558D01*
X88824523Y-79932558D02*
X88776904Y-80027796D01*
X88776904Y-80027796D02*
X88729285Y-80218272D01*
X88729285Y-80218272D02*
X88729285Y-80456367D01*
X88729285Y-80456367D02*
X88776904Y-80646843D01*
X88776904Y-80646843D02*
X88824523Y-80742081D01*
X88824523Y-80742081D02*
X88872142Y-80789701D01*
X88872142Y-80789701D02*
X88967380Y-80837320D01*
X88967380Y-80837320D02*
X89062618Y-80837320D01*
X89062618Y-80837320D02*
X89157856Y-80789701D01*
X89157856Y-80789701D02*
X89205475Y-80742081D01*
X89205475Y-80742081D02*
X89253094Y-80646843D01*
X89253094Y-80646843D02*
X89300713Y-80456367D01*
X89300713Y-80456367D02*
X89300713Y-80218272D01*
X89300713Y-80218272D02*
X89253094Y-80027796D01*
X89253094Y-80027796D02*
X89205475Y-79932558D01*
X89205475Y-79932558D02*
X89157856Y-79884939D01*
X89157856Y-79884939D02*
X89062618Y-79837320D01*
X88157856Y-80265891D02*
X88253094Y-80218272D01*
X88253094Y-80218272D02*
X88300713Y-80170653D01*
X88300713Y-80170653D02*
X88348332Y-80075415D01*
X88348332Y-80075415D02*
X88348332Y-80027796D01*
X88348332Y-80027796D02*
X88300713Y-79932558D01*
X88300713Y-79932558D02*
X88253094Y-79884939D01*
X88253094Y-79884939D02*
X88157856Y-79837320D01*
X88157856Y-79837320D02*
X87967380Y-79837320D01*
X87967380Y-79837320D02*
X87872142Y-79884939D01*
X87872142Y-79884939D02*
X87824523Y-79932558D01*
X87824523Y-79932558D02*
X87776904Y-80027796D01*
X87776904Y-80027796D02*
X87776904Y-80075415D01*
X87776904Y-80075415D02*
X87824523Y-80170653D01*
X87824523Y-80170653D02*
X87872142Y-80218272D01*
X87872142Y-80218272D02*
X87967380Y-80265891D01*
X87967380Y-80265891D02*
X88157856Y-80265891D01*
X88157856Y-80265891D02*
X88253094Y-80313510D01*
X88253094Y-80313510D02*
X88300713Y-80361129D01*
X88300713Y-80361129D02*
X88348332Y-80456367D01*
X88348332Y-80456367D02*
X88348332Y-80646843D01*
X88348332Y-80646843D02*
X88300713Y-80742081D01*
X88300713Y-80742081D02*
X88253094Y-80789701D01*
X88253094Y-80789701D02*
X88157856Y-80837320D01*
X88157856Y-80837320D02*
X87967380Y-80837320D01*
X87967380Y-80837320D02*
X87872142Y-80789701D01*
X87872142Y-80789701D02*
X87824523Y-80742081D01*
X87824523Y-80742081D02*
X87776904Y-80646843D01*
X87776904Y-80646843D02*
X87776904Y-80456367D01*
X87776904Y-80456367D02*
X87824523Y-80361129D01*
X87824523Y-80361129D02*
X87872142Y-80313510D01*
X87872142Y-80313510D02*
X87967380Y-80265891D01*
X90634047Y-88797320D02*
X90967380Y-88321129D01*
X91205475Y-88797320D02*
X91205475Y-87797320D01*
X91205475Y-87797320D02*
X90824523Y-87797320D01*
X90824523Y-87797320D02*
X90729285Y-87844939D01*
X90729285Y-87844939D02*
X90681666Y-87892558D01*
X90681666Y-87892558D02*
X90634047Y-87987796D01*
X90634047Y-87987796D02*
X90634047Y-88130653D01*
X90634047Y-88130653D02*
X90681666Y-88225891D01*
X90681666Y-88225891D02*
X90729285Y-88273510D01*
X90729285Y-88273510D02*
X90824523Y-88321129D01*
X90824523Y-88321129D02*
X91205475Y-88321129D01*
X89681666Y-88797320D02*
X90253094Y-88797320D01*
X89967380Y-88797320D02*
X89967380Y-87797320D01*
X89967380Y-87797320D02*
X90062618Y-87940177D01*
X90062618Y-87940177D02*
X90157856Y-88035415D01*
X90157856Y-88035415D02*
X90253094Y-88083034D01*
X89062618Y-87797320D02*
X88967380Y-87797320D01*
X88967380Y-87797320D02*
X88872142Y-87844939D01*
X88872142Y-87844939D02*
X88824523Y-87892558D01*
X88824523Y-87892558D02*
X88776904Y-87987796D01*
X88776904Y-87987796D02*
X88729285Y-88178272D01*
X88729285Y-88178272D02*
X88729285Y-88416367D01*
X88729285Y-88416367D02*
X88776904Y-88606843D01*
X88776904Y-88606843D02*
X88824523Y-88702081D01*
X88824523Y-88702081D02*
X88872142Y-88749701D01*
X88872142Y-88749701D02*
X88967380Y-88797320D01*
X88967380Y-88797320D02*
X89062618Y-88797320D01*
X89062618Y-88797320D02*
X89157856Y-88749701D01*
X89157856Y-88749701D02*
X89205475Y-88702081D01*
X89205475Y-88702081D02*
X89253094Y-88606843D01*
X89253094Y-88606843D02*
X89300713Y-88416367D01*
X89300713Y-88416367D02*
X89300713Y-88178272D01*
X89300713Y-88178272D02*
X89253094Y-87987796D01*
X89253094Y-87987796D02*
X89205475Y-87892558D01*
X89205475Y-87892558D02*
X89157856Y-87844939D01*
X89157856Y-87844939D02*
X89062618Y-87797320D01*
X88395951Y-87797320D02*
X87729285Y-87797320D01*
X87729285Y-87797320D02*
X88157856Y-88797320D01*
X83197319Y-90173215D02*
X82197319Y-90173215D01*
X82197319Y-90173215D02*
X82197319Y-90411310D01*
X82197319Y-90411310D02*
X82244938Y-90554167D01*
X82244938Y-90554167D02*
X82340176Y-90649405D01*
X82340176Y-90649405D02*
X82435414Y-90697024D01*
X82435414Y-90697024D02*
X82625890Y-90744643D01*
X82625890Y-90744643D02*
X82768747Y-90744643D01*
X82768747Y-90744643D02*
X82959223Y-90697024D01*
X82959223Y-90697024D02*
X83054461Y-90649405D01*
X83054461Y-90649405D02*
X83149700Y-90554167D01*
X83149700Y-90554167D02*
X83197319Y-90411310D01*
X83197319Y-90411310D02*
X83197319Y-90173215D01*
X82530652Y-91601786D02*
X83197319Y-91601786D01*
X82149700Y-91363691D02*
X82863985Y-91125596D01*
X82863985Y-91125596D02*
X82863985Y-91744643D01*
X82197319Y-92030358D02*
X82197319Y-92697024D01*
X82197319Y-92697024D02*
X83197319Y-92268453D01*
X145945238Y-79712557D02*
X146040476Y-79664938D01*
X146040476Y-79664938D02*
X146135714Y-79569700D01*
X146135714Y-79569700D02*
X146278571Y-79426842D01*
X146278571Y-79426842D02*
X146373809Y-79379223D01*
X146373809Y-79379223D02*
X146469047Y-79379223D01*
X146421428Y-79617319D02*
X146516666Y-79569700D01*
X146516666Y-79569700D02*
X146611904Y-79474461D01*
X146611904Y-79474461D02*
X146659523Y-79283985D01*
X146659523Y-79283985D02*
X146659523Y-78950652D01*
X146659523Y-78950652D02*
X146611904Y-78760176D01*
X146611904Y-78760176D02*
X146516666Y-78664938D01*
X146516666Y-78664938D02*
X146421428Y-78617319D01*
X146421428Y-78617319D02*
X146230952Y-78617319D01*
X146230952Y-78617319D02*
X146135714Y-78664938D01*
X146135714Y-78664938D02*
X146040476Y-78760176D01*
X146040476Y-78760176D02*
X145992857Y-78950652D01*
X145992857Y-78950652D02*
X145992857Y-79283985D01*
X145992857Y-79283985D02*
X146040476Y-79474461D01*
X146040476Y-79474461D02*
X146135714Y-79569700D01*
X146135714Y-79569700D02*
X146230952Y-79617319D01*
X146230952Y-79617319D02*
X146421428Y-79617319D01*
X145088095Y-78617319D02*
X145564285Y-78617319D01*
X145564285Y-78617319D02*
X145611904Y-79093509D01*
X145611904Y-79093509D02*
X145564285Y-79045890D01*
X145564285Y-79045890D02*
X145469047Y-78998271D01*
X145469047Y-78998271D02*
X145230952Y-78998271D01*
X145230952Y-78998271D02*
X145135714Y-79045890D01*
X145135714Y-79045890D02*
X145088095Y-79093509D01*
X145088095Y-79093509D02*
X145040476Y-79188747D01*
X145040476Y-79188747D02*
X145040476Y-79426842D01*
X145040476Y-79426842D02*
X145088095Y-79522080D01*
X145088095Y-79522080D02*
X145135714Y-79569700D01*
X145135714Y-79569700D02*
X145230952Y-79617319D01*
X145230952Y-79617319D02*
X145469047Y-79617319D01*
X145469047Y-79617319D02*
X145564285Y-79569700D01*
X145564285Y-79569700D02*
X145611904Y-79522080D01*
X96985594Y-73354819D02*
X96985594Y-74164342D01*
X96985594Y-74164342D02*
X96937975Y-74259580D01*
X96937975Y-74259580D02*
X96890356Y-74307200D01*
X96890356Y-74307200D02*
X96795118Y-74354819D01*
X96795118Y-74354819D02*
X96604642Y-74354819D01*
X96604642Y-74354819D02*
X96509404Y-74307200D01*
X96509404Y-74307200D02*
X96461785Y-74259580D01*
X96461785Y-74259580D02*
X96414166Y-74164342D01*
X96414166Y-74164342D02*
X96414166Y-73354819D01*
X96033213Y-73354819D02*
X95414166Y-73354819D01*
X95414166Y-73354819D02*
X95747499Y-73735771D01*
X95747499Y-73735771D02*
X95604642Y-73735771D01*
X95604642Y-73735771D02*
X95509404Y-73783390D01*
X95509404Y-73783390D02*
X95461785Y-73831009D01*
X95461785Y-73831009D02*
X95414166Y-73926247D01*
X95414166Y-73926247D02*
X95414166Y-74164342D01*
X95414166Y-74164342D02*
X95461785Y-74259580D01*
X95461785Y-74259580D02*
X95509404Y-74307200D01*
X95509404Y-74307200D02*
X95604642Y-74354819D01*
X95604642Y-74354819D02*
X95890356Y-74354819D01*
X95890356Y-74354819D02*
X95985594Y-74307200D01*
X95985594Y-74307200D02*
X96033213Y-74259580D01*
X94795118Y-73354819D02*
X94699880Y-73354819D01*
X94699880Y-73354819D02*
X94604642Y-73402438D01*
X94604642Y-73402438D02*
X94557023Y-73450057D01*
X94557023Y-73450057D02*
X94509404Y-73545295D01*
X94509404Y-73545295D02*
X94461785Y-73735771D01*
X94461785Y-73735771D02*
X94461785Y-73973866D01*
X94461785Y-73973866D02*
X94509404Y-74164342D01*
X94509404Y-74164342D02*
X94557023Y-74259580D01*
X94557023Y-74259580D02*
X94604642Y-74307200D01*
X94604642Y-74307200D02*
X94699880Y-74354819D01*
X94699880Y-74354819D02*
X94795118Y-74354819D01*
X94795118Y-74354819D02*
X94890356Y-74307200D01*
X94890356Y-74307200D02*
X94937975Y-74259580D01*
X94937975Y-74259580D02*
X94985594Y-74164342D01*
X94985594Y-74164342D02*
X95033213Y-73973866D01*
X95033213Y-73973866D02*
X95033213Y-73735771D01*
X95033213Y-73735771D02*
X94985594Y-73545295D01*
X94985594Y-73545295D02*
X94937975Y-73450057D01*
X94937975Y-73450057D02*
X94890356Y-73402438D01*
X94890356Y-73402438D02*
X94795118Y-73354819D01*
X117326069Y-80298214D02*
X116326069Y-80298214D01*
X116326069Y-80298214D02*
X116326069Y-80536309D01*
X116326069Y-80536309D02*
X116373688Y-80679166D01*
X116373688Y-80679166D02*
X116468926Y-80774404D01*
X116468926Y-80774404D02*
X116564164Y-80822023D01*
X116564164Y-80822023D02*
X116754640Y-80869642D01*
X116754640Y-80869642D02*
X116897497Y-80869642D01*
X116897497Y-80869642D02*
X117087973Y-80822023D01*
X117087973Y-80822023D02*
X117183211Y-80774404D01*
X117183211Y-80774404D02*
X117278450Y-80679166D01*
X117278450Y-80679166D02*
X117326069Y-80536309D01*
X117326069Y-80536309D02*
X117326069Y-80298214D01*
X116326069Y-81774404D02*
X116326069Y-81298214D01*
X116326069Y-81298214D02*
X116802259Y-81250595D01*
X116802259Y-81250595D02*
X116754640Y-81298214D01*
X116754640Y-81298214D02*
X116707021Y-81393452D01*
X116707021Y-81393452D02*
X116707021Y-81631547D01*
X116707021Y-81631547D02*
X116754640Y-81726785D01*
X116754640Y-81726785D02*
X116802259Y-81774404D01*
X116802259Y-81774404D02*
X116897497Y-81822023D01*
X116897497Y-81822023D02*
X117135592Y-81822023D01*
X117135592Y-81822023D02*
X117230830Y-81774404D01*
X117230830Y-81774404D02*
X117278450Y-81726785D01*
X117278450Y-81726785D02*
X117326069Y-81631547D01*
X117326069Y-81631547D02*
X117326069Y-81393452D01*
X117326069Y-81393452D02*
X117278450Y-81298214D01*
X117278450Y-81298214D02*
X117230830Y-81250595D01*
X116421307Y-82202976D02*
X116373688Y-82250595D01*
X116373688Y-82250595D02*
X116326069Y-82345833D01*
X116326069Y-82345833D02*
X116326069Y-82583928D01*
X116326069Y-82583928D02*
X116373688Y-82679166D01*
X116373688Y-82679166D02*
X116421307Y-82726785D01*
X116421307Y-82726785D02*
X116516545Y-82774404D01*
X116516545Y-82774404D02*
X116611783Y-82774404D01*
X116611783Y-82774404D02*
X116754640Y-82726785D01*
X116754640Y-82726785D02*
X117326069Y-82155357D01*
X117326069Y-82155357D02*
X117326069Y-82774404D01*
X101261694Y-80298214D02*
X100261694Y-80298214D01*
X100261694Y-80298214D02*
X100261694Y-80536309D01*
X100261694Y-80536309D02*
X100309313Y-80679166D01*
X100309313Y-80679166D02*
X100404551Y-80774404D01*
X100404551Y-80774404D02*
X100499789Y-80822023D01*
X100499789Y-80822023D02*
X100690265Y-80869642D01*
X100690265Y-80869642D02*
X100833122Y-80869642D01*
X100833122Y-80869642D02*
X101023598Y-80822023D01*
X101023598Y-80822023D02*
X101118836Y-80774404D01*
X101118836Y-80774404D02*
X101214075Y-80679166D01*
X101214075Y-80679166D02*
X101261694Y-80536309D01*
X101261694Y-80536309D02*
X101261694Y-80298214D01*
X100261694Y-81774404D02*
X100261694Y-81298214D01*
X100261694Y-81298214D02*
X100737884Y-81250595D01*
X100737884Y-81250595D02*
X100690265Y-81298214D01*
X100690265Y-81298214D02*
X100642646Y-81393452D01*
X100642646Y-81393452D02*
X100642646Y-81631547D01*
X100642646Y-81631547D02*
X100690265Y-81726785D01*
X100690265Y-81726785D02*
X100737884Y-81774404D01*
X100737884Y-81774404D02*
X100833122Y-81822023D01*
X100833122Y-81822023D02*
X101071217Y-81822023D01*
X101071217Y-81822023D02*
X101166455Y-81774404D01*
X101166455Y-81774404D02*
X101214075Y-81726785D01*
X101214075Y-81726785D02*
X101261694Y-81631547D01*
X101261694Y-81631547D02*
X101261694Y-81393452D01*
X101261694Y-81393452D02*
X101214075Y-81298214D01*
X101214075Y-81298214D02*
X101166455Y-81250595D01*
X100261694Y-82441071D02*
X100261694Y-82536309D01*
X100261694Y-82536309D02*
X100309313Y-82631547D01*
X100309313Y-82631547D02*
X100356932Y-82679166D01*
X100356932Y-82679166D02*
X100452170Y-82726785D01*
X100452170Y-82726785D02*
X100642646Y-82774404D01*
X100642646Y-82774404D02*
X100880741Y-82774404D01*
X100880741Y-82774404D02*
X101071217Y-82726785D01*
X101071217Y-82726785D02*
X101166455Y-82679166D01*
X101166455Y-82679166D02*
X101214075Y-82631547D01*
X101214075Y-82631547D02*
X101261694Y-82536309D01*
X101261694Y-82536309D02*
X101261694Y-82441071D01*
X101261694Y-82441071D02*
X101214075Y-82345833D01*
X101214075Y-82345833D02*
X101166455Y-82298214D01*
X101166455Y-82298214D02*
X101071217Y-82250595D01*
X101071217Y-82250595D02*
X100880741Y-82202976D01*
X100880741Y-82202976D02*
X100642646Y-82202976D01*
X100642646Y-82202976D02*
X100452170Y-82250595D01*
X100452170Y-82250595D02*
X100356932Y-82298214D01*
X100356932Y-82298214D02*
X100309313Y-82345833D01*
X100309313Y-82345833D02*
X100261694Y-82441071D01*
X90634047Y-78937320D02*
X90967380Y-78461129D01*
X91205475Y-78937320D02*
X91205475Y-77937320D01*
X91205475Y-77937320D02*
X90824523Y-77937320D01*
X90824523Y-77937320D02*
X90729285Y-77984939D01*
X90729285Y-77984939D02*
X90681666Y-78032558D01*
X90681666Y-78032558D02*
X90634047Y-78127796D01*
X90634047Y-78127796D02*
X90634047Y-78270653D01*
X90634047Y-78270653D02*
X90681666Y-78365891D01*
X90681666Y-78365891D02*
X90729285Y-78413510D01*
X90729285Y-78413510D02*
X90824523Y-78461129D01*
X90824523Y-78461129D02*
X91205475Y-78461129D01*
X89681666Y-78937320D02*
X90253094Y-78937320D01*
X89967380Y-78937320D02*
X89967380Y-77937320D01*
X89967380Y-77937320D02*
X90062618Y-78080177D01*
X90062618Y-78080177D02*
X90157856Y-78175415D01*
X90157856Y-78175415D02*
X90253094Y-78223034D01*
X89062618Y-77937320D02*
X88967380Y-77937320D01*
X88967380Y-77937320D02*
X88872142Y-77984939D01*
X88872142Y-77984939D02*
X88824523Y-78032558D01*
X88824523Y-78032558D02*
X88776904Y-78127796D01*
X88776904Y-78127796D02*
X88729285Y-78318272D01*
X88729285Y-78318272D02*
X88729285Y-78556367D01*
X88729285Y-78556367D02*
X88776904Y-78746843D01*
X88776904Y-78746843D02*
X88824523Y-78842081D01*
X88824523Y-78842081D02*
X88872142Y-78889701D01*
X88872142Y-78889701D02*
X88967380Y-78937320D01*
X88967380Y-78937320D02*
X89062618Y-78937320D01*
X89062618Y-78937320D02*
X89157856Y-78889701D01*
X89157856Y-78889701D02*
X89205475Y-78842081D01*
X89205475Y-78842081D02*
X89253094Y-78746843D01*
X89253094Y-78746843D02*
X89300713Y-78556367D01*
X89300713Y-78556367D02*
X89300713Y-78318272D01*
X89300713Y-78318272D02*
X89253094Y-78127796D01*
X89253094Y-78127796D02*
X89205475Y-78032558D01*
X89205475Y-78032558D02*
X89157856Y-77984939D01*
X89157856Y-77984939D02*
X89062618Y-77937320D01*
X88253094Y-78937320D02*
X88062618Y-78937320D01*
X88062618Y-78937320D02*
X87967380Y-78889701D01*
X87967380Y-78889701D02*
X87919761Y-78842081D01*
X87919761Y-78842081D02*
X87824523Y-78699224D01*
X87824523Y-78699224D02*
X87776904Y-78508748D01*
X87776904Y-78508748D02*
X87776904Y-78127796D01*
X87776904Y-78127796D02*
X87824523Y-78032558D01*
X87824523Y-78032558D02*
X87872142Y-77984939D01*
X87872142Y-77984939D02*
X87967380Y-77937320D01*
X87967380Y-77937320D02*
X88157856Y-77937320D01*
X88157856Y-77937320D02*
X88253094Y-77984939D01*
X88253094Y-77984939D02*
X88300713Y-78032558D01*
X88300713Y-78032558D02*
X88348332Y-78127796D01*
X88348332Y-78127796D02*
X88348332Y-78365891D01*
X88348332Y-78365891D02*
X88300713Y-78461129D01*
X88300713Y-78461129D02*
X88253094Y-78508748D01*
X88253094Y-78508748D02*
X88157856Y-78556367D01*
X88157856Y-78556367D02*
X87967380Y-78556367D01*
X87967380Y-78556367D02*
X87872142Y-78508748D01*
X87872142Y-78508748D02*
X87824523Y-78461129D01*
X87824523Y-78461129D02*
X87776904Y-78365891D01*
X159926009Y-139726666D02*
X159926009Y-139393333D01*
X160449819Y-139393333D02*
X159449819Y-139393333D01*
X159449819Y-139393333D02*
X159449819Y-139869523D01*
X159449819Y-140155238D02*
X159449819Y-140774285D01*
X159449819Y-140774285D02*
X159830771Y-140440952D01*
X159830771Y-140440952D02*
X159830771Y-140583809D01*
X159830771Y-140583809D02*
X159878390Y-140679047D01*
X159878390Y-140679047D02*
X159926009Y-140726666D01*
X159926009Y-140726666D02*
X160021247Y-140774285D01*
X160021247Y-140774285D02*
X160259342Y-140774285D01*
X160259342Y-140774285D02*
X160354580Y-140726666D01*
X160354580Y-140726666D02*
X160402200Y-140679047D01*
X160402200Y-140679047D02*
X160449819Y-140583809D01*
X160449819Y-140583809D02*
X160449819Y-140298095D01*
X160449819Y-140298095D02*
X160402200Y-140202857D01*
X160402200Y-140202857D02*
X160354580Y-140155238D01*
X106724047Y-88797320D02*
X107057380Y-88321129D01*
X107295475Y-88797320D02*
X107295475Y-87797320D01*
X107295475Y-87797320D02*
X106914523Y-87797320D01*
X106914523Y-87797320D02*
X106819285Y-87844939D01*
X106819285Y-87844939D02*
X106771666Y-87892558D01*
X106771666Y-87892558D02*
X106724047Y-87987796D01*
X106724047Y-87987796D02*
X106724047Y-88130653D01*
X106724047Y-88130653D02*
X106771666Y-88225891D01*
X106771666Y-88225891D02*
X106819285Y-88273510D01*
X106819285Y-88273510D02*
X106914523Y-88321129D01*
X106914523Y-88321129D02*
X107295475Y-88321129D01*
X105771666Y-88797320D02*
X106343094Y-88797320D01*
X106057380Y-88797320D02*
X106057380Y-87797320D01*
X106057380Y-87797320D02*
X106152618Y-87940177D01*
X106152618Y-87940177D02*
X106247856Y-88035415D01*
X106247856Y-88035415D02*
X106343094Y-88083034D01*
X104819285Y-88797320D02*
X105390713Y-88797320D01*
X105104999Y-88797320D02*
X105104999Y-87797320D01*
X105104999Y-87797320D02*
X105200237Y-87940177D01*
X105200237Y-87940177D02*
X105295475Y-88035415D01*
X105295475Y-88035415D02*
X105390713Y-88083034D01*
X103866904Y-88797320D02*
X104438332Y-88797320D01*
X104152618Y-88797320D02*
X104152618Y-87797320D01*
X104152618Y-87797320D02*
X104247856Y-87940177D01*
X104247856Y-87940177D02*
X104343094Y-88035415D01*
X104343094Y-88035415D02*
X104438332Y-88083034D01*
X130331428Y-79712557D02*
X130426666Y-79664938D01*
X130426666Y-79664938D02*
X130521904Y-79569700D01*
X130521904Y-79569700D02*
X130664761Y-79426842D01*
X130664761Y-79426842D02*
X130759999Y-79379223D01*
X130759999Y-79379223D02*
X130855237Y-79379223D01*
X130807618Y-79617319D02*
X130902856Y-79569700D01*
X130902856Y-79569700D02*
X130998094Y-79474461D01*
X130998094Y-79474461D02*
X131045713Y-79283985D01*
X131045713Y-79283985D02*
X131045713Y-78950652D01*
X131045713Y-78950652D02*
X130998094Y-78760176D01*
X130998094Y-78760176D02*
X130902856Y-78664938D01*
X130902856Y-78664938D02*
X130807618Y-78617319D01*
X130807618Y-78617319D02*
X130617142Y-78617319D01*
X130617142Y-78617319D02*
X130521904Y-78664938D01*
X130521904Y-78664938D02*
X130426666Y-78760176D01*
X130426666Y-78760176D02*
X130379047Y-78950652D01*
X130379047Y-78950652D02*
X130379047Y-79283985D01*
X130379047Y-79283985D02*
X130426666Y-79474461D01*
X130426666Y-79474461D02*
X130521904Y-79569700D01*
X130521904Y-79569700D02*
X130617142Y-79617319D01*
X130617142Y-79617319D02*
X130807618Y-79617319D01*
X129426666Y-79617319D02*
X129998094Y-79617319D01*
X129712380Y-79617319D02*
X129712380Y-78617319D01*
X129712380Y-78617319D02*
X129807618Y-78760176D01*
X129807618Y-78760176D02*
X129902856Y-78855414D01*
X129902856Y-78855414D02*
X129998094Y-78903033D01*
X129093332Y-78617319D02*
X128474285Y-78617319D01*
X128474285Y-78617319D02*
X128807618Y-78998271D01*
X128807618Y-78998271D02*
X128664761Y-78998271D01*
X128664761Y-78998271D02*
X128569523Y-79045890D01*
X128569523Y-79045890D02*
X128521904Y-79093509D01*
X128521904Y-79093509D02*
X128474285Y-79188747D01*
X128474285Y-79188747D02*
X128474285Y-79426842D01*
X128474285Y-79426842D02*
X128521904Y-79522080D01*
X128521904Y-79522080D02*
X128569523Y-79569700D01*
X128569523Y-79569700D02*
X128664761Y-79617319D01*
X128664761Y-79617319D02*
X128950475Y-79617319D01*
X128950475Y-79617319D02*
X129045713Y-79569700D01*
X129045713Y-79569700D02*
X129093332Y-79522080D01*
X138904047Y-78937320D02*
X139237380Y-78461129D01*
X139475475Y-78937320D02*
X139475475Y-77937320D01*
X139475475Y-77937320D02*
X139094523Y-77937320D01*
X139094523Y-77937320D02*
X138999285Y-77984939D01*
X138999285Y-77984939D02*
X138951666Y-78032558D01*
X138951666Y-78032558D02*
X138904047Y-78127796D01*
X138904047Y-78127796D02*
X138904047Y-78270653D01*
X138904047Y-78270653D02*
X138951666Y-78365891D01*
X138951666Y-78365891D02*
X138999285Y-78413510D01*
X138999285Y-78413510D02*
X139094523Y-78461129D01*
X139094523Y-78461129D02*
X139475475Y-78461129D01*
X137951666Y-78937320D02*
X138523094Y-78937320D01*
X138237380Y-78937320D02*
X138237380Y-77937320D01*
X138237380Y-77937320D02*
X138332618Y-78080177D01*
X138332618Y-78080177D02*
X138427856Y-78175415D01*
X138427856Y-78175415D02*
X138523094Y-78223034D01*
X137332618Y-77937320D02*
X137237380Y-77937320D01*
X137237380Y-77937320D02*
X137142142Y-77984939D01*
X137142142Y-77984939D02*
X137094523Y-78032558D01*
X137094523Y-78032558D02*
X137046904Y-78127796D01*
X137046904Y-78127796D02*
X136999285Y-78318272D01*
X136999285Y-78318272D02*
X136999285Y-78556367D01*
X136999285Y-78556367D02*
X137046904Y-78746843D01*
X137046904Y-78746843D02*
X137094523Y-78842081D01*
X137094523Y-78842081D02*
X137142142Y-78889701D01*
X137142142Y-78889701D02*
X137237380Y-78937320D01*
X137237380Y-78937320D02*
X137332618Y-78937320D01*
X137332618Y-78937320D02*
X137427856Y-78889701D01*
X137427856Y-78889701D02*
X137475475Y-78842081D01*
X137475475Y-78842081D02*
X137523094Y-78746843D01*
X137523094Y-78746843D02*
X137570713Y-78556367D01*
X137570713Y-78556367D02*
X137570713Y-78318272D01*
X137570713Y-78318272D02*
X137523094Y-78127796D01*
X137523094Y-78127796D02*
X137475475Y-78032558D01*
X137475475Y-78032558D02*
X137427856Y-77984939D01*
X137427856Y-77984939D02*
X137332618Y-77937320D01*
X136046904Y-78937320D02*
X136618332Y-78937320D01*
X136332618Y-78937320D02*
X136332618Y-77937320D01*
X136332618Y-77937320D02*
X136427856Y-78080177D01*
X136427856Y-78080177D02*
X136523094Y-78175415D01*
X136523094Y-78175415D02*
X136618332Y-78223034D01*
X166067320Y-137545714D02*
X165067320Y-137545714D01*
X165067320Y-137545714D02*
X165067320Y-137783809D01*
X165067320Y-137783809D02*
X165114939Y-137926666D01*
X165114939Y-137926666D02*
X165210177Y-138021904D01*
X165210177Y-138021904D02*
X165305415Y-138069523D01*
X165305415Y-138069523D02*
X165495891Y-138117142D01*
X165495891Y-138117142D02*
X165638748Y-138117142D01*
X165638748Y-138117142D02*
X165829224Y-138069523D01*
X165829224Y-138069523D02*
X165924462Y-138021904D01*
X165924462Y-138021904D02*
X166019701Y-137926666D01*
X166019701Y-137926666D02*
X166067320Y-137783809D01*
X166067320Y-137783809D02*
X166067320Y-137545714D01*
X165400653Y-138974285D02*
X166067320Y-138974285D01*
X165019701Y-138736190D02*
X165733986Y-138498095D01*
X165733986Y-138498095D02*
X165733986Y-139117142D01*
X166067320Y-140021904D02*
X166067320Y-139450476D01*
X166067320Y-139736190D02*
X165067320Y-139736190D01*
X165067320Y-139736190D02*
X165210177Y-139640952D01*
X165210177Y-139640952D02*
X165305415Y-139545714D01*
X165305415Y-139545714D02*
X165353034Y-139450476D01*
X131374533Y-76304804D02*
X130374533Y-76304804D01*
X130374533Y-76304804D02*
X130374533Y-76542899D01*
X130374533Y-76542899D02*
X130422152Y-76685756D01*
X130422152Y-76685756D02*
X130517390Y-76780994D01*
X130517390Y-76780994D02*
X130612628Y-76828613D01*
X130612628Y-76828613D02*
X130803104Y-76876232D01*
X130803104Y-76876232D02*
X130945961Y-76876232D01*
X130945961Y-76876232D02*
X131136437Y-76828613D01*
X131136437Y-76828613D02*
X131231675Y-76780994D01*
X131231675Y-76780994D02*
X131326914Y-76685756D01*
X131326914Y-76685756D02*
X131374533Y-76542899D01*
X131374533Y-76542899D02*
X131374533Y-76304804D01*
X130374533Y-77780994D02*
X130374533Y-77304804D01*
X130374533Y-77304804D02*
X130850723Y-77257185D01*
X130850723Y-77257185D02*
X130803104Y-77304804D01*
X130803104Y-77304804D02*
X130755485Y-77400042D01*
X130755485Y-77400042D02*
X130755485Y-77638137D01*
X130755485Y-77638137D02*
X130803104Y-77733375D01*
X130803104Y-77733375D02*
X130850723Y-77780994D01*
X130850723Y-77780994D02*
X130945961Y-77828613D01*
X130945961Y-77828613D02*
X131184056Y-77828613D01*
X131184056Y-77828613D02*
X131279294Y-77780994D01*
X131279294Y-77780994D02*
X131326914Y-77733375D01*
X131326914Y-77733375D02*
X131374533Y-77638137D01*
X131374533Y-77638137D02*
X131374533Y-77400042D01*
X131374533Y-77400042D02*
X131326914Y-77304804D01*
X131326914Y-77304804D02*
X131279294Y-77257185D01*
X130707866Y-78685756D02*
X131374533Y-78685756D01*
X130326914Y-78447661D02*
X131041199Y-78209566D01*
X131041199Y-78209566D02*
X131041199Y-78828613D01*
X122814047Y-78937320D02*
X123147380Y-78461129D01*
X123385475Y-78937320D02*
X123385475Y-77937320D01*
X123385475Y-77937320D02*
X123004523Y-77937320D01*
X123004523Y-77937320D02*
X122909285Y-77984939D01*
X122909285Y-77984939D02*
X122861666Y-78032558D01*
X122861666Y-78032558D02*
X122814047Y-78127796D01*
X122814047Y-78127796D02*
X122814047Y-78270653D01*
X122814047Y-78270653D02*
X122861666Y-78365891D01*
X122861666Y-78365891D02*
X122909285Y-78413510D01*
X122909285Y-78413510D02*
X123004523Y-78461129D01*
X123004523Y-78461129D02*
X123385475Y-78461129D01*
X121861666Y-78937320D02*
X122433094Y-78937320D01*
X122147380Y-78937320D02*
X122147380Y-77937320D01*
X122147380Y-77937320D02*
X122242618Y-78080177D01*
X122242618Y-78080177D02*
X122337856Y-78175415D01*
X122337856Y-78175415D02*
X122433094Y-78223034D01*
X120909285Y-78937320D02*
X121480713Y-78937320D01*
X121194999Y-78937320D02*
X121194999Y-77937320D01*
X121194999Y-77937320D02*
X121290237Y-78080177D01*
X121290237Y-78080177D02*
X121385475Y-78175415D01*
X121385475Y-78175415D02*
X121480713Y-78223034D01*
X120575951Y-77937320D02*
X119909285Y-77937320D01*
X119909285Y-77937320D02*
X120337856Y-78937320D01*
X113326068Y-86173215D02*
X112326068Y-86173215D01*
X112326068Y-86173215D02*
X112326068Y-86411310D01*
X112326068Y-86411310D02*
X112373687Y-86554167D01*
X112373687Y-86554167D02*
X112468925Y-86649405D01*
X112468925Y-86649405D02*
X112564163Y-86697024D01*
X112564163Y-86697024D02*
X112754639Y-86744643D01*
X112754639Y-86744643D02*
X112897496Y-86744643D01*
X112897496Y-86744643D02*
X113087972Y-86697024D01*
X113087972Y-86697024D02*
X113183210Y-86649405D01*
X113183210Y-86649405D02*
X113278449Y-86554167D01*
X113278449Y-86554167D02*
X113326068Y-86411310D01*
X113326068Y-86411310D02*
X113326068Y-86173215D01*
X112326068Y-87649405D02*
X112326068Y-87173215D01*
X112326068Y-87173215D02*
X112802258Y-87125596D01*
X112802258Y-87125596D02*
X112754639Y-87173215D01*
X112754639Y-87173215D02*
X112707020Y-87268453D01*
X112707020Y-87268453D02*
X112707020Y-87506548D01*
X112707020Y-87506548D02*
X112754639Y-87601786D01*
X112754639Y-87601786D02*
X112802258Y-87649405D01*
X112802258Y-87649405D02*
X112897496Y-87697024D01*
X112897496Y-87697024D02*
X113135591Y-87697024D01*
X113135591Y-87697024D02*
X113230829Y-87649405D01*
X113230829Y-87649405D02*
X113278449Y-87601786D01*
X113278449Y-87601786D02*
X113326068Y-87506548D01*
X113326068Y-87506548D02*
X113326068Y-87268453D01*
X113326068Y-87268453D02*
X113278449Y-87173215D01*
X113278449Y-87173215D02*
X113230829Y-87125596D01*
X113326068Y-88649405D02*
X113326068Y-88077977D01*
X113326068Y-88363691D02*
X112326068Y-88363691D01*
X112326068Y-88363691D02*
X112468925Y-88268453D01*
X112468925Y-88268453D02*
X112564163Y-88173215D01*
X112564163Y-88173215D02*
X112611782Y-88077977D01*
X74544047Y-90634819D02*
X74877380Y-90158628D01*
X75115475Y-90634819D02*
X75115475Y-89634819D01*
X75115475Y-89634819D02*
X74734523Y-89634819D01*
X74734523Y-89634819D02*
X74639285Y-89682438D01*
X74639285Y-89682438D02*
X74591666Y-89730057D01*
X74591666Y-89730057D02*
X74544047Y-89825295D01*
X74544047Y-89825295D02*
X74544047Y-89968152D01*
X74544047Y-89968152D02*
X74591666Y-90063390D01*
X74591666Y-90063390D02*
X74639285Y-90111009D01*
X74639285Y-90111009D02*
X74734523Y-90158628D01*
X74734523Y-90158628D02*
X75115475Y-90158628D01*
X73591666Y-90634819D02*
X74163094Y-90634819D01*
X73877380Y-90634819D02*
X73877380Y-89634819D01*
X73877380Y-89634819D02*
X73972618Y-89777676D01*
X73972618Y-89777676D02*
X74067856Y-89872914D01*
X74067856Y-89872914D02*
X74163094Y-89920533D01*
X72972618Y-89634819D02*
X72877380Y-89634819D01*
X72877380Y-89634819D02*
X72782142Y-89682438D01*
X72782142Y-89682438D02*
X72734523Y-89730057D01*
X72734523Y-89730057D02*
X72686904Y-89825295D01*
X72686904Y-89825295D02*
X72639285Y-90015771D01*
X72639285Y-90015771D02*
X72639285Y-90253866D01*
X72639285Y-90253866D02*
X72686904Y-90444342D01*
X72686904Y-90444342D02*
X72734523Y-90539580D01*
X72734523Y-90539580D02*
X72782142Y-90587200D01*
X72782142Y-90587200D02*
X72877380Y-90634819D01*
X72877380Y-90634819D02*
X72972618Y-90634819D01*
X72972618Y-90634819D02*
X73067856Y-90587200D01*
X73067856Y-90587200D02*
X73115475Y-90539580D01*
X73115475Y-90539580D02*
X73163094Y-90444342D01*
X73163094Y-90444342D02*
X73210713Y-90253866D01*
X73210713Y-90253866D02*
X73210713Y-90015771D01*
X73210713Y-90015771D02*
X73163094Y-89825295D01*
X73163094Y-89825295D02*
X73115475Y-89730057D01*
X73115475Y-89730057D02*
X73067856Y-89682438D01*
X73067856Y-89682438D02*
X72972618Y-89634819D01*
X72258332Y-89730057D02*
X72210713Y-89682438D01*
X72210713Y-89682438D02*
X72115475Y-89634819D01*
X72115475Y-89634819D02*
X71877380Y-89634819D01*
X71877380Y-89634819D02*
X71782142Y-89682438D01*
X71782142Y-89682438D02*
X71734523Y-89730057D01*
X71734523Y-89730057D02*
X71686904Y-89825295D01*
X71686904Y-89825295D02*
X71686904Y-89920533D01*
X71686904Y-89920533D02*
X71734523Y-90063390D01*
X71734523Y-90063390D02*
X72305951Y-90634819D01*
X72305951Y-90634819D02*
X71686904Y-90634819D01*
X147438909Y-76304804D02*
X146438909Y-76304804D01*
X146438909Y-76304804D02*
X146438909Y-76542899D01*
X146438909Y-76542899D02*
X146486528Y-76685756D01*
X146486528Y-76685756D02*
X146581766Y-76780994D01*
X146581766Y-76780994D02*
X146677004Y-76828613D01*
X146677004Y-76828613D02*
X146867480Y-76876232D01*
X146867480Y-76876232D02*
X147010337Y-76876232D01*
X147010337Y-76876232D02*
X147200813Y-76828613D01*
X147200813Y-76828613D02*
X147296051Y-76780994D01*
X147296051Y-76780994D02*
X147391290Y-76685756D01*
X147391290Y-76685756D02*
X147438909Y-76542899D01*
X147438909Y-76542899D02*
X147438909Y-76304804D01*
X146772242Y-77733375D02*
X147438909Y-77733375D01*
X146391290Y-77495280D02*
X147105575Y-77257185D01*
X147105575Y-77257185D02*
X147105575Y-77876232D01*
X146438909Y-78685756D02*
X146438909Y-78495280D01*
X146438909Y-78495280D02*
X146486528Y-78400042D01*
X146486528Y-78400042D02*
X146534147Y-78352423D01*
X146534147Y-78352423D02*
X146677004Y-78257185D01*
X146677004Y-78257185D02*
X146867480Y-78209566D01*
X146867480Y-78209566D02*
X147248432Y-78209566D01*
X147248432Y-78209566D02*
X147343670Y-78257185D01*
X147343670Y-78257185D02*
X147391290Y-78304804D01*
X147391290Y-78304804D02*
X147438909Y-78400042D01*
X147438909Y-78400042D02*
X147438909Y-78590518D01*
X147438909Y-78590518D02*
X147391290Y-78685756D01*
X147391290Y-78685756D02*
X147343670Y-78733375D01*
X147343670Y-78733375D02*
X147248432Y-78780994D01*
X147248432Y-78780994D02*
X147010337Y-78780994D01*
X147010337Y-78780994D02*
X146915099Y-78733375D01*
X146915099Y-78733375D02*
X146867480Y-78685756D01*
X146867480Y-78685756D02*
X146819861Y-78590518D01*
X146819861Y-78590518D02*
X146819861Y-78400042D01*
X146819861Y-78400042D02*
X146867480Y-78304804D01*
X146867480Y-78304804D02*
X146915099Y-78257185D01*
X146915099Y-78257185D02*
X147010337Y-78209566D01*
X81585238Y-79712557D02*
X81680476Y-79664938D01*
X81680476Y-79664938D02*
X81775714Y-79569700D01*
X81775714Y-79569700D02*
X81918571Y-79426842D01*
X81918571Y-79426842D02*
X82013809Y-79379223D01*
X82013809Y-79379223D02*
X82109047Y-79379223D01*
X82061428Y-79617319D02*
X82156666Y-79569700D01*
X82156666Y-79569700D02*
X82251904Y-79474461D01*
X82251904Y-79474461D02*
X82299523Y-79283985D01*
X82299523Y-79283985D02*
X82299523Y-78950652D01*
X82299523Y-78950652D02*
X82251904Y-78760176D01*
X82251904Y-78760176D02*
X82156666Y-78664938D01*
X82156666Y-78664938D02*
X82061428Y-78617319D01*
X82061428Y-78617319D02*
X81870952Y-78617319D01*
X81870952Y-78617319D02*
X81775714Y-78664938D01*
X81775714Y-78664938D02*
X81680476Y-78760176D01*
X81680476Y-78760176D02*
X81632857Y-78950652D01*
X81632857Y-78950652D02*
X81632857Y-79283985D01*
X81632857Y-79283985D02*
X81680476Y-79474461D01*
X81680476Y-79474461D02*
X81775714Y-79569700D01*
X81775714Y-79569700D02*
X81870952Y-79617319D01*
X81870952Y-79617319D02*
X82061428Y-79617319D01*
X81299523Y-78617319D02*
X80632857Y-78617319D01*
X80632857Y-78617319D02*
X81061428Y-79617319D01*
X106724047Y-90697320D02*
X107057380Y-90221129D01*
X107295475Y-90697320D02*
X107295475Y-89697320D01*
X107295475Y-89697320D02*
X106914523Y-89697320D01*
X106914523Y-89697320D02*
X106819285Y-89744939D01*
X106819285Y-89744939D02*
X106771666Y-89792558D01*
X106771666Y-89792558D02*
X106724047Y-89887796D01*
X106724047Y-89887796D02*
X106724047Y-90030653D01*
X106724047Y-90030653D02*
X106771666Y-90125891D01*
X106771666Y-90125891D02*
X106819285Y-90173510D01*
X106819285Y-90173510D02*
X106914523Y-90221129D01*
X106914523Y-90221129D02*
X107295475Y-90221129D01*
X105771666Y-90697320D02*
X106343094Y-90697320D01*
X106057380Y-90697320D02*
X106057380Y-89697320D01*
X106057380Y-89697320D02*
X106152618Y-89840177D01*
X106152618Y-89840177D02*
X106247856Y-89935415D01*
X106247856Y-89935415D02*
X106343094Y-89983034D01*
X104819285Y-90697320D02*
X105390713Y-90697320D01*
X105104999Y-90697320D02*
X105104999Y-89697320D01*
X105104999Y-89697320D02*
X105200237Y-89840177D01*
X105200237Y-89840177D02*
X105295475Y-89935415D01*
X105295475Y-89935415D02*
X105390713Y-89983034D01*
X104200237Y-89697320D02*
X104104999Y-89697320D01*
X104104999Y-89697320D02*
X104009761Y-89744939D01*
X104009761Y-89744939D02*
X103962142Y-89792558D01*
X103962142Y-89792558D02*
X103914523Y-89887796D01*
X103914523Y-89887796D02*
X103866904Y-90078272D01*
X103866904Y-90078272D02*
X103866904Y-90316367D01*
X103866904Y-90316367D02*
X103914523Y-90506843D01*
X103914523Y-90506843D02*
X103962142Y-90602081D01*
X103962142Y-90602081D02*
X104009761Y-90649701D01*
X104009761Y-90649701D02*
X104104999Y-90697320D01*
X104104999Y-90697320D02*
X104200237Y-90697320D01*
X104200237Y-90697320D02*
X104295475Y-90649701D01*
X104295475Y-90649701D02*
X104343094Y-90602081D01*
X104343094Y-90602081D02*
X104390713Y-90506843D01*
X104390713Y-90506843D02*
X104438332Y-90316367D01*
X104438332Y-90316367D02*
X104438332Y-90078272D01*
X104438332Y-90078272D02*
X104390713Y-89887796D01*
X104390713Y-89887796D02*
X104343094Y-89792558D01*
X104343094Y-89792558D02*
X104295475Y-89744939D01*
X104295475Y-89744939D02*
X104200237Y-89697320D01*
D11*
%TO.C,DRA1*%
X261695000Y-68665000D02*
X261695000Y-111165000D01*
X261695000Y-111165000D02*
X271695000Y-111165000D01*
X271695000Y-68665000D02*
X261695000Y-68665000D01*
X271695000Y-111165000D02*
X271695000Y-68665000D01*
%TO.C,DRA2*%
X22090000Y-68635000D02*
X22090000Y-111135000D01*
X22090000Y-111135000D02*
X32090000Y-111135000D01*
X32090000Y-68635000D02*
X22090000Y-68635000D01*
X32090000Y-111135000D02*
X32090000Y-68635000D01*
%TO.C,R103*%
X73662258Y-86327500D02*
X73187742Y-86327500D01*
X73662258Y-87372500D02*
X73187742Y-87372500D01*
%TO.C,R113*%
X105367742Y-79390001D02*
X105842258Y-79390001D01*
X105367742Y-80435001D02*
X105842258Y-80435001D01*
%TO.C,R98*%
X138022258Y-88290001D02*
X137547742Y-88290001D01*
X138022258Y-89335001D02*
X137547742Y-89335001D01*
%TO.C,R99*%
X138022258Y-86390001D02*
X137547742Y-86390001D01*
X138022258Y-87435001D02*
X137547742Y-87435001D01*
%TO.C,U29*%
X78682500Y-74740000D02*
X79482500Y-74739999D01*
X78682500Y-77860000D02*
X79482500Y-77860001D01*
X80282500Y-74740000D02*
X79482500Y-74739999D01*
X80282500Y-77860000D02*
X79482500Y-77860001D01*
X80782500Y-74790000D02*
X80542500Y-74460000D01*
X81022500Y-74460000D01*
X80782500Y-74790000D01*
G36*
X80782500Y-74790000D02*
G01*
X80542500Y-74460000D01*
X81022500Y-74460000D01*
X80782500Y-74790000D01*
G37*
%TO.C,Q12*%
X127190000Y-86302501D02*
X127840000Y-86302500D01*
X127190000Y-89422501D02*
X127840000Y-89422502D01*
X128490000Y-86302501D02*
X127840000Y-86302500D01*
X128490000Y-89422501D02*
X127840000Y-89422502D01*
X126917500Y-89702500D02*
X126437500Y-89702501D01*
X126677500Y-89372501D01*
X126917500Y-89702500D01*
G36*
X126917500Y-89702500D02*
G01*
X126437500Y-89702501D01*
X126677500Y-89372501D01*
X126917500Y-89702500D01*
G37*
%TO.C,U6*%
X217345962Y-125420962D02*
X219295962Y-125420963D01*
X217345962Y-130540962D02*
X219295962Y-130540961D01*
X221245962Y-125420962D02*
X219295962Y-125420963D01*
X221245962Y-130540962D02*
X219295962Y-130540961D01*
X216835962Y-130775962D02*
X216355963Y-130775962D01*
X216595962Y-130445962D01*
X216835962Y-130775962D01*
G36*
X216835962Y-130775962D02*
G01*
X216355963Y-130775962D01*
X216595962Y-130445962D01*
X216835962Y-130775962D01*
G37*
%TO.C,D53*%
X129925625Y-88787501D02*
X129925625Y-85027501D01*
X131945625Y-85027501D02*
X129925625Y-85027501D01*
X131945625Y-88787501D02*
X131945625Y-85027501D01*
%TO.C,R81*%
X230197500Y-147882742D02*
X230197500Y-148357258D01*
X231242500Y-147882742D02*
X231242500Y-148357258D01*
%TO.C,Q10*%
X111100000Y-86302501D02*
X111750000Y-86302500D01*
X111100000Y-89422501D02*
X111750000Y-89422502D01*
X112400000Y-86302501D02*
X111750000Y-86302500D01*
X112400000Y-89422501D02*
X111750000Y-89422502D01*
X110827500Y-89702500D02*
X110347500Y-89702501D01*
X110587500Y-89372501D01*
X110827500Y-89702500D01*
G36*
X110827500Y-89702500D02*
G01*
X110347500Y-89702501D01*
X110587500Y-89372501D01*
X110827500Y-89702500D01*
G37*
%TO.C,R83*%
X70447064Y-91240000D02*
X68992936Y-91240000D01*
X70447064Y-93060000D02*
X68992936Y-93060000D01*
%TO.C,R27*%
X209567500Y-148062742D02*
X209567500Y-148537258D01*
X210612500Y-148062742D02*
X210612500Y-148537258D01*
%TO.C,U31*%
X111037500Y-74740000D02*
X111837500Y-74739999D01*
X111037500Y-77860000D02*
X111837500Y-77860001D01*
X112637500Y-74740000D02*
X111837500Y-74739999D01*
X112637500Y-77860000D02*
X111837500Y-77860001D01*
X113137500Y-74790000D02*
X112897500Y-74460000D01*
X113377500Y-74460000D01*
X113137500Y-74790000D01*
G36*
X113137500Y-74790000D02*
G01*
X112897500Y-74460000D01*
X113377500Y-74460000D01*
X113137500Y-74790000D01*
G37*
%TO.C,R82*%
X233187500Y-147882742D02*
X233187500Y-148357258D01*
X234232500Y-147882742D02*
X234232500Y-148357258D01*
%TO.C,R105*%
X73187742Y-79390001D02*
X73662258Y-79390001D01*
X73187742Y-80435001D02*
X73662258Y-80435001D01*
%TO.C,D49*%
X97796875Y-88787501D02*
X97796875Y-85027501D01*
X99816875Y-85027501D02*
X97796875Y-85027501D01*
X99816875Y-88787501D02*
X99816875Y-85027501D01*
%TO.C,R106*%
X89752258Y-88290001D02*
X89277742Y-88290001D01*
X89752258Y-89335001D02*
X89277742Y-89335001D01*
%TO.C,Q11*%
X111100000Y-79302501D02*
X111750000Y-79302500D01*
X111100000Y-82422501D02*
X111750000Y-82422502D01*
X112400000Y-79302501D02*
X111750000Y-79302500D01*
X112400000Y-82422501D02*
X111750000Y-82422502D01*
X110827500Y-82702500D02*
X110347500Y-82702501D01*
X110587500Y-82372501D01*
X110827500Y-82702500D01*
G36*
X110827500Y-82702500D02*
G01*
X110347500Y-82702501D01*
X110587500Y-82372501D01*
X110827500Y-82702500D01*
G37*
%TO.C,U32*%
X127127500Y-74740000D02*
X127927500Y-74739999D01*
X127127500Y-77860000D02*
X127927500Y-77860001D01*
X128727500Y-74740000D02*
X127927500Y-74739999D01*
X128727500Y-77860000D02*
X127927500Y-77860001D01*
X129227500Y-74790000D02*
X128987500Y-74460000D01*
X129467500Y-74460000D01*
X129227500Y-74790000D01*
G36*
X129227500Y-74790000D02*
G01*
X128987500Y-74460000D01*
X129467500Y-74460000D01*
X129227500Y-74790000D01*
G37*
%TO.C,Q9*%
X95010000Y-79302501D02*
X95660000Y-79302500D01*
X95010000Y-82422501D02*
X95660000Y-82422502D01*
X96310000Y-79302501D02*
X95660000Y-79302500D01*
X96310000Y-82422501D02*
X95660000Y-82422502D01*
X94737500Y-82702500D02*
X94257500Y-82702501D01*
X94497500Y-82372501D01*
X94737500Y-82702500D01*
G36*
X94737500Y-82702500D02*
G01*
X94257500Y-82702501D01*
X94497500Y-82372501D01*
X94737500Y-82702500D01*
G37*
%TO.C,D45*%
X145990000Y-88787501D02*
X145990000Y-85027501D01*
X148010000Y-85027501D02*
X145990000Y-85027501D01*
X148010000Y-88787501D02*
X148010000Y-85027501D01*
%TO.C,R116*%
X121457742Y-81290001D02*
X121932258Y-81290001D01*
X121457742Y-82335001D02*
X121932258Y-82335001D01*
%TO.C,R100*%
X137547742Y-81290001D02*
X138022258Y-81290001D01*
X137547742Y-82335001D02*
X138022258Y-82335001D01*
%TO.C,Q8*%
X95010000Y-86302501D02*
X95660000Y-86302500D01*
X95010000Y-89422501D02*
X95660000Y-89422502D01*
X96310000Y-86302501D02*
X95660000Y-86302500D01*
X96310000Y-89422501D02*
X95660000Y-89422502D01*
X94737500Y-89702500D02*
X94257500Y-89702501D01*
X94497500Y-89372501D01*
X94737500Y-89702500D01*
G36*
X94737500Y-89702500D02*
G01*
X94257500Y-89702501D01*
X94497500Y-89372501D01*
X94737500Y-89702500D01*
G37*
%TO.C,R104*%
X73187742Y-81290001D02*
X73662258Y-81290001D01*
X73187742Y-82335001D02*
X73662258Y-82335001D01*
%TO.C,D48*%
X81732499Y-80112500D02*
X81732499Y-83872500D01*
X81732499Y-83872500D02*
X83752499Y-83872500D01*
X83752499Y-80112500D02*
X83752499Y-83872500D01*
%TO.C,R112*%
X105367742Y-81290001D02*
X105842258Y-81290001D01*
X105367742Y-82335001D02*
X105842258Y-82335001D01*
%TO.C,R114*%
X121932258Y-88290001D02*
X121457742Y-88290001D01*
X121932258Y-89335001D02*
X121457742Y-89335001D01*
%TO.C,R115*%
X121932258Y-86390001D02*
X121457742Y-86390001D01*
X121932258Y-87435001D02*
X121457742Y-87435001D01*
%TO.C,F1*%
X165575000Y-139457936D02*
X165575000Y-140662064D01*
X167395000Y-139457936D02*
X167395000Y-140662064D01*
%TO.C,Q4*%
X143280000Y-86302501D02*
X143930000Y-86302500D01*
X143280000Y-89422501D02*
X143930000Y-89422502D01*
X144580000Y-86302501D02*
X143930000Y-86302500D01*
X144580000Y-89422501D02*
X143930000Y-89422502D01*
X143007500Y-89702500D02*
X142527500Y-89702501D01*
X142767500Y-89372501D01*
X143007500Y-89702500D01*
G36*
X143007500Y-89702500D02*
G01*
X142527500Y-89702501D01*
X142767500Y-89372501D01*
X143007500Y-89702500D01*
G37*
%TO.C,Q6*%
X78920000Y-86302501D02*
X79570000Y-86302500D01*
X78920000Y-89422501D02*
X79570000Y-89422502D01*
X80220000Y-86302501D02*
X79570000Y-86302500D01*
X80220000Y-89422501D02*
X79570000Y-89422502D01*
X78647500Y-89702500D02*
X78167500Y-89702501D01*
X78407500Y-89372501D01*
X78647500Y-89702500D01*
G36*
X78647500Y-89702500D02*
G01*
X78167500Y-89702501D01*
X78407500Y-89372501D01*
X78647500Y-89702500D01*
G37*
%TO.C,U33*%
X143217500Y-74740000D02*
X144017500Y-74739999D01*
X143217500Y-77860000D02*
X144017500Y-77860001D01*
X144817500Y-74740000D02*
X144017500Y-74739999D01*
X144817500Y-77860000D02*
X144017500Y-77860001D01*
X145317500Y-74790000D02*
X145077500Y-74460000D01*
X145557500Y-74460000D01*
X145317500Y-74790000D01*
G36*
X145317500Y-74790000D02*
G01*
X145077500Y-74460000D01*
X145557500Y-74460000D01*
X145317500Y-74790000D01*
G37*
%TO.C,R26*%
X206567500Y-148062742D02*
X206567500Y-148537258D01*
X207612500Y-148062742D02*
X207612500Y-148537258D01*
%TO.C,R108*%
X89277742Y-81290001D02*
X89752258Y-81290001D01*
X89277742Y-82335001D02*
X89752258Y-82335001D01*
%TO.C,R107*%
X89752258Y-86390001D02*
X89277742Y-86390001D01*
X89752258Y-87435001D02*
X89277742Y-87435001D01*
%TO.C,D47*%
X81732500Y-88787501D02*
X81732500Y-85027501D01*
X83752500Y-85027501D02*
X81732500Y-85027501D01*
X83752500Y-88787501D02*
X83752500Y-85027501D01*
%TO.C,Q5*%
X143280000Y-79302501D02*
X143930000Y-79302500D01*
X143280000Y-82422501D02*
X143930000Y-82422502D01*
X144580000Y-79302501D02*
X143930000Y-79302500D01*
X144580000Y-82422501D02*
X143930000Y-82422502D01*
X143007500Y-82702500D02*
X142527500Y-82702501D01*
X142767500Y-82372501D01*
X143007500Y-82702500D01*
G36*
X143007500Y-82702500D02*
G01*
X142527500Y-82702501D01*
X142767500Y-82372501D01*
X143007500Y-82702500D01*
G37*
%TO.C,U30*%
X94947500Y-74740000D02*
X95747500Y-74739999D01*
X94947500Y-77860000D02*
X95747500Y-77860001D01*
X96547500Y-74740000D02*
X95747500Y-74739999D01*
X96547500Y-77860000D02*
X95747500Y-77860001D01*
X97047500Y-74790000D02*
X96807500Y-74460000D01*
X97287500Y-74460000D01*
X97047500Y-74790000D01*
G36*
X97047500Y-74790000D02*
G01*
X96807500Y-74460000D01*
X97287500Y-74460000D01*
X97047500Y-74790000D01*
G37*
%TO.C,D52*%
X113861249Y-80112500D02*
X113861249Y-83872500D01*
X113861249Y-83872500D02*
X115881249Y-83872500D01*
X115881249Y-80112500D02*
X115881249Y-83872500D01*
%TO.C,C71*%
X107510000Y-122011252D02*
X107510000Y-120588748D01*
X110230000Y-122011252D02*
X110230000Y-120588748D01*
%TO.C,D50*%
X97796874Y-80112500D02*
X97796874Y-83872500D01*
X97796874Y-83872500D02*
X99816874Y-83872500D01*
X99816874Y-80112500D02*
X99816874Y-83872500D01*
%TO.C,R109*%
X89277742Y-79390001D02*
X89752258Y-79390001D01*
X89277742Y-80435001D02*
X89752258Y-80435001D01*
%TO.C,F3*%
X157265000Y-139457936D02*
X157265000Y-140662064D01*
X159085000Y-139457936D02*
X159085000Y-140662064D01*
%TO.C,R111*%
X105842258Y-86390001D02*
X105367742Y-86390001D01*
X105842258Y-87435001D02*
X105367742Y-87435001D01*
%TO.C,Q13*%
X127190000Y-79302501D02*
X127840000Y-79302500D01*
X127190000Y-82422501D02*
X127840000Y-82422502D01*
X128490000Y-79302501D02*
X127840000Y-79302500D01*
X128490000Y-82422501D02*
X127840000Y-82422502D01*
X126917500Y-82702500D02*
X126437500Y-82702501D01*
X126677500Y-82372501D01*
X126917500Y-82702500D01*
G36*
X126917500Y-82702500D02*
G01*
X126437500Y-82702501D01*
X126677500Y-82372501D01*
X126917500Y-82702500D01*
G37*
%TO.C,R101*%
X137547742Y-79390001D02*
X138022258Y-79390001D01*
X137547742Y-80435001D02*
X138022258Y-80435001D01*
%TO.C,D41*%
X161652501Y-138110000D02*
X161652500Y-138760000D01*
X161652501Y-139410000D02*
X161652500Y-138760000D01*
X164772501Y-138110000D02*
X164772502Y-138760000D01*
X164772501Y-139410000D02*
X164772502Y-138760000D01*
X165052501Y-140162500D02*
X164722501Y-139922500D01*
X165052500Y-139682500D01*
X165052501Y-140162500D01*
G36*
X165052501Y-140162500D02*
G01*
X164722501Y-139922500D01*
X165052500Y-139682500D01*
X165052501Y-140162500D01*
G37*
%TO.C,D54*%
X129925624Y-80112500D02*
X129925624Y-83872500D01*
X129925624Y-83872500D02*
X131945624Y-83872500D01*
X131945624Y-80112500D02*
X131945624Y-83872500D01*
%TO.C,R117*%
X121457742Y-79390001D02*
X121932258Y-79390001D01*
X121457742Y-80435001D02*
X121932258Y-80435001D01*
%TO.C,D51*%
X113861250Y-88787501D02*
X113861250Y-85027501D01*
X115881250Y-85027501D02*
X113861250Y-85027501D01*
X115881250Y-88787501D02*
X115881250Y-85027501D01*
%TO.C,R102*%
X73662258Y-88227500D02*
X73187742Y-88227500D01*
X73662258Y-89272500D02*
X73187742Y-89272500D01*
%TO.C,D46*%
X145990000Y-80112500D02*
X145990000Y-83872500D01*
X145990000Y-83872500D02*
X148010000Y-83872500D01*
X148010000Y-80112500D02*
X148010000Y-83872500D01*
%TO.C,Q7*%
X78920000Y-79302501D02*
X79570000Y-79302500D01*
X78920000Y-82422501D02*
X79570000Y-82422502D01*
X80220000Y-79302501D02*
X79570000Y-79302500D01*
X80220000Y-82422501D02*
X79570000Y-82422502D01*
X78647500Y-82702500D02*
X78167500Y-82702501D01*
X78407500Y-82372501D01*
X78647500Y-82702500D01*
G36*
X78647500Y-82702500D02*
G01*
X78167500Y-82702501D01*
X78407500Y-82372501D01*
X78647500Y-82702500D01*
G37*
%TO.C,R110*%
X105842258Y-88290001D02*
X105367742Y-88290001D01*
X105842258Y-89335001D02*
X105367742Y-89335001D01*
%TD*%
M02*
