M48
; DRILL file {KiCad 8.0.1} date 2024-07-17T10:13:22+0700
; FORMAT={-:-/ absolute / metric / decimal}
; #@! TF.CreationDate,2024-07-17T10:13:22+07:00
; #@! TF.GenerationSoftware,Kicad,Pcbnew,8.0.1
; #@! TF.FileFunction,Plated,1,2,PTH
FMAT,2
METRIC
; #@! TA.AperFunction,Plated,PTH,ViaDrill
T1C0.200
; #@! TA.AperFunction,Plated,PTH,ComponentDrill
T2C0.200
; #@! TA.AperFunction,Plated,PTH,ViaDrill
T3C0.300
; #@! TA.AperFunction,Plated,PTH,ViaDrill
T4C0.400
; #@! TA.AperFunction,Plated,PTH,ComponentDrill
T5C0.500
; #@! TA.AperFunction,Plated,PTH,ViaDrill
T6C0.600
; #@! TA.AperFunction,Plated,PTH,ComponentDrill
T7C0.600
; #@! TA.AperFunction,Plated,PTH,ComponentDrill
T8C0.700
; #@! TA.AperFunction,Plated,PTH,ComponentDrill
T9C0.800
; #@! TA.AperFunction,Plated,PTH,ComponentDrill
T10C0.890
; #@! TA.AperFunction,Plated,PTH,ComponentDrill
T11C0.900
; #@! TA.AperFunction,Plated,PTH,ComponentDrill
T12C0.914
; #@! TA.AperFunction,Plated,PTH,ComponentDrill
T13C0.950
; #@! TA.AperFunction,Plated,PTH,ComponentDrill
T14C1.000
; #@! TA.AperFunction,Plated,PTH,ComponentDrill
T15C1.020
; #@! TA.AperFunction,Plated,PTH,ComponentDrill
T16C1.100
; #@! TA.AperFunction,Plated,PTH,ComponentDrill
T17C1.200
; #@! TA.AperFunction,Plated,PTH,ComponentDrill
T18C1.300
; #@! TA.AperFunction,Plated,PTH,ComponentDrill
T19C1.500
; #@! TA.AperFunction,Plated,PTH,ComponentDrill
T20C1.550
; #@! TA.AperFunction,Plated,PTH,ComponentDrill
T21C1.630
; #@! TA.AperFunction,Plated,PTH,ComponentDrill
T22C2.200
; #@! TA.AperFunction,Plated,PTH,ComponentDrill
T23C3.200
%
G90
G05
T1
X61.25Y-99.85
X90.5Y-95.0
X91.5Y-95.0
X92.5Y-95.0
X93.5Y-95.0
X94.5Y-95.0
X95.5Y-95.0
X96.5Y-95.0
X97.5Y-95.0
X98.5Y-95.0
X99.5Y-95.0
X100.5Y-95.0
X101.5Y-95.0
X102.5Y-95.0
X103.5Y-95.0
X104.5Y-95.0
X105.5Y-95.0
X106.5Y-95.0
X107.5Y-95.0
X108.5Y-95.0
X109.5Y-95.0
X110.5Y-95.0
X111.5Y-95.0
X112.5Y-95.0
X113.5Y-95.0
X114.5Y-95.0
X115.5Y-95.0
X178.0Y-137.05
X178.0Y-138.05
X183.75Y-138.725
X193.45Y-126.025
X193.45Y-127.275
X193.45Y-128.525
X193.45Y-129.775
X220.35Y-89.325
X220.95Y-88.65
X230.75Y-99.8
T2
X230.775Y-131.6
X230.775Y-132.3
X230.775Y-133.0
X230.775Y-133.7
X231.475Y-132.3
X231.475Y-133.0
X231.475Y-131.6
X231.475Y-133.7
X232.175Y-131.6
X232.175Y-133.7
X232.175Y-132.3
X232.175Y-133.0
X232.875Y-131.6
X232.875Y-132.3
X232.875Y-133.0
X232.875Y-133.7
X247.367Y-111.328
X247.367Y-112.328
X247.367Y-113.328
X248.367Y-111.328
X248.367Y-112.328
X248.367Y-113.328
X249.367Y-111.328
X249.367Y-112.328
X249.367Y-113.328
X249.765Y-80.465
X249.765Y-81.865
X250.465Y-79.765
X250.465Y-81.165
X250.465Y-82.565
X251.165Y-80.465
X251.165Y-81.865
X251.865Y-79.765
X251.865Y-81.165
X251.865Y-82.565
X252.565Y-80.465
X252.565Y-81.865
T3
X76.675Y-75.35
X93.05Y-75.35
X95.26Y-99.49
X96.32Y-99.56
X105.67Y-137.73
X107.97Y-127.44
X109.4Y-75.35
X112.55Y-140.976
X113.8Y-130.87
X113.8Y-131.87
X113.8Y-132.87
X113.8Y-133.87
X113.8Y-134.87
X114.8Y-130.87
X114.8Y-131.87
X114.8Y-132.87
X114.8Y-133.87
X114.8Y-134.87
X115.8Y-130.87
X115.8Y-131.87
X115.8Y-132.87
X115.8Y-133.87
X115.8Y-134.87
X116.8Y-130.87
X116.8Y-131.87
X116.8Y-132.87
X116.8Y-133.87
X116.8Y-134.87
X117.8Y-130.87
X117.8Y-131.87
X117.8Y-131.87
X117.8Y-132.87
X117.8Y-132.87
X117.8Y-133.87
X117.8Y-133.87
X117.8Y-134.87
X117.8Y-134.87
X118.8Y-130.87
X118.8Y-131.87
X118.8Y-132.87
X118.8Y-133.87
X118.8Y-134.87
X119.8Y-130.87
X119.8Y-131.87
X119.8Y-132.87
X119.8Y-133.87
X119.8Y-134.87
X119.8Y-135.87
X119.8Y-136.87
X119.8Y-137.87
X119.8Y-138.87
X120.72Y-117.69
X120.77Y-123.39
X120.77Y-124.39
X120.77Y-125.39
X120.77Y-126.39
X120.77Y-127.39
X120.8Y-134.87
X120.8Y-135.87
X120.8Y-136.87
X120.8Y-137.87
X120.8Y-138.87
X121.99Y-117.69
X122.06Y-133.64
X122.11Y-132.89
X122.74Y-132.55
X123.12Y-127.9
X123.12Y-128.9
X123.26Y-117.69
X123.74Y-132.55
X124.12Y-127.9
X124.12Y-128.9
X124.53Y-117.69
X124.74Y-132.55
X125.12Y-127.9
X125.12Y-128.9
X125.37Y-135.2
X125.55Y-75.35
X126.16Y-128.06
X126.17Y-130.16
X126.17Y-131.16
X126.17Y-132.16
X126.17Y-133.16
X126.17Y-134.16
X127.16Y-128.06
X127.17Y-130.16
X127.17Y-131.16
X127.17Y-132.16
X127.17Y-133.16
X127.17Y-134.16
X127.17Y-135.16
X128.16Y-128.06
X128.17Y-130.16
X128.17Y-131.16
X128.17Y-132.16
X128.17Y-133.16
X128.17Y-134.16
X128.17Y-135.16
X129.16Y-128.06
X130.16Y-128.06
X130.66Y-137.38
X130.66Y-138.38
X130.66Y-139.38
X130.66Y-140.38
X130.66Y-141.38
X131.16Y-128.06
X131.66Y-137.38
X131.66Y-138.38
X131.66Y-139.38
X131.66Y-140.38
X131.66Y-141.38
X132.16Y-128.06
X132.66Y-137.38
X132.66Y-138.38
X132.66Y-139.38
X132.66Y-140.38
X132.66Y-141.38
X133.16Y-128.06
X133.66Y-137.38
X133.66Y-138.38
X133.66Y-139.38
X133.66Y-140.38
X133.66Y-141.38
X134.16Y-128.06
X134.66Y-137.38
X134.66Y-138.38
X134.66Y-139.38
X134.66Y-140.38
X134.66Y-141.38
X135.16Y-128.06
X136.115Y-131.43
X136.115Y-132.43
X136.115Y-133.43
X136.115Y-134.43
X136.16Y-128.06
X137.115Y-131.43
X137.115Y-132.43
X137.115Y-133.43
X137.115Y-134.43
X138.115Y-131.43
X138.115Y-132.43
X138.115Y-133.43
X138.115Y-134.43
X138.115Y-135.65
X138.115Y-136.65
X138.115Y-137.65
X138.115Y-138.65
X138.115Y-139.65
X138.115Y-140.65
X139.115Y-131.43
X139.115Y-132.43
X139.115Y-133.43
X139.115Y-134.43
X139.115Y-135.65
X139.115Y-136.65
X139.115Y-137.65
X139.115Y-138.65
X139.115Y-139.65
X139.115Y-140.65
X140.115Y-131.43
X140.115Y-132.43
X140.115Y-133.43
X140.115Y-134.43
X140.115Y-135.65
X140.115Y-136.65
X140.115Y-137.65
X140.115Y-138.65
X140.115Y-139.65
X140.115Y-140.65
X141.115Y-131.43
X141.115Y-132.43
X141.115Y-133.43
X141.115Y-134.43
X141.115Y-135.65
X141.115Y-136.65
X141.115Y-137.65
X141.115Y-138.65
X141.115Y-139.65
X141.115Y-140.65
X141.275Y-75.35
X142.115Y-131.43
X142.115Y-132.43
X142.115Y-133.43
X142.115Y-134.43
X142.115Y-135.65
X142.115Y-136.65
X142.115Y-137.65
X142.115Y-138.65
X142.115Y-139.65
X142.115Y-140.65
X143.115Y-131.43
X143.115Y-132.43
X143.115Y-133.43
X143.115Y-134.43
X143.115Y-135.65
X143.115Y-136.65
X143.115Y-137.65
X143.115Y-138.65
X143.115Y-139.65
X143.115Y-140.65
X144.115Y-131.43
X144.115Y-132.43
X144.115Y-133.43
X144.115Y-134.43
X144.115Y-135.65
X144.115Y-136.65
X144.115Y-137.65
X144.115Y-138.65
X144.115Y-139.65
X144.115Y-140.65
X145.115Y-131.43
X145.115Y-132.43
X145.115Y-133.43
X145.115Y-134.43
X145.115Y-135.65
X145.115Y-136.65
X145.115Y-137.65
X145.115Y-138.65
X145.115Y-139.65
X145.115Y-140.65
X152.08Y-99.97
X161.4Y-129.721
X161.94Y-76.14
X165.2Y-129.746
X175.12Y-133.87
X179.25Y-131.245
X179.25Y-131.945
X179.25Y-132.645
X179.95Y-131.245
X179.95Y-131.945
X179.95Y-132.645
X180.0Y-146.11
X180.65Y-131.245
X180.65Y-131.945
X180.65Y-132.645
X181.6Y-148.55
X182.5Y-136.2
X182.5Y-138.5
X183.38Y-146.11
X184.862Y-148.55
X186.54Y-145.97
X188.125Y-148.55
X189.73Y-145.96
X193.175Y-124.75
X195.025Y-141.825
X195.81Y-141.82
X198.475Y-124.725
X198.475Y-125.725
X199.475Y-124.725
X199.475Y-125.725
X206.195Y-141.905
X206.625Y-84.95
X206.625Y-85.775
X207.065Y-142.55
X207.424Y-135.7
X207.525Y-84.925
X207.575Y-85.775
X208.387Y-125.887
X209.324Y-135.7
X210.09Y-142.55
X210.82Y-96.115
X210.82Y-96.815
X210.82Y-97.515
X210.82Y-98.215
X210.82Y-98.915
X210.82Y-99.615
X210.82Y-100.315
X210.82Y-101.015
X210.82Y-101.715
X210.82Y-102.415
X210.82Y-103.115
X210.82Y-103.815
X210.82Y-104.515
X210.82Y-105.215
X211.025Y-84.525
X211.52Y-96.115
X211.52Y-105.215
X211.752Y-84.525
X212.22Y-96.115
X212.22Y-105.215
X212.46Y-141.6
X212.48Y-84.525
X212.5Y-117.28
X212.92Y-96.115
X212.92Y-105.215
X213.207Y-84.525
X213.6Y-105.215
X213.62Y-96.115
X213.66Y-72.95
X213.934Y-84.525
X214.3Y-105.215
X214.32Y-96.115
X214.65Y-108.94
X215.0Y-103.115
X215.0Y-103.815
X215.0Y-104.515
X215.0Y-105.215
X215.02Y-96.115
X215.7Y-103.115
X215.72Y-96.115
X216.4Y-103.115
X216.42Y-96.115
X216.42Y-96.815
X216.42Y-97.515
X216.42Y-98.215
X216.42Y-98.915
X217.1Y-103.115
X217.12Y-98.915
X217.776Y-103.15
X217.82Y-98.915
X217.825Y-110.625
X217.93Y-108.1
X218.459Y-119.123
X218.52Y-98.915
X218.575Y-117.532
X218.575Y-118.332
X218.575Y-119.914
X218.725Y-110.625
X219.22Y-98.915
X219.37Y-96.485
X219.65Y-110.6
X220.225Y-129.225
X220.29Y-96.485
X220.525Y-110.6
X222.92Y-105.3
X223.384Y-128.616
X223.414Y-109.076
X223.425Y-127.325
X223.6Y-129.875
X223.725Y-105.876
X224.15Y-140.35
X224.525Y-105.85
X224.815Y-93.44
X225.06Y-100.401
X226.1Y-131.759
X226.25Y-100.425
X226.8Y-92.95
X227.015Y-92.012
X227.51Y-91.517
X227.562Y-92.95
X227.7Y-111.1
X228.075Y-102.0
X228.15Y-82.9
X228.325Y-92.95
X228.375Y-132.125
X228.7Y-126.788
X228.775Y-102.0
X228.9Y-105.65
X229.087Y-92.95
X229.3Y-111.1
X229.4Y-82.9
X229.479Y-102.0
X229.8Y-105.2
X229.85Y-92.95
X229.9Y-138.87
X230.15Y-102.0
X230.65Y-82.9
X230.72Y-143.12
X230.9Y-111.1
X231.9Y-82.9
X231.99Y-126.788
X232.05Y-137.975
X232.05Y-140.54
X232.5Y-111.1
X232.65Y-92.225
X233.15Y-82.9
X233.175Y-91.65
X233.73Y-143.12
X234.05Y-108.12
X234.75Y-127.225
X234.95Y-136.65
X235.18Y-76.92
X235.69Y-97.49
X236.325Y-76.92
X236.85Y-125.75
X236.9Y-78.23
X236.95Y-100.695
X237.725Y-130.2
X237.805Y-100.695
X238.255Y-76.15
X238.661Y-100.695
X239.305Y-76.14
X239.516Y-100.695
X240.11Y-78.22
X240.372Y-100.695
X240.381Y-101.923
X241.1Y-113.182
X241.425Y-130.2
X241.8Y-113.205
X242.24Y-75.05
X242.27Y-70.73
X242.325Y-114.54
X242.405Y-88.939
X242.89Y-88.23
X242.91Y-93.31
X243.15Y-128.0
X243.26Y-110.53
X243.64Y-88.23
X244.73Y-75.75
X244.87Y-126.34
X244.92Y-103.44
X245.225Y-117.275
X245.275Y-118.2
X245.74Y-126.826
X245.96Y-95.47
X246.016Y-75.744
X246.175Y-119.0
X246.2Y-103.45
X246.7Y-126.826
X247.3Y-75.75
X247.46Y-104.405
X248.04Y-50.63
X248.04Y-51.63
X248.04Y-52.63
X248.29Y-102.59
X248.37Y-126.26
X248.725Y-97.6
X248.725Y-98.6
X248.98Y-102.38
X249.04Y-50.63
X249.04Y-51.63
X249.04Y-52.63
X249.24Y-106.8
X249.725Y-97.6
X249.725Y-98.6
X249.84Y-93.51
X250.04Y-50.63
X250.04Y-51.63
X250.04Y-52.63
X250.06Y-126.826
X250.51Y-105.89
X250.527Y-119.023
X250.925Y-109.525
X250.98Y-126.826
X251.04Y-50.63
X251.04Y-51.63
X251.04Y-52.63
X251.375Y-118.175
X251.85Y-106.24
X251.86Y-126.23
X252.04Y-50.63
X252.04Y-51.63
X252.04Y-52.63
X252.38Y-93.51
X252.679Y-106.079
X252.91Y-67.3
X253.04Y-50.63
X253.04Y-51.63
X253.04Y-52.63
X253.525Y-127.975
X254.35Y-115.025
X254.965Y-104.05
X255.775Y-105.175
X256.15Y-106.8
X256.19Y-93.51
X256.2Y-72.0
X256.525Y-128.825
X256.55Y-101.25
X256.575Y-130.475
X257.2Y-107.8
X257.2Y-109.3
X257.46Y-93.51
X257.69Y-131.35
X257.7Y-100.9
X257.7Y-127.825
X258.85Y-133.375
X258.875Y-128.825
X258.925Y-130.475
X260.15Y-68.025
T4
X51.15Y-95.56
X72.31Y-91.01
X72.55Y-92.14
X81.05Y-90.865
X98.59Y-93.34
X108.03Y-133.642
X108.03Y-134.642
X108.03Y-135.642
X108.03Y-136.642
X108.03Y-137.642
X108.03Y-138.642
X109.03Y-133.642
X109.03Y-134.642
X109.03Y-135.642
X109.03Y-136.642
X109.03Y-137.642
X109.03Y-138.642
X110.03Y-133.642
X110.03Y-134.642
X110.03Y-135.642
X110.03Y-136.642
X110.03Y-137.642
X110.03Y-138.642
X119.675Y-83.225
X119.725Y-85.675
X120.675Y-103.825
X120.68Y-101.895
X123.775Y-79.85
X123.8Y-82.9
X125.325Y-124.25
X127.9Y-140.21
X141.84Y-124.34
X147.21Y-103.775
X147.24Y-101.405
X151.41Y-115.375
X154.67Y-88.63
X155.99Y-93.14
X156.8Y-87.795
X157.19Y-105.335
X157.36Y-114.075
X157.98Y-92.78
X158.1Y-89.75
X158.58Y-96.57
X158.69Y-77.33
X159.44Y-87.86
X160.51Y-87.87
X162.09Y-87.9
X162.23Y-141.18
X164.26Y-141.18
X173.97Y-136.615
X178.065Y-135.76
X185.125Y-144.4
X185.49Y-126.735
X186.45Y-125.785
X187.44Y-126.745
X193.93Y-144.335
X194.91Y-143.395
X199.05Y-145.985
X205.72Y-113.765
X205.93Y-96.495
X206.14Y-105.095
X206.63Y-88.105
X206.7Y-79.165
X209.59Y-65.6
X210.95Y-106.3
X211.966Y-127.26
X211.966Y-128.26
X213.94Y-96.815
X214.91Y-97.795
X215.11Y-99.665
X218.8Y-140.75
X220.05Y-140.8
X221.03Y-138.465
X221.42Y-137.535
X222.79Y-98.42
X223.34Y-137.515
X223.8Y-138.485
X225.55Y-84.32
X226.9Y-99.1
X227.54Y-64.23
X227.7Y-98.2
X227.92Y-87.05
X229.06Y-137.37
X229.58Y-142.87
X234.38Y-142.46
X234.97Y-137.57
X235.55Y-64.825
X235.6Y-109.8
X236.125Y-70.6
X237.2Y-90.96
X237.3Y-96.5
X238.77Y-66.985
X241.13Y-61.155
X241.35Y-151.0
X242.73Y-97.37
X243.65Y-106.15
X243.978Y-95.003
X245.14Y-67.01
X245.415Y-96.465
X250.305Y-46.5
X256.15Y-46.5
X256.21Y-50.63
X257.46Y-75.61
X258.9Y-151.325
T5
X18.48Y-21.21
X18.48Y-152.86
X19.183Y-19.513
X19.183Y-22.907
X19.183Y-151.163
X19.183Y-154.557
X20.88Y-18.81
X20.88Y-23.61
X20.88Y-150.46
X20.88Y-155.26
X22.577Y-19.513
X22.577Y-22.907
X22.577Y-151.163
X22.577Y-154.557
X23.28Y-21.21
X23.28Y-152.86
X270.13Y-21.21
X270.13Y-152.86
X270.833Y-19.513
X270.833Y-22.907
X270.833Y-151.163
X270.833Y-154.557
X272.53Y-18.81
X272.53Y-23.61
X272.53Y-150.46
X272.53Y-155.26
X274.227Y-19.513
X274.227Y-22.907
X274.227Y-151.163
X274.227Y-154.557
X274.93Y-21.21
X274.93Y-152.86
T6
X208.37Y-74.51
X233.15Y-77.3
T8
X34.39Y-74.07
X34.39Y-76.61
X34.39Y-82.755
X34.39Y-85.295
X44.224Y-97.665
X44.224Y-100.205
X47.024Y-97.665
X47.024Y-100.205
X48.824Y-74.17
X48.824Y-76.71
X48.824Y-82.855
X48.824Y-85.395
X49.924Y-97.765
X49.924Y-100.305
X52.524Y-97.665
X52.524Y-100.205
X55.524Y-97.765
X55.524Y-100.305
X63.69Y-73.265
X63.69Y-75.805
X66.29Y-73.265
X66.29Y-75.805
T9
X37.47Y-70.93
X37.47Y-73.47
X37.47Y-76.01
X37.816Y-83.125
X37.816Y-85.665
X37.816Y-88.205
X45.09Y-70.93
X45.09Y-73.47
X45.09Y-76.01
X45.435Y-83.125
X45.435Y-85.665
X45.435Y-88.205
X52.204Y-71.03
X52.204Y-73.57
X52.204Y-76.11
X52.55Y-83.225
X52.55Y-85.765
X52.55Y-88.305
X59.824Y-71.03
X59.824Y-73.57
X59.824Y-76.11
X60.17Y-83.225
X60.17Y-85.765
X60.17Y-88.305
X114.72Y-125.715
X114.72Y-129.515
T10
X245.765Y-135.925
X247.035Y-133.385
X248.305Y-135.925
X249.575Y-133.385
X250.845Y-135.925
X252.115Y-133.385
X253.385Y-135.925
X254.655Y-133.385
T11
X40.124Y-97.72
X40.124Y-100.26
T12
X126.69Y-99.315
X126.69Y-106.515
X143.19Y-99.315
X143.19Y-106.515
T13
X94.07Y-145.917
X96.57Y-145.917
X99.07Y-145.917
X101.57Y-145.917
X118.63Y-145.917
X121.13Y-145.917
X127.24Y-145.917
X129.74Y-145.917
X132.24Y-145.917
X134.74Y-145.917
X213.91Y-112.63
X213.91Y-115.13
X247.955Y-61.53
X250.455Y-61.53
T14
X147.37Y-124.36
X150.29Y-135.29
X150.29Y-139.94
X156.79Y-144.5
X158.175Y-147.34
X159.56Y-144.5
X160.025Y-120.65
X160.945Y-147.34
X162.33Y-144.5
X163.715Y-147.34
X165.1Y-144.5
X166.485Y-147.34
X167.87Y-144.5
X179.265Y-77.92
X179.265Y-80.42
X179.265Y-86.626
X179.265Y-89.126
X179.265Y-95.332
X179.265Y-97.832
X179.265Y-104.039
X179.265Y-106.539
X179.265Y-112.745
X179.265Y-115.245
X188.815Y-77.92
X188.815Y-80.42
X188.865Y-86.626
X188.865Y-89.126
X189.06Y-95.332
X189.06Y-97.832
X189.12Y-104.039
X189.12Y-106.539
X189.135Y-112.745
X189.135Y-115.245
X198.889Y-37.0
X203.889Y-37.0
X208.889Y-37.0
X213.889Y-37.0
X218.889Y-37.0
T15
X243.59Y-147.175
X246.13Y-147.175
X254.3Y-147.175
X256.84Y-147.175
T16
X38.75Y-64.1
X41.29Y-64.1
X43.83Y-64.1
X53.484Y-64.1
X56.024Y-64.1
X58.564Y-64.1
T17
X33.651Y-116.336
X33.651Y-121.416
X38.651Y-116.336
X38.651Y-121.416
X84.97Y-80.95
X84.97Y-84.45
X84.97Y-87.95
X101.008Y-118.864
X101.008Y-123.944
X101.06Y-80.95
X101.06Y-84.45
X101.06Y-87.95
X106.008Y-118.864
X106.008Y-123.944
X117.15Y-80.95
X117.15Y-84.45
X117.15Y-87.95
X133.24Y-80.95
X133.24Y-84.45
X133.24Y-87.95
X149.33Y-80.95
X149.33Y-84.45
X149.33Y-87.95
T18
X29.76Y-123.51
X29.76Y-146.01
T19
X38.95Y-150.4
X43.95Y-150.4
X59.43Y-145.81
X64.43Y-145.81
X71.265Y-145.81
X76.265Y-145.81
X83.1Y-145.81
X88.1Y-145.81
X193.889Y-28.903
X198.889Y-28.903
X203.889Y-28.903
X208.889Y-28.903
X213.889Y-28.903
X218.889Y-28.903
T20
X41.29Y-57.715
X56.024Y-57.715
T21
X242.47Y-139.225
X257.96Y-139.225
T22
X39.415Y-32.535
X48.915Y-32.535
X58.415Y-32.535
X67.915Y-32.535
X77.863Y-32.535
X87.363Y-32.535
X96.863Y-32.535
X106.363Y-32.535
X116.312Y-32.535
X125.812Y-32.535
X135.312Y-32.535
X144.812Y-32.535
X154.76Y-32.535
X164.26Y-32.535
X173.76Y-32.535
X183.26Y-32.535
T23
X20.88Y-21.21
X20.88Y-152.86
X149.83Y-144.8
X174.83Y-144.8
X272.53Y-21.21
X272.53Y-152.86
T7
G00X204.02Y-144.405
M15
G01X204.02Y-145.505
M16
G05
G00X204.02Y-148.755
M15
G01X204.02Y-149.555
M16
G05
G00X212.66Y-144.405
M15
G01X212.66Y-145.505
M16
G05
G00X212.66Y-148.755
M15
G01X212.66Y-149.555
M16
G05
G00X227.66Y-144.405
M15
G01X227.66Y-145.505
M16
G05
G00X227.66Y-148.755
M15
G01X227.66Y-149.555
M16
G05
G00X236.3Y-144.405
M15
G01X236.3Y-145.505
M16
G05
G00X236.3Y-148.755
M15
G01X236.3Y-149.555
M16
G05
T17
G00X73.55Y-42.939
M15
G01X70.45Y-42.939
M16
G05
G00X73.55Y-53.939
M15
G01X70.45Y-53.939
M16
G05
G00X76.42Y-60.95
M15
G01X74.42Y-60.95
M16
G05
G00X84.02Y-63.65
M15
G01X82.02Y-63.65
M16
G05
G00X93.05Y-42.939
M15
G01X89.95Y-42.939
M16
G05
G00X93.05Y-53.939
M15
G01X89.95Y-53.939
M16
G05
G00X92.51Y-60.95
M15
G01X90.51Y-60.95
M16
G05
G00X100.11Y-63.65
M15
G01X98.11Y-63.65
M16
G05
G00X108.6Y-60.95
M15
G01X106.6Y-60.95
M16
G05
G00X112.55Y-42.939
M15
G01X109.45Y-42.939
M16
G05
G00X112.55Y-53.939
M15
G01X109.45Y-53.939
M16
G05
G00X116.2Y-63.65
M15
G01X114.2Y-63.65
M16
G05
G00X124.69Y-60.95
M15
G01X122.69Y-60.95
M16
G05
G00X132.05Y-42.939
M15
G01X128.95Y-42.939
M16
G05
G00X132.05Y-53.939
M15
G01X128.95Y-53.939
M16
G05
G00X132.29Y-63.65
M15
G01X130.29Y-63.65
M16
G05
G00X140.78Y-60.95
M15
G01X138.78Y-60.95
M16
G05
G00X148.38Y-63.65
M15
G01X146.38Y-63.65
M16
G05
G00X151.55Y-42.939
M15
G01X148.45Y-42.939
M16
G05
G00X151.55Y-53.939
M15
G01X148.45Y-53.939
M16
G05
M30
